<svg xmlns="http://www.w3.org/2000/svg" width="347" height="449.292" viewBox="0 0 347 449.292">
  <g id="グループ_1486" data-name="グループ 1486" transform="translate(-14 -1339.195)">
    <g id="長方形_1205" data-name="長方形 1205" transform="translate(14 1339.195)" fill="#fcfcfc" stroke="#efefef" stroke-width="6" stroke-dasharray="13">
      <rect width="347" height="449.292" stroke="none"/>
      <rect x="3" y="3" width="341" height="443.292" fill="none"/>
    </g>
    <g id="グループ_1389" data-name="グループ 1389" transform="translate(48.007 1364.068)">
      <g id="グループ_65" data-name="グループ 65" transform="translate(6 0)">
        <text id="_30代" data-name="30代" transform="translate(78.308 39.667)" fill="#333" font-size="24" font-family="SourceHanSansJP-Bold, Source Han Sans JP" font-weight="700"><tspan x="0" y="0">30代</tspan></text>
        <text id="男性" transform="translate(151.803 39.374)" fill="#333" font-size="24" font-family="SourceHanSansJP-Bold, Source Han Sans JP" font-weight="700"><tspan x="0" y="0">男性</tspan></text>
        <text id="借入総額" transform="translate(78.308 80.386)" fill="#333" font-size="24" font-family="SourceHanSansJP-Bold, Source Han Sans JP" font-weight="700"><tspan x="0" y="0">借入総額</tspan></text>
        <text id="_300万円" data-name="300万円" transform="translate(188.992 80.932)" fill="#333" font-size="24" font-family="SourceHanSansJP-Bold, Source Han Sans JP" font-weight="700"><tspan x="0" y="0">300万円</tspan></text>
      </g>
      <g id="グループ_1390" data-name="グループ 1390" transform="translate(-8)">
        <g id="グループ_63" data-name="グループ 63" transform="translate(2)" opacity="0.83">
          <g id="グループ_58" data-name="グループ 58" transform="translate(7.066 0)">
            <path id="パス_104" data-name="パス 104" d="M115.485,171.652c-2.082-6.071-8.059-26.539,5.837-28.7,3.409-9.334,16.346-6.393,23.8-3.581a82.636,82.636,0,0,1,10.586,5.206,6.822,6.822,0,0,1,3.194,6.134c-.273,5.23-.958,14.5-2.568,20.938Z" transform="translate(-111.098 -136.606)" fill="#333"/>
            <path id="パス_105" data-name="パス 105" d="M137.063,234.812c-.249-2.549-.517-5.406,1.188-7.2,1.4-1.478,4.206-1.465,7.758-5.016,2.035-2.036,2.635-4.314,3.826-9.5,2.837-.188,6.229-2.229,6.395-5.467s-1.988-6.247-6.927-5.818c.86-6.548.076-15.866-1.067-18.364H115.424c-1.143,2.5-1.927,11.816-1.067,18.364-4.939-.429-7.092,2.58-6.927,5.818s3.557,5.279,6.395,5.467c1.191,5.189,1.791,7.467,3.826,9.5,3.551,3.552,6.355,3.539,7.758,5.016,1.7,1.8,1.436,4.653,1.188,7.2Z" transform="translate(-107.421 -171.106)" fill="#fcfcfc" stroke="#333" stroke-linecap="round" stroke-linejoin="round" stroke-width="3"/>
            <path id="パス_106" data-name="パス 106" d="M127.975,185.285a17.514,17.514,0,0,1,6.031-14.142c5.991,1.719,11.223,3.035,17.655,3.035a24.671,24.671,0,0,1-2.624-4.13,38.9,38.9,0,0,0,9.695,1.351c2.059,2.644,3.593,8.507,3.593,14.064,2.449-1.075,3-10.113,3-12.5,0-11.446-15.8-13.427-29.844-10.584-5.735,1.16-8.779,4.917-9.751,10.618C125.058,176.934,125.536,181.9,127.975,185.285Z" transform="translate(-120.704 -154.736)" fill="#333" stroke="#333" stroke-linecap="round" stroke-linejoin="round" stroke-width="3"/>
          </g>
          <g id="グループ_60" data-name="グループ 60" transform="translate(0 58.342)">
            <path id="パス_111" data-name="パス 111" d="M80.595,411.284c0-6.46,2.307-18.245,3.3-25.653a5.813,5.813,0,0,1,3.277-4.422l15.15-7.391h19.5l15.15,7.391a5.813,5.813,0,0,1,3.277,4.422c.99,7.409,3.3,19.194,3.3,25.653" transform="translate(-80.595 -369.683)" fill="#fcfcfc" stroke="#333" stroke-linejoin="round" stroke-width="3"/>
            <g id="グループ_59" data-name="グループ 59" transform="translate(26.323 6.285)">
              <path id="パス_112" data-name="パス 112" d="M190.712,416.18c.9-8.25-3.274-25.256-3.274-25.256.066-.147,2.231-6.7,2.228-8.946H181.71c0,2.243,2.162,8.8,2.228,8.946,0,0-4.176,17.006-3.274,25.256C180.665,416.21,190.712,416.21,190.712,416.18Z" transform="translate(-180.537 -381.979)" fill="#fcfcfc" stroke="#333" stroke-miterlimit="10" stroke-width="3"/>
              <line id="線_14" data-name="線 14" x2="3.513" transform="translate(3.396 8.953)" fill="none" stroke="#333" stroke-miterlimit="10" stroke-width="3"/>
            </g>
            <path id="パス_113" data-name="パス 113" d="M80.595,411.284c0-6.46,2.307-18.245,3.3-25.653a5.813,5.813,0,0,1,3.277-4.422l15.15-7.391c2.8,10.23,5.012,23.159,9.752,32.7,4.74-9.545,6.951-22.475,9.752-32.7l15.15,7.391a5.813,5.813,0,0,1,3.277,4.422c.99,7.409,3.3,19.194,3.3,25.653" transform="translate(-80.595 -369.683)" fill="#333" stroke="#333" stroke-linejoin="round" stroke-width="3"/>
            <path id="パス_114" data-name="パス 114" d="M178.661,369.479c-1.061-1.154-2.429-2-3.882-3.637-1.455,1.633-2.648,2.484-3.709,3.637-1.173-.74-5.6-6.466-5.2-7.593a16.542,16.542,0,0,1,1.756-3.769c1.565.471,5.2,2.982,7.238,4.43h0c2.035-1.449,5.67-3.959,7.238-4.43a16.539,16.539,0,0,1,1.756,3.769C184.264,363.013,179.834,368.739,178.661,369.479Z" transform="translate(-143.392 -358.117)" fill="#fcfcfc" stroke="#333" stroke-linecap="round" stroke-linejoin="round" stroke-width="3"/>
          </g>
        </g>
        <path id="パス_876" data-name="パス 876" d="M199.891,271.92a11.345,11.345,0,0,0-.224,2.142,4.387,4.387,0,0,0,.168,1.559" transform="translate(-166.889 -236.28)" fill="none" stroke="#524e4f" stroke-linecap="round" stroke-linejoin="round" stroke-width="2"/>
      </g>
    </g>
    <g id="グループ_1405" data-name="グループ 1405" transform="translate(-20784.797 6394.748)">
      <g id="グループ_1381" data-name="グループ 1381" transform="translate(20819.65 -4907.337)">
        <rect id="長方形_55" data-name="長方形 55" width="146.406" height="3.711" transform="translate(0 26.377)" fill="#333"/>
        <text id="リボ払い" transform="translate(65.49 15)" fill="#333" font-size="12" font-family="SourceHanSansJP-Bold, Source Han Sans JP" font-weight="700"><tspan x="0" y="0">リボ</tspan><tspan y="0">払</tspan><tspan y="0">い</tspan></text>
        <g id="長方形_58" data-name="長方形 58" transform="translate(0 26.288)" fill="none" stroke="#333" stroke-width="1">
          <rect width="146.406" height="92.148" stroke="none"/>
          <rect x="0.5" y="0.5" width="145.406" height="91.148" fill="none"/>
        </g>
      </g>
      <rect id="長方形_1211" data-name="長方形 1211" width="145.793" height="3.711" transform="translate(20980.965 -4880.96)" fill="#333"/>
      <g id="グループ_1383" data-name="グループ 1383" transform="translate(20840.102 -4871.554)">
        <text id="借入額" transform="translate(6.192 14.332)" fill="#333" font-size="10" font-family="SourceHanSansJP-Medium, Source Han Sans JP" font-weight="500"><tspan x="0" y="0">借入額</tspan></text>
        <text id="_150_万円" data-name="150 万円" transform="translate(57.221 14)" fill="#333" font-size="12" font-family="SourceHanSansJP-Bold, Source Han Sans JP" font-weight="700"><tspan x="0" y="0">150 </tspan><tspan y="0" font-size="10">万円</tspan></text>
        <text id="金利" transform="translate(18.191 31.909)" fill="#333" font-size="10" font-family="SourceHanSansJP-Medium, Source Han Sans JP" font-weight="500"><tspan x="0" y="0">金利</tspan></text>
        <text id="返済金額" transform="translate(-1.809 52.671)" fill="#333" font-size="10" font-family="SourceHanSansJP-Medium, Source Han Sans JP" font-weight="500"><tspan x="0" y="0">返済金額</tspan></text>
        <text id="_13_" data-name="13 %" transform="translate(57.221 33.08)" fill="#333" font-size="12" font-family="SourceHanSansJP-Bold, Source Han Sans JP" font-weight="700"><tspan x="0" y="0">13 </tspan><tspan y="0" font-size="10">%</tspan></text>
        <text id="月々_39_000_円" data-name="月々 39,000 円" transform="translate(18.891 70.242)" fill="#333" font-size="12" font-family="SourceHanSansJP-Bold, Source Han Sans JP" font-weight="700"><tspan x="0" y="0">月々</tspan><tspan y="0" font-size="10"> </tspan><tspan y="0" fill="#ea6552" font-size="16">39,000</tspan><tspan y="0"> </tspan><tspan y="0" font-family="SourceHanSansJP-Medium, Source Han Sans JP" font-weight="500">円</tspan></text>
        <path id="多角形_1" data-name="多角形 1" d="M4.329,0,8.658,8.04H0Z" transform="translate(53.817 24.251) rotate(90)" fill="#333"/>
        <path id="多角形_2" data-name="多角形 2" d="M4.329,0,8.658,8.04H0Z" transform="translate(53.817 6.35) rotate(90)" fill="#333"/>
      </g>
      <g id="グループ_1403" data-name="グループ 1403" transform="translate(20840.102 -4737.948)">
        <text id="借入額-2" data-name="借入額" transform="translate(6.192 14.332)" fill="#333" font-size="10" font-family="SourceHanSansJP-Medium, Source Han Sans JP" font-weight="500"><tspan x="0" y="0">借入額</tspan></text>
        <text id="_50_万円" data-name="50 万円" transform="translate(57.221 14)" fill="#333" font-size="12" font-family="SourceHanSansJP-Bold, Source Han Sans JP" font-weight="700"><tspan x="0" y="0">50 </tspan><tspan y="0" font-size="10">万円</tspan></text>
        <text id="金利-2" data-name="金利" transform="translate(18.191 31.909)" fill="#333" font-size="10" font-family="SourceHanSansJP-Medium, Source Han Sans JP" font-weight="500"><tspan x="0" y="0">金利</tspan></text>
        <text id="返済金額-2" data-name="返済金額" transform="translate(-1.809 52.671)" fill="#333" font-size="10" font-family="SourceHanSansJP-Medium, Source Han Sans JP" font-weight="500"><tspan x="0" y="0">返済金額</tspan></text>
        <text id="_18_" data-name="18 %" transform="translate(57.221 33.08)" fill="#333" font-size="12" font-family="SourceHanSansJP-Bold, Source Han Sans JP" font-weight="700"><tspan x="0" y="0">18 </tspan><tspan y="0" font-size="10">%</tspan></text>
        <text id="月々_17_000_円" data-name="月々 17,000 円" transform="translate(18.891 70.242)" fill="#333" font-size="12" font-family="SourceHanSansJP-Bold, Source Han Sans JP" font-weight="700"><tspan x="0" y="0">月々</tspan><tspan y="0" font-size="10"> </tspan><tspan y="0" fill="#ea6552" font-size="16">17,000</tspan><tspan y="0"> </tspan><tspan y="0" font-family="SourceHanSansJP-Medium, Source Han Sans JP" font-weight="500">円</tspan></text>
        <path id="多角形_1-2" data-name="多角形 1" d="M4.329,0,8.658,8.04H0Z" transform="translate(53.817 24.251) rotate(90)" fill="#333"/>
        <path id="多角形_2-2" data-name="多角形 2" d="M4.329,0,8.658,8.04H0Z" transform="translate(53.817 6.35) rotate(90)" fill="#333"/>
      </g>
      <g id="グループ_1404" data-name="グループ 1404" transform="translate(20999.191 -4736.451)">
        <text id="借入額-3" data-name="借入額" transform="translate(6.192 14.332)" fill="#333" font-size="10" font-family="SourceHanSansJP-Medium, Source Han Sans JP" font-weight="500"><tspan x="0" y="0">借入額</tspan></text>
        <text id="_30_万円" data-name="30 万円" transform="translate(57.221 14)" fill="#333" font-size="12" font-family="SourceHanSansJP-Bold, Source Han Sans JP" font-weight="700"><tspan x="0" y="0">30 </tspan><tspan y="0" font-size="10">万円</tspan></text>
        <text id="金利-3" data-name="金利" transform="translate(18.191 31.909)" fill="#333" font-size="10" font-family="SourceHanSansJP-Medium, Source Han Sans JP" font-weight="500"><tspan x="0" y="0">金利</tspan></text>
        <text id="返済金額-3" data-name="返済金額" transform="translate(-1.809 52.671)" fill="#333" font-size="10" font-family="SourceHanSansJP-Medium, Source Han Sans JP" font-weight="500"><tspan x="0" y="0">返済金額</tspan></text>
        <text id="_6_" data-name="6 %" transform="translate(57.221 33.08)" fill="#333" font-size="12" font-family="SourceHanSansJP-Bold, Source Han Sans JP" font-weight="700"><tspan x="0" y="0">6 </tspan><tspan y="0" font-size="10">%</tspan></text>
        <text id="月々_14_000_円" data-name="月々 14,000 円" transform="translate(18.891 70.242)" fill="#333" font-size="12" font-family="SourceHanSansJP-Bold, Source Han Sans JP" font-weight="700"><tspan x="0" y="0">月々</tspan><tspan y="0" font-size="10"> </tspan><tspan y="0" fill="#ea6552" font-size="16">14,000</tspan><tspan y="0"> </tspan><tspan y="0" font-family="SourceHanSansJP-Medium, Source Han Sans JP" font-weight="500">円</tspan></text>
        <path id="多角形_1-3" data-name="多角形 1" d="M4.329,0,8.658,8.04H0Z" transform="translate(53.817 24.251) rotate(90)" fill="#333"/>
        <path id="多角形_2-3" data-name="多角形 2" d="M4.329,0,8.658,8.04H0Z" transform="translate(53.817 6.35) rotate(90)" fill="#333"/>
      </g>
      <g id="グループ_1391" data-name="グループ 1391" transform="translate(20999.191 -4871.554)">
        <text id="借入額-4" data-name="借入額" transform="translate(6.192 14.332)" fill="#333" font-size="10" font-family="SourceHanSansJP-Medium, Source Han Sans JP" font-weight="500"><tspan x="0" y="0">借入額</tspan></text>
        <text id="_70_万円" data-name="70 万円" transform="translate(57.221 14)" fill="#333" font-size="10" font-family="SourceHanSansJP-Bold, Source Han Sans JP" font-weight="700"><tspan x="0" y="0">70 万円</tspan></text>
        <text id="金利-4" data-name="金利" transform="translate(18.191 31.909)" fill="#333" font-size="10" font-family="SourceHanSansJP-Medium, Source Han Sans JP" font-weight="500"><tspan x="0" y="0">金利</tspan></text>
        <text id="返済金額-4" data-name="返済金額" transform="translate(-1.809 52.671)" fill="#333" font-size="10" font-family="SourceHanSansJP-Medium, Source Han Sans JP" font-weight="500"><tspan x="0" y="0">返済金額</tspan></text>
        <text id="_18_2" data-name="18 %" transform="translate(57.221 33.08)" fill="#333" font-size="12" font-family="SourceHanSansJP-Bold, Source Han Sans JP" font-weight="700"><tspan x="0" y="0">18 </tspan><tspan y="0" font-size="10">%</tspan></text>
        <text id="月々_30_000_円" data-name="月々 30,000 円" transform="translate(18.891 70.242)" fill="#333" font-size="12" font-family="SourceHanSansJP-Bold, Source Han Sans JP" font-weight="700"><tspan x="0" y="0">月々</tspan><tspan y="0" font-size="10"> </tspan><tspan y="0" fill="#ea6552" font-size="16">30,000</tspan><tspan y="0"> </tspan><tspan y="0" font-family="SourceHanSansJP-Medium, Source Han Sans JP" font-weight="500">円</tspan></text>
        <path id="多角形_1-4" data-name="多角形 1" d="M4.329,0,8.658,8.04H0Z" transform="translate(53.817 24.251) rotate(90)" fill="#333"/>
        <path id="多角形_2-4" data-name="多角形 2" d="M4.329,0,8.658,8.04H0Z" transform="translate(53.817 6.35) rotate(90)" fill="#333"/>
      </g>
      <g id="長方形_1208" data-name="長方形 1208" transform="translate(20980.998 -4881.05)" fill="none" stroke="#333" stroke-width="1">
        <rect width="145.793" height="92.148" stroke="none"/>
        <rect x="0.5" y="0.5" width="144.793" height="91.148" fill="none"/>
      </g>
      <text id="キャッシング" transform="translate(21043.432 -4890.746)" fill="#333" font-size="12" font-family="SourceHanSansJP-Bold, Source Han Sans JP" font-weight="700"><tspan x="0" y="0">キャッシング</tspan></text>
      <g id="グループ_1386" data-name="グループ 1386" transform="translate(20813.467 -4911.353)">
        <g id="楕円形_38" data-name="楕円形 38" transform="translate(0 9.277)" fill="#fcfcfc" stroke="#333" stroke-width="1">
          <ellipse cx="17.316" cy="17.316" rx="17.316" ry="17.316" stroke="none"/>
          <ellipse cx="17.316" cy="17.316" rx="16.816" ry="16.816" fill="none"/>
        </g>
        <rect id="長方形_89" data-name="長方形 89" width="37.725" height="21.645" transform="translate(25.356 3.092)" fill="#fff"/>
        <g id="長方形_90" data-name="長方形 90" transform="translate(25.356 0)" fill="#fcfcfc" stroke="#333" stroke-width="1">
          <rect width="39.58" height="25.974" rx="6" stroke="none"/>
          <rect x="0.5" y="0.5" width="38.58" height="24.974" rx="5.5" fill="none"/>
        </g>
        <text id="A社" transform="translate(10.816 39.679)" fill="#333" font-size="8" font-family="SourceHanSansJP-Bold, Source Han Sans JP" font-weight="700"><tspan x="0" y="0">A</tspan><tspan y="0">社</tspan></text>
        <rect id="長方形_91" data-name="長方形 91" width="8.658" height="12.987" transform="translate(24.119 14.224)" fill="#fcfcfc"/>
        <g id="グループ_278" data-name="グループ 278" transform="translate(9.109 13.972)" opacity="0.83">
          <rect id="長方形_31" data-name="長方形 31" width="7.925" height="16.707" transform="translate(7.324 0)" fill="none" stroke="#333" stroke-linecap="round" stroke-linejoin="round" stroke-width="1"/>
          <rect id="長方形_32" data-name="長方形 32" width="1.828" height="1.736" transform="translate(8.816 2.199)" fill="none" stroke="#333" stroke-linecap="round" stroke-linejoin="round" stroke-width="1"/>
          <rect id="長方形_33" data-name="長方形 33" width="1.828" height="1.736" transform="translate(11.928 2.199)" fill="none" stroke="#333" stroke-linecap="round" stroke-linejoin="round" stroke-width="1"/>
          <rect id="長方形_34" data-name="長方形 34" width="1.828" height="1.736" transform="translate(8.816 5.42)" fill="none" stroke="#333" stroke-linecap="round" stroke-linejoin="round" stroke-width="1"/>
          <rect id="長方形_35" data-name="長方形 35" width="1.828" height="1.736" transform="translate(11.928 5.42)" fill="none" stroke="#333" stroke-linecap="round" stroke-linejoin="round" stroke-width="1"/>
          <rect id="長方形_36" data-name="長方形 36" width="1.828" height="1.736" transform="translate(8.816 8.641)" fill="none" stroke="#333" stroke-linecap="round" stroke-linejoin="round" stroke-width="1"/>
          <rect id="長方形_37" data-name="長方形 37" width="3.136" height="3.576" transform="translate(9.62 13.13)" fill="none" stroke="#333" stroke-linecap="round" stroke-linejoin="round" stroke-width="1"/>
          <rect id="長方形_38" data-name="長方形 38" width="1.828" height="1.736" transform="translate(11.928 8.641)" fill="none" stroke="#333" stroke-linecap="round" stroke-linejoin="round" stroke-width="1"/>
          <rect id="長方形_39" data-name="長方形 39" width="7.324" height="11.287" transform="translate(0 5.42)" fill="none" stroke="#333" stroke-linecap="round" stroke-linejoin="round" stroke-width="1"/>
          <rect id="長方形_40" data-name="長方形 40" width="6.013" height="1.39" transform="translate(0 8.353)" fill="none" stroke="#333" stroke-linecap="round" stroke-linejoin="round" stroke-width="1"/>
          <rect id="長方形_41" data-name="長方形 41" width="6.013" height="1.39" transform="translate(0 11.43)" fill="none" stroke="#333" stroke-linecap="round" stroke-linejoin="round" stroke-width="1"/>
        </g>
      </g>
      <g id="グループ_1388" data-name="グループ 1388" transform="translate(20841.912 -4908.261)">
        <g id="グループ_281" data-name="グループ 281" transform="translate(0 0)">
          <g id="グループ_280" data-name="グループ 280">
            <path id="パス_839" data-name="パス 839" d="M1685.5,1491a1.452,1.452,0,0,1,.313,1.108c-.06,1.255-.7,1.355-1.521,1.355h-.128l.014-2.883A1.784,1.784,0,0,1,1685.5,1491Z" transform="translate(-1662.52 -1481.025)" fill="#f5f5f5"/>
            <path id="パス_840" data-name="パス 840" d="M1678.926,1491.264a.506.506,0,0,1-.166.411.91.91,0,0,1-.37.179l-.011,0a3.04,3.04,0,0,1-1.041.034v-1.328a2.086,2.086,0,0,1,1.4.18A.661.661,0,0,1,1678.926,1491.264Z" transform="translate(-1659.916 -1481.005)" fill="#f5f5f5"/>
            <path id="パス_841" data-name="パス 841" d="M1671.576,1491.813l.432.985h-.886Z" transform="translate(-1657.544 -1481.495)" fill="#f5f5f5"/>
            <path id="パス_842" data-name="パス 842" d="M1661.23,1487.889a.408.408,0,1,0-.7-.419,1.076,1.076,0,0,1-1,.451h0a1.117,1.117,0,0,1-.679-.323,1.637,1.637,0,0,1-.412-1.207c0-1.266.832-1.4,1.19-1.4a.916.916,0,0,1,.835.492.408.408,0,1,0,.725-.374,1.721,1.721,0,0,0-1.561-.935,1.992,1.992,0,0,0-2.007,2.22,2.408,2.408,0,0,0,.654,1.787,1.91,1.91,0,0,0,1.255.56h.007A1.843,1.843,0,0,0,1661.23,1487.889Zm.834-.891-.534,1.156a.408.408,0,1,0,.741.343l.432-.935h1.622l.406.927a.408.408,0,0,0,.374.245.393.393,0,0,0,.164-.035.407.407,0,0,0,.21-.537l-.511-1.166-1.043-2.381a.385.385,0,0,0-.019-.039h0a.371.371,0,0,0-.032-.052c-.006-.008-.012-.015-.019-.023a.4.4,0,0,0-.138-.1h0l-.026-.011-.027-.009h0a.386.386,0,0,0-.056-.012.417.417,0,0,0-.1,0,.319.319,0,0,0-.08.017l0,0a.19.19,0,0,0-.031.01l-.007,0-.029.014a.206.206,0,0,0-.026.016.373.373,0,0,0-.072.058.364.364,0,0,0-.054.066c-.005.009-.01.017-.015.026s-.009.017-.013.026l-1.092,2.362A.385.385,0,0,0,1662.064,1487Zm19.108-10.034v16.88a1.055,1.055,0,0,1-1.089,1.012h-28.946a1.054,1.054,0,0,1-1.089-1.012v-16.88a1.054,1.054,0,0,1,1.089-1.012h28.946A1.055,1.055,0,0,1,1681.172,1476.964Zm-6.693,13.752a.664.664,0,1,0-.664.646A.655.655,0,0,0,1674.479,1490.716Zm-.868-4.151a2.226,2.226,0,0,0-.539-1.711,2.554,2.554,0,0,0-1.929-.674c-.167,0-.3.009-.414.016a.408.408,0,0,0-.385.406l-.017,3.681a.414.414,0,0,0,.12.29.39.39,0,0,0,.291.119h.03c.075,0,.154,0,.234,0l.272,0A2.01,2.01,0,0,0,1673.611,1486.565Zm-1.855,4.151a.664.664,0,1,0-.664.646A.655.655,0,0,0,1671.757,1490.716Zm-2.338-2.055a.408.408,0,0,0,.106-.568l-.838-1.221a1.417,1.417,0,0,0,.2-.146,1.32,1.32,0,0,0,.445-1.025,1.444,1.444,0,0,0-.458-1.131,2.809,2.809,0,0,0-2.152-.369c-.078.009-.174.02-.2.02a.408.408,0,0,0-.409.408v3.7a.408.408,0,0,0,.817,0v-1.181a4.09,4.09,0,0,0,.954-.009l.972,1.416a.408.408,0,0,0,.337.178A.4.4,0,0,0,1669.419,1488.661Zm-.361,2.055a.664.664,0,1,0-.664.646A.655.655,0,0,0,1669.058,1490.716Zm-2.677,0a.663.663,0,1,0-.664.646A.655.655,0,0,0,1666.381,1490.716Zm-2.7,0a.664.664,0,1,0-.664.646A.655.655,0,0,0,1663.681,1490.716Zm-2.722,0a.664.664,0,1,0-.663.646A.655.655,0,0,0,1660.959,1490.716Zm-1.7-8.745v-3.04a1.361,1.361,0,0,0-1.36-1.361h-3.63a1.362,1.362,0,0,0-1.362,1.361v3.04a1.362,1.362,0,0,0,1.362,1.361h3.63A1.361,1.361,0,0,0,1659.257,1481.97Zm-1,8.745a.664.664,0,1,0-.664.646A.655.655,0,0,0,1658.259,1490.716Z" transform="translate(-1649.503 -1475.443)" fill="#f5f5f5"/>
            <path id="パス_843" data-name="パス 843" d="M1681.38,1476.652v16.912a1.582,1.582,0,0,1-1.633,1.522H1650.8a1.582,1.582,0,0,1-1.633-1.522v-16.912a1.583,1.583,0,0,1,1.633-1.523h28.947A1.583,1.583,0,0,1,1681.38,1476.652Zm-.544,16.912v-16.912a1.056,1.056,0,0,0-1.089-1.015H1650.8a1.055,1.055,0,0,0-1.089,1.015v16.912a1.055,1.055,0,0,0,1.089,1.015h28.947A1.055,1.055,0,0,0,1680.836,1493.565Z" transform="translate(-1649.167 -1475.13)" fill="#707070"/>
            <path id="パス_844" data-name="パス 844" d="M1688.071,1498.78a.647.647,0,1,1-.664.646A.655.655,0,0,1,1688.071,1498.78Z" transform="translate(-1663.758 -1484.154)" fill="#a6a7a7"/>
            <path id="パス_845" data-name="パス 845" d="M1685.585,1489.931a2.227,2.227,0,0,1,.539,1.71,2.01,2.01,0,0,1-2.337,2.133l-.272,0-.234,0h-.03a.391.391,0,0,1-.291-.119.414.414,0,0,1-.12-.291l.017-3.681a.408.408,0,0,1,.385-.405c.109-.007.248-.016.414-.016A2.553,2.553,0,0,1,1685.585,1489.931Zm-.278,1.672a1.451,1.451,0,0,0-.314-1.108,1.786,1.786,0,0,0-1.322-.421l-.014,2.883h.128C1684.612,1492.958,1685.248,1492.858,1685.308,1491.6Z" transform="translate(-1662.015 -1480.521)" fill="#474645"/>
            <path id="パス_846" data-name="パス 846" d="M1683.669,1498.78a.647.647,0,1,1-.663.646A.655.655,0,0,1,1683.669,1498.78Z" transform="translate(-1662.079 -1484.154)" fill="#a6a7a7"/>
            <path id="パス_847" data-name="パス 847" d="M1680.527,1494.832a.408.408,0,1,1-.674.462l-.972-1.415a2.09,2.09,0,0,0,.807-.267Z" transform="translate(-1660.505 -1482.182)" fill="#474645"/>
            <path id="パス_848" data-name="パス 848" d="M1679.239,1490.759a1.321,1.321,0,0,1-.445,1.025,1.41,1.41,0,0,1-.2.146l-.284-.413a.409.409,0,0,0-.426-.168.906.906,0,0,0,.371-.179.505.505,0,0,0,.166-.411.661.661,0,0,0-.184-.521,2.085,2.085,0,0,0-1.4-.18v1.328a3.036,3.036,0,0,0,1.041-.033.4.4,0,0,0-.131.059.408.408,0,0,0-.105.568l.15.218a4.083,4.083,0,0,1-.954.009v1.181a.408.408,0,0,1-.817,0v-3.7a.408.408,0,0,1,.409-.408c.03,0,.125-.011.2-.02a2.809,2.809,0,0,1,2.152.369A1.444,1.444,0,0,1,1679.239,1490.759Z" transform="translate(-1659.412 -1480.5)" fill="#474645"/>
            <path id="パス_849" data-name="パス 849" d="M1679.3,1498.78a.647.647,0,1,1-.664.646A.655.655,0,0,1,1679.3,1498.78Z" transform="translate(-1660.413 -1484.154)" fill="#a6a7a7"/>
            <path id="パス_850" data-name="パス 850" d="M1679.268,1492.834l.284.413a2.091,2.091,0,0,1-.807.267l-.15-.218a.407.407,0,0,1,.236-.627l.01,0A.41.41,0,0,1,1679.268,1492.834Z" transform="translate(-1660.368 -1481.818)" fill="#474645"/>
            <path id="パス_851" data-name="パス 851" d="M1674.976,1498.78a.647.647,0,1,1-.663.646A.654.654,0,0,1,1674.976,1498.78Z" transform="translate(-1658.762 -1484.154)" fill="#a6a7a7"/>
            <path id="パス_852" data-name="パス 852" d="M1673.776,1493.809l.511,1.166a.407.407,0,0,1-.21.537.4.4,0,0,1-.164.035.409.409,0,0,1-.374-.245l-.406-.926h.267a.409.409,0,0,0,.376-.567Z" transform="translate(-1658.312 -1482.257)" fill="#474645"/>
            <path id="パス_853" data-name="パス 853" d="M1673.555,1493.655a.408.408,0,0,1-.376.567h-.267l-.358-.817h.625A.407.407,0,0,1,1673.555,1493.655Z" transform="translate(-1658.091 -1482.103)" fill="#474645"/>
            <path id="パス_854" data-name="パス 854" d="M1671.774,1493.4l.358.817h-1.622l.378-.817Z" transform="translate(-1657.311 -1482.103)" fill="#474645"/>
            <path id="パス_855" data-name="パス 855" d="M1672.246,1489.958l1.043,2.382a.407.407,0,0,0-.376-.25h-.625l-.431-.984.38-.823A.408.408,0,0,0,1672.246,1489.958Z" transform="translate(-1657.825 -1480.788)" fill="#474645"/>
            <path id="パス_856" data-name="パス 856" d="M1672.474,1489.934l-.006-.011a.216.216,0,0,0-.014-.028C1672.462,1489.908,1672.469,1489.921,1672.474,1489.934Z" transform="translate(-1658.053 -1480.764)" fill="#474645"/>
            <path id="パス_857" data-name="パス 857" d="M1671.981,1489.762a.211.211,0,0,1,.014.028l.006.011a.409.409,0,0,1-.009.324l-.38.823-.364-.831a.411.411,0,0,1,0-.333c0-.009.008-.018.013-.026l.015-.026a.451.451,0,0,1,.054-.066.393.393,0,0,1,.072-.058l.026-.016.028-.013.007,0a.26.26,0,0,1,.031-.01l0,0a.355.355,0,0,1,.08-.017.444.444,0,0,1,.1,0l.056.012h0l.027.009.026.011a.414.414,0,0,1,.14.1.285.285,0,0,1,.019.023.486.486,0,0,1,.032.051Z" transform="translate(-1657.579 -1480.63)" fill="#474645"/>
            <path id="パス_858" data-name="パス 858" d="M1672.435,1489.862a.425.425,0,0,0-.032-.051A.321.321,0,0,1,1672.435,1489.862Z" transform="translate(-1658.033 -1480.732)" fill="#474645"/>
            <path id="パス_859" data-name="パス 859" d="M1672.148,1489.6a.4.4,0,0,1,.138.1.417.417,0,0,0-.141-.105Z" transform="translate(-1657.935 -1480.653)" fill="#474645"/>
            <path id="パス_860" data-name="パス 860" d="M1672.086,1489.58l-.027-.009Z" transform="translate(-1657.902 -1480.64)" fill="#474645"/>
            <path id="パス_861" data-name="パス 861" d="M1671.966,1489.551a.392.392,0,0,1,.056.012Z" transform="translate(-1657.866 -1480.633)" fill="#474645"/>
            <path id="パス_862" data-name="パス 862" d="M1671.805,1489.547a.412.412,0,0,1,.1,0A.444.444,0,0,0,1671.805,1489.547Z" transform="translate(-1657.805 -1480.63)" fill="#474645"/>
            <path id="パス_863" data-name="パス 863" d="M1670.611,1498.78a.647.647,0,1,1-.664.646A.655.655,0,0,1,1670.611,1498.78Z" transform="translate(-1657.096 -1484.154)" fill="#a6a7a7"/>
            <path id="パス_864" data-name="パス 864" d="M1671.756,1489.548a.365.365,0,0,0-.08.016A.325.325,0,0,1,1671.756,1489.548Z" transform="translate(-1657.756 -1480.632)" fill="#474645"/>
            <path id="パス_865" data-name="パス 865" d="M1671.65,1489.578a.318.318,0,0,0-.031.011A.189.189,0,0,1,1671.65,1489.578Z" transform="translate(-1657.734 -1480.643)" fill="#474645"/>
            <path id="パス_866" data-name="パス 866" d="M1671.546,1489.622l-.026.016Z" transform="translate(-1657.696 -1480.66)" fill="#474645"/>
            <path id="パス_867" data-name="パス 867" d="M1671.371,1489.741a.449.449,0,0,0-.054.066A.358.358,0,0,1,1671.371,1489.741Z" transform="translate(-1657.619 -1480.705)" fill="#474645"/>
            <path id="パス_868" data-name="パス 868" d="M1671.308,1489.848l-.015.025C1671.3,1489.865,1671.3,1489.857,1671.308,1489.848Z" transform="translate(-1657.61 -1480.746)" fill="#474645"/>
            <path id="パス_869" data-name="パス 869" d="M1670.6,1490.264l.364.83-.454.984h-.639a.408.408,0,0,0-.359.214l1.091-2.362A.412.412,0,0,0,1670.6,1490.264Z" transform="translate(-1656.928 -1480.778)" fill="#474645"/>
            <path id="パス_870" data-name="パス 870" d="M1670.475,1493.4l-.378.817h-.262a.409.409,0,0,1-.408-.409.4.4,0,0,1,.031-.155.312.312,0,0,1,.018-.039.409.409,0,0,1,.359-.214Z" transform="translate(-1656.898 -1482.103)" fill="#474645"/>
            <path id="パス_871" data-name="パス 871" d="M1669.094,1493.968a.409.409,0,0,0,.408.409h.261l-.432.934a.409.409,0,0,1-.371.238.409.409,0,0,1-.37-.58l.534-1.156A.407.407,0,0,0,1669.094,1493.968Z" transform="translate(-1656.564 -1482.259)" fill="#474645"/>
            <path id="パス_872" data-name="パス 872" d="M1665.76,1492.4a.409.409,0,0,1,.14.56,1.843,1.843,0,0,1-1.7.849h-.007a1.911,1.911,0,0,1-1.255-.56,2.408,2.408,0,0,1-.654-1.787,1.992,1.992,0,0,1,2.007-2.22,1.721,1.721,0,0,1,1.561.935.408.408,0,0,1-.725.375.917.917,0,0,0-.836-.492c-.357,0-1.19.137-1.19,1.4a1.635,1.635,0,0,0,.412,1.207,1.116,1.116,0,0,0,.679.323h0a1.077,1.077,0,0,0,1-.451A.409.409,0,0,1,1665.76,1492.4Z" transform="translate(-1654.174 -1480.515)" fill="#474645"/>
            <path id="パス_873" data-name="パス 873" d="M1666.209,1498.78a.647.647,0,1,1-.663.646A.655.655,0,0,1,1666.209,1498.78Z" transform="translate(-1655.417 -1484.154)" fill="#a6a7a7"/>
            <rect id="長方形_92" data-name="長方形 92" width="6.352" height="5.762" rx="2.201" transform="translate(3.403 2.126)" fill="#a6a7a7"/>
            <path id="パス_874" data-name="パス 874" d="M1661.844,1498.78a.647.647,0,1,1-.664.646A.655.655,0,0,1,1661.844,1498.78Z" transform="translate(-1653.751 -1484.154)" fill="#a6a7a7"/>
          </g>
        </g>
      </g>
      <g id="グループ_1387" data-name="グループ 1387" transform="translate(20971.412 -4911.353)">
        <g id="グループ_279" data-name="グループ 279" transform="translate(0 0)">
          <g id="楕円形_38-2" data-name="楕円形 38" transform="translate(0 9.277)" fill="#fcfcfc" stroke="#333" stroke-width="1">
            <ellipse cx="17.316" cy="17.316" rx="17.316" ry="17.316" stroke="none"/>
            <ellipse cx="17.316" cy="17.316" rx="16.816" ry="16.816" fill="none"/>
          </g>
          <rect id="長方形_89-2" data-name="長方形 89" width="37.725" height="21.645" transform="translate(25.356 3.092)" fill="#fff"/>
          <g id="長方形_90-2" data-name="長方形 90" transform="translate(25.356 0)" fill="#fcfcfc" stroke="#333" stroke-width="1">
            <rect width="39.58" height="25.974" rx="6" stroke="none"/>
            <rect x="0.5" y="0.5" width="38.58" height="24.974" rx="5.5" fill="none"/>
          </g>
          <text id="B社" transform="translate(10.817 39.716)" fill="#333" font-size="8" font-family="SourceHanSansJP-Bold, Source Han Sans JP" font-weight="700"><tspan x="0" y="0">B</tspan><tspan y="0">社</tspan></text>
          <rect id="長方形_91-2" data-name="長方形 91" width="8.658" height="12.987" transform="translate(24.119 14.224)" fill="#fcfcfc"/>
          <g id="グループ_285" data-name="グループ 285" transform="translate(8.632 14.788)" opacity="0.83">
            <rect id="長方形_42" data-name="長方形 42" width="5.79" height="12.602" transform="translate(0 3.326)" fill="none" stroke="#333" stroke-linecap="round" stroke-linejoin="round" stroke-width="1"/>
            <path id="パス_115" data-name="パス 115" d="M1036.812,388.958v15.928h5.79V388.958Z" transform="translate(-1031.022 -388.958)" fill="none" stroke="#333" stroke-linecap="round" stroke-linejoin="round" stroke-width="1"/>
            <rect id="長方形_43" data-name="長方形 43" width="2.852" height="3.204" transform="translate(7.259 12.724)" fill="none" stroke="#333" stroke-linecap="round" stroke-linejoin="round" stroke-width="1"/>
            <rect id="長方形_44" data-name="長方形 44" width="5.79" height="12.602" transform="translate(11.58 3.326)" fill="none" stroke="#333" stroke-linecap="round" stroke-linejoin="round" stroke-width="1"/>
            <rect id="長方形_45" data-name="長方形 45" width="1.258" height="1.983" transform="translate(13.846 5.415)" fill="none" stroke="#333" stroke-linecap="round" stroke-linejoin="round" stroke-width="1"/>
            <rect id="長方形_46" data-name="長方形 46" width="1.258" height="1.983" transform="translate(13.846 8.976)" fill="none" stroke="#333" stroke-linecap="round" stroke-linejoin="round" stroke-width="1"/>
            <rect id="長方形_47" data-name="長方形 47" width="1.258" height="1.983" transform="translate(8.056 5.415)" fill="none" stroke="#333" stroke-linecap="round" stroke-linejoin="round" stroke-width="1"/>
            <rect id="長方形_48" data-name="長方形 48" width="1.258" height="1.983" transform="translate(8.056 8.976)" fill="none" stroke="#333" stroke-linecap="round" stroke-linejoin="round" stroke-width="1"/>
            <rect id="長方形_49" data-name="長方形 49" width="1.258" height="1.983" transform="translate(2.266 5.415)" fill="none" stroke="#333" stroke-linecap="round" stroke-linejoin="round" stroke-width="1"/>
            <rect id="長方形_50" data-name="長方形 50" width="1.258" height="1.983" transform="translate(2.266 8.976)" fill="none" stroke="#333" stroke-linecap="round" stroke-linejoin="round" stroke-width="1"/>
            <line id="線_16" data-name="線 16" y2="3.204" transform="translate(8.685 12.724)" fill="none" stroke="#333" stroke-linecap="round" stroke-linejoin="round" stroke-width="1"/>
          </g>
        </g>
        <g id="グループ_282" data-name="グループ 282" transform="translate(28.448 3.092)">
          <g id="グループ_281-2" data-name="グループ 281" transform="translate(0 0)">
            <g id="グループ_280-2" data-name="グループ 280">
              <path id="パス_839-2" data-name="パス 839" d="M1685.5,1491a1.452,1.452,0,0,1,.313,1.108c-.06,1.255-.7,1.355-1.521,1.355h-.128l.014-2.883A1.784,1.784,0,0,1,1685.5,1491Z" transform="translate(-1662.52 -1481.025)" fill="#f5f5f5"/>
              <path id="パス_840-2" data-name="パス 840" d="M1678.926,1491.264a.506.506,0,0,1-.166.411.91.91,0,0,1-.37.179l-.011,0a3.04,3.04,0,0,1-1.041.034v-1.328a2.086,2.086,0,0,1,1.4.18A.661.661,0,0,1,1678.926,1491.264Z" transform="translate(-1659.916 -1481.005)" fill="#f5f5f5"/>
              <path id="パス_841-2" data-name="パス 841" d="M1671.576,1491.813l.432.985h-.886Z" transform="translate(-1657.544 -1481.495)" fill="#f5f5f5"/>
              <path id="パス_842-2" data-name="パス 842" d="M1661.23,1487.889a.408.408,0,1,0-.7-.419,1.076,1.076,0,0,1-1,.451h0a1.117,1.117,0,0,1-.679-.323,1.637,1.637,0,0,1-.412-1.207c0-1.266.832-1.4,1.19-1.4a.916.916,0,0,1,.835.492.408.408,0,1,0,.725-.374,1.721,1.721,0,0,0-1.561-.935,1.992,1.992,0,0,0-2.007,2.22,2.408,2.408,0,0,0,.654,1.787,1.91,1.91,0,0,0,1.255.56h.007A1.843,1.843,0,0,0,1661.23,1487.889Zm.834-.891-.534,1.156a.408.408,0,1,0,.741.343l.432-.935h1.622l.406.927a.408.408,0,0,0,.374.245.393.393,0,0,0,.164-.035.407.407,0,0,0,.21-.537l-.511-1.166-1.043-2.381a.385.385,0,0,0-.019-.039h0a.371.371,0,0,0-.032-.052c-.006-.008-.012-.015-.019-.023a.4.4,0,0,0-.138-.1h0l-.026-.011-.027-.009h0a.386.386,0,0,0-.056-.012.417.417,0,0,0-.1,0,.319.319,0,0,0-.08.017l0,0a.19.19,0,0,0-.031.01l-.007,0-.029.014a.206.206,0,0,0-.026.016.373.373,0,0,0-.072.058.364.364,0,0,0-.054.066c-.005.009-.01.017-.015.026s-.009.017-.013.026l-1.092,2.362A.385.385,0,0,0,1662.064,1487Zm19.108-10.034v16.88a1.055,1.055,0,0,1-1.089,1.012h-28.946a1.054,1.054,0,0,1-1.089-1.012v-16.88a1.054,1.054,0,0,1,1.089-1.012h28.946A1.055,1.055,0,0,1,1681.172,1476.964Zm-6.693,13.752a.664.664,0,1,0-.664.646A.655.655,0,0,0,1674.479,1490.716Zm-.868-4.151a2.226,2.226,0,0,0-.539-1.711,2.554,2.554,0,0,0-1.929-.674c-.167,0-.3.009-.414.016a.408.408,0,0,0-.385.406l-.017,3.681a.414.414,0,0,0,.12.29.39.39,0,0,0,.291.119h.03c.075,0,.154,0,.234,0l.272,0A2.01,2.01,0,0,0,1673.611,1486.565Zm-1.855,4.151a.664.664,0,1,0-.664.646A.655.655,0,0,0,1671.757,1490.716Zm-2.338-2.055a.408.408,0,0,0,.106-.568l-.838-1.221a1.417,1.417,0,0,0,.2-.146,1.32,1.32,0,0,0,.445-1.025,1.444,1.444,0,0,0-.458-1.131,2.809,2.809,0,0,0-2.152-.369c-.078.009-.174.02-.2.02a.408.408,0,0,0-.409.408v3.7a.408.408,0,0,0,.817,0v-1.181a4.09,4.09,0,0,0,.954-.009l.972,1.416a.408.408,0,0,0,.337.178A.4.4,0,0,0,1669.419,1488.661Zm-.361,2.055a.664.664,0,1,0-.664.646A.655.655,0,0,0,1669.058,1490.716Zm-2.677,0a.663.663,0,1,0-.664.646A.655.655,0,0,0,1666.381,1490.716Zm-2.7,0a.664.664,0,1,0-.664.646A.655.655,0,0,0,1663.681,1490.716Zm-2.722,0a.664.664,0,1,0-.663.646A.655.655,0,0,0,1660.959,1490.716Zm-1.7-8.745v-3.04a1.361,1.361,0,0,0-1.36-1.361h-3.63a1.362,1.362,0,0,0-1.362,1.361v3.04a1.362,1.362,0,0,0,1.362,1.361h3.63A1.361,1.361,0,0,0,1659.257,1481.97Zm-1,8.745a.664.664,0,1,0-.664.646A.655.655,0,0,0,1658.259,1490.716Z" transform="translate(-1649.503 -1475.443)" fill="#f5f5f5"/>
              <path id="パス_843-2" data-name="パス 843" d="M1681.38,1476.652v16.912a1.582,1.582,0,0,1-1.633,1.522H1650.8a1.582,1.582,0,0,1-1.633-1.522v-16.912a1.583,1.583,0,0,1,1.633-1.523h28.947A1.583,1.583,0,0,1,1681.38,1476.652Zm-.544,16.912v-16.912a1.056,1.056,0,0,0-1.089-1.015H1650.8a1.055,1.055,0,0,0-1.089,1.015v16.912a1.055,1.055,0,0,0,1.089,1.015h28.947A1.055,1.055,0,0,0,1680.836,1493.565Z" transform="translate(-1649.167 -1475.13)" fill="#707070"/>
              <path id="パス_844-2" data-name="パス 844" d="M1688.071,1498.78a.647.647,0,1,1-.664.646A.655.655,0,0,1,1688.071,1498.78Z" transform="translate(-1663.758 -1484.154)" fill="#a6a7a7"/>
              <path id="パス_845-2" data-name="パス 845" d="M1685.585,1489.931a2.227,2.227,0,0,1,.539,1.71,2.01,2.01,0,0,1-2.337,2.133l-.272,0-.234,0h-.03a.391.391,0,0,1-.291-.119.414.414,0,0,1-.12-.291l.017-3.681a.408.408,0,0,1,.385-.405c.109-.007.248-.016.414-.016A2.553,2.553,0,0,1,1685.585,1489.931Zm-.278,1.672a1.451,1.451,0,0,0-.314-1.108,1.786,1.786,0,0,0-1.322-.421l-.014,2.883h.128C1684.612,1492.958,1685.248,1492.858,1685.308,1491.6Z" transform="translate(-1662.015 -1480.521)" fill="#474645"/>
              <path id="パス_846-2" data-name="パス 846" d="M1683.669,1498.78a.647.647,0,1,1-.663.646A.655.655,0,0,1,1683.669,1498.78Z" transform="translate(-1662.079 -1484.154)" fill="#a6a7a7"/>
              <path id="パス_847-2" data-name="パス 847" d="M1680.527,1494.832a.408.408,0,1,1-.674.462l-.972-1.415a2.09,2.09,0,0,0,.807-.267Z" transform="translate(-1660.505 -1482.182)" fill="#474645"/>
              <path id="パス_848-2" data-name="パス 848" d="M1679.239,1490.759a1.321,1.321,0,0,1-.445,1.025,1.41,1.41,0,0,1-.2.146l-.284-.413a.409.409,0,0,0-.426-.168.906.906,0,0,0,.371-.179.505.505,0,0,0,.166-.411.661.661,0,0,0-.184-.521,2.085,2.085,0,0,0-1.4-.18v1.328a3.036,3.036,0,0,0,1.041-.033.4.4,0,0,0-.131.059.408.408,0,0,0-.105.568l.15.218a4.083,4.083,0,0,1-.954.009v1.181a.408.408,0,0,1-.817,0v-3.7a.408.408,0,0,1,.409-.408c.03,0,.125-.011.2-.02a2.809,2.809,0,0,1,2.152.369A1.444,1.444,0,0,1,1679.239,1490.759Z" transform="translate(-1659.412 -1480.5)" fill="#474645"/>
              <path id="パス_849-2" data-name="パス 849" d="M1679.3,1498.78a.647.647,0,1,1-.664.646A.655.655,0,0,1,1679.3,1498.78Z" transform="translate(-1660.413 -1484.154)" fill="#a6a7a7"/>
              <path id="パス_850-2" data-name="パス 850" d="M1679.268,1492.834l.284.413a2.091,2.091,0,0,1-.807.267l-.15-.218a.407.407,0,0,1,.236-.627l.01,0A.41.41,0,0,1,1679.268,1492.834Z" transform="translate(-1660.368 -1481.818)" fill="#474645"/>
              <path id="パス_851-2" data-name="パス 851" d="M1674.976,1498.78a.647.647,0,1,1-.663.646A.654.654,0,0,1,1674.976,1498.78Z" transform="translate(-1658.762 -1484.154)" fill="#a6a7a7"/>
              <path id="パス_852-2" data-name="パス 852" d="M1673.776,1493.809l.511,1.166a.407.407,0,0,1-.21.537.4.4,0,0,1-.164.035.409.409,0,0,1-.374-.245l-.406-.926h.267a.409.409,0,0,0,.376-.567Z" transform="translate(-1658.312 -1482.257)" fill="#474645"/>
              <path id="パス_853-2" data-name="パス 853" d="M1673.555,1493.655a.408.408,0,0,1-.376.567h-.267l-.358-.817h.625A.407.407,0,0,1,1673.555,1493.655Z" transform="translate(-1658.091 -1482.103)" fill="#474645"/>
              <path id="パス_854-2" data-name="パス 854" d="M1671.774,1493.4l.358.817h-1.622l.378-.817Z" transform="translate(-1657.311 -1482.103)" fill="#474645"/>
              <path id="パス_855-2" data-name="パス 855" d="M1672.246,1489.958l1.043,2.382a.407.407,0,0,0-.376-.25h-.625l-.431-.984.38-.823A.408.408,0,0,0,1672.246,1489.958Z" transform="translate(-1657.825 -1480.788)" fill="#474645"/>
              <path id="パス_856-2" data-name="パス 856" d="M1672.474,1489.934l-.006-.011a.216.216,0,0,0-.014-.028C1672.462,1489.908,1672.469,1489.921,1672.474,1489.934Z" transform="translate(-1658.053 -1480.764)" fill="#474645"/>
              <path id="パス_857-2" data-name="パス 857" d="M1671.981,1489.762a.211.211,0,0,1,.014.028l.006.011a.409.409,0,0,1-.009.324l-.38.823-.364-.831a.411.411,0,0,1,0-.333c0-.009.008-.018.013-.026l.015-.026a.451.451,0,0,1,.054-.066.393.393,0,0,1,.072-.058l.026-.016.028-.013.007,0a.26.26,0,0,1,.031-.01l0,0a.355.355,0,0,1,.08-.017.444.444,0,0,1,.1,0l.056.012h0l.027.009.026.011a.414.414,0,0,1,.14.1.285.285,0,0,1,.019.023.486.486,0,0,1,.032.051Z" transform="translate(-1657.579 -1480.63)" fill="#474645"/>
              <path id="パス_858-2" data-name="パス 858" d="M1672.435,1489.862a.425.425,0,0,0-.032-.051A.321.321,0,0,1,1672.435,1489.862Z" transform="translate(-1658.033 -1480.732)" fill="#474645"/>
              <path id="パス_859-2" data-name="パス 859" d="M1672.148,1489.6a.4.4,0,0,1,.138.1.417.417,0,0,0-.141-.105Z" transform="translate(-1657.935 -1480.653)" fill="#474645"/>
              <path id="パス_860-2" data-name="パス 860" d="M1672.086,1489.58l-.027-.009Z" transform="translate(-1657.902 -1480.64)" fill="#474645"/>
              <path id="パス_861-2" data-name="パス 861" d="M1671.966,1489.551a.392.392,0,0,1,.056.012Z" transform="translate(-1657.866 -1480.633)" fill="#474645"/>
              <path id="パス_862-2" data-name="パス 862" d="M1671.805,1489.547a.412.412,0,0,1,.1,0A.444.444,0,0,0,1671.805,1489.547Z" transform="translate(-1657.805 -1480.63)" fill="#474645"/>
              <path id="パス_863-2" data-name="パス 863" d="M1670.611,1498.78a.647.647,0,1,1-.664.646A.655.655,0,0,1,1670.611,1498.78Z" transform="translate(-1657.096 -1484.154)" fill="#a6a7a7"/>
              <path id="パス_864-2" data-name="パス 864" d="M1671.756,1489.548a.365.365,0,0,0-.08.016A.325.325,0,0,1,1671.756,1489.548Z" transform="translate(-1657.756 -1480.632)" fill="#474645"/>
              <path id="パス_865-2" data-name="パス 865" d="M1671.65,1489.578a.318.318,0,0,0-.031.011A.189.189,0,0,1,1671.65,1489.578Z" transform="translate(-1657.734 -1480.643)" fill="#474645"/>
              <path id="パス_866-2" data-name="パス 866" d="M1671.546,1489.622l-.026.016Z" transform="translate(-1657.696 -1480.66)" fill="#474645"/>
              <path id="パス_867-2" data-name="パス 867" d="M1671.371,1489.741a.449.449,0,0,0-.054.066A.358.358,0,0,1,1671.371,1489.741Z" transform="translate(-1657.619 -1480.705)" fill="#474645"/>
              <path id="パス_868-2" data-name="パス 868" d="M1671.308,1489.848l-.015.025C1671.3,1489.865,1671.3,1489.857,1671.308,1489.848Z" transform="translate(-1657.61 -1480.746)" fill="#474645"/>
              <path id="パス_869-2" data-name="パス 869" d="M1670.6,1490.264l.364.83-.454.984h-.639a.408.408,0,0,0-.359.214l1.091-2.362A.412.412,0,0,0,1670.6,1490.264Z" transform="translate(-1656.928 -1480.778)" fill="#474645"/>
              <path id="パス_870-2" data-name="パス 870" d="M1670.475,1493.4l-.378.817h-.262a.409.409,0,0,1-.408-.409.4.4,0,0,1,.031-.155.312.312,0,0,1,.018-.039.409.409,0,0,1,.359-.214Z" transform="translate(-1656.898 -1482.103)" fill="#474645"/>
              <path id="パス_871-2" data-name="パス 871" d="M1669.094,1493.968a.409.409,0,0,0,.408.409h.261l-.432.934a.409.409,0,0,1-.371.238.409.409,0,0,1-.37-.58l.534-1.156A.407.407,0,0,0,1669.094,1493.968Z" transform="translate(-1656.564 -1482.259)" fill="#474645"/>
              <path id="パス_872-2" data-name="パス 872" d="M1665.76,1492.4a.409.409,0,0,1,.14.56,1.843,1.843,0,0,1-1.7.849h-.007a1.911,1.911,0,0,1-1.255-.56,2.408,2.408,0,0,1-.654-1.787,1.992,1.992,0,0,1,2.007-2.22,1.721,1.721,0,0,1,1.561.935.408.408,0,0,1-.725.375.917.917,0,0,0-.836-.492c-.357,0-1.19.137-1.19,1.4a1.635,1.635,0,0,0,.412,1.207,1.116,1.116,0,0,0,.679.323h0a1.077,1.077,0,0,0,1-.451A.409.409,0,0,1,1665.76,1492.4Z" transform="translate(-1654.174 -1480.515)" fill="#474645"/>
              <path id="パス_873-2" data-name="パス 873" d="M1666.209,1498.78a.647.647,0,1,1-.663.646A.655.655,0,0,1,1666.209,1498.78Z" transform="translate(-1655.417 -1484.154)" fill="#a6a7a7"/>
              <rect id="長方形_92-2" data-name="長方形 92" width="6.352" height="5.762" rx="2.201" transform="translate(3.403 2.126)" fill="#a6a7a7"/>
              <path id="パス_874-2" data-name="パス 874" d="M1661.844,1498.78a.647.647,0,1,1-.664.646A.655.655,0,0,1,1661.844,1498.78Z" transform="translate(-1653.751 -1484.154)" fill="#a6a7a7"/>
            </g>
          </g>
        </g>
      </g>
      <rect id="長方形_1209" data-name="長方形 1209" width="146.231" height="3.709" transform="translate(20820.063 -4747.856)" fill="#333"/>
      <rect id="長方形_1206" data-name="長方形 1206" width="145.793" height="3.709" transform="translate(20981.297 -4747.856)" fill="#333"/>
      <g id="長方形_1207" data-name="長方形 1207" transform="translate(20981.336 -4748.147)" fill="none" stroke="#333" stroke-width="1">
        <rect width="145.793" height="95.641" stroke="none"/>
        <rect x="0.5" y="0.5" width="144.793" height="94.641" fill="none"/>
      </g>
      <g id="長方形_1210" data-name="長方形 1210" transform="translate(20819.865 -4747.956)" fill="none" stroke="#333" stroke-width="1">
        <rect width="146.428" height="95.449" stroke="none"/>
        <rect x="0.5" y="0.5" width="145.428" height="94.449" fill="none"/>
      </g>
      <text id="キャッシング-2" data-name="キャッシング" transform="translate(20883.539 -4759.185)" fill="#333" font-size="12" font-family="SourceHanSansJP-Bold, Source Han Sans JP" font-weight="700"><tspan x="0" y="0">キャッシング</tspan></text>
      <text id="カードローン" transform="translate(21043.932 -4759.185)" fill="#333" font-size="12" font-family="SourceHanSansJP-Bold, Source Han Sans JP" font-weight="700"><tspan x="0" y="0">カードローン</tspan></text>
      <g id="グループ_1380" data-name="グループ 1380" transform="translate(20971.496 -4776.924)">
        <g id="グループ_279-2" data-name="グループ 279" transform="translate(0 0)">
          <g id="楕円形_38-3" data-name="楕円形 38" transform="translate(0 8.914)" fill="#fcfcfc" stroke="#333" stroke-width="1">
            <ellipse cx="17.548" cy="17.27" rx="17.548" ry="17.27" stroke="none"/>
            <ellipse cx="17.548" cy="17.27" rx="17.048" ry="16.77" fill="none"/>
          </g>
          <rect id="長方形_89-3" data-name="長方形 89" width="37.882" height="21.727" transform="translate(25.626 2.785)" fill="#fff"/>
          <g id="長方形_90-3" data-name="長方形 90" transform="translate(25.626)" fill="#fcfcfc" stroke="#333" stroke-width="1">
            <rect width="39.554" height="25.626" rx="6" stroke="none"/>
            <rect x="0.5" y="0.5" width="38.554" height="24.626" rx="5.5" fill="none"/>
          </g>
          <text id="D社" transform="translate(9.981 39.388)" fill="#333" font-size="8" font-family="SourceHanSansJP-Bold, Source Han Sans JP" font-weight="700"><tspan x="0" y="0">D</tspan><tspan y="0">社</tspan></text>
          <rect id="長方形_91-3" data-name="長方形 91" width="8.356" height="12.813" transform="translate(24.512 13.927)" fill="#fcfcfc"/>
          <g id="グループ_278-2" data-name="グループ 278" transform="translate(9.36 13.688)" opacity="0.83">
            <rect id="長方形_31-2" data-name="長方形 31" width="7.922" height="16.7" transform="translate(7.321 0)" fill="none" stroke="#333" stroke-linecap="round" stroke-linejoin="round" stroke-width="1"/>
            <rect id="長方形_32-2" data-name="長方形 32" width="1.827" height="1.736" transform="translate(8.813 2.198)" fill="none" stroke="#333" stroke-linecap="round" stroke-linejoin="round" stroke-width="1"/>
            <rect id="長方形_33-2" data-name="長方形 33" width="1.827" height="1.736" transform="translate(11.923 2.198)" fill="none" stroke="#333" stroke-linecap="round" stroke-linejoin="round" stroke-width="1"/>
            <rect id="長方形_34-2" data-name="長方形 34" width="1.827" height="1.736" transform="translate(8.813 5.418)" fill="none" stroke="#333" stroke-linecap="round" stroke-linejoin="round" stroke-width="1"/>
            <rect id="長方形_35-2" data-name="長方形 35" width="1.827" height="1.736" transform="translate(11.923 5.418)" fill="none" stroke="#333" stroke-linecap="round" stroke-linejoin="round" stroke-width="1"/>
            <rect id="長方形_36-2" data-name="長方形 36" width="1.827" height="1.736" transform="translate(8.813 8.638)" fill="none" stroke="#333" stroke-linecap="round" stroke-linejoin="round" stroke-width="1"/>
            <rect id="長方形_37-2" data-name="長方形 37" width="3.135" height="3.575" transform="translate(9.617 13.125)" fill="none" stroke="#333" stroke-linecap="round" stroke-linejoin="round" stroke-width="1"/>
            <rect id="長方形_38-2" data-name="長方形 38" width="1.827" height="1.736" transform="translate(11.923 8.638)" fill="none" stroke="#333" stroke-linecap="round" stroke-linejoin="round" stroke-width="1"/>
            <rect id="長方形_39-2" data-name="長方形 39" width="7.321" height="11.283" transform="translate(0 5.418)" fill="none" stroke="#333" stroke-linecap="round" stroke-linejoin="round" stroke-width="1"/>
            <rect id="長方形_40-2" data-name="長方形 40" width="6.011" height="1.39" transform="translate(0 8.35)" fill="none" stroke="#333" stroke-linecap="round" stroke-linejoin="round" stroke-width="1"/>
            <rect id="長方形_41-2" data-name="長方形 41" width="6.011" height="1.39" transform="translate(0 11.426)" fill="none" stroke="#333" stroke-linecap="round" stroke-linejoin="round" stroke-width="1"/>
          </g>
        </g>
        <g id="グループ_282-2" data-name="グループ 282" transform="translate(28.692 2.813)">
          <g id="グループ_281-3" data-name="グループ 281">
            <g id="グループ_280-3" data-name="グループ 280">
              <path id="パス_839-3" data-name="パス 839" d="M1685.5,1491a1.449,1.449,0,0,1,.314,1.108c-.06,1.254-.7,1.355-1.52,1.355h-.128l.014-2.881A1.783,1.783,0,0,1,1685.5,1491Z" transform="translate(-1662.529 -1481.028)" fill="#f5f5f5"/>
              <path id="パス_840-3" data-name="パス 840" d="M1678.926,1491.263a.506.506,0,0,1-.166.411.907.907,0,0,1-.37.179l-.01,0a3.035,3.035,0,0,1-1.041.034v-1.327a2.083,2.083,0,0,1,1.4.18A.66.66,0,0,1,1678.926,1491.263Z" transform="translate(-1659.923 -1481.008)" fill="#f5f5f5"/>
              <path id="パス_841-3" data-name="パス 841" d="M1671.576,1491.813l.431.984h-.886Z" transform="translate(-1657.549 -1481.499)" fill="#f5f5f5"/>
              <path id="パス_842-3" data-name="パス 842" d="M1661.225,1487.884a.408.408,0,1,0-.7-.418,1.078,1.078,0,0,1-1,.451h0a1.118,1.118,0,0,1-.679-.323,1.635,1.635,0,0,1-.411-1.207c0-1.266.832-1.4,1.189-1.4a.916.916,0,0,1,.835.492.408.408,0,1,0,.725-.374,1.719,1.719,0,0,0-1.56-.934,1.991,1.991,0,0,0-2.006,2.219,2.407,2.407,0,0,0,.654,1.786,1.909,1.909,0,0,0,1.254.56h.008A1.842,1.842,0,0,0,1661.225,1487.884Zm.834-.891-.534,1.155a.408.408,0,0,0,.2.542.4.4,0,0,0,.171.038.41.41,0,0,0,.371-.238l.432-.934h1.621l.406.926a.409.409,0,0,0,.374.245.4.4,0,0,0,.164-.035.407.407,0,0,0,.209-.537l-.511-1.165-1.043-2.38a.4.4,0,0,0-.019-.039h0a.342.342,0,0,0-.032-.051c-.006-.008-.013-.015-.019-.023a.4.4,0,0,0-.138-.1h0l-.026-.011-.027-.009h0a.42.42,0,0,0-.056-.012.439.439,0,0,0-.1,0,.309.309,0,0,0-.079.017l0,0a.239.239,0,0,0-.031.01l-.007,0-.028.014a.17.17,0,0,0-.026.016.383.383,0,0,0-.072.058.379.379,0,0,0-.054.066c-.005.009-.011.017-.015.026s-.009.017-.013.026l-1.092,2.361A.348.348,0,0,0,1662.06,1486.993Zm19.1-10.03v16.873a1.054,1.054,0,0,1-1.089,1.012h-28.936a1.054,1.054,0,0,1-1.088-1.012v-16.873a1.054,1.054,0,0,1,1.088-1.012h28.936A1.054,1.054,0,0,1,1681.16,1476.963Zm-6.69,13.747a.663.663,0,1,0-.663.646A.654.654,0,0,0,1674.47,1490.71Zm-.868-4.149a2.224,2.224,0,0,0-.538-1.71,2.552,2.552,0,0,0-1.928-.674c-.167,0-.305.009-.414.015a.409.409,0,0,0-.385.406l-.017,3.68a.414.414,0,0,0,.12.291.39.39,0,0,0,.291.119h.03c.075,0,.154,0,.234,0l.272,0A2.009,2.009,0,0,0,1673.6,1486.561Zm-1.854,4.149a.664.664,0,1,0-.663.646A.654.654,0,0,0,1671.749,1490.71Zm-2.337-2.054a.408.408,0,0,0,.106-.568l-.838-1.22a1.394,1.394,0,0,0,.2-.146,1.319,1.319,0,0,0,.444-1.024,1.442,1.442,0,0,0-.458-1.131,2.808,2.808,0,0,0-2.151-.369c-.078.009-.174.02-.2.02a.408.408,0,0,0-.409.408v3.7a.408.408,0,0,0,.817,0v-1.18a4.079,4.079,0,0,0,.954-.009l.972,1.415a.407.407,0,0,0,.568.106Zm-.361,2.054a.664.664,0,1,0-.663.646A.655.655,0,0,0,1669.051,1490.71Zm-2.676,0a.663.663,0,1,0-.663.646A.654.654,0,0,0,1666.375,1490.71Zm-2.7,0a.663.663,0,1,0-.663.646A.655.655,0,0,0,1663.676,1490.71Zm-2.721,0a.663.663,0,1,0-.663.646A.655.655,0,0,0,1660.955,1490.71Zm-1.7-8.742v-3.039a1.36,1.36,0,0,0-1.36-1.361h-3.629a1.361,1.361,0,0,0-1.361,1.361v3.039a1.361,1.361,0,0,0,1.361,1.361h3.629A1.361,1.361,0,0,0,1659.254,1481.968Zm-1,8.742a.663.663,0,1,0-.663.646A.654.654,0,0,0,1658.256,1490.71Z" transform="translate(-1649.503 -1475.443)" fill="#f5f5f5"/>
              <path id="パス_843-3" data-name="パス 843" d="M1681.368,1476.652v16.906a1.582,1.582,0,0,1-1.633,1.521H1650.8a1.582,1.582,0,0,1-1.633-1.521v-16.906a1.582,1.582,0,0,1,1.633-1.522h28.935A1.582,1.582,0,0,1,1681.368,1476.652Zm-.544,16.906v-16.906a1.055,1.055,0,0,0-1.089-1.014H1650.8a1.055,1.055,0,0,0-1.089,1.014v16.906a1.054,1.054,0,0,0,1.089,1.014h28.935A1.055,1.055,0,0,0,1680.824,1493.557Z" transform="translate(-1649.167 -1475.13)" fill="#707070"/>
              <path id="パス_844-3" data-name="パス 844" d="M1688.07,1498.78a.646.646,0,1,1-.663.646A.654.654,0,0,1,1688.07,1498.78Z" transform="translate(-1663.767 -1484.159)" fill="#a6a7a7"/>
              <path id="パス_845-3" data-name="パス 845" d="M1685.584,1489.931a2.224,2.224,0,0,1,.538,1.71,2.009,2.009,0,0,1-2.336,2.132l-.272,0c-.081,0-.159,0-.234,0h-.03a.389.389,0,0,1-.29-.119.414.414,0,0,1-.12-.291l.017-3.68a.408.408,0,0,1,.385-.405c.109-.007.248-.016.414-.016A2.552,2.552,0,0,1,1685.584,1489.931Zm-.277,1.671a1.451,1.451,0,0,0-.314-1.108,1.785,1.785,0,0,0-1.321-.421l-.014,2.881h.128C1684.611,1492.956,1685.247,1492.856,1685.307,1491.6Z" transform="translate(-1662.023 -1480.524)" fill="#474645"/>
              <path id="パス_846-3" data-name="パス 846" d="M1683.668,1498.78a.646.646,0,1,1-.663.646A.654.654,0,0,1,1683.668,1498.78Z" transform="translate(-1662.086 -1484.159)" fill="#a6a7a7"/>
              <path id="パス_847-3" data-name="パス 847" d="M1680.526,1494.831a.408.408,0,1,1-.673.462l-.972-1.415a2.084,2.084,0,0,0,.807-.267Z" transform="translate(-1660.512 -1482.186)" fill="#474645"/>
              <path id="パス_848-3" data-name="パス 848" d="M1679.238,1490.758a1.32,1.32,0,0,1-.445,1.024,1.391,1.391,0,0,1-.2.146l-.284-.413a.409.409,0,0,0-.426-.167.905.905,0,0,0,.37-.179.506.506,0,0,0,.166-.411.66.66,0,0,0-.184-.521,2.084,2.084,0,0,0-1.4-.18v1.327a3.032,3.032,0,0,0,1.041-.034.407.407,0,0,0-.236.626l.149.218a4.093,4.093,0,0,1-.954.009v1.18a.408.408,0,0,1-.817,0v-3.7a.408.408,0,0,1,.409-.408c.029,0,.126-.011.2-.02a2.806,2.806,0,0,1,2.151.369A1.443,1.443,0,0,1,1679.238,1490.758Z" transform="translate(-1659.418 -1480.504)" fill="#474645"/>
              <path id="パス_849-3" data-name="パス 849" d="M1679.3,1498.78a.646.646,0,1,1-.663.646A.655.655,0,0,1,1679.3,1498.78Z" transform="translate(-1660.42 -1484.159)" fill="#a6a7a7"/>
              <path id="パス_850-3" data-name="パス 850" d="M1679.267,1492.834l.284.413a2.089,2.089,0,0,1-.807.267l-.149-.218a.408.408,0,0,1,.1-.568.413.413,0,0,1,.131-.059l.01,0A.409.409,0,0,1,1679.267,1492.834Z" transform="translate(-1660.375 -1481.822)" fill="#474645"/>
              <path id="パス_851-3" data-name="パス 851" d="M1674.976,1498.78a.646.646,0,1,1-.663.646A.654.654,0,0,1,1674.976,1498.78Z" transform="translate(-1658.768 -1484.159)" fill="#a6a7a7"/>
              <path id="パス_852-3" data-name="パス 852" d="M1673.776,1493.809l.511,1.165a.407.407,0,0,1-.21.537.4.4,0,0,1-.164.035.408.408,0,0,1-.374-.245l-.406-.926h.267a.408.408,0,0,0,.376-.567Z" transform="translate(-1658.317 -1482.262)" fill="#474645"/>
              <path id="パス_853-3" data-name="パス 853" d="M1673.555,1493.655a.408.408,0,0,1-.376.567h-.267l-.358-.817h.625A.407.407,0,0,1,1673.555,1493.655Z" transform="translate(-1658.096 -1482.107)" fill="#474645"/>
              <path id="パス_854-3" data-name="パス 854" d="M1671.774,1493.4l.358.816h-1.621l.377-.816Z" transform="translate(-1657.316 -1482.107)" fill="#474645"/>
              <path id="パス_855-3" data-name="パス 855" d="M1672.246,1489.958l1.043,2.381a.407.407,0,0,0-.376-.25h-.625l-.431-.984.38-.823A.407.407,0,0,0,1672.246,1489.958Z" transform="translate(-1657.83 -1480.791)" fill="#474645"/>
              <path id="パス_856-3" data-name="パス 856" d="M1672.474,1489.934l-.005-.011a.237.237,0,0,0-.014-.028A.368.368,0,0,1,1672.474,1489.934Z" transform="translate(-1658.058 -1480.767)" fill="#474645"/>
              <path id="パス_857-3" data-name="パス 857" d="M1671.981,1489.762a.223.223,0,0,1,.014.028l.005.011a.408.408,0,0,1-.009.324l-.38.823-.364-.83a.41.41,0,0,1,0-.333c0-.009.008-.018.013-.026l.015-.025a.424.424,0,0,1,.054-.066.383.383,0,0,1,.072-.058l.026-.016.028-.013.007,0,.031-.01,0,0a.352.352,0,0,1,.08-.017.442.442,0,0,1,.1,0l.056.012h0l.027.009.026.011a.415.415,0,0,1,.14.1.246.246,0,0,1,.018.023.434.434,0,0,1,.032.051Z" transform="translate(-1657.584 -1480.634)" fill="#474645"/>
              <path id="パス_858-3" data-name="パス 858" d="M1672.435,1489.862a.46.46,0,0,0-.032-.051A.322.322,0,0,1,1672.435,1489.862Z" transform="translate(-1658.038 -1480.735)" fill="#474645"/>
              <path id="パス_859-3" data-name="パス 859" d="M1672.149,1489.6a.406.406,0,0,1,.138.1.42.42,0,0,0-.141-.105Z" transform="translate(-1657.941 -1480.656)" fill="#474645"/>
              <path id="パス_860-3" data-name="パス 860" d="M1672.086,1489.58l-.027-.009Z" transform="translate(-1657.907 -1480.644)" fill="#474645"/>
              <path id="パス_861-3" data-name="パス 861" d="M1671.966,1489.551a.361.361,0,0,1,.056.012Z" transform="translate(-1657.872 -1480.636)" fill="#474645"/>
              <path id="パス_862-3" data-name="パス 862" d="M1671.805,1489.547a.41.41,0,0,1,.1,0A.442.442,0,0,0,1671.805,1489.547Z" transform="translate(-1657.81 -1480.633)" fill="#474645"/>
              <path id="パス_863-3" data-name="パス 863" d="M1670.61,1498.78a.646.646,0,1,1-.663.646A.655.655,0,0,1,1670.61,1498.78Z" transform="translate(-1657.101 -1484.159)" fill="#a6a7a7"/>
              <path id="パス_864-3" data-name="パス 864" d="M1671.756,1489.548a.368.368,0,0,0-.08.016A.325.325,0,0,1,1671.756,1489.548Z" transform="translate(-1657.761 -1480.635)" fill="#474645"/>
              <path id="パス_865-3" data-name="パス 865" d="M1671.65,1489.578l-.031.01A.2.2,0,0,1,1671.65,1489.578Z" transform="translate(-1657.739 -1480.646)" fill="#474645"/>
              <path id="パス_866-3" data-name="パス 866" d="M1671.546,1489.622l-.026.016Z" transform="translate(-1657.701 -1480.663)" fill="#474645"/>
              <path id="パス_867-3" data-name="パス 867" d="M1671.371,1489.741a.452.452,0,0,0-.054.066A.363.363,0,0,1,1671.371,1489.741Z" transform="translate(-1657.624 -1480.708)" fill="#474645"/>
              <path id="パス_868-3" data-name="パス 868" d="M1671.308,1489.848l-.015.025C1671.3,1489.865,1671.3,1489.857,1671.308,1489.848Z" transform="translate(-1657.615 -1480.749)" fill="#474645"/>
              <path id="パス_869-3" data-name="パス 869" d="M1670.6,1490.264l.365.83-.454.984h-.639a.408.408,0,0,0-.359.214l1.091-2.361A.412.412,0,0,0,1670.6,1490.264Z" transform="translate(-1656.933 -1480.781)" fill="#474645"/>
              <path id="パス_870-3" data-name="パス 870" d="M1670.475,1493.4l-.377.817h-.262a.409.409,0,0,1-.408-.409.437.437,0,0,1,.049-.194.409.409,0,0,1,.359-.214Z" transform="translate(-1656.903 -1482.107)" fill="#474645"/>
              <path id="パス_871-3" data-name="パス 871" d="M1669.094,1493.968a.408.408,0,0,0,.408.408h.261l-.432.934a.41.41,0,0,1-.371.238.409.409,0,0,1-.37-.58l.534-1.155A.407.407,0,0,0,1669.094,1493.968Z" transform="translate(-1656.568 -1482.263)" fill="#474645"/>
              <path id="パス_872-3" data-name="パス 872" d="M1665.759,1492.4a.408.408,0,0,1,.14.56,1.843,1.843,0,0,1-1.7.849h-.007a1.91,1.91,0,0,1-1.254-.56,2.406,2.406,0,0,1-.653-1.786,1.991,1.991,0,0,1,2.006-2.22,1.721,1.721,0,0,1,1.561.934.408.408,0,0,1-.726.375.915.915,0,0,0-.835-.492c-.357,0-1.189.137-1.189,1.4a1.635,1.635,0,0,0,.412,1.207,1.117,1.117,0,0,0,.679.323h0a1.078,1.078,0,0,0,1-.452A.408.408,0,0,1,1665.759,1492.4Z" transform="translate(-1654.177 -1480.518)" fill="#474645"/>
              <path id="パス_873-3" data-name="パス 873" d="M1666.209,1498.78a.646.646,0,1,1-.663.646A.655.655,0,0,1,1666.209,1498.78Z" transform="translate(-1655.421 -1484.159)" fill="#a6a7a7"/>
              <rect id="長方形_92-3" data-name="長方形 92" width="6.35" height="5.76" rx="2.201" transform="translate(3.401 2.125)" fill="#a6a7a7"/>
              <path id="パス_874-3" data-name="パス 874" d="M1661.844,1498.78a.646.646,0,1,1-.663.646A.655.655,0,0,1,1661.844,1498.78Z" transform="translate(-1653.754 -1484.159)" fill="#a6a7a7"/>
            </g>
          </g>
        </g>
      </g>
      <g id="グループ_1385" data-name="グループ 1385" transform="translate(20813.738 -4776.924)">
        <g id="グループ_284" data-name="グループ 284" transform="translate(0 0)">
          <g id="グループ_279-3" data-name="グループ 279" transform="translate(0)">
            <g id="楕円形_38-4" data-name="楕円形 38" transform="translate(0 8.914)" fill="#fcfcfc" stroke="#333" stroke-width="1">
              <ellipse cx="17.27" cy="17.27" rx="17.27" ry="17.27" stroke="none"/>
              <ellipse cx="17.27" cy="17.27" rx="16.77" ry="16.77" fill="none"/>
            </g>
            <rect id="長方形_89-4" data-name="長方形 89" width="37.325" height="21.727" transform="translate(25.626 2.785)" fill="#fff"/>
            <g id="長方形_90-4" data-name="長方形 90" transform="translate(25.626)" fill="#fcfcfc" stroke="#333" stroke-width="1">
              <rect width="39.554" height="25.626" rx="6" stroke="none"/>
              <rect x="0.5" y="0.5" width="38.554" height="24.626" rx="5.5" fill="none"/>
            </g>
            <text id="C社" transform="translate(10.769 39.426)" fill="#333" font-size="8" font-family="SourceHanSansJP-Bold, Source Han Sans JP" font-weight="700"><tspan x="0" y="0">C</tspan><tspan y="0">社</tspan></text>
            <rect id="長方形_91-4" data-name="長方形 91" width="8.356" height="12.813" transform="translate(24.512 13.927)" fill="#fcfcfc"/>
            <g id="グループ_285-2" data-name="グループ 285" transform="translate(8.772 14.504)" opacity="0.83">
              <rect id="長方形_42-2" data-name="長方形 42" width="5.788" height="12.597" transform="translate(0 3.324)" fill="none" stroke="#333" stroke-linecap="round" stroke-linejoin="round" stroke-width="1"/>
              <path id="パス_115-2" data-name="パス 115" d="M1036.812,388.958V404.88h5.787V388.958Z" transform="translate(-1031.024 -388.958)" fill="none" stroke="#333" stroke-linecap="round" stroke-linejoin="round" stroke-width="1"/>
              <rect id="長方形_43-2" data-name="長方形 43" width="2.851" height="3.203" transform="translate(7.256 12.719)" fill="none" stroke="#333" stroke-linecap="round" stroke-linejoin="round" stroke-width="1"/>
              <rect id="長方形_44-2" data-name="長方形 44" width="5.788" height="12.597" transform="translate(11.575 3.324)" fill="none" stroke="#333" stroke-linecap="round" stroke-linejoin="round" stroke-width="1"/>
              <rect id="長方形_45-2" data-name="長方形 45" width="1.257" height="1.982" transform="translate(13.84 5.413)" fill="none" stroke="#333" stroke-linecap="round" stroke-linejoin="round" stroke-width="1"/>
              <rect id="長方形_46-2" data-name="長方形 46" width="1.257" height="1.982" transform="translate(13.84 8.972)" fill="none" stroke="#333" stroke-linecap="round" stroke-linejoin="round" stroke-width="1"/>
              <rect id="長方形_47-2" data-name="長方形 47" width="1.257" height="1.982" transform="translate(8.053 5.413)" fill="none" stroke="#333" stroke-linecap="round" stroke-linejoin="round" stroke-width="1"/>
              <rect id="長方形_48-2" data-name="長方形 48" width="1.257" height="1.982" transform="translate(8.053 8.972)" fill="none" stroke="#333" stroke-linecap="round" stroke-linejoin="round" stroke-width="1"/>
              <rect id="長方形_49-2" data-name="長方形 49" width="1.257" height="1.982" transform="translate(2.265 5.413)" fill="none" stroke="#333" stroke-linecap="round" stroke-linejoin="round" stroke-width="1"/>
              <rect id="長方形_50-2" data-name="長方形 50" width="1.257" height="1.982" transform="translate(2.265 8.972)" fill="none" stroke="#333" stroke-linecap="round" stroke-linejoin="round" stroke-width="1"/>
              <line id="線_16-2" data-name="線 16" y2="3.203" transform="translate(8.681 12.719)" fill="none" stroke="#333" stroke-linecap="round" stroke-linejoin="round" stroke-width="1"/>
            </g>
          </g>
          <g id="グループ_282-3" data-name="グループ 282" transform="translate(28.581 2.813)">
            <g id="グループ_281-4" data-name="グループ 281">
              <g id="グループ_280-4" data-name="グループ 280">
                <path id="パス_839-4" data-name="パス 839" d="M1685.5,1491a1.449,1.449,0,0,1,.314,1.108c-.06,1.254-.7,1.355-1.52,1.355h-.128l.014-2.881A1.783,1.783,0,0,1,1685.5,1491Z" transform="translate(-1662.529 -1481.028)" fill="#f5f5f5"/>
                <path id="パス_840-4" data-name="パス 840" d="M1678.926,1491.263a.506.506,0,0,1-.166.411.907.907,0,0,1-.37.179l-.01,0a3.035,3.035,0,0,1-1.041.034v-1.327a2.083,2.083,0,0,1,1.4.18A.66.66,0,0,1,1678.926,1491.263Z" transform="translate(-1659.923 -1481.008)" fill="#f5f5f5"/>
                <path id="パス_841-4" data-name="パス 841" d="M1671.576,1491.813l.431.984h-.886Z" transform="translate(-1657.549 -1481.499)" fill="#f5f5f5"/>
                <path id="パス_842-4" data-name="パス 842" d="M1661.225,1487.884a.408.408,0,1,0-.7-.418,1.078,1.078,0,0,1-1,.451h0a1.118,1.118,0,0,1-.679-.323,1.635,1.635,0,0,1-.411-1.207c0-1.266.832-1.4,1.189-1.4a.916.916,0,0,1,.835.492.408.408,0,1,0,.725-.374,1.719,1.719,0,0,0-1.56-.934,1.991,1.991,0,0,0-2.006,2.219,2.407,2.407,0,0,0,.654,1.786,1.909,1.909,0,0,0,1.254.56h.008A1.842,1.842,0,0,0,1661.225,1487.884Zm.834-.891-.534,1.155a.408.408,0,0,0,.2.542.4.4,0,0,0,.171.038.41.41,0,0,0,.371-.238l.432-.934h1.621l.406.926a.409.409,0,0,0,.374.245.4.4,0,0,0,.164-.035.407.407,0,0,0,.209-.537l-.511-1.165-1.043-2.38a.4.4,0,0,0-.019-.039h0a.342.342,0,0,0-.032-.051c-.006-.008-.013-.015-.019-.023a.4.4,0,0,0-.138-.1h0l-.026-.011-.027-.009h0a.42.42,0,0,0-.056-.012.439.439,0,0,0-.1,0,.309.309,0,0,0-.079.017l0,0a.239.239,0,0,0-.031.01l-.007,0-.028.014a.17.17,0,0,0-.026.016.383.383,0,0,0-.072.058.379.379,0,0,0-.054.066c-.005.009-.011.017-.015.026s-.009.017-.013.026l-1.092,2.361A.348.348,0,0,0,1662.06,1486.993Zm19.1-10.03v16.873a1.054,1.054,0,0,1-1.089,1.012h-28.936a1.054,1.054,0,0,1-1.088-1.012v-16.873a1.054,1.054,0,0,1,1.088-1.012h28.936A1.054,1.054,0,0,1,1681.16,1476.963Zm-6.69,13.747a.663.663,0,1,0-.663.646A.654.654,0,0,0,1674.47,1490.71Zm-.868-4.149a2.224,2.224,0,0,0-.538-1.71,2.552,2.552,0,0,0-1.928-.674c-.167,0-.305.009-.414.015a.409.409,0,0,0-.385.406l-.017,3.68a.414.414,0,0,0,.12.291.39.39,0,0,0,.291.119h.03c.075,0,.154,0,.234,0l.272,0A2.009,2.009,0,0,0,1673.6,1486.561Zm-1.854,4.149a.664.664,0,1,0-.663.646A.654.654,0,0,0,1671.749,1490.71Zm-2.337-2.054a.408.408,0,0,0,.106-.568l-.838-1.22a1.394,1.394,0,0,0,.2-.146,1.319,1.319,0,0,0,.444-1.024,1.442,1.442,0,0,0-.458-1.131,2.808,2.808,0,0,0-2.151-.369c-.078.009-.174.02-.2.02a.408.408,0,0,0-.409.408v3.7a.408.408,0,0,0,.817,0v-1.18a4.079,4.079,0,0,0,.954-.009l.972,1.415a.407.407,0,0,0,.568.106Zm-.361,2.054a.664.664,0,1,0-.663.646A.655.655,0,0,0,1669.051,1490.71Zm-2.676,0a.663.663,0,1,0-.663.646A.654.654,0,0,0,1666.375,1490.71Zm-2.7,0a.663.663,0,1,0-.663.646A.655.655,0,0,0,1663.676,1490.71Zm-2.721,0a.663.663,0,1,0-.663.646A.655.655,0,0,0,1660.955,1490.71Zm-1.7-8.742v-3.039a1.36,1.36,0,0,0-1.36-1.361h-3.629a1.361,1.361,0,0,0-1.361,1.361v3.039a1.361,1.361,0,0,0,1.361,1.361h3.629A1.361,1.361,0,0,0,1659.254,1481.968Zm-1,8.742a.663.663,0,1,0-.663.646A.654.654,0,0,0,1658.256,1490.71Z" transform="translate(-1649.503 -1475.443)" fill="#f5f5f5"/>
                <path id="パス_843-4" data-name="パス 843" d="M1681.368,1476.652v16.906a1.582,1.582,0,0,1-1.633,1.521H1650.8a1.582,1.582,0,0,1-1.633-1.521v-16.906a1.582,1.582,0,0,1,1.633-1.522h28.935A1.582,1.582,0,0,1,1681.368,1476.652Zm-.544,16.906v-16.906a1.055,1.055,0,0,0-1.089-1.014H1650.8a1.055,1.055,0,0,0-1.089,1.014v16.906a1.054,1.054,0,0,0,1.089,1.014h28.935A1.055,1.055,0,0,0,1680.824,1493.557Z" transform="translate(-1649.167 -1475.13)" fill="#707070"/>
                <path id="パス_844-4" data-name="パス 844" d="M1688.07,1498.78a.646.646,0,1,1-.663.646A.654.654,0,0,1,1688.07,1498.78Z" transform="translate(-1663.767 -1484.159)" fill="#a6a7a7"/>
                <path id="パス_845-4" data-name="パス 845" d="M1685.584,1489.931a2.224,2.224,0,0,1,.538,1.71,2.009,2.009,0,0,1-2.336,2.132l-.272,0c-.081,0-.159,0-.234,0h-.03a.389.389,0,0,1-.29-.119.414.414,0,0,1-.12-.291l.017-3.68a.408.408,0,0,1,.385-.405c.109-.007.248-.016.414-.016A2.552,2.552,0,0,1,1685.584,1489.931Zm-.277,1.671a1.451,1.451,0,0,0-.314-1.108,1.785,1.785,0,0,0-1.321-.421l-.014,2.881h.128C1684.611,1492.956,1685.247,1492.856,1685.307,1491.6Z" transform="translate(-1662.023 -1480.524)" fill="#474645"/>
                <path id="パス_846-4" data-name="パス 846" d="M1683.668,1498.78a.646.646,0,1,1-.663.646A.654.654,0,0,1,1683.668,1498.78Z" transform="translate(-1662.086 -1484.159)" fill="#a6a7a7"/>
                <path id="パス_847-4" data-name="パス 847" d="M1680.526,1494.831a.408.408,0,1,1-.673.462l-.972-1.415a2.084,2.084,0,0,0,.807-.267Z" transform="translate(-1660.512 -1482.186)" fill="#474645"/>
                <path id="パス_848-4" data-name="パス 848" d="M1679.238,1490.758a1.32,1.32,0,0,1-.445,1.024,1.391,1.391,0,0,1-.2.146l-.284-.413a.409.409,0,0,0-.426-.167.905.905,0,0,0,.37-.179.506.506,0,0,0,.166-.411.66.66,0,0,0-.184-.521,2.084,2.084,0,0,0-1.4-.18v1.327a3.032,3.032,0,0,0,1.041-.034.407.407,0,0,0-.236.626l.149.218a4.093,4.093,0,0,1-.954.009v1.18a.408.408,0,0,1-.817,0v-3.7a.408.408,0,0,1,.409-.408c.029,0,.126-.011.2-.02a2.806,2.806,0,0,1,2.151.369A1.443,1.443,0,0,1,1679.238,1490.758Z" transform="translate(-1659.418 -1480.504)" fill="#474645"/>
                <path id="パス_849-4" data-name="パス 849" d="M1679.3,1498.78a.646.646,0,1,1-.663.646A.655.655,0,0,1,1679.3,1498.78Z" transform="translate(-1660.42 -1484.159)" fill="#a6a7a7"/>
                <path id="パス_850-4" data-name="パス 850" d="M1679.267,1492.834l.284.413a2.089,2.089,0,0,1-.807.267l-.149-.218a.408.408,0,0,1,.1-.568.413.413,0,0,1,.131-.059l.01,0A.409.409,0,0,1,1679.267,1492.834Z" transform="translate(-1660.375 -1481.822)" fill="#474645"/>
                <path id="パス_851-4" data-name="パス 851" d="M1674.976,1498.78a.646.646,0,1,1-.663.646A.654.654,0,0,1,1674.976,1498.78Z" transform="translate(-1658.768 -1484.159)" fill="#a6a7a7"/>
                <path id="パス_852-4" data-name="パス 852" d="M1673.776,1493.809l.511,1.165a.407.407,0,0,1-.21.537.4.4,0,0,1-.164.035.408.408,0,0,1-.374-.245l-.406-.926h.267a.408.408,0,0,0,.376-.567Z" transform="translate(-1658.317 -1482.262)" fill="#474645"/>
                <path id="パス_853-4" data-name="パス 853" d="M1673.555,1493.655a.408.408,0,0,1-.376.567h-.267l-.358-.817h.625A.407.407,0,0,1,1673.555,1493.655Z" transform="translate(-1658.096 -1482.107)" fill="#474645"/>
                <path id="パス_854-4" data-name="パス 854" d="M1671.774,1493.4l.358.816h-1.621l.377-.816Z" transform="translate(-1657.316 -1482.107)" fill="#474645"/>
                <path id="パス_855-4" data-name="パス 855" d="M1672.246,1489.958l1.043,2.381a.407.407,0,0,0-.376-.25h-.625l-.431-.984.38-.823A.407.407,0,0,0,1672.246,1489.958Z" transform="translate(-1657.83 -1480.791)" fill="#474645"/>
                <path id="パス_856-4" data-name="パス 856" d="M1672.474,1489.934l-.005-.011a.237.237,0,0,0-.014-.028A.368.368,0,0,1,1672.474,1489.934Z" transform="translate(-1658.058 -1480.767)" fill="#474645"/>
                <path id="パス_857-4" data-name="パス 857" d="M1671.981,1489.762a.223.223,0,0,1,.014.028l.005.011a.408.408,0,0,1-.009.324l-.38.823-.364-.83a.41.41,0,0,1,0-.333c0-.009.008-.018.013-.026l.015-.025a.424.424,0,0,1,.054-.066.383.383,0,0,1,.072-.058l.026-.016.028-.013.007,0,.031-.01,0,0a.352.352,0,0,1,.08-.017.442.442,0,0,1,.1,0l.056.012h0l.027.009.026.011a.415.415,0,0,1,.14.1.246.246,0,0,1,.018.023.434.434,0,0,1,.032.051Z" transform="translate(-1657.584 -1480.634)" fill="#474645"/>
                <path id="パス_858-4" data-name="パス 858" d="M1672.435,1489.862a.46.46,0,0,0-.032-.051A.322.322,0,0,1,1672.435,1489.862Z" transform="translate(-1658.038 -1480.735)" fill="#474645"/>
                <path id="パス_859-4" data-name="パス 859" d="M1672.149,1489.6a.406.406,0,0,1,.138.1.42.42,0,0,0-.141-.105Z" transform="translate(-1657.941 -1480.656)" fill="#474645"/>
                <path id="パス_860-4" data-name="パス 860" d="M1672.086,1489.58l-.027-.009Z" transform="translate(-1657.907 -1480.644)" fill="#474645"/>
                <path id="パス_861-4" data-name="パス 861" d="M1671.966,1489.551a.361.361,0,0,1,.056.012Z" transform="translate(-1657.872 -1480.636)" fill="#474645"/>
                <path id="パス_862-4" data-name="パス 862" d="M1671.805,1489.547a.41.41,0,0,1,.1,0A.442.442,0,0,0,1671.805,1489.547Z" transform="translate(-1657.81 -1480.633)" fill="#474645"/>
                <path id="パス_863-4" data-name="パス 863" d="M1670.61,1498.78a.646.646,0,1,1-.663.646A.655.655,0,0,1,1670.61,1498.78Z" transform="translate(-1657.101 -1484.159)" fill="#a6a7a7"/>
                <path id="パス_864-4" data-name="パス 864" d="M1671.756,1489.548a.368.368,0,0,0-.08.016A.325.325,0,0,1,1671.756,1489.548Z" transform="translate(-1657.761 -1480.635)" fill="#474645"/>
                <path id="パス_865-4" data-name="パス 865" d="M1671.65,1489.578l-.031.01A.2.2,0,0,1,1671.65,1489.578Z" transform="translate(-1657.739 -1480.646)" fill="#474645"/>
                <path id="パス_866-4" data-name="パス 866" d="M1671.546,1489.622l-.026.016Z" transform="translate(-1657.701 -1480.663)" fill="#474645"/>
                <path id="パス_867-4" data-name="パス 867" d="M1671.371,1489.741a.452.452,0,0,0-.054.066A.363.363,0,0,1,1671.371,1489.741Z" transform="translate(-1657.624 -1480.708)" fill="#474645"/>
                <path id="パス_868-4" data-name="パス 868" d="M1671.308,1489.848l-.015.025C1671.3,1489.865,1671.3,1489.857,1671.308,1489.848Z" transform="translate(-1657.615 -1480.749)" fill="#474645"/>
                <path id="パス_869-4" data-name="パス 869" d="M1670.6,1490.264l.365.83-.454.984h-.639a.408.408,0,0,0-.359.214l1.091-2.361A.412.412,0,0,0,1670.6,1490.264Z" transform="translate(-1656.933 -1480.781)" fill="#474645"/>
                <path id="パス_870-4" data-name="パス 870" d="M1670.475,1493.4l-.377.817h-.262a.409.409,0,0,1-.408-.409.437.437,0,0,1,.049-.194.409.409,0,0,1,.359-.214Z" transform="translate(-1656.903 -1482.107)" fill="#474645"/>
                <path id="パス_871-4" data-name="パス 871" d="M1669.094,1493.968a.408.408,0,0,0,.408.408h.261l-.432.934a.41.41,0,0,1-.371.238.409.409,0,0,1-.37-.58l.534-1.155A.407.407,0,0,0,1669.094,1493.968Z" transform="translate(-1656.568 -1482.263)" fill="#474645"/>
                <path id="パス_872-4" data-name="パス 872" d="M1665.759,1492.4a.408.408,0,0,1,.14.56,1.843,1.843,0,0,1-1.7.849h-.007a1.91,1.91,0,0,1-1.254-.56,2.406,2.406,0,0,1-.653-1.786,1.991,1.991,0,0,1,2.006-2.22,1.721,1.721,0,0,1,1.561.934.408.408,0,0,1-.726.375.915.915,0,0,0-.835-.492c-.357,0-1.189.137-1.189,1.4a1.635,1.635,0,0,0,.412,1.207,1.117,1.117,0,0,0,.679.323h0a1.078,1.078,0,0,0,1-.452A.408.408,0,0,1,1665.759,1492.4Z" transform="translate(-1654.177 -1480.518)" fill="#474645"/>
                <path id="パス_873-4" data-name="パス 873" d="M1666.209,1498.78a.646.646,0,1,1-.663.646A.655.655,0,0,1,1666.209,1498.78Z" transform="translate(-1655.421 -1484.159)" fill="#a6a7a7"/>
                <rect id="長方形_92-4" data-name="長方形 92" width="6.35" height="5.76" rx="2.201" transform="translate(3.401 2.125)" fill="#a6a7a7"/>
                <path id="パス_874-4" data-name="パス 874" d="M1661.844,1498.78a.646.646,0,1,1-.663.646A.655.655,0,0,1,1661.844,1498.78Z" transform="translate(-1653.754 -1484.159)" fill="#a6a7a7"/>
              </g>
            </g>
          </g>
        </g>
      </g>
    </g>
  </g>
</svg>
