<svg xmlns="http://www.w3.org/2000/svg" width="919" height="706.231" viewBox="0 0 919 706.231">
  <g id="グループ_1474" data-name="グループ 1474" transform="translate(-500.403 -1918)">
    <g id="グループ_1467" data-name="グループ 1467">
      <g id="グループ_1466" data-name="グループ 1466">
        <g id="長方形_93" data-name="長方形 93" transform="translate(500.403 2011.531)" fill="#fcfcfc" stroke="#efefef" stroke-width="8" stroke-dasharray="13">
          <rect width="919" height="612.7" stroke="none"/>
          <rect x="4" y="4" width="911" height="604.7" fill="none"/>
        </g>
        <g id="パス_911" data-name="パス 911" transform="translate(696 1918)" fill="#fcfcfc" stroke-dasharray="13">
          <path d="M0,0H534V103H0Z" stroke="none"/>
          <path d="M 0 0 L 13 0 L 13 8 L 0 8 L 0 0 Z M 26 0 L 39 0 L 39 8 L 26 8 L 26 0 Z M 52 0 L 65 0 L 65 8 L 52 8 L 52 0 Z M 78 0 L 91 0 L 91 8 L 78 8 L 78 0 Z M 104 0 L 117 0 L 117 8 L 104 8 L 104 0 Z M 130 0 L 143 0 L 143 8 L 130 8 L 130 0 Z M 156 0 L 169 0 L 169 8 L 156 8 L 156 0 Z M 182 0 L 195 0 L 195 8 L 182 8 L 182 0 Z M 208 0 L 221 0 L 221 8 L 208 8 L 208 0 Z M 234 0 L 247 0 L 247 8 L 234 8 L 234 0 Z M 260 0 L 273 0 L 273 8 L 260 8 L 260 0 Z M 286 0 L 299 0 L 299 8 L 286 8 L 286 0 Z M 312 0 L 325 0 L 325 8 L 312 8 L 312 0 Z M 338 0 L 351 0 L 351 8 L 338 8 L 338 0 Z M 364 0 L 377 0 L 377 8 L 364 8 L 364 0 Z M 390 0 L 403 0 L 403 8 L 390 8 L 390 0 Z M 416 0 L 429 0 L 429 8 L 416 8 L 416 0 Z M 442 0 L 455 0 L 455 8 L 442 8 L 442 0 Z M 468 0 L 481 0 L 481 8 L 468 8 L 468 0 Z M 494 0 L 507 0 L 507 8 L 494 8 L 494 0 Z M 520 0 L 533 0 L 533 8 L 520 8 L 520 0 Z M 526 12 L 534 12 C 534 12 534 25 534 25 L 526 25 L 526 12 Z M 526 38 L 534 38 C 534 38 534 51 534 51 L 526 51 L 526 38 Z M 526 64 L 534 64 C 534 64 534 77 534 77 L 526 77 L 526 64 Z M 526 90 L 534 90 C 534 90 534 103 534 103 L 526 103 L 526 90 Z M 508 95 L 521 95 L 521 103 C 521 103 508 103 508 103 L 508 95 Z M 482 95 L 495 95 L 495 103 C 495 103 482 103 482 103 L 482 95 Z M 456 95 L 469 95 L 469 103 C 469 103 456 103 456 103 L 456 95 Z M 430 95 L 443 95 L 443 103 C 443 103 430 103 430 103 L 430 95 Z M 404 95 L 417 95 L 417 103 C 417 103 404 103 404 103 L 404 95 Z M 378 95 L 391 95 L 391 103 C 391 103 378 103 378 103 L 378 95 Z M 352 95 L 365 95 L 365 103 C 365 103 352 103 352 103 L 352 95 Z M 326 95 L 339 95 L 339 103 C 339 103 326 103 326 103 L 326 95 Z M 300 95 L 313 95 L 313 103 C 313 103 300 103 300 103 L 300 95 Z M 274 95 L 287 95 L 287 103 C 287 103 274 103 274 103 L 274 95 Z M 248 95 L 261 95 L 261 103 C 261 103 248 103 248 103 L 248 95 Z M 222 95 L 235 95 L 235 103 C 235 103 222 103 222 103 L 222 95 Z M 196 95 L 209 95 L 209 103 C 209 103 196 103 196 103 L 196 95 Z M 170 95 L 183 95 L 183 103 C 183 103 170 103 170 103 L 170 95 Z M 144 95 L 157 95 L 157 103 C 157 103 144 103 144 103 L 144 95 Z M 118 95 L 131 95 L 131 103 C 131 103 118 103 118 103 L 118 95 Z M 92 95 L 105 95 L 105 103 C 105 103 92 103 92 103 L 92 95 Z M 66 95 L 79 95 L 79 103 C 79 103 66 103 66 103 L 66 95 Z M 40 95 L 53 95 L 53 103 C 53 103 40 103 40 103 L 40 95 Z M 14 95 L 27 95 L 27 103 C 27 103 14 103 14 103 L 14 95 Z M 0 91 L 8 91 L 8 103 L 1 103 L 8 103 L 0 103 L 1 103 L 0 103 L 0 91 Z M 0 65 L 8 65 L 8 78 L 0 78 L 0 65 Z M 0 39 L 8 39 L 8 52 L 0 52 L 0 39 Z M 0 13 L 8 13 L 8 26 L 0 26 L 0 13 Z" stroke="none" fill="#efefef"/>
        </g>
      </g>
      <rect id="長方形_114" data-name="長方形 114" width="517" height="54" transform="translate(704 1992)" fill="#fcfcfc"/>
    </g>
    <g id="グループ_1469" data-name="グループ 1469">
      <g id="グループ_203" data-name="グループ 203" transform="translate(632.892 2129.906)">
        <rect id="長方形_55" data-name="長方形 55" width="291.961" height="6.661" transform="translate(0 47.348)" fill="#333"/>
        <text id="リボ払い" transform="translate(127.321 26)" fill="#333" font-size="22" font-family="SourceHanSansJP-Bold, Source Han Sans JP" font-weight="700"><tspan x="0" y="0">リボ</tspan><tspan y="0">払</tspan><tspan y="0">い</tspan></text>
        <g id="長方形_58" data-name="長方形 58" transform="translate(0 47.187)" fill="none" stroke="#333" stroke-width="1">
          <rect width="291.961" height="165.408" stroke="none"/>
          <rect x="0.5" y="0.5" width="290.961" height="164.408" fill="none"/>
        </g>
      </g>
      <g id="グループ_388" data-name="グループ 388" transform="translate(668.241 2192.408)">
        <text id="借入額" transform="translate(21.115 25.776)" fill="#333" font-size="17" font-family="SourceHanSansJP-Medium, Source Han Sans JP" font-weight="500"><tspan x="0" y="0">借入額</tspan></text>
        <text id="_150万円" data-name="150万円" transform="translate(110.92 27)" fill="#333" font-size="22" font-family="SourceHanSansJP-Bold, Source Han Sans JP" font-weight="700"><tspan x="0" y="0">150万円</tspan></text>
        <text id="金利" transform="translate(38.524 61.391)" fill="#333" font-size="17" font-family="SourceHanSansJP-Medium, Source Han Sans JP" font-weight="500"><tspan x="0" y="0">金利</tspan></text>
        <text id="返済金額" transform="translate(4.615 94.005)" fill="#333" font-size="17" font-family="SourceHanSansJP-Medium, Source Han Sans JP" font-weight="500"><tspan x="0" y="0">返済金額</tspan></text>
        <text id="_13_" data-name="13%" transform="translate(110.92 64.644)" fill="#333" font-size="22" font-family="SourceHanSansJP-Bold, Source Han Sans JP" font-weight="700"><tspan x="0" y="0">13%</tspan></text>
        <text id="月々_39_000_円" data-name="月々 39,000 円" transform="translate(35.524 129.596)" fill="#333" font-size="20" font-family="SourceHanSansJP-Bold, Source Han Sans JP" font-weight="700"><tspan x="0" y="0">月々</tspan><tspan y="0" font-size="24"> </tspan><tspan y="0" fill="#ea6552" font-size="36">39,000</tspan><tspan y="0" font-size="28"> </tspan><tspan y="0" font-size="26" font-family="SourceHanSansJP-Medium, Source Han Sans JP" font-weight="500">円</tspan></text>
        <path id="多角形_1" data-name="多角形 1" d="M7.771,0l7.771,14.432H0Z" transform="translate(101.219 48.121) rotate(90)" fill="#333"/>
        <path id="多角形_2" data-name="多角形 2" d="M7.771,0l7.771,14.432H0Z" transform="translate(101.219 10.603) rotate(90)" fill="#333"/>
      </g>
      <g id="グループ_1468" data-name="グループ 1468">
        <g id="グループ_279" data-name="グループ 279" transform="translate(621.791 2122.697)">
          <g id="楕円形_38" data-name="楕円形 38" transform="translate(0 16.652)" fill="#fcfcfc" stroke="#333" stroke-width="1">
            <circle cx="31.083" cy="31.083" r="31.083" stroke="none"/>
            <circle cx="31.083" cy="31.083" r="30.583" fill="none"/>
          </g>
          <rect id="長方形_89" data-name="長方形 89" width="67.717" height="38.854" transform="translate(45.515 5.551)" fill="#fff"/>
          <g id="長方形_90" data-name="長方形 90" transform="translate(45.515 0)" fill="#fcfcfc" stroke="#333" stroke-width="1">
            <rect width="71.048" height="46.625" rx="6" stroke="none"/>
            <rect x="0.5" y="0.5" width="70.048" height="45.625" rx="5.5" fill="none"/>
          </g>
          <text id="A社" transform="translate(21.092 67.396)" fill="#333" font-size="11" font-family="SourceHanSansJP-Bold, Source Han Sans JP" font-weight="700"><tspan x="0" y="0">A</tspan><tspan y="0">社</tspan></text>
          <rect id="長方形_91" data-name="長方形 91" width="15.542" height="23.312" transform="translate(43.295 25.533)" fill="#fcfcfc"/>
          <g id="グループ_278" data-name="グループ 278" transform="translate(16.35 25.08)" opacity="0.83">
            <rect id="長方形_31" data-name="長方形 31" width="14.225" height="29.989" transform="translate(13.146 0)" fill="none" stroke="#333" stroke-linecap="round" stroke-linejoin="round" stroke-width="1"/>
            <rect id="長方形_32" data-name="長方形 32" width="3.281" height="3.117" transform="translate(15.826 3.948)" fill="none" stroke="#333" stroke-linecap="round" stroke-linejoin="round" stroke-width="1"/>
            <rect id="長方形_33" data-name="長方形 33" width="3.281" height="3.117" transform="translate(21.411 3.948)" fill="none" stroke="#333" stroke-linecap="round" stroke-linejoin="round" stroke-width="1"/>
            <rect id="長方形_34" data-name="長方形 34" width="3.281" height="3.117" transform="translate(15.826 9.729)" fill="none" stroke="#333" stroke-linecap="round" stroke-linejoin="round" stroke-width="1"/>
            <rect id="長方形_35" data-name="長方形 35" width="3.281" height="3.117" transform="translate(21.411 9.729)" fill="none" stroke="#333" stroke-linecap="round" stroke-linejoin="round" stroke-width="1"/>
            <rect id="長方形_36" data-name="長方形 36" width="3.281" height="3.117" transform="translate(15.826 15.51)" fill="none" stroke="#333" stroke-linecap="round" stroke-linejoin="round" stroke-width="1"/>
            <rect id="長方形_37" data-name="長方形 37" width="5.63" height="6.42" transform="translate(17.269 23.57)" fill="none" stroke="#333" stroke-linecap="round" stroke-linejoin="round" stroke-width="1"/>
            <rect id="長方形_38" data-name="長方形 38" width="3.281" height="3.117" transform="translate(21.411 15.51)" fill="none" stroke="#333" stroke-linecap="round" stroke-linejoin="round" stroke-width="1"/>
            <rect id="長方形_39" data-name="長方形 39" width="13.146" height="20.26" transform="translate(0 9.729)" fill="none" stroke="#333" stroke-linecap="round" stroke-linejoin="round" stroke-width="1"/>
            <rect id="長方形_40" data-name="長方形 40" width="10.794" height="2.496" transform="translate(0 14.995)" fill="none" stroke="#333" stroke-linecap="round" stroke-linejoin="round" stroke-width="1"/>
            <rect id="長方形_41" data-name="長方形 41" width="10.794" height="2.496" transform="translate(0 20.517)" fill="none" stroke="#333" stroke-linecap="round" stroke-linejoin="round" stroke-width="1"/>
          </g>
        </g>
        <g id="グループ_282" data-name="グループ 282" transform="translate(672.856 2128.248)">
          <g id="グループ_281" data-name="グループ 281" transform="translate(0 0)">
            <g id="グループ_280" data-name="グループ 280">
              <path id="パス_839" data-name="パス 839" d="M1686.561,1491.333a2.6,2.6,0,0,1,.563,1.989c-.108,2.252-1.249,2.432-2.73,2.432-.077,0-.154,0-.23,0l.025-5.174A3.2,3.2,0,0,1,1686.561,1491.333Z" transform="translate(-1645.313 -1473.429)" fill="#f5f5f5"/>
              <path id="パス_840" data-name="パス 840" d="M1680.189,1491.849a.909.909,0,0,1-.3.738,1.623,1.623,0,0,1-.665.321l-.019.006a5.468,5.468,0,0,1-1.868.06v-2.383a3.743,3.743,0,0,1,2.52.323A1.187,1.187,0,0,1,1680.189,1491.849Z" transform="translate(-1646.065 -1473.435)" fill="#f5f5f5"/>
              <path id="パス_841" data-name="パス 841" d="M1671.938,1491.813l.775,1.768h-1.59Z" transform="translate(-1646.749 -1473.293)" fill="#f5f5f5"/>
              <path id="パス_842" data-name="パス 842" d="M1670.12,1497.38a.733.733,0,1,0-1.258-.752,1.934,1.934,0,0,1-1.8.81h0a2,2,0,0,1-1.219-.581,2.935,2.935,0,0,1-.739-2.167c0-2.273,1.494-2.519,2.136-2.519a1.645,1.645,0,0,1,1.5.884.733.733,0,1,0,1.3-.673,3.089,3.089,0,0,0-2.8-1.678c-.37,0-3.6.111-3.6,3.985a4.322,4.322,0,0,0,1.173,3.207,3.43,3.43,0,0,0,2.253,1.006h.013A3.308,3.308,0,0,0,1670.12,1497.38Zm1.5-1.6-.959,2.075a.733.733,0,1,0,1.33.615l.776-1.677h2.911l.729,1.663a.734.734,0,0,0,.672.44.713.713,0,0,0,.294-.063.731.731,0,0,0,.376-.965l-.917-2.093-1.873-4.275a.672.672,0,0,0-.034-.07h0a.6.6,0,0,0-.058-.092c-.01-.015-.022-.028-.033-.041a.712.712,0,0,0-.248-.188h0l-.048-.02c-.016-.007-.033-.011-.049-.017h0a.69.69,0,0,0-.1-.021.742.742,0,0,0-.179,0,.583.583,0,0,0-.143.03l-.008,0a.353.353,0,0,0-.056.019l-.012.005c-.017.007-.034.016-.051.024a.339.339,0,0,0-.047.028.677.677,0,0,0-.129.1.658.658,0,0,0-.1.119c-.009.016-.019.03-.027.046s-.015.031-.023.047l-1.959,4.24A.555.555,0,0,0,1671.618,1495.78Zm34.3-18.012v30.3a1.893,1.893,0,0,1-1.955,1.817H1652a1.892,1.892,0,0,1-1.955-1.817v-30.3a1.892,1.892,0,0,1,1.955-1.817h51.96A1.893,1.893,0,0,1,1705.917,1477.768Zm-12.014,24.686a1.192,1.192,0,1,0-1.191,1.16A1.175,1.175,0,0,0,1693.9,1502.454Zm-1.557-7.451a4,4,0,0,0-.967-3.071,4.584,4.584,0,0,0-3.462-1.21c-.3,0-.547.016-.744.028a.733.733,0,0,0-.69.728l-.031,6.608a.743.743,0,0,0,.215.522.7.7,0,0,0,.522.213h.053c.135,0,.276,0,.421.005s.322,0,.488,0C1689.351,1498.831,1692.159,1498.831,1692.346,1495Zm-3.329,7.451a1.192,1.192,0,1,0-1.191,1.16A1.175,1.175,0,0,0,1689.016,1502.454Zm-4.2-3.688a.732.732,0,0,0,.19-1.019l-1.505-2.191a2.532,2.532,0,0,0,.357-.262,2.37,2.37,0,0,0,.8-1.839,2.592,2.592,0,0,0-.823-2.03c-1.1-.98-2.9-.773-3.862-.662-.14.016-.312.036-.365.036a.733.733,0,0,0-.734.733v6.641a.733.733,0,0,0,1.466,0v-2.119a7.33,7.33,0,0,0,1.713-.017l1.745,2.541a.733.733,0,0,0,.605.32A.725.725,0,0,0,1684.82,1498.766Zm-.648,3.688a1.192,1.192,0,1,0-1.191,1.16A1.176,1.176,0,0,0,1684.172,1502.454Zm-4.806,0a1.191,1.191,0,1,0-1.191,1.16A1.175,1.175,0,0,0,1679.366,1502.454Zm-4.846,0a1.192,1.192,0,1,0-1.191,1.16A1.176,1.176,0,0,0,1674.521,1502.454Zm-4.886,0a1.192,1.192,0,1,0-1.191,1.16A1.176,1.176,0,0,0,1669.635,1502.454Zm-3.055-15.7V1481.3a2.443,2.443,0,0,0-2.442-2.443h-6.516a2.444,2.444,0,0,0-2.443,2.443v5.456a2.444,2.444,0,0,0,2.443,2.443h6.516A2.444,2.444,0,0,0,1666.58,1486.756Zm-1.792,15.7a1.192,1.192,0,1,0-1.191,1.16A1.175,1.175,0,0,0,1664.788,1502.454Z" transform="translate(-1649.07 -1475.04)" fill="#f5f5f5"/>
              <path id="パス_843" data-name="パス 843" d="M1706.991,1477.863v30.357a2.841,2.841,0,0,1-2.932,2.732H1652.1a2.841,2.841,0,0,1-2.932-2.732v-30.357a2.842,2.842,0,0,1,2.932-2.733h51.96A2.842,2.842,0,0,1,1706.991,1477.863Zm-.977,30.357v-30.357a1.9,1.9,0,0,0-1.955-1.822H1652.1a1.894,1.894,0,0,0-1.955,1.822v30.357a1.894,1.894,0,0,0,1.955,1.822h51.96A1.9,1.9,0,0,0,1706.014,1508.22Z" transform="translate(-1649.167 -1475.13)" fill="#707070"/>
              <path id="パス_844" data-name="パス 844" d="M1688.6,1498.78a1.16,1.16,0,1,1-1.191,1.16A1.175,1.175,0,0,1,1688.6,1498.78Z" transform="translate(-1644.956 -1472.526)" fill="#a6a7a7"/>
              <path id="パス_845" data-name="パス 845" d="M1687.768,1490.467a4,4,0,0,1,.967,3.071c-.187,3.828-3,3.828-4.2,3.828-.167,0-.33,0-.488,0s-.285-.005-.421-.005h-.053a.7.7,0,0,1-.522-.213.743.743,0,0,1-.215-.522l.031-6.608a.733.733,0,0,1,.69-.728c.2-.012.445-.028.744-.028A4.583,4.583,0,0,1,1687.768,1490.467Zm-.5,3a2.6,2.6,0,0,0-.563-1.989,3.206,3.206,0,0,0-2.372-.755l-.024,5.174c.075,0,.153,0,.23,0C1686.021,1495.9,1687.162,1495.72,1687.269,1493.468Z" transform="translate(-1645.459 -1473.574)" fill="#474645"/>
              <path id="パス_846" data-name="パス 846" d="M1684.2,1498.78a1.16,1.16,0,1,1-1.191,1.16A1.175,1.175,0,0,1,1684.2,1498.78Z" transform="translate(-1645.441 -1472.526)" fill="#a6a7a7"/>
              <path id="パス_847" data-name="パス 847" d="M1681.835,1495.8a.733.733,0,1,1-1.209.829l-1.745-2.541a3.753,3.753,0,0,0,1.449-.479Z" transform="translate(-1645.895 -1473.095)" fill="#474645"/>
              <path id="パス_848" data-name="パス 848" d="M1681.8,1491.995a2.37,2.37,0,0,1-.8,1.839,2.532,2.532,0,0,1-.357.262l-.51-.742a.734.734,0,0,0-.765-.3,1.625,1.625,0,0,0,.665-.321.909.909,0,0,0,.3-.738,1.187,1.187,0,0,0-.331-.936,3.743,3.743,0,0,0-2.52-.323v2.383a5.464,5.464,0,0,0,1.868-.06.722.722,0,0,0-.235.105.732.732,0,0,0-.189,1.019l.269.392a7.33,7.33,0,0,1-1.713.017v2.119a.733.733,0,0,1-1.466,0v-6.641a.733.733,0,0,1,.734-.733c.053,0,.225-.02.365-.036.965-.111,2.762-.318,3.862.662A2.592,2.592,0,0,1,1681.8,1491.995Z" transform="translate(-1646.21 -1473.58)" fill="#474645"/>
              <path id="パス_849" data-name="パス 849" d="M1679.832,1498.78a1.16,1.16,0,1,1-1.191,1.16A1.176,1.176,0,0,1,1679.832,1498.78Z" transform="translate(-1645.921 -1472.526)" fill="#a6a7a7"/>
              <path id="パス_850" data-name="パス 850" d="M1679.86,1492.975l.51.742a3.749,3.749,0,0,1-1.449.479l-.269-.392a.732.732,0,0,1,.189-1.019.722.722,0,0,1,.235-.105l.019-.005A.734.734,0,0,1,1679.86,1492.975Z" transform="translate(-1645.934 -1473.2)" fill="#474645"/>
              <path id="パス_851" data-name="パス 851" d="M1675.5,1498.78a1.16,1.16,0,1,1-1.19,1.16A1.175,1.175,0,0,1,1675.5,1498.78Z" transform="translate(-1646.398 -1472.526)" fill="#a6a7a7"/>
              <path id="パス_852" data-name="パス 852" d="M1674.287,1493.809l.917,2.093a.731.731,0,0,1-.376.965.713.713,0,0,1-.294.063.734.734,0,0,1-.672-.44l-.729-1.663h.479a.733.733,0,0,0,.675-1.018Z" transform="translate(-1646.528 -1473.073)" fill="#474645"/>
              <path id="パス_853" data-name="パス 853" d="M1674.351,1493.853a.733.733,0,0,1-.675,1.018h-.479l-.643-1.466h1.122A.731.731,0,0,1,1674.351,1493.853Z" transform="translate(-1646.592 -1473.118)" fill="#474645"/>
              <path id="パス_854" data-name="パス 854" d="M1672.779,1493.405l.643,1.466h-2.911l.678-1.466Z" transform="translate(-1646.817 -1473.118)" fill="#474645"/>
              <path id="パス_855" data-name="パス 855" d="M1672.555,1489.958l1.873,4.275a.731.731,0,0,0-.675-.448h-1.122l-.774-1.767.683-1.478A.733.733,0,0,0,1672.555,1489.958Z" transform="translate(-1646.668 -1473.497)" fill="#474645"/>
              <path id="パス_856" data-name="パス 856" d="M1672.49,1489.965l-.01-.02a.427.427,0,0,0-.024-.05A.672.672,0,0,1,1672.49,1489.965Z" transform="translate(-1646.603 -1473.504)" fill="#474645"/>
              <path id="パス_857" data-name="パス 857" d="M1672.592,1489.934a.447.447,0,0,1,.024.05l.01.02a.733.733,0,0,1-.016.582l-.683,1.478-.654-1.491a.738.738,0,0,1,0-.6c.008-.016.015-.032.023-.047l.027-.046a.828.828,0,0,1,.1-.119.683.683,0,0,1,.129-.1.351.351,0,0,1,.047-.028c.017-.009.034-.018.051-.024l.012-.005a.5.5,0,0,1,.056-.019l.008,0a.65.65,0,0,1,.143-.03.793.793,0,0,1,.179,0c.033.006.067.012.1.021h0c.016.007.033.011.049.017l.048.02a.749.749,0,0,1,.252.189c.011.013.023.027.033.041a.835.835,0,0,1,.058.092Z" transform="translate(-1646.739 -1473.543)" fill="#474645"/>
              <path id="パス_858" data-name="パス 858" d="M1672.461,1489.9a.863.863,0,0,0-.058-.092A.594.594,0,0,1,1672.461,1489.9Z" transform="translate(-1646.608 -1473.513)" fill="#474645"/>
              <path id="パス_859" data-name="パス 859" d="M1672.15,1489.605a.712.712,0,0,1,.248.188.751.751,0,0,0-.252-.189Z" transform="translate(-1646.637 -1473.536)" fill="#474645"/>
              <path id="パス_860" data-name="パス 860" d="M1672.108,1489.588c-.016-.006-.033-.01-.049-.017C1672.075,1489.577,1672.092,1489.581,1672.108,1489.588Z" transform="translate(-1646.646 -1473.54)" fill="#474645"/>
              <path id="パス_861" data-name="パス 861" d="M1671.966,1489.551a.69.69,0,0,1,.1.021C1672.033,1489.563,1672,1489.557,1671.966,1489.551Z" transform="translate(-1646.656 -1473.542)" fill="#474645"/>
              <path id="パス_862" data-name="パス 862" d="M1671.805,1489.548a.742.742,0,0,1,.179,0A.8.8,0,0,0,1671.805,1489.548Z" transform="translate(-1646.674 -1473.543)" fill="#474645"/>
              <path id="パス_863" data-name="パス 863" d="M1671.138,1498.78a1.16,1.16,0,1,1-1.191,1.16A1.176,1.176,0,0,1,1671.138,1498.78Z" transform="translate(-1646.879 -1472.526)" fill="#a6a7a7"/>
              <path id="パス_864" data-name="パス 864" d="M1671.819,1489.548a.664.664,0,0,0-.143.03A.583.583,0,0,1,1671.819,1489.548Z" transform="translate(-1646.688 -1473.542)" fill="#474645"/>
              <path id="パス_865" data-name="パス 865" d="M1671.675,1489.578a.522.522,0,0,0-.056.019A.353.353,0,0,1,1671.675,1489.578Z" transform="translate(-1646.695 -1473.539)" fill="#474645"/>
              <path id="パス_866" data-name="パス 866" d="M1671.567,1489.622a.339.339,0,0,0-.047.028A.339.339,0,0,1,1671.567,1489.622Z" transform="translate(-1646.706 -1473.534)" fill="#474645"/>
              <path id="パス_867" data-name="パス 867" d="M1671.414,1489.741a.822.822,0,0,0-.1.119A.658.658,0,0,1,1671.414,1489.741Z" transform="translate(-1646.728 -1473.521)" fill="#474645"/>
              <path id="パス_868" data-name="パス 868" d="M1671.32,1489.848l-.027.046C1671.3,1489.878,1671.311,1489.864,1671.32,1489.848Z" transform="translate(-1646.731 -1473.509)" fill="#474645"/>
              <path id="パス_869" data-name="パス 869" d="M1671.462,1490.529l.654,1.491-.816,1.766h-1.148a.734.734,0,0,0-.645.384l1.959-4.24A.738.738,0,0,0,1671.462,1490.529Z" transform="translate(-1646.927 -1473.5)" fill="#474645"/>
              <path id="パス_870" data-name="パス 870" d="M1671.308,1493.4l-.678,1.466h-.47a.734.734,0,0,1-.733-.734.725.725,0,0,1,.056-.279.555.555,0,0,1,.032-.07.734.734,0,0,1,.645-.384Z" transform="translate(-1646.936 -1473.118)" fill="#474645"/>
              <path id="パス_871" data-name="パス 871" d="M1669.524,1494.092a.734.734,0,0,0,.733.734h.47l-.776,1.677a.736.736,0,0,1-.666.426.734.734,0,0,1-.664-1.041l.959-2.075A.725.725,0,0,0,1669.524,1494.092Z" transform="translate(-1647.032 -1473.073)" fill="#474645"/>
              <path id="パス_872" data-name="パス 872" d="M1668.52,1494.91a.733.733,0,0,1,.252,1.006,3.308,3.308,0,0,1-3.044,1.524h-.013a3.43,3.43,0,0,1-2.253-1.006,4.322,4.322,0,0,1-1.173-3.207c0-3.874,3.233-3.985,3.6-3.985a3.089,3.089,0,0,1,2.8,1.678.733.733,0,1,1-1.3.673,1.645,1.645,0,0,0-1.5-.884c-.642,0-2.136.245-2.136,2.519a2.935,2.935,0,0,0,.739,2.167,2,2,0,0,0,1.219.581h0a1.934,1.934,0,0,0,1.8-.81A.733.733,0,0,1,1668.52,1494.91Z" transform="translate(-1647.722 -1473.576)" fill="#474645"/>
              <path id="パス_873" data-name="パス 873" d="M1666.737,1498.78a1.16,1.16,0,1,1-1.191,1.16A1.176,1.176,0,0,1,1666.737,1498.78Z" transform="translate(-1647.363 -1472.526)" fill="#a6a7a7"/>
              <rect id="長方形_92" data-name="長方形 92" width="11.403" height="10.343" rx="2.201" transform="translate(6.108 3.817)" fill="#a6a7a7"/>
              <path id="パス_874" data-name="パス 874" d="M1662.371,1498.78a1.16,1.16,0,1,1-1.191,1.16A1.175,1.175,0,0,1,1662.371,1498.78Z" transform="translate(-1647.844 -1472.526)" fill="#a6a7a7"/>
            </g>
          </g>
        </g>
      </g>
    </g>
    <g id="グループ_1470" data-name="グループ 1470">
      <rect id="長方形_52" data-name="長方形 52" width="291.961" height="6.661" transform="translate(1005.271 2177.254)" fill="#333"/>
      <g id="グループ_71" data-name="グループ 71" transform="translate(1039.463 2192.408)">
        <text id="借入額-2" data-name="借入額" transform="translate(21.115 25.776)" fill="#333" font-size="17" font-family="SourceHanSansJP-Medium, Source Han Sans JP" font-weight="500"><tspan x="0" y="0">借入額</tspan></text>
        <text id="_70万円" data-name="70万円" transform="translate(110.92 27)" fill="#333" font-size="22" font-family="SourceHanSansJP-Bold, Source Han Sans JP" font-weight="700"><tspan x="0" y="0">70万円</tspan></text>
        <text id="金利-2" data-name="金利" transform="translate(38.524 61.391)" fill="#333" font-size="17" font-family="SourceHanSansJP-Medium, Source Han Sans JP" font-weight="500"><tspan x="0" y="0">金利</tspan></text>
        <text id="返済金額-2" data-name="返済金額" transform="translate(4.615 94.005)" fill="#333" font-size="17" font-family="SourceHanSansJP-Medium, Source Han Sans JP" font-weight="500"><tspan x="0" y="0">返済金額</tspan></text>
        <text id="_18_" data-name="18%" transform="translate(110.92 64.644)" fill="#333" font-size="22" font-family="SourceHanSansJP-Bold, Source Han Sans JP" font-weight="700"><tspan x="0" y="0">18%</tspan></text>
        <text id="月々_30_000_円" data-name="月々 30,000 円" transform="translate(35.524 129.596)" fill="#333" font-size="20" font-family="SourceHanSansJP-Bold, Source Han Sans JP" font-weight="700"><tspan x="0" y="0">月々</tspan><tspan y="0" font-size="24"> </tspan><tspan y="0" fill="#ea6552" font-size="36">30,000</tspan><tspan y="0" font-size="28"> </tspan><tspan y="0" font-size="26" font-family="SourceHanSansJP-Medium, Source Han Sans JP" font-weight="500">円</tspan></text>
        <path id="多角形_1-2" data-name="多角形 1" d="M7.771,0l7.771,14.432H0Z" transform="translate(101.219 48.121) rotate(90)" fill="#333"/>
        <path id="多角形_2-2" data-name="多角形 2" d="M7.771,0l7.771,14.432H0Z" transform="translate(101.219 10.603) rotate(90)" fill="#333"/>
      </g>
      <g id="長方形_59" data-name="長方形 59" transform="translate(1005.337 2177.092)" fill="none" stroke="#333" stroke-width="1">
        <rect width="291.739" height="165.408" stroke="none"/>
        <rect x="0.5" y="0.5" width="290.739" height="164.408" fill="none"/>
      </g>
      <text id="キャッシング" transform="translate(1122.791 2156)" fill="#333" font-size="22" font-family="SourceHanSansJP-Bold, Source Han Sans JP" font-weight="700"><tspan x="0" y="0">キャッシング</tspan></text>
      <g id="グループ_284" data-name="グループ 284" transform="translate(988.129 2122.697)">
        <g id="グループ_279-2" data-name="グループ 279" transform="translate(0 0)">
          <g id="楕円形_38-2" data-name="楕円形 38" transform="translate(0 16.652)" fill="#fcfcfc" stroke="#333" stroke-width="1">
            <circle cx="31.083" cy="31.083" r="31.083" stroke="none"/>
            <circle cx="31.083" cy="31.083" r="30.583" fill="none"/>
          </g>
          <rect id="長方形_89-2" data-name="長方形 89" width="67.717" height="38.854" transform="translate(45.515 5.551)" fill="#fff"/>
          <g id="長方形_90-2" data-name="長方形 90" transform="translate(45.515 0)" fill="#fcfcfc" stroke="#333" stroke-width="1">
            <rect width="71.048" height="46.625" rx="6" stroke="none"/>
            <rect x="0.5" y="0.5" width="70.048" height="45.625" rx="5.5" fill="none"/>
          </g>
          <text id="B社" transform="translate(21.092 67.396)" fill="#333" font-size="11" font-family="SourceHanSansJP-Bold, Source Han Sans JP" font-weight="700"><tspan x="0" y="0">B</tspan><tspan y="0">社</tspan></text>
          <rect id="長方形_91-2" data-name="長方形 91" width="15.542" height="23.312" transform="translate(43.295 25.533)" fill="#fcfcfc"/>
          <g id="グループ_285" data-name="グループ 285" transform="translate(15.494 26.545)" opacity="0.83">
            <rect id="長方形_42" data-name="長方形 42" width="10.393" height="22.621" transform="translate(0 5.97)" fill="none" stroke="#333" stroke-linecap="round" stroke-linejoin="round" stroke-width="1"/>
            <path id="パス_115" data-name="パス 115" d="M1036.812,388.958v28.591H1047.2V388.958Z" transform="translate(-1026.419 -388.958)" fill="none" stroke="#333" stroke-linecap="round" stroke-linejoin="round" stroke-width="1"/>
            <rect id="長方形_43" data-name="長方形 43" width="5.12" height="5.751" transform="translate(13.029 22.84)" fill="none" stroke="#333" stroke-linecap="round" stroke-linejoin="round" stroke-width="1"/>
            <rect id="長方形_44" data-name="長方形 44" width="10.393" height="22.621" transform="translate(20.786 5.97)" fill="none" stroke="#333" stroke-linecap="round" stroke-linejoin="round" stroke-width="1"/>
            <rect id="長方形_45" data-name="長方形 45" width="2.257" height="3.559" transform="translate(24.854 9.72)" fill="none" stroke="#333" stroke-linecap="round" stroke-linejoin="round" stroke-width="1"/>
            <rect id="長方形_46" data-name="長方形 46" width="2.257" height="3.559" transform="translate(24.854 16.111)" fill="none" stroke="#333" stroke-linecap="round" stroke-linejoin="round" stroke-width="1"/>
            <rect id="長方形_47" data-name="長方形 47" width="2.257" height="3.559" transform="translate(14.461 9.72)" fill="none" stroke="#333" stroke-linecap="round" stroke-linejoin="round" stroke-width="1"/>
            <rect id="長方形_48" data-name="長方形 48" width="2.257" height="3.559" transform="translate(14.461 16.111)" fill="none" stroke="#333" stroke-linecap="round" stroke-linejoin="round" stroke-width="1"/>
            <rect id="長方形_49" data-name="長方形 49" width="2.257" height="3.559" transform="translate(4.068 9.72)" fill="none" stroke="#333" stroke-linecap="round" stroke-linejoin="round" stroke-width="1"/>
            <rect id="長方形_50" data-name="長方形 50" width="2.257" height="3.559" transform="translate(4.068 16.111)" fill="none" stroke="#333" stroke-linecap="round" stroke-linejoin="round" stroke-width="1"/>
            <line id="線_16" data-name="線 16" y2="5.751" transform="translate(15.589 22.84)" fill="none" stroke="#333" stroke-linecap="round" stroke-linejoin="round" stroke-width="1"/>
          </g>
        </g>
        <g id="グループ_282-2" data-name="グループ 282" transform="translate(51.065 5.551)">
          <g id="グループ_281-2" data-name="グループ 281" transform="translate(0 0)">
            <g id="グループ_280-2" data-name="グループ 280">
              <path id="パス_839-2" data-name="パス 839" d="M1686.561,1491.333a2.6,2.6,0,0,1,.563,1.989c-.108,2.252-1.249,2.432-2.73,2.432-.077,0-.154,0-.23,0l.025-5.174A3.2,3.2,0,0,1,1686.561,1491.333Z" transform="translate(-1645.313 -1473.429)" fill="#f5f5f5"/>
              <path id="パス_840-2" data-name="パス 840" d="M1680.189,1491.849a.909.909,0,0,1-.3.738,1.623,1.623,0,0,1-.665.321l-.019.006a5.468,5.468,0,0,1-1.868.06v-2.383a3.743,3.743,0,0,1,2.52.323A1.187,1.187,0,0,1,1680.189,1491.849Z" transform="translate(-1646.065 -1473.435)" fill="#f5f5f5"/>
              <path id="パス_841-2" data-name="パス 841" d="M1671.938,1491.813l.775,1.768h-1.59Z" transform="translate(-1646.749 -1473.293)" fill="#f5f5f5"/>
              <path id="パス_842-2" data-name="パス 842" d="M1670.12,1497.38a.733.733,0,1,0-1.258-.752,1.934,1.934,0,0,1-1.8.81h0a2,2,0,0,1-1.219-.581,2.935,2.935,0,0,1-.739-2.167c0-2.273,1.494-2.519,2.136-2.519a1.645,1.645,0,0,1,1.5.884.733.733,0,1,0,1.3-.673,3.089,3.089,0,0,0-2.8-1.678c-.37,0-3.6.111-3.6,3.985a4.322,4.322,0,0,0,1.173,3.207,3.43,3.43,0,0,0,2.253,1.006h.013A3.308,3.308,0,0,0,1670.12,1497.38Zm1.5-1.6-.959,2.075a.733.733,0,1,0,1.33.615l.776-1.677h2.911l.729,1.663a.734.734,0,0,0,.672.44.713.713,0,0,0,.294-.063.731.731,0,0,0,.376-.965l-.917-2.093-1.873-4.275a.672.672,0,0,0-.034-.07h0a.6.6,0,0,0-.058-.092c-.01-.015-.022-.028-.033-.041a.712.712,0,0,0-.248-.188h0l-.048-.02c-.016-.007-.033-.011-.049-.017h0a.69.69,0,0,0-.1-.021.742.742,0,0,0-.179,0,.583.583,0,0,0-.143.03l-.008,0a.353.353,0,0,0-.056.019l-.012.005c-.017.007-.034.016-.051.024a.339.339,0,0,0-.047.028.677.677,0,0,0-.129.1.658.658,0,0,0-.1.119c-.009.016-.019.03-.027.046s-.015.031-.023.047l-1.959,4.24A.555.555,0,0,0,1671.618,1495.78Zm34.3-18.012v30.3a1.893,1.893,0,0,1-1.955,1.817H1652a1.892,1.892,0,0,1-1.955-1.817v-30.3a1.892,1.892,0,0,1,1.955-1.817h51.96A1.893,1.893,0,0,1,1705.917,1477.768Zm-12.014,24.686a1.192,1.192,0,1,0-1.191,1.16A1.175,1.175,0,0,0,1693.9,1502.454Zm-1.557-7.451a4,4,0,0,0-.967-3.071,4.584,4.584,0,0,0-3.462-1.21c-.3,0-.547.016-.744.028a.733.733,0,0,0-.69.728l-.031,6.608a.743.743,0,0,0,.215.522.7.7,0,0,0,.522.213h.053c.135,0,.276,0,.421.005s.322,0,.488,0C1689.351,1498.831,1692.159,1498.831,1692.346,1495Zm-3.329,7.451a1.192,1.192,0,1,0-1.191,1.16A1.175,1.175,0,0,0,1689.016,1502.454Zm-4.2-3.688a.732.732,0,0,0,.19-1.019l-1.505-2.191a2.532,2.532,0,0,0,.357-.262,2.37,2.37,0,0,0,.8-1.839,2.592,2.592,0,0,0-.823-2.03c-1.1-.98-2.9-.773-3.862-.662-.14.016-.312.036-.365.036a.733.733,0,0,0-.734.733v6.641a.733.733,0,0,0,1.466,0v-2.119a7.33,7.33,0,0,0,1.713-.017l1.745,2.541a.733.733,0,0,0,.605.32A.725.725,0,0,0,1684.82,1498.766Zm-.648,3.688a1.192,1.192,0,1,0-1.191,1.16A1.176,1.176,0,0,0,1684.172,1502.454Zm-4.806,0a1.191,1.191,0,1,0-1.191,1.16A1.175,1.175,0,0,0,1679.366,1502.454Zm-4.846,0a1.192,1.192,0,1,0-1.191,1.16A1.176,1.176,0,0,0,1674.521,1502.454Zm-4.886,0a1.192,1.192,0,1,0-1.191,1.16A1.176,1.176,0,0,0,1669.635,1502.454Zm-3.055-15.7V1481.3a2.443,2.443,0,0,0-2.442-2.443h-6.516a2.444,2.444,0,0,0-2.443,2.443v5.456a2.444,2.444,0,0,0,2.443,2.443h6.516A2.444,2.444,0,0,0,1666.58,1486.756Zm-1.792,15.7a1.192,1.192,0,1,0-1.191,1.16A1.175,1.175,0,0,0,1664.788,1502.454Z" transform="translate(-1649.07 -1475.04)" fill="#f5f5f5"/>
              <path id="パス_843-2" data-name="パス 843" d="M1706.991,1477.863v30.357a2.841,2.841,0,0,1-2.932,2.732H1652.1a2.841,2.841,0,0,1-2.932-2.732v-30.357a2.842,2.842,0,0,1,2.932-2.733h51.96A2.842,2.842,0,0,1,1706.991,1477.863Zm-.977,30.357v-30.357a1.9,1.9,0,0,0-1.955-1.822H1652.1a1.894,1.894,0,0,0-1.955,1.822v30.357a1.894,1.894,0,0,0,1.955,1.822h51.96A1.9,1.9,0,0,0,1706.014,1508.22Z" transform="translate(-1649.167 -1475.13)" fill="#707070"/>
              <path id="パス_844-2" data-name="パス 844" d="M1688.6,1498.78a1.16,1.16,0,1,1-1.191,1.16A1.175,1.175,0,0,1,1688.6,1498.78Z" transform="translate(-1644.956 -1472.526)" fill="#a6a7a7"/>
              <path id="パス_845-2" data-name="パス 845" d="M1687.768,1490.467a4,4,0,0,1,.967,3.071c-.187,3.828-3,3.828-4.2,3.828-.167,0-.33,0-.488,0s-.285-.005-.421-.005h-.053a.7.7,0,0,1-.522-.213.743.743,0,0,1-.215-.522l.031-6.608a.733.733,0,0,1,.69-.728c.2-.012.445-.028.744-.028A4.583,4.583,0,0,1,1687.768,1490.467Zm-.5,3a2.6,2.6,0,0,0-.563-1.989,3.206,3.206,0,0,0-2.372-.755l-.024,5.174c.075,0,.153,0,.23,0C1686.021,1495.9,1687.162,1495.72,1687.269,1493.468Z" transform="translate(-1645.459 -1473.574)" fill="#474645"/>
              <path id="パス_846-2" data-name="パス 846" d="M1684.2,1498.78a1.16,1.16,0,1,1-1.191,1.16A1.175,1.175,0,0,1,1684.2,1498.78Z" transform="translate(-1645.441 -1472.526)" fill="#a6a7a7"/>
              <path id="パス_847-2" data-name="パス 847" d="M1681.835,1495.8a.733.733,0,1,1-1.209.829l-1.745-2.541a3.753,3.753,0,0,0,1.449-.479Z" transform="translate(-1645.895 -1473.095)" fill="#474645"/>
              <path id="パス_848-2" data-name="パス 848" d="M1681.8,1491.995a2.37,2.37,0,0,1-.8,1.839,2.532,2.532,0,0,1-.357.262l-.51-.742a.734.734,0,0,0-.765-.3,1.625,1.625,0,0,0,.665-.321.909.909,0,0,0,.3-.738,1.187,1.187,0,0,0-.331-.936,3.743,3.743,0,0,0-2.52-.323v2.383a5.464,5.464,0,0,0,1.868-.06.722.722,0,0,0-.235.105.732.732,0,0,0-.189,1.019l.269.392a7.33,7.33,0,0,1-1.713.017v2.119a.733.733,0,0,1-1.466,0v-6.641a.733.733,0,0,1,.734-.733c.053,0,.225-.02.365-.036.965-.111,2.762-.318,3.862.662A2.592,2.592,0,0,1,1681.8,1491.995Z" transform="translate(-1646.21 -1473.58)" fill="#474645"/>
              <path id="パス_849-2" data-name="パス 849" d="M1679.832,1498.78a1.16,1.16,0,1,1-1.191,1.16A1.176,1.176,0,0,1,1679.832,1498.78Z" transform="translate(-1645.921 -1472.526)" fill="#a6a7a7"/>
              <path id="パス_850-2" data-name="パス 850" d="M1679.86,1492.975l.51.742a3.749,3.749,0,0,1-1.449.479l-.269-.392a.732.732,0,0,1,.189-1.019.722.722,0,0,1,.235-.105l.019-.005A.734.734,0,0,1,1679.86,1492.975Z" transform="translate(-1645.934 -1473.2)" fill="#474645"/>
              <path id="パス_851-2" data-name="パス 851" d="M1675.5,1498.78a1.16,1.16,0,1,1-1.19,1.16A1.175,1.175,0,0,1,1675.5,1498.78Z" transform="translate(-1646.398 -1472.526)" fill="#a6a7a7"/>
              <path id="パス_852-2" data-name="パス 852" d="M1674.287,1493.809l.917,2.093a.731.731,0,0,1-.376.965.713.713,0,0,1-.294.063.734.734,0,0,1-.672-.44l-.729-1.663h.479a.733.733,0,0,0,.675-1.018Z" transform="translate(-1646.528 -1473.073)" fill="#474645"/>
              <path id="パス_853-2" data-name="パス 853" d="M1674.351,1493.853a.733.733,0,0,1-.675,1.018h-.479l-.643-1.466h1.122A.731.731,0,0,1,1674.351,1493.853Z" transform="translate(-1646.592 -1473.118)" fill="#474645"/>
              <path id="パス_854-2" data-name="パス 854" d="M1672.779,1493.405l.643,1.466h-2.911l.678-1.466Z" transform="translate(-1646.817 -1473.118)" fill="#474645"/>
              <path id="パス_855-2" data-name="パス 855" d="M1672.555,1489.958l1.873,4.275a.731.731,0,0,0-.675-.448h-1.122l-.774-1.767.683-1.478A.733.733,0,0,0,1672.555,1489.958Z" transform="translate(-1646.668 -1473.497)" fill="#474645"/>
              <path id="パス_856-2" data-name="パス 856" d="M1672.49,1489.965l-.01-.02a.427.427,0,0,0-.024-.05A.672.672,0,0,1,1672.49,1489.965Z" transform="translate(-1646.603 -1473.504)" fill="#474645"/>
              <path id="パス_857-2" data-name="パス 857" d="M1672.592,1489.934a.447.447,0,0,1,.024.05l.01.02a.733.733,0,0,1-.016.582l-.683,1.478-.654-1.491a.738.738,0,0,1,0-.6c.008-.016.015-.032.023-.047l.027-.046a.828.828,0,0,1,.1-.119.683.683,0,0,1,.129-.1.351.351,0,0,1,.047-.028c.017-.009.034-.018.051-.024l.012-.005a.5.5,0,0,1,.056-.019l.008,0a.65.65,0,0,1,.143-.03.793.793,0,0,1,.179,0c.033.006.067.012.1.021h0c.016.007.033.011.049.017l.048.02a.749.749,0,0,1,.252.189c.011.013.023.027.033.041a.835.835,0,0,1,.058.092Z" transform="translate(-1646.739 -1473.543)" fill="#474645"/>
              <path id="パス_858-2" data-name="パス 858" d="M1672.461,1489.9a.863.863,0,0,0-.058-.092A.594.594,0,0,1,1672.461,1489.9Z" transform="translate(-1646.608 -1473.513)" fill="#474645"/>
              <path id="パス_859-2" data-name="パス 859" d="M1672.15,1489.605a.712.712,0,0,1,.248.188.751.751,0,0,0-.252-.189Z" transform="translate(-1646.637 -1473.536)" fill="#474645"/>
              <path id="パス_860-2" data-name="パス 860" d="M1672.108,1489.588c-.016-.006-.033-.01-.049-.017C1672.075,1489.577,1672.092,1489.581,1672.108,1489.588Z" transform="translate(-1646.646 -1473.54)" fill="#474645"/>
              <path id="パス_861-2" data-name="パス 861" d="M1671.966,1489.551a.69.69,0,0,1,.1.021C1672.033,1489.563,1672,1489.557,1671.966,1489.551Z" transform="translate(-1646.656 -1473.542)" fill="#474645"/>
              <path id="パス_862-2" data-name="パス 862" d="M1671.805,1489.548a.742.742,0,0,1,.179,0A.8.8,0,0,0,1671.805,1489.548Z" transform="translate(-1646.674 -1473.543)" fill="#474645"/>
              <path id="パス_863-2" data-name="パス 863" d="M1671.138,1498.78a1.16,1.16,0,1,1-1.191,1.16A1.176,1.176,0,0,1,1671.138,1498.78Z" transform="translate(-1646.879 -1472.526)" fill="#a6a7a7"/>
              <path id="パス_864-2" data-name="パス 864" d="M1671.819,1489.548a.664.664,0,0,0-.143.03A.583.583,0,0,1,1671.819,1489.548Z" transform="translate(-1646.688 -1473.542)" fill="#474645"/>
              <path id="パス_865-2" data-name="パス 865" d="M1671.675,1489.578a.522.522,0,0,0-.056.019A.353.353,0,0,1,1671.675,1489.578Z" transform="translate(-1646.695 -1473.539)" fill="#474645"/>
              <path id="パス_866-2" data-name="パス 866" d="M1671.567,1489.622a.339.339,0,0,0-.047.028A.339.339,0,0,1,1671.567,1489.622Z" transform="translate(-1646.706 -1473.534)" fill="#474645"/>
              <path id="パス_867-2" data-name="パス 867" d="M1671.414,1489.741a.822.822,0,0,0-.1.119A.658.658,0,0,1,1671.414,1489.741Z" transform="translate(-1646.728 -1473.521)" fill="#474645"/>
              <path id="パス_868-2" data-name="パス 868" d="M1671.32,1489.848l-.027.046C1671.3,1489.878,1671.311,1489.864,1671.32,1489.848Z" transform="translate(-1646.731 -1473.509)" fill="#474645"/>
              <path id="パス_869-2" data-name="パス 869" d="M1671.462,1490.529l.654,1.491-.816,1.766h-1.148a.734.734,0,0,0-.645.384l1.959-4.24A.738.738,0,0,0,1671.462,1490.529Z" transform="translate(-1646.927 -1473.5)" fill="#474645"/>
              <path id="パス_870-2" data-name="パス 870" d="M1671.308,1493.4l-.678,1.466h-.47a.734.734,0,0,1-.733-.734.725.725,0,0,1,.056-.279.555.555,0,0,1,.032-.07.734.734,0,0,1,.645-.384Z" transform="translate(-1646.936 -1473.118)" fill="#474645"/>
              <path id="パス_871-2" data-name="パス 871" d="M1669.524,1494.092a.734.734,0,0,0,.733.734h.47l-.776,1.677a.736.736,0,0,1-.666.426.734.734,0,0,1-.664-1.041l.959-2.075A.725.725,0,0,0,1669.524,1494.092Z" transform="translate(-1647.032 -1473.073)" fill="#474645"/>
              <path id="パス_872-2" data-name="パス 872" d="M1668.52,1494.91a.733.733,0,0,1,.252,1.006,3.308,3.308,0,0,1-3.044,1.524h-.013a3.43,3.43,0,0,1-2.253-1.006,4.322,4.322,0,0,1-1.173-3.207c0-3.874,3.233-3.985,3.6-3.985a3.089,3.089,0,0,1,2.8,1.678.733.733,0,1,1-1.3.673,1.645,1.645,0,0,0-1.5-.884c-.642,0-2.136.245-2.136,2.519a2.935,2.935,0,0,0,.739,2.167,2,2,0,0,0,1.219.581h0a1.934,1.934,0,0,0,1.8-.81A.733.733,0,0,1,1668.52,1494.91Z" transform="translate(-1647.722 -1473.576)" fill="#474645"/>
              <path id="パス_873-2" data-name="パス 873" d="M1666.737,1498.78a1.16,1.16,0,1,1-1.191,1.16A1.176,1.176,0,0,1,1666.737,1498.78Z" transform="translate(-1647.363 -1472.526)" fill="#a6a7a7"/>
              <rect id="長方形_92-2" data-name="長方形 92" width="11.403" height="10.343" rx="2.201" transform="translate(6.108 3.817)" fill="#a6a7a7"/>
              <path id="パス_874-2" data-name="パス 874" d="M1662.371,1498.78a1.16,1.16,0,1,1-1.191,1.16A1.175,1.175,0,0,1,1662.371,1498.78Z" transform="translate(-1647.844 -1472.526)" fill="#a6a7a7"/>
            </g>
          </g>
        </g>
      </g>
    </g>
    <g id="グループ_1473" data-name="グループ 1473">
      <rect id="長方形_54" data-name="長方形 54" width="291.849" height="6.658" transform="translate(1005.871 2416.18)" fill="#333"/>
      <g id="グループ_1472" data-name="グループ 1472">
        <g id="グループ_385" data-name="グループ 385" transform="translate(1033.727 2431.332)">
          <text id="借入額-3" data-name="借入額" transform="translate(21.115 25.776)" fill="#333" font-size="17" font-family="SourceHanSansJP-Medium, Source Han Sans JP" font-weight="500"><tspan x="0" y="0">借入額</tspan></text>
          <text id="_30万円" data-name="30万円" transform="translate(110.92 27)" fill="#333" font-size="22" font-family="SourceHanSansJP-Bold, Source Han Sans JP" font-weight="700"><tspan x="0" y="0">30万円</tspan></text>
          <text id="金利-3" data-name="金利" transform="translate(38.524 61.391)" fill="#333" font-size="17" font-family="SourceHanSansJP-Medium, Source Han Sans JP" font-weight="500"><tspan x="0" y="0">金利</tspan></text>
          <text id="返済金額-3" data-name="返済金額" transform="translate(4.615 94.005)" fill="#333" font-size="17" font-family="SourceHanSansJP-Medium, Source Han Sans JP" font-weight="500"><tspan x="0" y="0">返済金額</tspan></text>
          <text id="_6_" data-name="6%" transform="translate(110.92 64.644)" fill="#333" font-size="22" font-family="SourceHanSansJP-Bold, Source Han Sans JP" font-weight="700"><tspan x="0" y="0">6%</tspan></text>
          <text id="月々_14_000_円" data-name="月々 14,000 円" transform="translate(35.524 129.596)" fill="#333" font-size="20" font-family="SourceHanSansJP-Bold, Source Han Sans JP" font-weight="700"><tspan x="0" y="0">月々</tspan><tspan y="0" font-size="24"> </tspan><tspan y="0" fill="#ea6552" font-size="36">14,000</tspan><tspan y="0" font-size="28"> </tspan><tspan y="0" font-size="26" font-family="SourceHanSansJP-Medium, Source Han Sans JP" font-weight="500">円</tspan></text>
          <path id="多角形_1-3" data-name="多角形 1" d="M7.771,0l7.771,14.432H0Z" transform="translate(101.219 48.121) rotate(90)" fill="#333"/>
          <path id="多角形_2-3" data-name="多角形 2" d="M7.771,0l7.771,14.432H0Z" transform="translate(101.219 10.603) rotate(90)" fill="#333"/>
        </g>
        <g id="長方形_61" data-name="長方形 61" transform="translate(1005.937 2415.656)" fill="none" stroke="#333" stroke-width="1">
          <rect width="291.628" height="171.678" stroke="none"/>
          <rect x="0.5" y="0.5" width="290.628" height="170.678" fill="none"/>
        </g>
        <text id="カードローン" transform="translate(1126.338 2396.713)" fill="#333" font-size="22" font-family="SourceHanSansJP-Bold, Source Han Sans JP" font-weight="700"><tspan x="0" y="0">カードローン</tspan></text>
        <g id="グループ_288" data-name="グループ 288" transform="translate(988.735 2363.5)">
          <g id="グループ_279-3" data-name="グループ 279">
            <g id="楕円形_38-3" data-name="楕円形 38" transform="translate(-0.457 16.5)" fill="#fcfcfc" stroke="#333" stroke-width="1">
              <ellipse cx="31.5" cy="31" rx="31.5" ry="31" stroke="none"/>
              <ellipse cx="31.5" cy="31" rx="31" ry="30.5" fill="none"/>
            </g>
            <rect id="長方形_89-3" data-name="長方形 89" width="68" height="39" transform="translate(45.543 5.5)" fill="#fff"/>
            <g id="長方形_90-3" data-name="長方形 90" transform="translate(45.543 0.5)" fill="#fcfcfc" stroke="#333" stroke-width="1">
              <rect width="71" height="46" rx="6" stroke="none"/>
              <rect x="0.5" y="0.5" width="70" height="45" rx="5.5" fill="none"/>
            </g>
            <text id="D社" transform="translate(21.543 68.5)" fill="#333" font-size="12" font-family="SourceHanSansJP-Bold, Source Han Sans JP" font-weight="700"><tspan x="0" y="0">D</tspan><tspan y="0">社</tspan></text>
            <rect id="長方形_91-3" data-name="長方形 91" width="15" height="23" transform="translate(43.543 25.5)" fill="#fcfcfc"/>
            <g id="グループ_278-2" data-name="グループ 278" transform="translate(16.344 25.07)" opacity="0.83">
              <rect id="長方形_31-2" data-name="長方形 31" width="14.22" height="29.978" transform="translate(13.141 0)" fill="none" stroke="#333" stroke-linecap="round" stroke-linejoin="round" stroke-width="1"/>
              <rect id="長方形_32-2" data-name="長方形 32" width="3.28" height="3.116" transform="translate(15.82 3.946)" fill="none" stroke="#333" stroke-linecap="round" stroke-linejoin="round" stroke-width="1"/>
              <rect id="長方形_33-2" data-name="長方形 33" width="3.28" height="3.116" transform="translate(21.403 3.946)" fill="none" stroke="#333" stroke-linecap="round" stroke-linejoin="round" stroke-width="1"/>
              <rect id="長方形_34-2" data-name="長方形 34" width="3.28" height="3.116" transform="translate(15.82 9.725)" fill="none" stroke="#333" stroke-linecap="round" stroke-linejoin="round" stroke-width="1"/>
              <rect id="長方形_35-2" data-name="長方形 35" width="3.28" height="3.116" transform="translate(21.403 9.725)" fill="none" stroke="#333" stroke-linecap="round" stroke-linejoin="round" stroke-width="1"/>
              <rect id="長方形_36-2" data-name="長方形 36" width="3.28" height="3.116" transform="translate(15.82 15.505)" fill="none" stroke="#333" stroke-linecap="round" stroke-linejoin="round" stroke-width="1"/>
              <rect id="長方形_37-2" data-name="長方形 37" width="5.627" height="6.417" transform="translate(17.262 23.561)" fill="none" stroke="#333" stroke-linecap="round" stroke-linejoin="round" stroke-width="1"/>
              <rect id="長方形_38-2" data-name="長方形 38" width="3.28" height="3.116" transform="translate(21.403 15.505)" fill="none" stroke="#333" stroke-linecap="round" stroke-linejoin="round" stroke-width="1"/>
              <rect id="長方形_39-2" data-name="長方形 39" width="13.141" height="20.252" transform="translate(0 9.725)" fill="none" stroke="#333" stroke-linecap="round" stroke-linejoin="round" stroke-width="1"/>
              <rect id="長方形_40-2" data-name="長方形 40" width="10.79" height="2.495" transform="translate(0 14.989)" fill="none" stroke="#333" stroke-linecap="round" stroke-linejoin="round" stroke-width="1"/>
              <rect id="長方形_41-2" data-name="長方形 41" width="10.79" height="2.495" transform="translate(0 20.509)" fill="none" stroke="#333" stroke-linecap="round" stroke-linejoin="round" stroke-width="1"/>
            </g>
          </g>
          <g id="グループ_282-3" data-name="グループ 282" transform="translate(51.046 5.549)">
            <g id="グループ_281-3" data-name="グループ 281">
              <g id="グループ_280-3" data-name="グループ 280">
                <path id="パス_839-3" data-name="パス 839" d="M1686.56,1491.333a2.6,2.6,0,0,1,.563,1.989c-.108,2.251-1.248,2.431-2.729,2.431-.076,0-.154,0-.23,0l.025-5.172A3.2,3.2,0,0,1,1686.56,1491.333Z" transform="translate(-1645.328 -1473.435)" fill="#f5f5f5"/>
                <path id="パス_840-3" data-name="パス 840" d="M1680.188,1491.849a.908.908,0,0,1-.3.738,1.624,1.624,0,0,1-.665.321l-.019.006a5.456,5.456,0,0,1-1.867.06v-2.382a3.741,3.741,0,0,1,2.519.323A1.186,1.186,0,0,1,1680.188,1491.849Z" transform="translate(-1646.077 -1473.441)" fill="#f5f5f5"/>
                <path id="パス_841-3" data-name="パス 841" d="M1671.937,1491.813l.774,1.767h-1.59Z" transform="translate(-1646.759 -1473.3)" fill="#f5f5f5"/>
                <path id="パス_842-3" data-name="パス 842" d="M1670.113,1497.371a.732.732,0,1,0-1.257-.751,1.933,1.933,0,0,1-1.8.81h0a2,2,0,0,1-1.219-.58,2.934,2.934,0,0,1-.739-2.166c0-2.273,1.494-2.518,2.135-2.518a1.644,1.644,0,0,1,1.5.883.733.733,0,1,0,1.3-.672,3.088,3.088,0,0,0-2.8-1.677c-.37,0-3.6.111-3.6,3.984a4.32,4.32,0,0,0,1.173,3.206,3.428,3.428,0,0,0,2.252,1.005h.013A3.307,3.307,0,0,0,1670.113,1497.371Zm1.5-1.6-.959,2.074a.732.732,0,1,0,1.329.615l.776-1.677h2.91l.729,1.662a.734.734,0,0,0,.671.439.712.712,0,0,0,.294-.063.73.73,0,0,0,.376-.964l-.917-2.092-1.872-4.273a.66.66,0,0,0-.034-.07h0a.609.609,0,0,0-.058-.092c-.01-.015-.022-.028-.033-.041a.711.711,0,0,0-.247-.188h0l-.048-.02c-.016-.007-.033-.011-.049-.017h0a.676.676,0,0,0-.1-.021.741.741,0,0,0-.178,0,.586.586,0,0,0-.143.03l-.008,0a.383.383,0,0,0-.055.019l-.012.006a.512.512,0,0,0-.051.024.326.326,0,0,0-.047.028.685.685,0,0,0-.129.1.663.663,0,0,0-.1.119c-.009.016-.019.03-.027.046s-.015.031-.023.047l-1.959,4.238A.591.591,0,0,0,1671.609,1495.772Zm34.286-18v30.288a1.893,1.893,0,0,1-1.954,1.817H1652a1.892,1.892,0,0,1-1.954-1.817v-30.288a1.892,1.892,0,0,1,1.954-1.817h51.94A1.892,1.892,0,0,1,1705.9,1477.768Zm-12.009,24.676a1.191,1.191,0,1,0-1.191,1.16A1.174,1.174,0,0,0,1693.887,1502.444ZM1692.33,1495a4,4,0,0,0-.966-3.069,4.582,4.582,0,0,0-3.461-1.21c-.3,0-.547.016-.744.028a.733.733,0,0,0-.69.728l-.031,6.6a.743.743,0,0,0,.215.521.7.7,0,0,0,.521.213h.053c.135,0,.276,0,.421.006s.322,0,.488,0C1689.336,1498.822,1692.143,1498.822,1692.33,1495Zm-3.328,7.448a1.191,1.191,0,1,0-1.191,1.16A1.174,1.174,0,0,0,1689,1502.444Zm-4.195-3.686a.732.732,0,0,0,.19-1.019l-1.5-2.191a2.53,2.53,0,0,0,.357-.262,2.369,2.369,0,0,0,.8-1.839,2.59,2.59,0,0,0-.822-2.03c-1.1-.98-2.9-.772-3.861-.661-.14.016-.312.036-.365.036a.733.733,0,0,0-.734.732v6.638a.733.733,0,0,0,1.466,0v-2.118a7.33,7.33,0,0,0,1.712-.017l1.745,2.54a.732.732,0,0,0,.6.32A.725.725,0,0,0,1684.807,1498.757Zm-.648,3.686a1.191,1.191,0,1,0-1.191,1.16A1.175,1.175,0,0,0,1684.159,1502.444Zm-4.8,0a1.191,1.191,0,1,0-1.191,1.16A1.175,1.175,0,0,0,1679.355,1502.444Zm-4.844,0a1.191,1.191,0,1,0-1.191,1.16A1.175,1.175,0,0,0,1674.511,1502.444Zm-4.884,0a1.191,1.191,0,1,0-1.191,1.16A1.175,1.175,0,0,0,1669.628,1502.444Zm-3.054-15.692V1481.3a2.442,2.442,0,0,0-2.441-2.443h-6.514a2.443,2.443,0,0,0-2.443,2.443v5.454a2.443,2.443,0,0,0,2.443,2.443h6.514A2.443,2.443,0,0,0,1666.574,1486.752Zm-1.791,15.692a1.191,1.191,0,1,0-1.191,1.16A1.175,1.175,0,0,0,1664.783,1502.444Z" transform="translate(-1649.071 -1475.04)" fill="#f5f5f5"/>
                <path id="パス_843-3" data-name="パス 843" d="M1706.969,1477.862v30.346a2.84,2.84,0,0,1-2.931,2.731H1652.1a2.84,2.84,0,0,1-2.931-2.731v-30.346a2.84,2.84,0,0,1,2.931-2.732h51.94A2.84,2.84,0,0,1,1706.969,1477.862Zm-.977,30.346v-30.346a1.894,1.894,0,0,0-1.954-1.821H1652.1a1.893,1.893,0,0,0-1.954,1.821v30.346a1.893,1.893,0,0,0,1.954,1.821h51.94A1.894,1.894,0,0,0,1705.992,1508.208Z" transform="translate(-1649.167 -1475.13)" fill="#707070"/>
                <path id="パス_844-3" data-name="パス 844" d="M1688.6,1498.78a1.16,1.16,0,1,1-1.191,1.16A1.174,1.174,0,0,1,1688.6,1498.78Z" transform="translate(-1644.972 -1472.536)" fill="#a6a7a7"/>
                <path id="パス_845-3" data-name="パス 845" d="M1687.766,1490.467a4,4,0,0,1,.966,3.07c-.186,3.826-2.994,3.826-4.194,3.826-.166,0-.329,0-.488,0s-.285-.006-.421-.006h-.053a.7.7,0,0,1-.521-.213.743.743,0,0,1-.215-.521l.031-6.6a.733.733,0,0,1,.69-.728c.2-.012.445-.028.744-.028A4.582,4.582,0,0,1,1687.766,1490.467Zm-.5,3a2.6,2.6,0,0,0-.562-1.989,3.2,3.2,0,0,0-2.371-.755l-.025,5.172c.076,0,.153,0,.23,0C1686.019,1495.9,1687.16,1495.718,1687.268,1493.466Z" transform="translate(-1645.473 -1473.58)" fill="#474645"/>
                <path id="パス_846-3" data-name="パス 846" d="M1684.2,1498.78a1.16,1.16,0,1,1-1.191,1.16A1.174,1.174,0,0,1,1684.2,1498.78Z" transform="translate(-1645.455 -1472.536)" fill="#a6a7a7"/>
                <path id="パス_847-3" data-name="パス 847" d="M1681.834,1495.8a.732.732,0,0,1-.19,1.019.725.725,0,0,1-.414.13.732.732,0,0,1-.6-.32l-1.745-2.54a3.744,3.744,0,0,0,1.448-.479Z" transform="translate(-1645.908 -1473.103)" fill="#474645"/>
                <path id="パス_848-3" data-name="パス 848" d="M1681.8,1491.994a2.369,2.369,0,0,1-.8,1.839,2.53,2.53,0,0,1-.357.262l-.509-.741a.734.734,0,0,0-.765-.3,1.623,1.623,0,0,0,.665-.321.908.908,0,0,0,.3-.738,1.186,1.186,0,0,0-.331-.935,3.741,3.741,0,0,0-2.519-.323v2.382a5.457,5.457,0,0,0,1.868-.06.723.723,0,0,0-.235.105.732.732,0,0,0-.188,1.019l.268.392a7.33,7.33,0,0,1-1.712.017v2.118a.733.733,0,0,1-1.466,0v-6.638a.733.733,0,0,1,.734-.732c.053,0,.225-.02.365-.036.964-.111,2.761-.318,3.861.661A2.59,2.59,0,0,1,1681.8,1491.994Z" transform="translate(-1646.222 -1473.586)" fill="#474645"/>
                <path id="パス_849-3" data-name="パス 849" d="M1679.832,1498.78a1.16,1.16,0,1,1-1.191,1.16A1.175,1.175,0,0,1,1679.832,1498.78Z" transform="translate(-1645.934 -1472.536)" fill="#a6a7a7"/>
                <path id="パス_850-3" data-name="パス 850" d="M1679.859,1492.974l.509.741a3.744,3.744,0,0,1-1.448.479l-.268-.392a.732.732,0,0,1,.188-1.019.723.723,0,0,1,.235-.105l.019-.006A.734.734,0,0,1,1679.859,1492.974Z" transform="translate(-1645.947 -1473.208)" fill="#474645"/>
                <path id="パス_851-3" data-name="パス 851" d="M1675.5,1498.78a1.16,1.16,0,1,1-1.19,1.16A1.175,1.175,0,0,1,1675.5,1498.78Z" transform="translate(-1646.409 -1472.536)" fill="#a6a7a7"/>
                <path id="パス_852-3" data-name="パス 852" d="M1674.287,1493.809l.917,2.092a.73.73,0,0,1-.376.964.712.712,0,0,1-.294.063.734.734,0,0,1-.671-.439l-.729-1.662h.479a.733.733,0,0,0,.675-1.018Z" transform="translate(-1646.538 -1473.081)" fill="#474645"/>
                <path id="パス_853-3" data-name="パス 853" d="M1674.351,1493.853a.733.733,0,0,1-.675,1.018h-.479l-.643-1.466h1.122A.73.73,0,0,1,1674.351,1493.853Z" transform="translate(-1646.602 -1473.125)" fill="#474645"/>
                <path id="パス_854-3" data-name="パス 854" d="M1672.779,1493.405l.642,1.465h-2.91l.677-1.465Z" transform="translate(-1646.826 -1473.125)" fill="#474645"/>
                <path id="パス_855-3" data-name="パス 855" d="M1672.555,1489.958l1.872,4.273a.73.73,0,0,0-.675-.448h-1.122l-.773-1.767.682-1.477A.732.732,0,0,0,1672.555,1489.958Z" transform="translate(-1646.678 -1473.503)" fill="#474645"/>
                <path id="パス_856-3" data-name="パス 856" d="M1672.489,1489.965l-.01-.02a.482.482,0,0,0-.024-.05A.658.658,0,0,1,1672.489,1489.965Z" transform="translate(-1646.613 -1473.51)" fill="#474645"/>
                <path id="パス_857-3" data-name="パス 857" d="M1672.591,1489.933a.437.437,0,0,1,.024.05l.01.02a.732.732,0,0,1-.015.582l-.682,1.477-.654-1.49a.738.738,0,0,1,0-.6c.008-.016.014-.032.023-.047l.027-.046a.822.822,0,0,1,.1-.119.685.685,0,0,1,.129-.1.326.326,0,0,1,.047-.028.512.512,0,0,1,.051-.024l.012-.006c.019-.007.037-.014.055-.019l.008,0a.669.669,0,0,1,.143-.03.8.8,0,0,1,.178,0c.033.005.067.012.1.021h0c.016.007.033.011.049.017l.048.02a.75.75,0,0,1,.252.189c.011.013.023.027.033.041a.855.855,0,0,1,.058.092Z" transform="translate(-1646.749 -1473.549)" fill="#474645"/>
                <path id="パス_858-3" data-name="パス 858" d="M1672.461,1489.9a.855.855,0,0,0-.058-.092A.609.609,0,0,1,1672.461,1489.9Z" transform="translate(-1646.618 -1473.52)" fill="#474645"/>
                <path id="パス_859-3" data-name="パス 859" d="M1672.151,1489.605a.711.711,0,0,1,.247.188.75.75,0,0,0-.252-.189Z" transform="translate(-1646.646 -1473.542)" fill="#474645"/>
                <path id="パス_860-3" data-name="パス 860" d="M1672.108,1489.588c-.016-.005-.033-.01-.049-.017C1672.074,1489.577,1672.092,1489.581,1672.108,1489.588Z" transform="translate(-1646.656 -1473.546)" fill="#474645"/>
                <path id="パス_861-3" data-name="パス 861" d="M1671.966,1489.551a.676.676,0,0,1,.1.021C1672.033,1489.563,1672,1489.557,1671.966,1489.551Z" transform="translate(-1646.666 -1473.548)" fill="#474645"/>
                <path id="パス_862-3" data-name="パス 862" d="M1671.805,1489.548a.741.741,0,0,1,.178,0A.8.8,0,0,0,1671.805,1489.548Z" transform="translate(-1646.684 -1473.549)" fill="#474645"/>
                <path id="パス_863-3" data-name="パス 863" d="M1671.138,1498.78a1.16,1.16,0,1,1-1.191,1.16A1.175,1.175,0,0,1,1671.138,1498.78Z" transform="translate(-1646.888 -1472.536)" fill="#a6a7a7"/>
                <path id="パス_864-3" data-name="パス 864" d="M1671.819,1489.548a.671.671,0,0,0-.143.03A.587.587,0,0,1,1671.819,1489.548Z" transform="translate(-1646.698 -1473.548)" fill="#474645"/>
                <path id="パス_865-3" data-name="パス 865" d="M1671.674,1489.578c-.019,0-.036.012-.055.019A.383.383,0,0,1,1671.674,1489.578Z" transform="translate(-1646.704 -1473.545)" fill="#474645"/>
                <path id="パス_866-3" data-name="パス 866" d="M1671.567,1489.622a.326.326,0,0,0-.047.028A.326.326,0,0,1,1671.567,1489.622Z" transform="translate(-1646.715 -1473.54)" fill="#474645"/>
                <path id="パス_867-3" data-name="パス 867" d="M1671.414,1489.741a.816.816,0,0,0-.1.119A.659.659,0,0,1,1671.414,1489.741Z" transform="translate(-1646.737 -1473.527)" fill="#474645"/>
                <path id="パス_868-3" data-name="パス 868" d="M1671.32,1489.848l-.027.046C1671.3,1489.878,1671.311,1489.864,1671.32,1489.848Z" transform="translate(-1646.74 -1473.516)" fill="#474645"/>
                <path id="パス_869-3" data-name="パス 869" d="M1671.461,1490.529l.654,1.49-.816,1.766h-1.147a.733.733,0,0,0-.645.384l1.959-4.238A.738.738,0,0,0,1671.461,1490.529Z" transform="translate(-1646.936 -1473.506)" fill="#474645"/>
                <path id="パス_870-3" data-name="パス 870" d="M1671.308,1493.4l-.678,1.466h-.469a.732.732,0,0,1-.677-1.012.591.591,0,0,1,.032-.07.733.733,0,0,1,.645-.384Z" transform="translate(-1646.945 -1473.125)" fill="#474645"/>
                <path id="パス_871-3" data-name="パス 871" d="M1669.524,1494.091a.733.733,0,0,0,.732.734h.469l-.776,1.677a.735.735,0,0,1-.666.426.734.734,0,0,1-.664-1.041l.959-2.074A.727.727,0,0,0,1669.524,1494.091Z" transform="translate(-1647.041 -1473.081)" fill="#474645"/>
                <path id="パス_872-3" data-name="パス 872" d="M1668.518,1494.908a.733.733,0,0,1,.252,1.005,3.307,3.307,0,0,1-3.043,1.523h-.013a3.428,3.428,0,0,1-2.252-1.005,4.32,4.32,0,0,1-1.173-3.206c0-3.873,3.232-3.984,3.6-3.984a3.088,3.088,0,0,1,2.8,1.677.733.733,0,1,1-1.3.672,1.644,1.644,0,0,0-1.5-.883c-.641,0-2.135.245-2.135,2.518a2.934,2.934,0,0,0,.739,2.166,2,2,0,0,0,1.219.58h0a1.933,1.933,0,0,0,1.8-.81A.732.732,0,0,1,1668.518,1494.908Z" transform="translate(-1647.728 -1473.582)" fill="#474645"/>
                <path id="パス_873-3" data-name="パス 873" d="M1666.737,1498.78a1.16,1.16,0,1,1-1.191,1.16A1.175,1.175,0,0,1,1666.737,1498.78Z" transform="translate(-1647.37 -1472.536)" fill="#a6a7a7"/>
                <rect id="長方形_92-3" data-name="長方形 92" width="11.398" height="10.339" rx="2.201" transform="translate(6.105 3.815)" fill="#a6a7a7"/>
                <path id="パス_874-3" data-name="パス 874" d="M1662.371,1498.78a1.16,1.16,0,1,1-1.191,1.16A1.175,1.175,0,0,1,1662.371,1498.78Z" transform="translate(-1647.849 -1472.536)" fill="#a6a7a7"/>
              </g>
            </g>
          </g>
        </g>
      </g>
    </g>
    <g id="グループ_1471" data-name="グループ 1471">
      <g id="グループ_389" data-name="グループ 389" transform="translate(666.385 2431.332)">
        <text id="借入額-4" data-name="借入額" transform="translate(21.115 25.776)" fill="#333" font-size="17" font-family="SourceHanSansJP-Medium, Source Han Sans JP" font-weight="500"><tspan x="0" y="0">借入額</tspan></text>
        <text id="_50万円" data-name="50万円" transform="translate(110.92 27)" fill="#333" font-size="22" font-family="SourceHanSansJP-Bold, Source Han Sans JP" font-weight="700"><tspan x="0" y="0">50万円</tspan></text>
        <text id="金利-4" data-name="金利" transform="translate(38.524 61.391)" fill="#333" font-size="17" font-family="SourceHanSansJP-Medium, Source Han Sans JP" font-weight="500"><tspan x="0" y="0">金利</tspan></text>
        <text id="返済金額-4" data-name="返済金額" transform="translate(4.615 94.005)" fill="#333" font-size="17" font-family="SourceHanSansJP-Medium, Source Han Sans JP" font-weight="500"><tspan x="0" y="0">返済金額</tspan></text>
        <text id="_18_2" data-name="18%" transform="translate(110.92 64.644)" fill="#333" font-size="22" font-family="SourceHanSansJP-Bold, Source Han Sans JP" font-weight="700"><tspan x="0" y="0">18%</tspan></text>
        <text id="月々_17_000_円" data-name="月々 17,000 円" transform="translate(35.524 129.596)" fill="#333" font-size="20" font-family="SourceHanSansJP-Bold, Source Han Sans JP" font-weight="700"><tspan x="0" y="0">月々</tspan><tspan y="0" fill="#f59f7c" font-size="24"> </tspan><tspan y="0" fill="#ea6552" font-size="36">17,000</tspan><tspan y="0" font-size="28"> </tspan><tspan y="0" font-size="26" font-family="SourceHanSansJP-Medium, Source Han Sans JP" font-weight="500">円</tspan></text>
        <path id="多角形_1-4" data-name="多角形 1" d="M7.771,0l7.771,14.432H0Z" transform="translate(101.219 48.121) rotate(90)" fill="#333"/>
        <path id="多角形_2-4" data-name="多角形 2" d="M7.771,0l7.771,14.432H0Z" transform="translate(101.219 10.603) rotate(90)" fill="#333"/>
      </g>
      <rect id="長方形_53" data-name="長方形 53" width="291.849" height="6.658" transform="translate(633.634 2416.18)" fill="#333"/>
      <g id="長方形_60" data-name="長方形 60" transform="translate(633.279 2416)" fill="none" stroke="#333" stroke-width="1">
        <rect width="292" height="171.333" stroke="none"/>
        <rect x="0.5" y="0.5" width="291" height="170.333" fill="none"/>
      </g>
      <text id="キャッシング-2" data-name="キャッシング" transform="translate(760.139 2396.713)" fill="#333" font-size="22" font-family="SourceHanSansJP-Bold, Source Han Sans JP" font-weight="700"><tspan x="0" y="0">キャッシング</tspan></text>
      <g id="グループ_284-2" data-name="グループ 284" transform="translate(622.536 2363.5)">
        <g id="グループ_279-4" data-name="グループ 279" transform="translate(0 0)">
          <g id="楕円形_38-4" data-name="楕円形 38" transform="translate(-0.258 16.5)" fill="#fcfcfc" stroke="#333" stroke-width="1">
            <circle cx="31" cy="31" r="31" stroke="none"/>
            <circle cx="31" cy="31" r="30.5" fill="none"/>
          </g>
          <rect id="長方形_89-4" data-name="長方形 89" width="67" height="39" transform="translate(45.742 5.5)" fill="#fff"/>
          <g id="長方形_90-4" data-name="長方形 90" transform="translate(45.742 0.5)" fill="#fcfcfc" stroke="#333" stroke-width="1">
            <rect width="71" height="46" rx="6" stroke="none"/>
            <rect x="0.5" y="0.5" width="70" height="45" rx="5.5" fill="none"/>
          </g>
          <text id="C社" transform="translate(20.742 68.5)" fill="#333" font-size="12" font-family="SourceHanSansJP-Bold, Source Han Sans JP" font-weight="700"><tspan x="0" y="0">C</tspan><tspan y="0">社</tspan></text>
          <rect id="長方形_91-4" data-name="長方形 91" width="15" height="23" transform="translate(43.742 25.5)" fill="#fcfcfc"/>
          <g id="グループ_285-2" data-name="グループ 285" transform="translate(15.488 26.535)" opacity="0.83">
            <rect id="長方形_42-2" data-name="長方形 42" width="10.389" height="22.613" transform="translate(0 5.968)" fill="none" stroke="#333" stroke-linecap="round" stroke-linejoin="round" stroke-width="1"/>
            <path id="パス_115-2" data-name="パス 115" d="M1036.812,388.958v28.58H1047.2v-28.58Z" transform="translate(-1026.423 -388.958)" fill="none" stroke="#333" stroke-linecap="round" stroke-linejoin="round" stroke-width="1"/>
            <rect id="長方形_43-2" data-name="長方形 43" width="5.118" height="5.749" transform="translate(13.024 22.831)" fill="none" stroke="#333" stroke-linecap="round" stroke-linejoin="round" stroke-width="1"/>
            <rect id="長方形_44-2" data-name="長方形 44" width="10.389" height="22.613" transform="translate(20.778 5.968)" fill="none" stroke="#333" stroke-linecap="round" stroke-linejoin="round" stroke-width="1"/>
            <rect id="長方形_45-2" data-name="長方形 45" width="2.256" height="3.558" transform="translate(24.844 9.717)" fill="none" stroke="#333" stroke-linecap="round" stroke-linejoin="round" stroke-width="1"/>
            <rect id="長方形_46-2" data-name="長方形 46" width="2.256" height="3.558" transform="translate(24.844 16.105)" fill="none" stroke="#333" stroke-linecap="round" stroke-linejoin="round" stroke-width="1"/>
            <rect id="長方形_47-2" data-name="長方形 47" width="2.256" height="3.558" transform="translate(14.455 9.717)" fill="none" stroke="#333" stroke-linecap="round" stroke-linejoin="round" stroke-width="1"/>
            <rect id="長方形_48-2" data-name="長方形 48" width="2.256" height="3.558" transform="translate(14.455 16.105)" fill="none" stroke="#333" stroke-linecap="round" stroke-linejoin="round" stroke-width="1"/>
            <rect id="長方形_49-2" data-name="長方形 49" width="2.256" height="3.558" transform="translate(4.066 9.717)" fill="none" stroke="#333" stroke-linecap="round" stroke-linejoin="round" stroke-width="1"/>
            <rect id="長方形_50-2" data-name="長方形 50" width="2.256" height="3.558" transform="translate(4.066 16.105)" fill="none" stroke="#333" stroke-linecap="round" stroke-linejoin="round" stroke-width="1"/>
            <line id="線_16-2" data-name="線 16" y2="5.749" transform="translate(15.583 22.831)" fill="none" stroke="#333" stroke-linecap="round" stroke-linejoin="round" stroke-width="1"/>
          </g>
        </g>
        <g id="グループ_282-4" data-name="グループ 282" transform="translate(51.046 5.549)">
          <g id="グループ_281-4" data-name="グループ 281">
            <g id="グループ_280-4" data-name="グループ 280">
              <path id="パス_839-4" data-name="パス 839" d="M1686.56,1491.333a2.6,2.6,0,0,1,.563,1.989c-.108,2.251-1.248,2.431-2.729,2.431-.076,0-.154,0-.23,0l.025-5.172A3.2,3.2,0,0,1,1686.56,1491.333Z" transform="translate(-1645.328 -1473.435)" fill="#f5f5f5"/>
              <path id="パス_840-4" data-name="パス 840" d="M1680.188,1491.849a.908.908,0,0,1-.3.738,1.624,1.624,0,0,1-.665.321l-.019.006a5.456,5.456,0,0,1-1.867.06v-2.382a3.741,3.741,0,0,1,2.519.323A1.186,1.186,0,0,1,1680.188,1491.849Z" transform="translate(-1646.077 -1473.441)" fill="#f5f5f5"/>
              <path id="パス_841-4" data-name="パス 841" d="M1671.937,1491.813l.774,1.767h-1.59Z" transform="translate(-1646.759 -1473.3)" fill="#f5f5f5"/>
              <path id="パス_842-4" data-name="パス 842" d="M1670.113,1497.371a.732.732,0,1,0-1.257-.751,1.933,1.933,0,0,1-1.8.81h0a2,2,0,0,1-1.219-.58,2.934,2.934,0,0,1-.739-2.166c0-2.273,1.494-2.518,2.135-2.518a1.644,1.644,0,0,1,1.5.883.733.733,0,1,0,1.3-.672,3.088,3.088,0,0,0-2.8-1.677c-.37,0-3.6.111-3.6,3.984a4.32,4.32,0,0,0,1.173,3.206,3.428,3.428,0,0,0,2.252,1.005h.013A3.307,3.307,0,0,0,1670.113,1497.371Zm1.5-1.6-.959,2.074a.732.732,0,1,0,1.329.615l.776-1.677h2.91l.729,1.662a.734.734,0,0,0,.671.439.712.712,0,0,0,.294-.063.73.73,0,0,0,.376-.964l-.917-2.092-1.872-4.273a.66.66,0,0,0-.034-.07h0a.609.609,0,0,0-.058-.092c-.01-.015-.022-.028-.033-.041a.711.711,0,0,0-.247-.188h0l-.048-.02c-.016-.007-.033-.011-.049-.017h0a.676.676,0,0,0-.1-.021.741.741,0,0,0-.178,0,.586.586,0,0,0-.143.03l-.008,0a.383.383,0,0,0-.055.019l-.012.006a.512.512,0,0,0-.051.024.326.326,0,0,0-.047.028.685.685,0,0,0-.129.1.663.663,0,0,0-.1.119c-.009.016-.019.03-.027.046s-.015.031-.023.047l-1.959,4.238A.591.591,0,0,0,1671.609,1495.772Zm34.286-18v30.288a1.893,1.893,0,0,1-1.954,1.817H1652a1.892,1.892,0,0,1-1.954-1.817v-30.288a1.892,1.892,0,0,1,1.954-1.817h51.94A1.892,1.892,0,0,1,1705.9,1477.768Zm-12.009,24.676a1.191,1.191,0,1,0-1.191,1.16A1.174,1.174,0,0,0,1693.887,1502.444ZM1692.33,1495a4,4,0,0,0-.966-3.069,4.582,4.582,0,0,0-3.461-1.21c-.3,0-.547.016-.744.028a.733.733,0,0,0-.69.728l-.031,6.6a.743.743,0,0,0,.215.521.7.7,0,0,0,.521.213h.053c.135,0,.276,0,.421.006s.322,0,.488,0C1689.336,1498.822,1692.143,1498.822,1692.33,1495Zm-3.328,7.448a1.191,1.191,0,1,0-1.191,1.16A1.174,1.174,0,0,0,1689,1502.444Zm-4.195-3.686a.732.732,0,0,0,.19-1.019l-1.5-2.191a2.53,2.53,0,0,0,.357-.262,2.369,2.369,0,0,0,.8-1.839,2.59,2.59,0,0,0-.822-2.03c-1.1-.98-2.9-.772-3.861-.661-.14.016-.312.036-.365.036a.733.733,0,0,0-.734.732v6.638a.733.733,0,0,0,1.466,0v-2.118a7.33,7.33,0,0,0,1.712-.017l1.745,2.54a.732.732,0,0,0,.6.32A.725.725,0,0,0,1684.807,1498.757Zm-.648,3.686a1.191,1.191,0,1,0-1.191,1.16A1.175,1.175,0,0,0,1684.159,1502.444Zm-4.8,0a1.191,1.191,0,1,0-1.191,1.16A1.175,1.175,0,0,0,1679.355,1502.444Zm-4.844,0a1.191,1.191,0,1,0-1.191,1.16A1.175,1.175,0,0,0,1674.511,1502.444Zm-4.884,0a1.191,1.191,0,1,0-1.191,1.16A1.175,1.175,0,0,0,1669.628,1502.444Zm-3.054-15.692V1481.3a2.442,2.442,0,0,0-2.441-2.443h-6.514a2.443,2.443,0,0,0-2.443,2.443v5.454a2.443,2.443,0,0,0,2.443,2.443h6.514A2.443,2.443,0,0,0,1666.574,1486.752Zm-1.791,15.692a1.191,1.191,0,1,0-1.191,1.16A1.175,1.175,0,0,0,1664.783,1502.444Z" transform="translate(-1649.071 -1475.04)" fill="#f5f5f5"/>
              <path id="パス_843-4" data-name="パス 843" d="M1706.969,1477.862v30.346a2.84,2.84,0,0,1-2.931,2.731H1652.1a2.84,2.84,0,0,1-2.931-2.731v-30.346a2.84,2.84,0,0,1,2.931-2.732h51.94A2.84,2.84,0,0,1,1706.969,1477.862Zm-.977,30.346v-30.346a1.894,1.894,0,0,0-1.954-1.821H1652.1a1.893,1.893,0,0,0-1.954,1.821v30.346a1.893,1.893,0,0,0,1.954,1.821h51.94A1.894,1.894,0,0,0,1705.992,1508.208Z" transform="translate(-1649.167 -1475.13)" fill="#707070"/>
              <path id="パス_844-4" data-name="パス 844" d="M1688.6,1498.78a1.16,1.16,0,1,1-1.191,1.16A1.174,1.174,0,0,1,1688.6,1498.78Z" transform="translate(-1644.972 -1472.536)" fill="#a6a7a7"/>
              <path id="パス_845-4" data-name="パス 845" d="M1687.766,1490.467a4,4,0,0,1,.966,3.07c-.186,3.826-2.994,3.826-4.194,3.826-.166,0-.329,0-.488,0s-.285-.006-.421-.006h-.053a.7.7,0,0,1-.521-.213.743.743,0,0,1-.215-.521l.031-6.6a.733.733,0,0,1,.69-.728c.2-.012.445-.028.744-.028A4.582,4.582,0,0,1,1687.766,1490.467Zm-.5,3a2.6,2.6,0,0,0-.562-1.989,3.2,3.2,0,0,0-2.371-.755l-.025,5.172c.076,0,.153,0,.23,0C1686.019,1495.9,1687.16,1495.718,1687.268,1493.466Z" transform="translate(-1645.473 -1473.58)" fill="#474645"/>
              <path id="パス_846-4" data-name="パス 846" d="M1684.2,1498.78a1.16,1.16,0,1,1-1.191,1.16A1.174,1.174,0,0,1,1684.2,1498.78Z" transform="translate(-1645.455 -1472.536)" fill="#a6a7a7"/>
              <path id="パス_847-4" data-name="パス 847" d="M1681.834,1495.8a.732.732,0,0,1-.19,1.019.725.725,0,0,1-.414.13.732.732,0,0,1-.6-.32l-1.745-2.54a3.744,3.744,0,0,0,1.448-.479Z" transform="translate(-1645.908 -1473.103)" fill="#474645"/>
              <path id="パス_848-4" data-name="パス 848" d="M1681.8,1491.994a2.369,2.369,0,0,1-.8,1.839,2.53,2.53,0,0,1-.357.262l-.509-.741a.734.734,0,0,0-.765-.3,1.623,1.623,0,0,0,.665-.321.908.908,0,0,0,.3-.738,1.186,1.186,0,0,0-.331-.935,3.741,3.741,0,0,0-2.519-.323v2.382a5.457,5.457,0,0,0,1.868-.06.723.723,0,0,0-.235.105.732.732,0,0,0-.188,1.019l.268.392a7.33,7.33,0,0,1-1.712.017v2.118a.733.733,0,0,1-1.466,0v-6.638a.733.733,0,0,1,.734-.732c.053,0,.225-.02.365-.036.964-.111,2.761-.318,3.861.661A2.59,2.59,0,0,1,1681.8,1491.994Z" transform="translate(-1646.222 -1473.586)" fill="#474645"/>
              <path id="パス_849-4" data-name="パス 849" d="M1679.832,1498.78a1.16,1.16,0,1,1-1.191,1.16A1.175,1.175,0,0,1,1679.832,1498.78Z" transform="translate(-1645.934 -1472.536)" fill="#a6a7a7"/>
              <path id="パス_850-4" data-name="パス 850" d="M1679.859,1492.974l.509.741a3.744,3.744,0,0,1-1.448.479l-.268-.392a.732.732,0,0,1,.188-1.019.723.723,0,0,1,.235-.105l.019-.006A.734.734,0,0,1,1679.859,1492.974Z" transform="translate(-1645.947 -1473.208)" fill="#474645"/>
              <path id="パス_851-4" data-name="パス 851" d="M1675.5,1498.78a1.16,1.16,0,1,1-1.19,1.16A1.175,1.175,0,0,1,1675.5,1498.78Z" transform="translate(-1646.409 -1472.536)" fill="#a6a7a7"/>
              <path id="パス_852-4" data-name="パス 852" d="M1674.287,1493.809l.917,2.092a.73.73,0,0,1-.376.964.712.712,0,0,1-.294.063.734.734,0,0,1-.671-.439l-.729-1.662h.479a.733.733,0,0,0,.675-1.018Z" transform="translate(-1646.538 -1473.081)" fill="#474645"/>
              <path id="パス_853-4" data-name="パス 853" d="M1674.351,1493.853a.733.733,0,0,1-.675,1.018h-.479l-.643-1.466h1.122A.73.73,0,0,1,1674.351,1493.853Z" transform="translate(-1646.602 -1473.125)" fill="#474645"/>
              <path id="パス_854-4" data-name="パス 854" d="M1672.779,1493.405l.642,1.465h-2.91l.677-1.465Z" transform="translate(-1646.826 -1473.125)" fill="#474645"/>
              <path id="パス_855-4" data-name="パス 855" d="M1672.555,1489.958l1.872,4.273a.73.73,0,0,0-.675-.448h-1.122l-.773-1.767.682-1.477A.732.732,0,0,0,1672.555,1489.958Z" transform="translate(-1646.678 -1473.503)" fill="#474645"/>
              <path id="パス_856-4" data-name="パス 856" d="M1672.489,1489.965l-.01-.02a.482.482,0,0,0-.024-.05A.658.658,0,0,1,1672.489,1489.965Z" transform="translate(-1646.613 -1473.51)" fill="#474645"/>
              <path id="パス_857-4" data-name="パス 857" d="M1672.591,1489.933a.437.437,0,0,1,.024.05l.01.02a.732.732,0,0,1-.015.582l-.682,1.477-.654-1.49a.738.738,0,0,1,0-.6c.008-.016.014-.032.023-.047l.027-.046a.822.822,0,0,1,.1-.119.685.685,0,0,1,.129-.1.326.326,0,0,1,.047-.028.512.512,0,0,1,.051-.024l.012-.006c.019-.007.037-.014.055-.019l.008,0a.669.669,0,0,1,.143-.03.8.8,0,0,1,.178,0c.033.005.067.012.1.021h0c.016.007.033.011.049.017l.048.02a.75.75,0,0,1,.252.189c.011.013.023.027.033.041a.855.855,0,0,1,.058.092Z" transform="translate(-1646.749 -1473.549)" fill="#474645"/>
              <path id="パス_858-4" data-name="パス 858" d="M1672.461,1489.9a.855.855,0,0,0-.058-.092A.609.609,0,0,1,1672.461,1489.9Z" transform="translate(-1646.618 -1473.52)" fill="#474645"/>
              <path id="パス_859-4" data-name="パス 859" d="M1672.151,1489.605a.711.711,0,0,1,.247.188.75.75,0,0,0-.252-.189Z" transform="translate(-1646.646 -1473.542)" fill="#474645"/>
              <path id="パス_860-4" data-name="パス 860" d="M1672.108,1489.588c-.016-.005-.033-.01-.049-.017C1672.074,1489.577,1672.092,1489.581,1672.108,1489.588Z" transform="translate(-1646.656 -1473.546)" fill="#474645"/>
              <path id="パス_861-4" data-name="パス 861" d="M1671.966,1489.551a.676.676,0,0,1,.1.021C1672.033,1489.563,1672,1489.557,1671.966,1489.551Z" transform="translate(-1646.666 -1473.548)" fill="#474645"/>
              <path id="パス_862-4" data-name="パス 862" d="M1671.805,1489.548a.741.741,0,0,1,.178,0A.8.8,0,0,0,1671.805,1489.548Z" transform="translate(-1646.684 -1473.549)" fill="#474645"/>
              <path id="パス_863-4" data-name="パス 863" d="M1671.138,1498.78a1.16,1.16,0,1,1-1.191,1.16A1.175,1.175,0,0,1,1671.138,1498.78Z" transform="translate(-1646.888 -1472.536)" fill="#a6a7a7"/>
              <path id="パス_864-4" data-name="パス 864" d="M1671.819,1489.548a.671.671,0,0,0-.143.03A.587.587,0,0,1,1671.819,1489.548Z" transform="translate(-1646.698 -1473.548)" fill="#474645"/>
              <path id="パス_865-4" data-name="パス 865" d="M1671.674,1489.578c-.019,0-.036.012-.055.019A.383.383,0,0,1,1671.674,1489.578Z" transform="translate(-1646.704 -1473.545)" fill="#474645"/>
              <path id="パス_866-4" data-name="パス 866" d="M1671.567,1489.622a.326.326,0,0,0-.047.028A.326.326,0,0,1,1671.567,1489.622Z" transform="translate(-1646.715 -1473.54)" fill="#474645"/>
              <path id="パス_867-4" data-name="パス 867" d="M1671.414,1489.741a.816.816,0,0,0-.1.119A.659.659,0,0,1,1671.414,1489.741Z" transform="translate(-1646.737 -1473.527)" fill="#474645"/>
              <path id="パス_868-4" data-name="パス 868" d="M1671.32,1489.848l-.027.046C1671.3,1489.878,1671.311,1489.864,1671.32,1489.848Z" transform="translate(-1646.74 -1473.516)" fill="#474645"/>
              <path id="パス_869-4" data-name="パス 869" d="M1671.461,1490.529l.654,1.49-.816,1.766h-1.147a.733.733,0,0,0-.645.384l1.959-4.238A.738.738,0,0,0,1671.461,1490.529Z" transform="translate(-1646.936 -1473.506)" fill="#474645"/>
              <path id="パス_870-4" data-name="パス 870" d="M1671.308,1493.4l-.678,1.466h-.469a.732.732,0,0,1-.677-1.012.591.591,0,0,1,.032-.07.733.733,0,0,1,.645-.384Z" transform="translate(-1646.945 -1473.125)" fill="#474645"/>
              <path id="パス_871-4" data-name="パス 871" d="M1669.524,1494.091a.733.733,0,0,0,.732.734h.469l-.776,1.677a.735.735,0,0,1-.666.426.734.734,0,0,1-.664-1.041l.959-2.074A.727.727,0,0,0,1669.524,1494.091Z" transform="translate(-1647.041 -1473.081)" fill="#474645"/>
              <path id="パス_872-4" data-name="パス 872" d="M1668.518,1494.908a.733.733,0,0,1,.252,1.005,3.307,3.307,0,0,1-3.043,1.523h-.013a3.428,3.428,0,0,1-2.252-1.005,4.32,4.32,0,0,1-1.173-3.206c0-3.873,3.232-3.984,3.6-3.984a3.088,3.088,0,0,1,2.8,1.677.733.733,0,1,1-1.3.672,1.644,1.644,0,0,0-1.5-.883c-.641,0-2.135.245-2.135,2.518a2.934,2.934,0,0,0,.739,2.166,2,2,0,0,0,1.219.58h0a1.933,1.933,0,0,0,1.8-.81A.732.732,0,0,1,1668.518,1494.908Z" transform="translate(-1647.728 -1473.582)" fill="#474645"/>
              <path id="パス_873-4" data-name="パス 873" d="M1666.737,1498.78a1.16,1.16,0,1,1-1.191,1.16A1.175,1.175,0,0,1,1666.737,1498.78Z" transform="translate(-1647.37 -1472.536)" fill="#a6a7a7"/>
              <rect id="長方形_92-4" data-name="長方形 92" width="11.398" height="10.339" rx="2.201" transform="translate(6.105 3.815)" fill="#a6a7a7"/>
              <path id="パス_874-4" data-name="パス 874" d="M1662.371,1498.78a1.16,1.16,0,1,1-1.191,1.16A1.175,1.175,0,0,1,1662.371,1498.78Z" transform="translate(-1647.849 -1472.536)" fill="#a6a7a7"/>
            </g>
          </g>
        </g>
      </g>
    </g>
    <g id="グループ_330" data-name="グループ 330" transform="translate(-3.011 159.645)">
      <g id="グループ_65" data-name="グループ 65" transform="translate(-19.978 -58)">
        <text id="_30代" data-name="30代" transform="translate(877 1904.026)" fill="#333" font-size="40" font-family="SourceHanSansJP-Bold, Source Han Sans JP" font-weight="700"><tspan x="0" y="0">30代</tspan></text>
        <text id="男性" transform="translate(992.5 1905.026)" fill="#333" font-size="40" font-family="SourceHanSansJP-Bold, Source Han Sans JP" font-weight="700"><tspan x="0" y="0">男性</tspan></text>
        <text id="借入総額" transform="translate(877 1963.026)" fill="#333" font-size="40" font-family="SourceHanSansJP-Bold, Source Han Sans JP" font-weight="700"><tspan x="0" y="0">借入総額</tspan></text>
        <text id="_300万円" data-name="300万円" transform="translate(1052 1964.026)" fill="#333" font-size="42" font-family="SourceHanSansJP-Bold, Source Han Sans JP" font-weight="700"><tspan x="0" y="0">300万円</tspan></text>
        <g id="グループ_63" data-name="グループ 63" transform="translate(675.382 1707.749)" opacity="0.83">
          <g id="グループ_58" data-name="グループ 58" transform="translate(90.587 136.606)">
            <path id="パス_104" data-name="パス 104" d="M116.758,186.168c-2.945-8.586-11.4-37.531,8.255-40.584,4.821-13.2,23.116-9.042,33.661-5.064a116.852,116.852,0,0,1,14.971,7.362,9.647,9.647,0,0,1,4.517,8.675c-.386,7.4-1.355,20.511-3.632,29.611Z" transform="translate(-110.553 -136.606)" fill="#333"/>
            <path id="パス_105" data-name="パス 105" d="M149.341,256.089c-.352-3.6-.731-7.646,1.68-10.185,1.983-2.09,5.949-2.071,10.971-7.094,2.879-2.879,3.727-6.1,5.411-13.439,4.013-.266,8.809-3.152,9.043-7.732s-2.811-8.835-9.8-8.228c1.216-9.26.108-22.439-1.509-25.97h-46.4c-1.616,3.531-2.725,16.71-1.509,25.97-6.985-.607-10.03,3.648-9.8,8.228s5.031,7.465,9.043,7.732c1.685,7.338,2.533,10.56,5.411,13.439,5.023,5.023,8.988,5,10.971,7.094,2.41,2.539,2.031,6.58,1.68,10.185Z" transform="translate(-107.421 -165.997)" fill="#fcfcfc" stroke="#333" stroke-linecap="round" stroke-linejoin="round" stroke-width="3"/>
            <path id="パス_106" data-name="パス 106" d="M129.02,195.254a24.769,24.769,0,0,1,8.529-20c8.473,2.43,15.872,4.292,24.968,4.292a34.89,34.89,0,0,1-3.711-5.841,55.017,55.017,0,0,0,13.71,1.91c2.912,3.739,5.081,12.03,5.081,19.889,3.464-1.52,4.244-14.3,4.244-17.682,0-16.187-22.339-18.988-42.205-14.968-8.11,1.641-12.416,6.954-13.79,15.016C124.894,183.444,125.571,190.466,129.02,195.254Z" transform="translate(-118.737 -152.051)" fill="#333" stroke="#333" stroke-linecap="round" stroke-linejoin="round" stroke-width="3"/>
          </g>
          <g id="グループ_60" data-name="グループ 60" transform="translate(80.595 219.114)">
            <path id="パス_111" data-name="パス 111" d="M80.595,426.8c0-9.136,3.262-25.8,4.662-36.279a8.22,8.22,0,0,1,4.634-6.254l21.425-10.452H138.9l21.425,10.452a8.221,8.221,0,0,1,4.634,6.254c1.4,10.478,4.662,27.144,4.662,36.279" transform="translate(-80.595 -367.97)" fill="#fcfcfc" stroke="#333" stroke-linejoin="round" stroke-width="3"/>
            <g id="グループ_59" data-name="グループ 59" transform="translate(37.226 8.888)">
              <path id="パス_112" data-name="パス 112" d="M194.926,430.347c1.277-11.667-4.63-35.717-4.63-35.717.094-.208,3.155-9.478,3.151-12.651H182.2c0,3.173,3.057,12.443,3.151,12.651,0,0-5.906,24.05-4.63,35.717C180.717,430.389,194.926,430.389,194.926,430.347Z" transform="translate(-180.537 -381.979)" fill="#fcfcfc" stroke="#333" stroke-miterlimit="10" stroke-width="3"/>
              <line id="線_14" data-name="線 14" x2="4.967" transform="translate(4.802 12.661)" fill="none" stroke="#333" stroke-miterlimit="10" stroke-width="3"/>
            </g>
            <path id="パス_113" data-name="パス 113" d="M80.595,426.8c0-9.136,3.262-25.8,4.662-36.279a8.22,8.22,0,0,1,4.634-6.254l21.425-10.452c3.96,14.467,7.088,32.752,13.791,46.251,6.7-13.5,9.83-31.784,13.791-46.251l21.425,10.452a8.221,8.221,0,0,1,4.634,6.254c1.4,10.478,4.662,27.144,4.662,36.279" transform="translate(-80.595 -367.97)" fill="#333" stroke="#333" stroke-linejoin="round" stroke-width="3"/>
            <path id="パス_114" data-name="パス 114" d="M183.97,374.186c-1.5-1.631-3.435-2.835-5.49-5.144-2.058,2.309-3.745,3.513-5.245,5.144-1.659-1.047-7.923-9.144-7.354-10.739a23.392,23.392,0,0,1,2.483-5.33c2.213.667,7.357,4.216,10.236,6.265h0c2.879-2.049,8.019-5.6,10.236-6.265a23.391,23.391,0,0,1,2.483,5.33C191.893,365.041,185.629,373.139,183.97,374.186Z" transform="translate(-134.091 -358.117)" fill="#fcfcfc" stroke="#333" stroke-linecap="round" stroke-linejoin="round" stroke-width="3"/>
          </g>
        </g>
      </g>
      <path id="パス_876" data-name="パス 876" d="M199.985,271.92a16.045,16.045,0,0,0-.317,3.029,6.2,6.2,0,0,0,.237,2.2" transform="translate(582.687 1564.837)" fill="none" stroke="#333" stroke-linecap="round" stroke-linejoin="round" stroke-width="3"/>
    </g>
  </g>
</svg>
