<svg id="_5-line" data-name=" 5-line" xmlns="http://www.w3.org/2000/svg" width="46" height="46" viewBox="0 0 46 46">
  <rect id="長方形_19" data-name="長方形 19" width="46" height="46" rx="11.2" fill="#00cf2e"/>
  <path id="パス_40" data-name="パス 40" d="M42.377,22.959c0-6.2-7.362-12.959-16.989-12.959C16.01,10,8.4,15.493,8.4,22.959c0,6.888,5.932,12.579,14.278,13.417a1.686,1.686,0,0,1,1.267.747,1.98,1.98,0,0,1,.311,1.049A13.349,13.349,0,0,1,24,40.446a.566.566,0,0,0,.779.641C28.779,39.326,42.377,32.086,42.377,22.959Z" transform="translate(-2.104 -2.475)" fill="#fff"/>
  <path id="パス_41" data-name="パス 41" d="M22.1,30.4H19.4V24.1a.9.9,0,1,0-1.8,0h0v7.2a.9.9,0,0,0,.9.9h3.6a.9.9,0,0,0,0-1.8Z" transform="translate(-5.028 -6.674)" fill="#00cf2e"/>
  <path id="パス_42" data-name="パス 42" d="M26.5,23.2a.9.9,0,0,0-.9.9h0v7.2a.9.9,0,0,0,1.8,0V24.1A.9.9,0,0,0,26.5,23.2Z" transform="translate(-7.243 -6.674)" fill="#00cf2e"/>
  <path id="パス_43" data-name="パス 43" d="M35.906,23.2a.9.9,0,0,0-.9.9h0v4.5L31.259,23.56a.9.9,0,0,0-1.619.54v7.2a.9.9,0,0,0,1.769,0V26.8l3.748,5.037a.892.892,0,0,0,.75.36.942.942,0,0,0,.285-.045.9.9,0,0,0,.615-.854V24.1A.9.9,0,0,0,35.906,23.2Z" transform="translate(-8.512 -6.674)" fill="#00cf2e"/>
  <path id="パス_44" data-name="パス 44" d="M45.3,28.6a.9.9,0,1,0,0-1.8H42.6V25h2.7a.9.9,0,1,0,0-1.8H41.7a.9.9,0,0,0-.9.9h0v7.2a.9.9,0,0,0,.9.9h3.6a.9.9,0,0,0,0-1.8H42.6V28.6Z" transform="translate(-11.655 -6.674)" fill="#00cf2e"/>
</svg>
