<svg xmlns="http://www.w3.org/2000/svg" width="183.168" height="51.449" viewBox="0 0 183.168 51.449">
  <g id="グループ_323" data-name="グループ 323" transform="translate(-97.876 -56.768)">
    <g id="グループ_1" data-name="グループ 1" transform="translate(97.876 56.768)" style="isolation: isolate">
      <path id="パス_1" data-name="パス 1" d="M121.263,91.019a.781.781,0,0,1-.081.366.629.629,0,0,1-.352.262,3.128,3.128,0,0,1-.759.157,12.849,12.849,0,0,1-1.3.052,10.339,10.339,0,0,1-1.152-.052,2.609,2.609,0,0,1-.718-.17.977.977,0,0,1-.42-.327,2.049,2.049,0,0,1-.257-.524L113,82.8q-.57-1.361-1.179-2.5a8.051,8.051,0,0,0-1.45-1.963,5.981,5.981,0,0,0-1.979-1.283,7.33,7.33,0,0,0-2.737-.458h-3.116V91.019a.581.581,0,0,1-.122.366.81.81,0,0,1-.38.249,3.882,3.882,0,0,1-.7.157,9.687,9.687,0,0,1-2.249,0,4.263,4.263,0,0,1-.718-.157.721.721,0,0,1-.379-.249.626.626,0,0,1-.109-.366V59.65a1.654,1.654,0,0,1,.556-1.427,1.962,1.962,0,0,1,1.179-.406h7.452q1.328,0,2.209.065t1.586.144a13.787,13.787,0,0,1,3.591,1.074,8.512,8.512,0,0,1,2.615,1.859,7.452,7.452,0,0,1,1.585,2.579,9.317,9.317,0,0,1,.529,3.208,9.159,9.159,0,0,1-.475,3.05,7.312,7.312,0,0,1-1.368,2.383,8.977,8.977,0,0,1-2.141,1.793,13.951,13.951,0,0,1-2.792,1.283,6.67,6.67,0,0,1,1.572.93,7.979,7.979,0,0,1,1.315,1.348,12.567,12.567,0,0,1,1.152,1.807q.542,1.021,1.084,2.3l3.144,7.463q.379.943.487,1.322A2.327,2.327,0,0,1,121.263,91.019Zm-7.019-23.8a5.908,5.908,0,0,0-.921-3.365,5.219,5.219,0,0,0-3.09-1.977,9.128,9.128,0,0,0-1.531-.261q-.854-.079-2.236-.079h-3.929V72.951h4.553a10.431,10.431,0,0,0,3.184-.432,6.354,6.354,0,0,0,2.236-1.2,4.685,4.685,0,0,0,1.314-1.82A6.059,6.059,0,0,0,114.244,67.217Z" transform="translate(-97.876 -57.319)" fill="#f59f7c"/>
      <path id="パス_2" data-name="パス 2" d="M183.536,89.928a3.165,3.165,0,0,1,.23.929.629.629,0,0,1-.2.537,1.338,1.338,0,0,1-.718.236q-.5.052-1.342.052t-1.341-.039a3.156,3.156,0,0,1-.759-.131.809.809,0,0,1-.379-.249,2,2,0,0,1-.231-.393l-3.008-8.248h-14.58l-2.872,8.143a1.368,1.368,0,0,1-.217.406,1.056,1.056,0,0,1-.393.288,2.49,2.49,0,0,1-.732.17,11.755,11.755,0,0,1-1.233.052,10.375,10.375,0,0,1-1.287-.065,1.318,1.318,0,0,1-.7-.249.65.65,0,0,1-.19-.537,3.142,3.142,0,0,1,.231-.929l11.761-31.474a1.361,1.361,0,0,1,.284-.471,1.186,1.186,0,0,1,.515-.288,4.038,4.038,0,0,1,.868-.144q.528-.039,1.341-.039.867,0,1.436.039a4.418,4.418,0,0,1,.922.144,1.228,1.228,0,0,1,.542.3,1.405,1.405,0,0,1,.3.485ZM168.441,62.147h-.027l-6.043,16.889h12.195Z" transform="translate(-127.141 -57.145)" fill="#707070"/>
      <path id="パス_3" data-name="パス 3" d="M251.91,90.793a.768.768,0,0,1-.095.38.675.675,0,0,1-.365.275,3.453,3.453,0,0,1-.732.17,8.856,8.856,0,0,1-1.192.065,12.3,12.3,0,0,1-1.545-.078,1.791,1.791,0,0,1-1.382-.759L233.7,73.9V90.845a.651.651,0,0,1-.108.353.693.693,0,0,1-.38.262,4.273,4.273,0,0,1-.718.157,9.573,9.573,0,0,1-2.236,0,4.258,4.258,0,0,1-.731-.157.689.689,0,0,1-.38-.262.647.647,0,0,1-.108-.353V58.324a.629.629,0,0,1,.108-.366.728.728,0,0,1,.38-.249,4.258,4.258,0,0,1,.731-.157,9.574,9.574,0,0,1,2.236,0,4.273,4.273,0,0,1,.718.157.732.732,0,0,1,.38.249.633.633,0,0,1,.108.366V73.38l12.412-15.056a1.582,1.582,0,0,1,.379-.392,1.723,1.723,0,0,1,.529-.249,4.684,4.684,0,0,1,.759-.144,10.318,10.318,0,0,1,1.151-.052,7.946,7.946,0,0,1,1.139.065,3.175,3.175,0,0,1,.691.17.708.708,0,0,1,.352.262.648.648,0,0,1,.095.34,1.472,1.472,0,0,1-.177.681,6.212,6.212,0,0,1-.664.943L238.74,73.38l12.52,16.077a6.009,6.009,0,0,1,.555.929A1.207,1.207,0,0,1,251.91,90.793Z" transform="translate(-166.789 -57.145)" fill="#707070"/>
      <path id="パス_4" data-name="パス 4" d="M314.445,79.009a15.218,15.218,0,0,1-.935,5.511,10.95,10.95,0,0,1-6.9,6.638,17.245,17.245,0,0,1-5.664.864,16.321,16.321,0,0,1-5.284-.812,11.263,11.263,0,0,1-4.092-2.4,10.459,10.459,0,0,1-2.628-3.967,15.17,15.17,0,0,1-.922-5.5V58.324a.629.629,0,0,1,.108-.366.728.728,0,0,1,.38-.249,4.268,4.268,0,0,1,.7-.157,7.928,7.928,0,0,1,1.139-.065,8.051,8.051,0,0,1,1.111.065,3.9,3.9,0,0,1,.718.157.726.726,0,0,1,.366.249.629.629,0,0,1,.108.366V78.8a12.793,12.793,0,0,0,.6,4.111,7.682,7.682,0,0,0,1.721,2.92,7.191,7.191,0,0,0,2.709,1.755,10.183,10.183,0,0,0,3.564.589,10.548,10.548,0,0,0,3.618-.576,6.881,6.881,0,0,0,2.682-1.728,7.673,7.673,0,0,0,1.681-2.854,12.3,12.3,0,0,0,.582-3.98V58.324a.626.626,0,0,1,.109-.366.724.724,0,0,1,.38-.249,4.254,4.254,0,0,1,.718-.157,7.984,7.984,0,0,1,1.125-.065,7.749,7.749,0,0,1,1.1.065,3.9,3.9,0,0,1,.7.157.812.812,0,0,1,.379.249.581.581,0,0,1,.122.366Z" transform="translate(-197.78 -57.145)" fill="#707070"/>
      <path id="パス_5" data-name="パス 5" d="M378.973,81.643a9.549,9.549,0,0,1-.908,4.242,9.165,9.165,0,0,1-2.52,3.155,11.051,11.051,0,0,1-3.794,1.951,16.293,16.293,0,0,1-4.7.655,17.391,17.391,0,0,1-3.265-.288,18.411,18.411,0,0,1-2.683-.707,13.106,13.106,0,0,1-1.978-.864,5.23,5.23,0,0,1-1.111-.759,1.9,1.9,0,0,1-.461-.8,4.559,4.559,0,0,1-.149-1.3,6.894,6.894,0,0,1,.054-.955,2.247,2.247,0,0,1,.163-.616.685.685,0,0,1,.271-.327.761.761,0,0,1,.379-.092,2.258,2.258,0,0,1,1.071.445,16.915,16.915,0,0,0,1.775.969,17.774,17.774,0,0,0,2.615.982,12.356,12.356,0,0,0,3.537.458,9.284,9.284,0,0,0,2.778-.393,6.61,6.61,0,0,0,2.168-1.112,4.819,4.819,0,0,0,1.4-1.768,5.572,5.572,0,0,0,.488-2.382,4.353,4.353,0,0,0-.677-2.461,6.7,6.7,0,0,0-1.789-1.793,15.858,15.858,0,0,0-2.534-1.414q-1.422-.641-2.913-1.309a31.9,31.9,0,0,1-2.9-1.48,12.238,12.238,0,0,1-2.521-1.911,8.87,8.87,0,0,1-1.8-2.579,8.318,8.318,0,0,1-.692-3.548,8.63,8.63,0,0,1,.8-3.784,7.833,7.833,0,0,1,2.222-2.788,10.043,10.043,0,0,1,3.388-1.715,14.691,14.691,0,0,1,4.241-.589,14.235,14.235,0,0,1,2.344.2,16.448,16.448,0,0,1,2.222.524,12.657,12.657,0,0,1,1.857.733,4.855,4.855,0,0,1,1.071.654,2.034,2.034,0,0,1,.338.392,1.461,1.461,0,0,1,.136.367,3.627,3.627,0,0,1,.081.537c.018.209.027.48.027.812a7.576,7.576,0,0,1-.041.838,3.085,3.085,0,0,1-.122.615.753.753,0,0,1-.231.367.533.533,0,0,1-.339.118,2.22,2.22,0,0,1-.934-.367q-.637-.366-1.559-.825a14.049,14.049,0,0,0-2.181-.838,9.815,9.815,0,0,0-2.832-.38,7.714,7.714,0,0,0-2.547.38A5.271,5.271,0,0,0,364.42,61.9a4,4,0,0,0-1.057,1.493,4.809,4.809,0,0,0-.352,1.833,4.3,4.3,0,0,0,.678,2.435,6.8,6.8,0,0,0,1.8,1.807,16.158,16.158,0,0,0,2.561,1.44q1.436.655,2.927,1.323T373.9,73.7a12.2,12.2,0,0,1,2.561,1.886,8.589,8.589,0,0,1,1.816,2.566A8.2,8.2,0,0,1,378.973,81.643Z" transform="translate(-234.232 -56.768)" fill="#707070"/>
      <path id="パス_6" data-name="パス 6" d="M436.413,89.84a5.582,5.582,0,0,1-.054.825,1.7,1.7,0,0,1-.19.589.907.907,0,0,1-.311.34.752.752,0,0,1-.393.1H418.635a1.961,1.961,0,0,1-1.179-.406,1.655,1.655,0,0,1-.555-1.427V59.65a1.655,1.655,0,0,1,.555-1.427,1.964,1.964,0,0,1,1.179-.406h16.64a.756.756,0,0,1,.393.1.743.743,0,0,1,.284.34,2.59,2.59,0,0,1,.176.589,4.775,4.775,0,0,1,.068.877,4.435,4.435,0,0,1-.068.825,2.337,2.337,0,0,1-.176.576.717.717,0,0,1-.677.432H421.562V72.192h11.761a.693.693,0,0,1,.393.118.979.979,0,0,1,.3.327,1.648,1.648,0,0,1,.177.576,6.07,6.07,0,0,1,.054.864,5.309,5.309,0,0,1-.054.812,1.606,1.606,0,0,1-.177.55.752.752,0,0,1-.3.3.837.837,0,0,1-.393.092H421.562V87.955h13.9a.761.761,0,0,1,.393.1.939.939,0,0,1,.311.327,1.562,1.562,0,0,1,.19.576A6,6,0,0,1,436.413,89.84Z" transform="translate(-265.494 -57.319)" fill="#707070"/>
      <path id="パス_7" data-name="パス 7" d="M478.663,90.845a.63.63,0,0,1-.109.366.729.729,0,0,1-.38.249,4.263,4.263,0,0,1-.718.157,9.572,9.572,0,0,1-2.236,0,4.248,4.248,0,0,1-.731-.157.725.725,0,0,1-.38-.249.626.626,0,0,1-.108-.366V58.324a.578.578,0,0,1,.122-.366.817.817,0,0,1,.406-.249,4.7,4.7,0,0,1,.732-.157,7.508,7.508,0,0,1,1.07-.065,7.989,7.989,0,0,1,1.125.065,4.263,4.263,0,0,1,.718.157.731.731,0,0,1,.38.249.629.629,0,0,1,.109.366Z" transform="translate(-295.495 -57.145)" fill="#707070"/>
    </g>
    <circle id="楕円形_1" data-name="楕円形 1" cx="2.887" cy="2.887" r="2.887" transform="translate(136.52 71.32)" fill="#707070"/>
    <circle id="楕円形_2" data-name="楕円形 2" cx="2.887" cy="2.887" r="2.887" transform="translate(198.443 71.32)" fill="#f59f7c"/>
    <path id="パス_8" data-name="パス 8" d="M158.622,143c0,4.923,19.6,10.524,43.771,10.524s43.771-5.6,43.771-10.524" transform="translate(-31.916 -45.307)" fill="#f59f7c"/>
  </g>
</svg>
