<svg xmlns="http://www.w3.org/2000/svg" width="340.165" height="110.03" viewBox="0 0 340.165 110.03">
  <g id="グループ_1482" data-name="グループ 1482" transform="translate(-14.314 -150.63)">
    <path id="パス_1720" data-name="パス 1720" d="M0,0H261.617" transform="translate(14.314 254.66)" fill="none" stroke="#ffeb3b" stroke-width="12"/>
    <g id="グループ_1481" data-name="グループ 1481">
      <g id="グループ_1362" data-name="グループ 1362" transform="translate(419.904 128.223)">
        <path id="パス_1732" data-name="パス 1732" d="M3.3,0H7.242V-10.1h4.046L16.966,0H21.42L15.3-10.608a6.966,6.966,0,0,0,5.236-7.174c0-5.406-3.876-7.276-9.044-7.276H3.3ZM7.242-13.26v-8.6h3.774c3.638,0,5.61,1.054,5.61,4.08s-1.972,4.522-5.61,4.522Zm22.95-.34c.816-2.72,1.6-5.474,2.312-8.33h.17c.748,2.822,1.5,5.61,2.346,8.33l.986,3.366H29.172ZM22.1,0h4.012l2.142-7.14h8.7L39.066,0h4.182l-8.3-25.058H30.4ZM46.546,0H50.49V-7.548l3.842-4.726L61.4,0H65.79L56.746-15.368l7.752-9.69H60.112l-9.52,11.866h-.1V-25.058H46.546ZM77.69.442c5.542,0,9.282-3.026,9.282-11.186V-25.058H83.164v14.586c0,5.644-2.312,7.48-5.474,7.48-3.128,0-5.372-1.836-5.372-7.48V-25.058H68.374v14.314C68.374-2.584,72.148.442,77.69.442Zm22.508,0C105.672.442,109-2.822,109-6.834c0-3.672-2.142-5.508-5.1-6.766l-3.434-1.462c-2.04-.816-4.046-1.632-4.046-3.808,0-1.972,1.666-3.2,4.216-3.2a7.97,7.97,0,0,1,5.508,2.244l2.074-2.516A10.719,10.719,0,0,0,100.64-25.5c-4.76,0-8.228,2.958-8.228,6.9,0,3.638,2.686,5.542,5.1,6.562l3.468,1.5c2.312,1.02,4.012,1.734,4.012,4.012,0,2.108-1.7,3.536-4.726,3.536A9.7,9.7,0,0,1,93.6-5.95L91.29-3.23A12.484,12.484,0,0,0,100.2.442ZM113.73,0h15.164V-3.332h-11.22v-8.092h9.18v-3.332h-9.18v-6.97H128.52v-3.332H113.73Zm20.4,0h3.944V-25.058H134.13Zm31.94-9.477c0-5.643-4.1-10.179-10.584-10.179-6.777,0-12.069,5.184-12.069,11.232,0,4.509,2.457,7.479,5.13,7.479S153.461-4,155.081-9.5a53.764,53.764,0,0,0,1.62-7.587,7.179,7.179,0,0,1,6.534,7.533c0,4.347-3.078,6.885-6.534,7.668a16.687,16.687,0,0,1-2.4.378l1.593,2.538C162.452.081,166.07-3.807,166.07-9.477Zm-19.926.783a9.026,9.026,0,0,1,7.7-8.343,42.987,42.987,0,0,1-1.485,6.966c-1.242,4.158-2.511,5.913-3.726,5.913C147.467-4.158,146.144-5.589,146.144-8.694ZM182.686-27.37h-3.74a22.107,22.107,0,0,1,.2,2.686c0,.612-.034,1.836-.034,3.366q-1.275.1-2.346.1a34.35,34.35,0,0,1-4.522-.272l.1,3.264c1.122.1,2.414.17,4.488.17q.969,0,2.244-.1c-.034,1.292-.034,2.584-.034,3.774v2.108c-4.012,1.734-7.514,4.76-7.514,7.65,0,3.264,4.522,5.984,7.48,5.984,2.006,0,3.332-1.054,3.332-4.658,0-1.36-.1-4.216-.136-7.038a23,23,0,0,1,6.97-1.122c3.094,0,5.44,1.462,5.44,4.08,0,2.856-2.482,4.352-5.338,4.9a17.933,17.933,0,0,1-4.08.238l1.224,3.468a26.427,26.427,0,0,0,4.318-.51c5-1.19,7.344-4.012,7.344-8.058,0-4.352-3.808-7.072-8.874-7.072a26.559,26.559,0,0,0-7.072,1.088v-1.19c0-1.224.034-2.584.068-3.944,2.346-.272,4.862-.68,6.834-1.122l-.068-3.332a42.615,42.615,0,0,1-6.7,1.292c.068-1.224.1-2.312.136-3.128C182.482-25.568,182.584-26.724,182.686-27.37Zm10.166,3.74-1.5,2.584a49.247,49.247,0,0,1,7.854,5.032l1.666-2.72A60.89,60.89,0,0,0,192.852-23.63ZM174.866-4.794c0-1.36,1.768-3.094,4.25-4.318.034,2.21.1,4.182.1,5.27,0,1.122-.476,1.564-1.156,1.564C176.906-2.278,174.866-3.434,174.866-4.794ZM211.45-3.706c0-1.36,1.564-2.482,4.454-2.482A15.4,15.4,0,0,1,219-5.882c.034.748.034,1.428.034,1.9,0,2.176-1.462,2.754-3.366,2.754C212.742-1.224,211.45-2.244,211.45-3.706ZM222.16-27.2h-3.638a11.157,11.157,0,0,1,.17,2.142v2.074H217.23a61.6,61.6,0,0,1-8.534-.748l.034,3.094c2.21.272,6.29.612,8.534.612h1.394v4.182h-1.734a66.47,66.47,0,0,1-8.4-.612l.034,3.2c2.346.272,6.12.442,8.3.442h1.87c.034,1.258.1,2.652.136,3.978-.816-.068-1.632-.136-2.516-.136-5.066,0-8.092,2.21-8.092,5.474,0,3.4,2.754,5.3,7.854,5.3,4.454,0,6.324-2.346,6.324-4.93,0-.476-.034-1.054-.068-1.768A26.142,26.142,0,0,1,229.98.068l1.972-3.026a27.3,27.3,0,0,0-9.758-5.2c-.068-1.53-.17-3.162-.238-4.726,3.264-.136,6.086-.374,9.214-.748L231.2-16.8c-2.958.408-5.95.714-9.316.85v-4.216c3.3-.136,6.46-.442,8.976-.748v-3.128a74.7,74.7,0,0,1-8.942.952c.034-.748.034-1.394.068-1.8C222.024-25.84,222.092-26.588,222.16-27.2Zm24.956.476L243.75-25.33c1.6,3.638,3.3,7.48,4.862,10.336-3.468,2.448-5.78,5.236-5.78,8.84,0,5.44,4.828,7.31,11.39,7.31A64.91,64.91,0,0,0,265.034.34l.034-3.876a50.653,50.653,0,0,1-10.982,1.224c-5.066,0-7.616-1.564-7.616-4.216,0-2.482,1.9-4.624,4.9-6.6,3.23-2.108,7.752-4.216,10-5.372,1.088-.544,2.04-1.054,2.924-1.6l-1.87-3.094a18.851,18.851,0,0,1-2.72,1.8c-1.768.986-5.134,2.652-8.126,4.454A79.44,79.44,0,0,1,247.116-26.724Zm46.41.238-3.706-.34a14.013,14.013,0,0,1-.238,2.89c-.1.68-.238,1.36-.408,2.074a17.955,17.955,0,0,0-8.33,2.278c-.272-.85-.51-1.666-.714-2.414-.238-.986-.51-2.108-.714-3.094L275.88-24a21.311,21.311,0,0,1,1.258,3.3c.306.952.612,1.972.952,2.958A14.513,14.513,0,0,0,272.956-7.14c0,4.182,2.346,6.426,5.032,6.426,2.516,0,4.522-1.428,6.7-3.978.442.578.918,1.122,1.428,1.7L288.8-5.168a18.24,18.24,0,0,1-1.972-2.244,42.965,42.965,0,0,0,4.794-11.254,7.888,7.888,0,0,1,6.426,8.092c0,4.794-3.5,8.568-10.778,9.214l2.04,3.06c7.174-1.054,12.172-5.168,12.172-12.138A10.91,10.91,0,0,0,292.4-21.624c.17-.612.306-1.224.442-1.836C293.016-24.208,293.288-25.6,293.526-26.486ZM276.084-7.378a11.189,11.189,0,0,1,3.128-7.276,38.362,38.362,0,0,0,3.2,6.664,5.914,5.914,0,0,1,.374.612c-1.394,1.836-2.958,3.23-4.454,3.23C276.934-4.148,276.084-5.406,276.084-7.378Zm8.364-3.434a38.467,38.467,0,0,1-2.618-5.882,14.7,14.7,0,0,1,6.528-2.142,41.827,41.827,0,0,1-3.6,8.534Zm22.44-11.968.34,3.706c3.808-.816,11.73-1.632,15.164-1.972A13.638,13.638,0,0,0,316.612-10c0,7.48,6.97,11.05,13.634,11.39l1.224-3.638c-5.61-.238-11.39-2.312-11.39-8.5,0-4.012,2.992-8.874,7.514-10.234a32.764,32.764,0,0,1,6.63-.476v-3.434c-2.346.068-5.746.272-9.384.578-6.256.544-12.308,1.122-14.79,1.36C309.37-22.882,308.18-22.814,306.888-22.78Zm22.44,5.1-2.04.884a32.153,32.153,0,0,1,2.72,4.76l2.108-.952A47.469,47.469,0,0,0,329.328-17.68Zm3.774-1.462-2.04.918a31.908,31.908,0,0,1,2.856,4.692l2.074-.986A49.112,49.112,0,0,0,333.1-19.142Z" transform="translate(-404.904 49.777)" fill="#6a6a6a"/>
      </g>
      <g id="グループ_1364" data-name="グループ 1364" transform="translate(281.119 177.707)">
        <path id="パス_1734" data-name="パス 1734" d="M8.5-18.84l-3.072-.024a13.888,13.888,0,0,1,.264,2.784c0,2.3-.24,8.5-.24,11.9,0,3.984,2.448,5.544,6.1,5.544a12.187,12.187,0,0,0,10.2-5.376L20.04-6.1c-1.728,2.568-4.248,4.944-8.448,4.944-2.088,0-3.648-.864-3.648-3.408,0-3.312.168-8.856.288-11.52A21.889,21.889,0,0,1,8.5-18.84ZM30.432-2.616c0-.96,1.1-1.752,3.144-1.752a10.873,10.873,0,0,1,2.184.216c.024.528.024,1.008.024,1.344,0,1.536-1.032,1.944-2.376,1.944C31.344-.864,30.432-1.584,30.432-2.616ZM37.992-19.2H35.424a7.875,7.875,0,0,1,.12,1.512v1.464H34.512a43.484,43.484,0,0,1-6.024-.528l.024,2.184c1.56.192,4.44.432,6.024.432h.984v2.952H34.3a46.92,46.92,0,0,1-5.928-.432l.024,2.256c1.656.192,4.32.312,5.856.312h1.32c.024.888.072,1.872.1,2.808-.576-.048-1.152-.1-1.776-.1-3.576,0-5.712,1.56-5.712,3.864,0,2.4,1.944,3.744,5.544,3.744,3.144,0,4.464-1.656,4.464-3.48,0-.336-.024-.744-.048-1.248a18.453,18.453,0,0,1,5.376,3.5L44.9-2.088A19.27,19.27,0,0,0,38.016-5.76c-.048-1.08-.12-2.232-.168-3.336,2.3-.1,4.3-.264,6.5-.528l.024-2.232c-2.088.288-4.2.5-6.576.6v-2.976c2.328-.1,4.56-.312,6.336-.528v-2.208a52.733,52.733,0,0,1-6.312.672c.024-.528.024-.984.048-1.272C37.9-18.24,37.944-18.768,37.992-19.2Zm27.312.552H62.736A15.855,15.855,0,0,1,62.9-16.68v3.12c-2.4.216-5.016.456-7.224.672.024-1.152.024-2.16.024-2.832a18.959,18.959,0,0,1,.12-2.184H53.16a14.258,14.258,0,0,1,.168,2.3v2.928c-1.008.1-1.8.168-2.328.216-1.008.1-1.992.144-2.712.144l.264,2.448c.624-.1,1.872-.264,2.616-.36.528-.072,1.272-.144,2.16-.24,0,2.3,0,4.776.024,5.808C53.448-.7,54.072.6,59.9.6A67.557,67.557,0,0,0,66.84.192l.072-2.568a44.8,44.8,0,0,1-7.152.6c-3.912,0-4.008-.768-4.08-3.24-.048-.984-.024-3.36,0-5.712,2.232-.24,4.848-.48,7.176-.672a34.2,34.2,0,0,1-.24,3.48c-.048.528-.288.624-.84.624a13.981,13.981,0,0,1-2.3-.312L59.424-5.52a28.269,28.269,0,0,0,3.36.36c1.152,0,1.7-.312,1.944-1.464a36.555,36.555,0,0,0,.36-4.944c.888-.048,1.68-.1,2.3-.1.624-.024,1.68-.048,2.088-.024V-14.04c-.624.048-1.44.12-2.064.144-.672.048-1.464.1-2.28.168.024-.96.024-1.992.048-3.024A14.262,14.262,0,0,1,65.3-18.648ZM13.44,12.168l-2.688-1.08A22.238,22.238,0,0,1,9.744,13.2C8.472,15.5,3.36,25.32,1.584,30.168l2.64.888a44.035,44.035,0,0,1,1.968-5.4c.912-1.92,2.52-3.744,4.32-3.744A1.456,1.456,0,0,1,12.1,23.424c.072,1.176.048,3.072.144,4.44.072,1.56,1.08,3.168,3.7,3.168,3.576,0,5.688-2.712,6.936-6.7L20.856,22.68c-.648,2.76-2.112,5.784-4.536,5.784a1.566,1.566,0,0,1-1.752-1.536c-.1-1.1-.048-2.976-.1-4.224-.1-1.944-1.2-3.024-2.9-3.024a5.275,5.275,0,0,0-3.192,1.152c1.2-2.232,3.192-5.808,4.3-7.488C12.96,12.912,13.224,12.48,13.44,12.168Zm21.312-.984L31.944,10.9a26.825,26.825,0,0,1-.552,5.16c-1.368.12-2.664.216-3.432.24-.816.024-1.512.048-2.328,0l.24,2.592c.672-.12,1.776-.264,2.376-.336.552-.072,1.536-.192,2.64-.312C30.024,21.5,28.3,26.688,25.9,29.928l2.472.984c2.376-3.84,4.08-9.384,4.968-12.912.912-.1,1.7-.144,2.208-.144,1.512,0,2.448.36,2.448,2.424a19.507,19.507,0,0,1-1.08,7.032,1.88,1.88,0,0,1-1.968,1.152,12.5,12.5,0,0,1-2.928-.48l.384,2.5a13.5,13.5,0,0,0,2.856.336c1.68,0,2.928-.432,3.7-2.088,1.008-2.016,1.368-5.88,1.368-8.712,0-3.36-1.752-4.3-4.08-4.3-.552,0-1.416.048-2.4.144.216-1.128.432-2.28.576-3.024C34.512,12.312,34.632,11.688,34.752,11.184Zm8.28,2.424-2.232.96a28.643,28.643,0,0,1,4.152,8.88l2.376-1.1A41.567,41.567,0,0,0,43.032,13.608Zm15.432,10.44h2.448c-.5-3.5,5.016-4.1,5.016-7.68,0-2.952-2.352-4.632-5.76-4.632a7.928,7.928,0,0,0-6.12,2.856l1.584,1.464a5.683,5.683,0,0,1,4.224-2.04c2.208,0,3.384,1.032,3.384,2.592C63.24,19.152,57.816,20.136,58.464,24.048Zm1.248,6.12a1.824,1.824,0,0,0,0-3.648,1.825,1.825,0,0,0,0,3.648Z" transform="translate(3.88 47.294)" fill="#6a6a6a"/>
      </g>
      <g id="グループ_1363" data-name="グループ 1363" transform="translate(14 178.121)">
        <path id="パス_1733" data-name="パス 1733" d="M15.616-50.935C12.322-42.029,6.893-33.123,1.159-27.45A44.138,44.138,0,0,1,4.27-21.716,70.8,70.8,0,0,0,9.516-28.06V4.7h5.368V-36.478a98.458,98.458,0,0,0,6.039-12.871ZM48.251-17.568v5.429H29.341v-5.429ZM29.341-2.135V-7.808h18.91v5.673ZM23.912,5h5.429V2.5h18.91V4.758h5.673V-22.326H23.912Zm9.455-43.92H43.31v7.2H33.367Zm15.555,7.2v-7.2h8.052V-43.8H48.922V-50.63H43.31V-43.8H33.367V-50.63h-5.49V-43.8H20.191v4.88h7.686v7.2H17.812v5.185H58.865V-31.72Zm35.807-1.22A65.34,65.34,0,0,0,97.356-45.75a68.236,68.236,0,0,0,13.237,12.81ZM100.284-15.8H120.17v-4.88H100.284v-7.259h12.383v-3.477a77.018,77.018,0,0,0,9.76,6.039,32.29,32.29,0,0,1,3.66-5.063A67.159,67.159,0,0,1,99.979-51.3H94.184C89.609-43.8,79.666-34.831,69.3-29.707a21.982,21.982,0,0,1,3.538,4.575A85.765,85.765,0,0,0,82.35-31.11v3.172H94.306v7.259H74.847v4.88H94.306V-1.952H71.919V2.989h51.423V-1.952H100.284ZM79.3-13.054A39.732,39.732,0,0,1,84.668-2.2l4.941-2.2a39.708,39.708,0,0,0-5.673-10.492ZM108.519-2.2A108.249,108.249,0,0,0,115.9-12.932l-5.429-2.013A67.49,67.49,0,0,1,104.31-4.087Zm36.356-37.393H184.22v8.052h6.039v-13.42H167.567v-6.222h-6.039v6.222H139.141v13.42h5.734Zm35.868,10.858v-5.124H148.474v5.124ZM177.022-1.4c-2.318,0-2.745-.305-2.745-2.074V-17.446H191.54v-5.429H137.8v5.429h15.189c-1.037,8.418-3.721,14.335-16.653,17.385a15.488,15.488,0,0,1,3.294,5c14.64-3.965,18.117-11.59,19.459-22.387h9.455v14.03c0,5.551,1.525,7.259,7.747,7.259h8.662c5.185,0,6.771-2.257,7.442-10.736a17.954,17.954,0,0,1-5.185-2.2c-.183,6.71-.549,7.686-2.745,7.686Zm44.042-43.066a44.714,44.714,0,0,0-10.98-6.283l-3.111,4.087a46.972,46.972,0,0,1,10.8,6.771Zm-3.111,15.86a52.192,52.192,0,0,0-11.224-5.917l-3.111,4.27a46.652,46.652,0,0,1,11.041,6.466Zm-1.769,9.455A182.355,182.355,0,0,1,205.448.366l4.88,3.6c3.416-5.795,7.2-13.115,10.187-19.52Zm30.378-21.167a23.288,23.288,0,0,1-6.283,5.612,28.987,28.987,0,0,1-7.259-5.612Zm2.135,29.4H231.19c.183-1.83.3-3.538.3-5.124h17.2Zm10.492-29.4V-45.2H242.963v-5.978h-5.856V-45.2H221.125v4.88h5.551a35.873,35.873,0,0,0,8.357,8.3,66.437,66.437,0,0,1-16.043,4.209,23.026,23.026,0,0,1,2.745,4.88c1.464-.305,2.928-.671,4.331-.976v7.32c0,5.49-.854,13.481-7.747,18.91a23.693,23.693,0,0,1,4.514,3.111,22.373,22.373,0,0,0,7.381-11.59H248.7V4.7h5.551v-28.67H248.7V-20.8h-17.2v-3.233h-5.063a68.862,68.862,0,0,0,13.6-4.941c5.124,2.623,10.919,4.209,17.324,5.49a15.182,15.182,0,0,1,3.05-5.063A79.394,79.394,0,0,1,245.4-32.269a29.466,29.466,0,0,0,7.5-8.052Z" transform="translate(0 70.88)" fill="#6a6a6a"/>
      </g>
    </g>
  </g>
</svg>
