<svg xmlns="http://www.w3.org/2000/svg" xmlns:xlink="http://www.w3.org/1999/xlink" width="352.236" height="366.509" viewBox="0 0 352.236 366.509">
  <defs>
    <clipPath id="clip-path">
      <rect id="長方形_168" data-name="長方形 168" width="14.575" height="18.384" fill="#541413"/>
    </clipPath>
  </defs>
  <g id="グループ_1483" data-name="グループ 1483" transform="translate(-7.764 -268.491)">
    <g id="グループ_1357" data-name="グループ 1357" transform="translate(-1172.465 -149.455)">
      <g id="グループ_322" data-name="グループ 322" transform="translate(1186.465 452)">
        <g id="楕円形_40" data-name="楕円形 40" transform="translate(165.928 48.562)" fill="#fcfcfc" stroke="#707070" stroke-width="5">
          <ellipse cx="20.548" cy="29.136" rx="20.548" ry="29.136" stroke="none"/>
          <ellipse cx="20.548" cy="29.136" rx="18.048" ry="26.636" fill="none"/>
        </g>
        <g id="グループ_316" data-name="グループ 316" transform="translate(0 0)">
          <g id="グループ_315" data-name="グループ 315" transform="translate(0 0)">
            <g id="グループ_314" data-name="グループ 314" transform="translate(0 0)">
              <g id="グループ_311" data-name="グループ 311" transform="translate(109.77 29.053)">
                <path id="パス_879" data-name="パス 879" d="M151.8,157.693c-3.52,2.067-7.7,1.49-9.328-1.291s-.1-6.71,3.416-8.777,7.7-1.488,9.328,1.293S155.317,155.627,151.8,157.693Z" transform="translate(-141.815 -145.333)" fill="#ffb300"/>
                <path id="パス_880" data-name="パス 880" d="M152.073,157.1c-3.52,2.067-7.7,1.488-9.328-1.293s-.1-6.708,3.416-8.776,7.7-1.488,9.328,1.293S155.592,155.039,152.073,157.1Z" transform="translate(-141.598 -145.797)" fill="#ffd500"/>
                <path id="パス_881" data-name="パス 881" d="M149.818,147.322s-1.114-1.314-3.682-.579" transform="translate(-138.409 -145.228)" fill="rgba(0,0,0,0)" stroke="#fff589" stroke-linecap="round" stroke-miterlimit="10" stroke-width="1.823"/>
                <line id="線_25" data-name="線 25" x2="2.619" y2="4.461" transform="translate(8.757 2.539)" fill="none" stroke="#ffbe00" stroke-linecap="round" stroke-miterlimit="10" stroke-width="1.215"/>
                <line id="線_26" data-name="線 26" x2="2.619" y2="4.461" transform="translate(6.336 3.96)" fill="none" stroke="#ffbe00" stroke-linecap="round" stroke-miterlimit="10" stroke-width="1.215"/>
                <line id="線_27" data-name="線 27" x2="2.619" y2="4.461" transform="translate(3.723 5.495)" fill="none" stroke="#ffbe00" stroke-linecap="round" stroke-miterlimit="10" stroke-width="1.215"/>
              </g>
              <g id="グループ_312" data-name="グループ 312" transform="translate(117.701 57.225)">
                <path id="パス_882" data-name="パス 882" d="M158.288,169.54c-.043,4.081-2.69,7.361-5.914,7.327s-5.8-3.369-5.76-7.45,2.691-7.361,5.916-7.329S158.331,165.459,158.288,169.54Z" transform="translate(-145.964 -161.126)" fill="#ffb300"/>
                <path id="パス_883" data-name="パス 883" d="M157.927,169c-.043,4.081-2.692,7.361-5.916,7.327s-5.8-3.369-5.76-7.45,2.692-7.361,5.916-7.327S157.97,164.919,157.927,169Z" transform="translate(-146.25 -161.55)" fill="#ffd500"/>
                <path id="パス_884" data-name="パス 884" d="M149.69,162.612s-1.7.279-2.395,2.858" transform="translate(-145.426 -160.712)" fill="rgba(0,0,0,0)" stroke="#fff589" stroke-linecap="round" stroke-miterlimit="10" stroke-width="1.823"/>
                <line id="線_28" data-name="線 28" x2="5.173" y2="0.054" transform="translate(3.277 4.402)" fill="none" stroke="#ffbe00" stroke-linecap="round" stroke-miterlimit="10" stroke-width="1.215"/>
                <line id="線_29" data-name="線 29" x2="5.173" y2="0.054" transform="translate(3.248 7.211)" fill="none" stroke="#ffbe00" stroke-linecap="round" stroke-miterlimit="10" stroke-width="1.215"/>
                <line id="線_30" data-name="線 30" x2="5.173" y2="0.054" transform="translate(3.216 10.24)" fill="none" stroke="#ffbe00" stroke-linecap="round" stroke-miterlimit="10" stroke-width="1.215"/>
              </g>
              <g id="グループ_313" data-name="グループ 313" transform="translate(0 0)">
                <path id="パス_885" data-name="パス 885" d="M210.545,172.334c-3.79-13.883-3.527-11.916-13.107-22.655a61.635,61.635,0,0,0-45.474-20.127,65.5,65.5,0,0,0-45.953,19.461c-9.058,14.731-7.942,12.274-8.976,30.334-4.571,2.216-9.358,2.017-15.965,5.188,6.342,2.51,9.275,3.206,10.592,4.307-4.464,4.124-6.7,4.469-10.592,10.77,10.087,0,9.071,1.016,13.644,0-1.321,3.253-5.227,8.889-6.123,12.552,1.1-2.845,5.491-5.412,8.443-4.652s5.365,2.815,7.8,4.652c12.648,9.546,28.571,14.42,44.417,14.511s31.571-4.475,45.393-12.224c7.052-3.954,14.137-9.444,15.9-17.335a30.3,30.3,0,0,1,15.15,1.9,26.845,26.845,0,0,0-10.366-8.636,15.663,15.663,0,0,1,14.749-.451,46.422,46.422,0,0,0-13.023-10.586,24.129,24.129,0,0,1,13.594-2.974C225.492,173.734,214.744,173.67,210.545,172.334Z" transform="translate(-81.07 -129.552)" fill="#fcfcfc" stroke="#707070" stroke-width="5"/>
                <path id="パス_886" data-name="パス 886" d="M98.141,161.574c-1.778-8.334-3.562-16.936-1.969-25.308.429-2.259,1.261-4.682,3.248-5.837,2.636-1.533,6.081-.1,8.25,2.044s3.636,4.932,5.914,6.959C106.3,145.384,99.08,162.121,98.141,161.574Z" transform="translate(-68.518 -129.365)" fill="#fff" stroke="#707070" stroke-width="5"/>
                <path id="パス_887" data-name="パス 887" d="M132.857,140.309c2.947-5.78,5.678-6.5,11.523-9.637,1.7-.91,9.521-1.827,9.971,5.652.394,6.512-.045,9.669-1.273,16.078C148.947,147.24,139.32,139.958,132.857,140.309Z" transform="translate(-41.561 -129.648)" fill="#fff" stroke="#707070" stroke-width="5"/>
                <path id="パス_888" data-name="パス 888" d="M136.286,149.641" transform="translate(-36.404 -113.714)" fill="#8e3920"/>
                <circle id="楕円形_39" data-name="楕円形 39" cx="5.14" cy="5.14" r="5.14" transform="matrix(0.112, -0.994, 0.994, 0.112, 41.321, 35.353)" fill="#541413"/>
                <path id="パス_889" data-name="パス 889" d="M129.8,148.453a5.14,5.14,0,1,1,5.839,4.33A5.14,5.14,0,0,1,129.8,148.453Z" transform="translate(-41.561 -119.299)" fill="#541413"/>
                <path id="パス_890" data-name="パス 890" d="M99.028,140.967a5.664,5.664,0,0,1-.989-5.07,4.269,4.269,0,0,1,4.038-2.958,3.436,3.436,0,0,1,3.241,3.539A14.335,14.335,0,0,0,99.028,140.967Z" transform="translate(-65.516 -124.24)" fill="#541413"/>
                <path id="パス_892" data-name="パス 892" d="M110.029,138.1a23.267,23.267,0,0,1,32.03-.921C132.32,132.479,120.473,133.54,110.029,138.1Z" transform="translate(-57.105 -126.996)" fill="#541413"/>
                <path id="パス_893" data-name="パス 893" d="M110.5,141.276a23.267,23.267,0,0,1,32.03-.921C132.792,135.655,120.943,136.716,110.5,141.276Z" transform="translate(-56.733 -124.492)" fill="#541413"/>
                <path id="パス_894" data-name="パス 894" d="M111,144.659a23.269,23.269,0,0,1,32.032-.921C133.294,139.037,121.446,140.1,111,144.659Z" transform="translate(-56.338 -121.825)" fill="#541413"/>
                <path id="パス_895" data-name="パス 895" d="M87.392,162.911a145.9,145.9,0,0,0,16.189,2.484A14.887,14.887,0,0,1,92.789,167C90.522,166.47,88.161,165.118,87.392,162.911Z" transform="translate(-71.885 -107.546)" fill="#541413"/>
                <path id="パス_896" data-name="パス 896" d="M87.354,166.76a30.357,30.357,0,0,0,15.833.753c-.238,1.42-1.724,2.218-3.038,2.8-2.491,1.112-5.342,2.234-7.856,1.177C90.276,170.644,89.058,168.616,87.354,166.76Z" transform="translate(-71.915 -104.511)" fill="#541413"/>
                <path id="パス_897" data-name="パス 897" d="M144.5,166.6c6.658-1.661,10.777-4.276,15.389-9.1a3.292,3.292,0,0,1,.338,3.2,7.346,7.346,0,0,1-2.016,2.663,19.9,19.9,0,0,1-8.259,4.521,6.947,6.947,0,0,1-3.01.27A3.747,3.747,0,0,1,144.5,166.6Z" transform="translate(-29.927 -111.199)" fill="#541413"/>
                <path id="パス_898" data-name="パス 898" d="M144.453,168.789a30.475,30.475,0,0,0,18.091-6.478,11.286,11.286,0,0,1-7.007,9.176A10.806,10.806,0,0,1,144.453,168.789Z" transform="translate(-29.965 -107.405)" fill="#541413"/>
              </g>
              <path id="パス_899" data-name="パス 899" d="M115.918,130s5.95,25.617,6.562,21.42,2.908-21.843,2.908-21.843Z" transform="translate(-52.462 -128.304)" fill="#541413"/>
              <path id="パス_900" data-name="パス 900" d="M135.215,158.114s-23.867-9.9-30.26,2.636c-7,13.717,3.979,23.4,18.226,22.074s28.89-1.1,34.457-4.081c7.88-4.217,15-16.024,5.558-23.854S135.215,158.114,135.215,158.114Z" transform="translate(-62.813 -112.249)" fill="#fcfcfc"/>
              <path id="パス_901" data-name="パス 901" d="M115.383,163.012s1.255,5.853,8.794,6.131c5.929.218,9.593-6.624,9.593-6.624l-7.828-6.376Z" transform="translate(-52.884 -105.521)" fill="#e13b40"/>
              <path id="パス_902" data-name="パス 902" d="M110.729,155.6c-1.277,2.16.59,4.788,3.654,5.769a13.7,13.7,0,0,0,9.666-.887,12.11,12.11,0,0,0,5.641-5.709c1.39,3.657,6.129,6.76,11.687,6.957S152.6,158.7,152.5,154.914c.127,3.747-4,9.071-9.325,10.1s-11.319-2.328-13.989-5.583a16.291,16.291,0,0,1-8.967,4.655c-3.734.606-8.084-.3-10.01-2.527S109.674,155.91,110.729,155.6Z" transform="translate(-57.721 -106.597)" fill="#6d261a"/>
              <path id="パス_903" data-name="パス 903" d="M117.443,155.829c-.038-2.051,2.981-3.77,6.739-3.838s6.837,1.54,6.875,3.591-2.981,3.768-6.739,3.836S117.481,157.878,117.443,155.829Z" transform="translate(-51.26 -108.796)" fill="#772616"/>
            </g>
            <path id="パス_904" data-name="パス 904" d="M11676.635,14536.411l-13.406,1.095,3.131-9.095,14.5-16.22,6.6-1.6,1.391,2.087Z" transform="translate(-11639.758 -14502.255)" fill="#fcfcfc"/>
            <path id="パス_905" data-name="パス 905" d="M11681.622,14532.726l7.23,4.78,2.84-9.333-4.372-3.433.5-3.23-.5-2.745-2.019-1.552-5.379-3.316-3.76-2.211-3.23-.66h-1.231l-1.521,1.154-5.561-1.588-1.39,2.087,1,3.354Z" transform="translate(-11577.194 -14502.255)" fill="#fcfcfc"/>
          </g>
        </g>
        <path id="パス_906" data-name="パス 906" d="M136.755,136.931c.735-1.75,1.781-3.75,3.662-4,1.833-.241,3.452,1.484,3.783,3.3a11,11,0,0,1-.866,5.413A13.71,13.71,0,0,0,136.755,136.931Z" transform="translate(-36.873 -127.166)" fill="#541413"/>
      </g>
      <g id="グループ_404" data-name="グループ 404" transform="translate(1382.142 509.658) rotate(90)">
        <g id="グループ_403" data-name="グループ 403" transform="translate(0 0)" clip-path="url(#clip-path)">
          <path id="パス_1706" data-name="パス 1706" d="M6.416,0A3.4,3.4,0,0,1,9.088,2.523a6.874,6.874,0,0,1,0,3.326c-.1.307.1.6.12.906a5.914,5.914,0,0,1-.653,2.927c-.365.777-.978,1.683-1.926,1.733A4.986,4.986,0,0,1,4.569,11.2,2.72,2.72,0,0,1,3.005,9.4,4.527,4.527,0,0,0,.926,7.3,1.834,1.834,0,0,1,0,5.651a2.445,2.445,0,0,1,1.74-2.579A4.44,4.44,0,0,0,4.355,1.224,2.5,2.5,0,0,1,6.416,0" transform="translate(5.279 3.58)" fill="#541413"/>
          <path id="パス_1707" data-name="パス 1707" d="M3.619,1.712A2.308,2.308,0,0,1,2,3.841,1.44,1.44,0,0,1,.041,2.105C.208,1.257.476.328,1.571.038,2.5-.21,3.812.811,3.619,1.712" transform="translate(3.856 14.447)" fill="#541413"/>
          <path id="パス_1708" data-name="パス 1708" d="M1.839,3.382a2.129,2.129,0,0,1-1.706-1C-.208,1.967.19,1.524.4,1.141A2.735,2.735,0,0,1,3.219.084a1.493,1.493,0,0,1,.616,2.384,2.577,2.577,0,0,1-2,.913" transform="translate(0 10.445)" fill="#541413"/>
          <path id="パス_1709" data-name="パス 1709" d="M3.467,1.907C3.36,3.3,2.9,3.947,2.065,3.89A2.49,2.49,0,0,1,0,1.634,1.646,1.646,0,0,1,1.743.011a2.065,2.065,0,0,1,1.724,1.9" transform="translate(5.448 0)" fill="#541413"/>
          <path id="パス_1710" data-name="パス 1710" d="M2.029,0A1.849,1.849,0,0,1,3.986,1.9,1.862,1.862,0,0,1,2.4,3.267C1.255,3.23-.062,2.244,0,1.415A1.842,1.842,0,0,1,2.029,0" transform="translate(0.465 3.754)" fill="#541413"/>
        </g>
      </g>
    </g>
    <g id="グループ_1358" data-name="グループ 1358" transform="translate(-1251.5 -13.389)">
      <path id="パス_907" data-name="パス 907" d="M555.688,125l4.65-3.42a2.812,2.812,0,0,1,3.8.479l3.659,4.47a3.831,3.831,0,0,0,4.122,1.06l5.361-2.154a2.814,2.814,0,0,1,3.562,1.411l2.434,5.241A3.813,3.813,0,0,0,587,134.135l5.738-.757a2.815,2.815,0,0,1,3.1,2.252l1.047,5.683a3.838,3.838,0,0,0,3.1,2.915l5.735.694a2.815,2.815,0,0,1,2.445,2.954l-.394,5.759a3.824,3.824,0,0,0,2.281,3.595l5.378,2.1a2.809,2.809,0,0,1,1.636,3.465l-1.814,5.49a3.824,3.824,0,0,0,1.315,4.05l4.694,3.369a2.815,2.815,0,0,1,.719,3.764l-3.125,4.864a3.822,3.822,0,0,0,.265,4.248l3.7,4.431a2.813,2.813,0,0,1-.241,3.825l-4.227,3.93a3.832,3.832,0,0,0-.8,4.186l2.487,5.213a2.812,2.812,0,0,1-1.182,3.645l-5.079,2.754a3.818,3.818,0,0,0-1.811,3.854l1.113,5.663a2.818,2.818,0,0,1-2.052,3.237l-5.609,1.406a3.827,3.827,0,0,0-2.713,3.285l-.335,5.765a2.811,2.811,0,0,1-2.79,2.627l-5.777-.031a3.825,3.825,0,0,0-3.446,2.5l-1.755,5.5a2.813,2.813,0,0,1-3.355,1.847l-5.584-1.466a3.817,3.817,0,0,0-3.963,1.569l-3.073,4.9a2.807,2.807,0,0,1-3.708.952l-5.047-2.816a3.823,3.823,0,0,0-4.224.539l-4.189,3.977a2.814,2.814,0,0,1-3.829,0l-4.2-3.982a3.828,3.828,0,0,0-4.228-.537l-5.047,2.82a2.809,2.809,0,0,1-3.708-.955l-3.076-4.9a3.808,3.808,0,0,0-3.956-1.569l-5.584,1.466a2.818,2.818,0,0,1-3.359-1.847l-1.755-5.5a3.821,3.821,0,0,0-3.45-2.5l-5.776.031a2.821,2.821,0,0,1-2.8-2.627l-.324-5.765a3.837,3.837,0,0,0-2.717-3.285l-5.6-1.406a2.817,2.817,0,0,1-2.051-3.237l1.113-5.663a3.829,3.829,0,0,0-1.811-3.854l-5.086-2.754a2.815,2.815,0,0,1-1.179-3.645l2.483-5.213a3.821,3.821,0,0,0-.8-4.184l-4.231-3.932a2.809,2.809,0,0,1-.24-3.825l3.7-4.431a3.829,3.829,0,0,0,.268-4.248l-3.129-4.864a2.819,2.819,0,0,1,.726-3.763l4.7-3.373a3.817,3.817,0,0,0,1.311-4.048l-1.817-5.49a2.813,2.813,0,0,1,1.632-3.465l5.382-2.1a3.812,3.812,0,0,0,2.281-3.595l-.394-5.759a2.819,2.819,0,0,1,2.445-2.954l5.738-.694a3.827,3.827,0,0,0,3.1-2.915l1.05-5.683a2.818,2.818,0,0,1,3.1-2.252l5.735.757a3.814,3.814,0,0,0,3.728-2.051l2.432-5.241a2.817,2.817,0,0,1,3.565-1.411l5.365,2.154a3.825,3.825,0,0,0,4.119-1.06l3.656-4.47a2.819,2.819,0,0,1,3.805-.482l4.66,3.425A3.81,3.81,0,0,0,555.688,125Z" transform="translate(981.688 160.835)" fill="#ffeb3b"/>
      <g id="グループ_317" data-name="グループ 317" transform="matrix(0.995, 0.105, -0.105, 0.995, 1488.31, 305.153)">
        <path id="パス_1735" data-name="パス 1735" d="M7.035-12.015l-2.115-.12A8.034,8.034,0,0,1,4.9-10.8c-.03.345-.075.75-.12,1.215a14.166,14.166,0,0,1-3.09-.57L1.59-8.43a17.614,17.614,0,0,0,2.985.54C4.5-7.215,4.41-6.51,4.32-5.835a13.784,13.784,0,0,1-2.955-.6L1.26-4.62a16.783,16.783,0,0,0,2.88.495c-.06.615-.105,1.155-.105,1.515C4.035-.105,5.7.915,8.055.915,11.34.915,13.38-.7,13.38-2.97a5.591,5.591,0,0,0-1.455-3.6L9.81-6.12a4.092,4.092,0,0,1,1.545,2.91c0,1.23-1.14,2.19-3.24,2.19-1.47,0-2.235-.66-2.235-1.9,0-.27.03-.645.06-1.1h.6c.945,0,1.815-.06,2.655-.135L9.24-5.94a25.985,25.985,0,0,1-3.015.18H6.12c.075-.675.165-1.38.255-2.04A27.033,27.033,0,0,0,9.3-7.95l.06-1.785a21.157,21.157,0,0,1-2.745.21c.06-.495.12-.9.165-1.155A13.427,13.427,0,0,1,7.035-12.015Zm12.045,1.2c0,.165-.03.585-.06,1.155-.645.09-1.305.165-1.74.195a12.888,12.888,0,0,1-1.305.015l.195,1.92c.84-.12,2-.27,2.73-.36-.015.36-.045.72-.075,1.065-.855,1.26-2.355,3.24-3.21,4.29L16.8-.9c.525-.705,1.26-1.8,1.89-2.745-.015,1.26-.03,2.13-.06,3.3,0,.24-.015.765-.045,1.11h2.07C20.61.42,20.565-.12,20.55-.39c-.09-1.41-.09-2.67-.09-3.9,0-.39.015-.8.03-1.215,1.23-1.35,2.85-2.73,3.96-2.73.63,0,1.02.375,1.02,1.11,0,1.365-.54,3.57-.54,5.19C24.93-.48,25.68.33,26.805.33a4,4,0,0,0,2.82-1.11l-.24-2.115a3.112,3.112,0,0,1-1.95,1.08c-.375,0-.57-.285-.57-.675,0-1.545.5-3.75.5-5.31a2.1,2.1,0,0,0-2.355-2.22c-1.455,0-3.18,1.215-4.365,2.25.015-.12.015-.225.03-.33.255-.39.555-.885.765-1.155l-.555-.72c.105-.93.24-1.695.33-2.115l-2.19-.075A8.282,8.282,0,0,1,19.08-10.815Zm18-1.26-2.07-.21a12.614,12.614,0,0,1-.4,2.505c-.465.045-.915.06-1.365.06a18.95,18.95,0,0,1-2-.1l.135,1.74c.645.045,1.26.06,1.875.06.255,0,.51,0,.78-.015a23.633,23.633,0,0,1-3.06,5.3l1.815.93A27.639,27.639,0,0,0,36-8.235a26.022,26.022,0,0,0,2.625-.525l-.06-1.74a18.389,18.389,0,0,1-2.025.48C36.765-10.83,36.96-11.6,37.08-12.075ZM36.3-1.695c0-.525.555-.915,1.425-.915a5.389,5.389,0,0,1,1.215.15v.3c0,.825-.315,1.395-1.35,1.395C36.765-.765,36.3-1.14,36.3-1.695ZM40.59-7.41H38.715c.03.915.1,2.25.165,3.36-.345-.03-.675-.06-1.035-.06-2.085,0-3.315,1.125-3.315,2.595C34.53.135,36,.96,37.86.96c2.13,0,2.9-1.08,2.9-2.475v-.15A12.716,12.716,0,0,1,42.78-.06l1.005-1.6a9.809,9.809,0,0,0-3.1-1.92c-.03-.75-.075-1.47-.09-1.9C40.575-6.15,40.545-6.78,40.59-7.41Zm2.58.795L44.235-8.19a25.838,25.838,0,0,0-3.705-2.04l-.96,1.485A21.649,21.649,0,0,1,43.17-6.615Zm12.84-4.2L54.255-12.36A10.425,10.425,0,0,1,53.1-11.085c-1,.975-3.06,2.64-4.245,3.6-1.5,1.26-1.62,2.055-.12,3.33,1.365,1.17,3.57,3.045,4.485,3.99.45.45.885.93,1.305,1.4L56.28-.375c-1.53-1.485-4.38-3.735-5.5-4.68-.81-.7-.825-.87-.03-1.56C51.75-7.47,53.73-9,54.705-9.78,55.05-10.065,55.545-10.455,56.01-10.815Z" transform="translate(23.912 35.173)" fill="#6a6a6a"/>
        <path id="パス_1738" data-name="パス 1738" d="M.75-5.7A6.741,6.741,0,0,0,7.5,1.05,6.741,6.741,0,0,0,14.25-5.7,6.741,6.741,0,0,0,7.5-12.45,6.741,6.741,0,0,0,.75-5.7ZM7.5.39A6.094,6.094,0,0,1,1.41-5.7,6.094,6.094,0,0,1,7.5-11.79,6.094,6.094,0,0,1,13.59-5.7,6.094,6.094,0,0,1,7.5.39ZM15.75-5.7A6.741,6.741,0,0,0,22.5,1.05,6.741,6.741,0,0,0,29.25-5.7a6.741,6.741,0,0,0-6.75-6.75A6.741,6.741,0,0,0,15.75-5.7ZM22.5.39A6.094,6.094,0,0,1,16.41-5.7a6.094,6.094,0,0,1,6.09-6.09A6.094,6.094,0,0,1,28.59-5.7,6.094,6.094,0,0,1,22.5.39ZM30.75-5.7A6.741,6.741,0,0,0,37.5,1.05,6.741,6.741,0,0,0,44.25-5.7a6.741,6.741,0,0,0-6.75-6.75A6.741,6.741,0,0,0,30.75-5.7ZM37.5.39A6.094,6.094,0,0,1,31.41-5.7a6.094,6.094,0,0,1,6.09-6.09A6.094,6.094,0,0,1,43.59-5.7,6.094,6.094,0,0,1,37.5.39ZM45.75-5.7A6.741,6.741,0,0,0,52.5,1.05,6.741,6.741,0,0,0,59.25-5.7a6.741,6.741,0,0,0-6.75-6.75A6.741,6.741,0,0,0,45.75-5.7ZM52.5.39A6.094,6.094,0,0,1,46.41-5.7a6.094,6.094,0,0,1,6.09-6.09A6.094,6.094,0,0,1,58.59-5.7,6.094,6.094,0,0,1,52.5.39ZM60.75-5.7A6.741,6.741,0,0,0,67.5,1.05,6.741,6.741,0,0,0,74.25-5.7a6.741,6.741,0,0,0-6.75-6.75A6.741,6.741,0,0,0,60.75-5.7ZM67.5.39A6.094,6.094,0,0,1,61.41-5.7a6.094,6.094,0,0,1,6.09-6.09A6.094,6.094,0,0,1,73.59-5.7,6.094,6.094,0,0,1,67.5.39ZM75.75-5.7A6.741,6.741,0,0,0,82.5,1.05,6.741,6.741,0,0,0,89.25-5.7a6.741,6.741,0,0,0-6.75-6.75A6.741,6.741,0,0,0,75.75-5.7ZM82.5.39A6.094,6.094,0,0,1,76.41-5.7a6.094,6.094,0,0,1,6.09-6.09A6.094,6.094,0,0,1,88.59-5.7,6.094,6.094,0,0,1,82.5.39Z" transform="translate(8.13 53.347)" fill="#6a6a6a"/>
        <path id="パス_1737" data-name="パス 1737" d="M13.668-12.461a.987.987,0,0,1,.986-.986.983.983,0,0,1,.969.986.98.98,0,0,1-.969.969A.983.983,0,0,1,13.668-12.461Zm-1.054,0a1.883,1.883,0,0,0,.034.323,7.335,7.335,0,0,1-.969.068H3.808a18.928,18.928,0,0,1-2.023-.136v2.4c.425-.034,1.241-.068,2.023-.068h7.905A10.683,10.683,0,0,1,9.724-5.083,11.144,11.144,0,0,1,3.06-1.088L4.913.952a13.654,13.654,0,0,0,6.834-4.709A17.161,17.161,0,0,0,14.3-9.945c.051-.153.085-.323.136-.51a.969.969,0,0,0,.221.017,2.039,2.039,0,0,0,2.023-2.023,2.042,2.042,0,0,0-2.023-2.04A2.046,2.046,0,0,0,12.614-12.461ZM20.315-.68,21.93.714a4.388,4.388,0,0,1,1-.459,21.3,21.3,0,0,0,9.86-6.12L31.586-7.786a19.479,19.479,0,0,1-8.738,5.627V-11a12.435,12.435,0,0,1,.17-1.938H20.349A10.861,10.861,0,0,1,20.536-11v9.214A2.22,2.22,0,0,1,20.315-.68ZM47.158-13.906l-1.36.561a21.645,21.645,0,0,1,1.343,2.363l1.36-.595C48.178-12.206,47.583-13.277,47.158-13.906Zm2.006-.765-1.343.561a19.837,19.837,0,0,1,1.36,2.329l1.36-.578A26.59,26.59,0,0,0,49.164-14.671ZM38.556-1.938C38.556.068,39.117,1,42.976,1A40.016,40.016,0,0,0,48.263.629l.068-2.3a29.363,29.363,0,0,1-5.372.561c-1.853,0-2.159-.374-2.159-1.428V-7.038c2.4-.476,4.692-.935,5.219-1.037a14.646,14.646,0,0,1-2.7,3.434l1.87,1.1a23.9,23.9,0,0,0,3.519-4.947c.153-.306.391-.68.544-.918l-1.632-1.275a4.977,4.977,0,0,1-1.207.408c-.765.17-3.145.663-5.61,1.122v-1.989a14.033,14.033,0,0,1,.153-1.955H38.42a14.31,14.31,0,0,1,.136,1.955v2.414c-1.683.306-3.179.561-3.995.663l.425,2.227c.714-.17,2.057-.442,3.57-.748ZM55.1-12.92l-1.6,1.7a35.347,35.347,0,0,1,4.25,3.672l1.734-1.768A34.335,34.335,0,0,0,55.1-12.92ZM52.972-1.6,54.4.646a18.41,18.41,0,0,0,6.307-2.4A18.077,18.077,0,0,0,67-8.041l-1.326-2.4a16.007,16.007,0,0,1-6.188,6.613A17.522,17.522,0,0,1,52.972-1.6Zm20.366-.034a18.672,18.672,0,0,1-.17,2.38H75.82c-.068-.7-.153-1.887-.153-2.38V-6.443A49.1,49.1,0,0,1,81.8-3.91l.969-2.346a55.523,55.523,0,0,0-7.106-2.635v-2.516a18.483,18.483,0,0,1,.153-2.04H73.168a11.8,11.8,0,0,1,.17,2.04Zm19.3-2.737h1.734l.459-5.814.085-2.533H92.089l.085,2.533ZM93.5.153a1.447,1.447,0,0,0,1.5-1.5,1.451,1.451,0,0,0-1.5-1.513A1.451,1.451,0,0,0,92-1.343,1.437,1.437,0,0,0,93.5.153Z" transform="translate(0 73.46)" fill="#ea6552"/>
        <path id="パス_1739" data-name="パス 1739" d="M5.3-3.04A5.272,5.272,0,0,0,6.88.8L7.64.464a4.97,4.97,0,0,1-1.432-3.5,4.97,4.97,0,0,1,1.432-3.5L6.88-6.88A5.272,5.272,0,0,0,5.3-3.04ZM12-4.72a.6.6,0,0,0,.6-.6.6.6,0,0,0-.6-.6.6.6,0,0,0-.6.6A.6.6,0,0,0,12-4.72Zm0,1.448L9.36-5.912l-.232.232,2.64,2.64L9.12-.392l.232.232L12-2.808l2.64,2.64L14.872-.4l-2.64-2.64,2.64-2.64-.232-.232Zm-1.68.232a.6.6,0,0,0-.6-.6.6.6,0,0,0-.6.6.6.6,0,0,0,.6.6A.6.6,0,0,0,10.32-3.04Zm3.36,0a.6.6,0,0,0,.6.6.6.6,0,0,0,.6-.6.6.6,0,0,0-.6-.6A.6.6,0,0,0,13.68-3.04ZM12-1.36a.6.6,0,0,0-.6.6.6.6,0,0,0,.6.6.6.6,0,0,0,.6-.6A.6.6,0,0,0,12-1.36Zm6.7-1.68A5.272,5.272,0,0,0,17.12-6.88l-.76.336a4.97,4.97,0,0,1,1.432,3.5A4.97,4.97,0,0,1,16.36.464L17.12.8A5.272,5.272,0,0,0,18.7-3.04Z" transform="translate(93.491 72.073)" fill="#6a6a6a"/>
        <path id="パス_1736" data-name="パス 1736" d="M6.54-12.18H4.47a12.072,12.072,0,0,1,.105,1.32c0,.255,0,.69-.015,1.215-.3.015-.6.03-.87.03a16.633,16.633,0,0,1-2.07-.12L1.65-7.92a18.39,18.39,0,0,0,2.1.075c.24,0,.51-.015.8-.03v1.26c0,.345,0,.705.015,1.065-1.845.8-3.345,2.16-3.345,3.465C1.215-.5,3.27.765,4.725.765c.99,0,1.65-.5,1.65-2.355,0-.51-.03-1.68-.06-2.865a10.113,10.113,0,0,1,2.82-.42c1.3,0,2.2.6,2.2,1.62,0,1.1-.96,1.695-2.175,1.92A11.55,11.55,0,0,1,7.32-1.23L8.01.7A13.734,13.734,0,0,0,9.975.465C12.36-.135,13.29-1.47,13.29-3.24c0-2.07-1.815-3.27-4.125-3.27a12.429,12.429,0,0,0-2.88.39v-.555c0-.435,0-.9.015-1.35.975-.12,2.01-.27,2.865-.465L9.12-10.35a18.371,18.371,0,0,1-2.76.54c.015-.375.03-.735.045-1.065C6.435-11.265,6.495-11.91,6.54-12.18Zm4.275,1.62L9.99-9.1a23.866,23.866,0,0,1,3.615,2.19l.9-1.53A31.345,31.345,0,0,0,10.815-10.56ZM3.06-2.16c0-.525.615-1.14,1.53-1.635.03.81.045,1.5.045,1.875,0,.51-.21.63-.48.63C3.765-1.29,3.06-1.695,3.06-2.16Zm16.2.465c0-.51.585-.93,1.65-.93a8.331,8.331,0,0,1,1.23.105c.015.27.015.48.015.645,0,.87-.525,1.095-1.32,1.095C19.8-.78,19.26-1.125,19.26-1.695Zm4.695-10.44H21.93a6.03,6.03,0,0,1,.09,1.035v.7h-.585a28,28,0,0,1-3.7-.33l.045,1.71a34.482,34.482,0,0,0,3.675.27h.555c-.015.51-.015,1.05-.015,1.545h-.72a26.505,26.505,0,0,1-3.615-.285l.015,1.77c.99.12,2.7.2,3.57.2h.78c.015.45.03.93.06,1.395-.3-.03-.615-.045-.93-.045-2.31,0-3.7,1.065-3.7,2.58C17.445,0,18.7.915,21.1.915c1.98,0,2.955-.99,2.955-2.265,0-.165,0-.345-.015-.555A11.5,11.5,0,0,1,27.075.18l1.08-1.68a11.744,11.744,0,0,0-4.2-2.265c-.045-.6-.075-1.215-.105-1.785,1.44-.045,2.61-.15,3.96-.3l.015-1.77c-1.215.165-2.49.285-4.005.36V-8.805c1.455-.075,2.82-.21,3.81-.33l.015-1.725a31.438,31.438,0,0,1-3.8.4c0-.24,0-.465.015-.615A10.13,10.13,0,0,1,23.955-12.135Zm11,.18-1.875.765c.675,1.59,1.4,3.195,2.085,4.47-1.44,1.065-2.49,2.31-2.49,3.96,0,2.58,2.265,3.405,5.25,3.405A27.857,27.857,0,0,0,42.735.27l.03-2.16a23.157,23.157,0,0,1-4.9.555c-2.085,0-3.12-.57-3.12-1.65,0-1.05.84-1.9,2.085-2.73a44.4,44.4,0,0,1,4.185-2.22c.555-.285,1.035-.54,1.485-.81l-1.035-1.74a9.373,9.373,0,0,1-1.395.915c-.705.4-2.01,1.05-3.24,1.77A35.63,35.63,0,0,1,34.95-11.955Zm20.535.2-2.07-.2a10.133,10.133,0,0,1-.12,1.425q-.045.338-.135.72a8.176,8.176,0,0,0-3.4.9c-.1-.315-.195-.63-.27-.915-.12-.45-.24-.945-.33-1.44l-1.965.615a9.518,9.518,0,0,1,.6,1.56c.135.405.255.81.4,1.215a6.558,6.558,0,0,0-2.22,4.74c0,1.935,1.14,2.985,2.385,2.985a3.861,3.861,0,0,0,2.955-1.59c.15.2.33.39.51.585l1.515-1.2a11.989,11.989,0,0,1-.825-.9,18.969,18.969,0,0,0,2.04-4.77,3.246,3.246,0,0,1,2.43,3.315c0,1.875-1.305,3.57-4.59,3.84L53.535.87c3.12-.48,5.385-2.295,5.385-5.475a4.945,4.945,0,0,0-3.915-5.07c.045-.2.09-.375.135-.57C55.23-10.62,55.365-11.355,55.485-11.76ZM47.73-3.285a4.532,4.532,0,0,1,1.11-2.82,16.157,16.157,0,0,0,1.4,2.88c-.555.675-1.11,1.14-1.65,1.14S47.73-2.55,47.73-3.285Zm2.565-3.99a6.01,6.01,0,0,1,2.415-.84,17.281,17.281,0,0,1-1.335,3.24A15.4,15.4,0,0,1,50.295-7.275Zm21.48-.645a15.184,15.184,0,0,1-1.44,3.33,35.422,35.422,0,0,1-.6-4.11H74.37v-1.77H72.81l.72-.765a12.549,12.549,0,0,0-2.445-1.6L70-11.775a18.778,18.778,0,0,1,1.92,1.305h-2.3c-.03-.735-.045-1.47-.03-2.22H67.725c0,.75.03,1.485.06,2.22h-6.12v4.38c0,1.95-.1,4.56-1.245,6.36a7.808,7.808,0,0,1,1.515,1.215c1.23-1.83,1.545-4.755,1.6-6.945h1.95a8.487,8.487,0,0,1-.255,2.82.485.485,0,0,1-.45.18c-.24,0-.75-.015-1.29-.06a4.047,4.047,0,0,1,.5,1.665A11.8,11.8,0,0,0,65.715-.9a1.409,1.409,0,0,0,1.035-.6c.345-.435.435-1.77.48-4.92,0-.21.015-.675.015-.675H63.54V-8.7h4.35a30.986,30.986,0,0,0,1.035,6.045,11.459,11.459,0,0,1-3.06,2.43,11.758,11.758,0,0,1,1.29,1.47A12.714,12.714,0,0,0,69.69-.8c.66,1.23,1.485,1.98,2.535,1.98,1.4,0,2-.66,2.28-3.435a4.852,4.852,0,0,1-1.515-1C72.915-1.38,72.735-.63,72.375-.63c-.48,0-.96-.63-1.4-1.71a17.424,17.424,0,0,0,2.58-5.145Zm17.1-2.16H83.4v-2.61H81.54v2.61H76.215v1.755h12.66Zm-7.62,8.07a24.533,24.533,0,0,0-1.41-5.76l-1.71.45a24.318,24.318,0,0,1,1.29,5.79Zm3.84.945a61.048,61.048,0,0,0,1.875-6.39L84.915-7.83a37.489,37.489,0,0,1-1.71,6.765h-7.47V.72H89.31V-1.065Zm5.94-9.225.195,2.055c1.74-.375,4.8-.7,6.21-.855a6,6,0,0,0-2.235,4.635c0,3.255,2.97,4.935,6.12,5.145l.705-2.055c-2.55-.135-4.86-1.02-4.86-3.5a4.558,4.558,0,0,1,3.18-4.2,15.583,15.583,0,0,1,2.9-.21l-.015-1.92c-1.065.045-2.7.135-4.245.27-2.745.225-5.22.45-6.48.555C92.22-10.335,91.635-10.3,91.035-10.29ZM101.1-7.8l-1.11.465a11.573,11.573,0,0,1,1.17,2.085l1.14-.51A18.619,18.619,0,0,0,101.1-7.8Zm1.68-.69-1.1.51a13.2,13.2,0,0,1,1.23,2.025l1.125-.54A22.438,22.438,0,0,0,102.78-8.49Z" transform="translate(0 17)" fill="#6a6a6a"/>
      </g>
    </g>
    <g id="長方形_1202" data-name="長方形 1202" transform="translate(14 380)" fill="#fff" stroke="#707070" stroke-width="5">
      <rect width="346" height="255" rx="17" stroke="none"/>
      <rect x="2.5" y="2.5" width="341" height="250" rx="14.5" fill="none"/>
    </g>
    <g id="グループ_1359" data-name="グループ 1359" transform="translate(-19909.416 6316)">
      <g id="グループ_1348" data-name="グループ 1348" transform="translate(19734.5 -6622.725)">
        <path id="パス_1740" data-name="パス 1740" d="M2.483-7.488V-8.515h7.956v1.027H7.2v-.741H5.655v.741ZM12.22-2.054V-3.393H7.085a4.414,4.414,0,0,0,.1-.819h3.549V-5.46H7.2v-.78H11V-7.1h1.04V-9.867H7.28V-11H5.694v1.131H.949V-7.1H2.106v.858H5.655v.78H2.314v1.248H5.642a5.958,5.958,0,0,1-.13.819H.845v1.339H4.758A7.893,7.893,0,0,1,.611-.117a6.309,6.309,0,0,1,.962,1.248C4.225.416,5.668-.611,6.435-1.768,7.462-.156,9.009.767,11.479,1.157a6.015,6.015,0,0,1,.91-1.352A6.6,6.6,0,0,1,7.956-2.054Zm4.511-.507h5.642v.572H16.731Zm0-1.43h5.642v.559H16.731Zm0-1.443h5.642v.559H16.731Zm7.215,4.381v-5.3H19.708a3.455,3.455,0,0,0,1.274-1.6H22.3v1.365h1.378V-7.956h1.638V-9.074H21.242c.013-.13.013-.26.013-.377v-.065a20.294,20.294,0,0,0,3.549-.559L23.868-11a20.065,20.065,0,0,1-2.912.533l-1.04-.247v1.183a2.353,2.353,0,0,1-.455,1.508V-9.074H15.886c.013-.13.013-.273.013-.39v-.065a16.651,16.651,0,0,0,3.3-.559L18.252-11a15.878,15.878,0,0,1-2.7.52l-.988-.247v1.183a3.528,3.528,0,0,1-1.1,2.782,4.457,4.457,0,0,1,1.014.962,4.344,4.344,0,0,0,1.248-2.158h1.144V-6.6h1.378V-7.956h1.17a3.2,3.2,0,0,1-.754.65,3.7,3.7,0,0,1,.9.949H15.236v5.3H17.16A15.265,15.265,0,0,1,13.585.039,15.68,15.68,0,0,1,14.729,1.17a16.109,16.109,0,0,0,4.056-1.7L17.6-1.053h3.8l-1.17.676a25.633,25.633,0,0,1,3.38,1.534L25.4.468c-.884-.429-2.379-1.053-3.7-1.521ZM5.616,15.828v2.6H3.861l1.066-.455a8.77,8.77,0,0,0-1.2-2.145ZM4.147,11.863a13.561,13.561,0,0,0,2.3-2.405A13.871,13.871,0,0,0,8.84,11.863Zm4.9,3.965a13.5,13.5,0,0,1-1.235,2.249l.845.351H7.241v-2.6h4V14.5h-4V13.215H9.724v-.676A16.431,16.431,0,0,0,11.7,13.774a7.262,7.262,0,0,1,1.027-1.391A13.283,13.283,0,0,1,7.176,7.95h-1.6A13.864,13.864,0,0,1,.325,12.539a6.06,6.06,0,0,1,.962,1.248,16.614,16.614,0,0,0,1.937-1.209v.637H5.616V14.5H1.664v1.326H3.653l-1.183.507a8.932,8.932,0,0,1,1.079,2.093H1.014v1.326h11V18.428H9.074c.455-.546.962-1.339,1.456-2.054Zm8.528-2.574h2.236V11.837H17.576V9.9a16.9,16.9,0,0,0,2.2-.676l-1.092-1.2a21.954,21.954,0,0,1-5.226,1.339,4.85,4.85,0,0,1,.442,1.209c.7-.091,1.443-.208,2.184-.351v1.612h-2.47v1.417h2.171A12.592,12.592,0,0,1,13.312,17a8.7,8.7,0,0,1,.78,1.508,12.933,12.933,0,0,0,1.989-3.055V20.1h1.5V15.62c.52.533,1.066,1.118,1.378,1.521l.9-1.326c-.351-.273-1.638-1.378-2.275-1.859Zm4.355-3.692H20.423v7.267h1.508Zm1.56-1.326v10c0,.234-.1.312-.351.325-.273,0-1.1,0-1.95-.039a5.933,5.933,0,0,1,.533,1.6,6.4,6.4,0,0,0,2.587-.3c.533-.247.715-.676.715-1.573V8.236Z" transform="translate(230.491 742.852)" fill="#6a6a6a"/>
        <path id="パス_1741" data-name="パス 1741" d="M6.08-4.56V-7.448H9.367V-4.56Zm12.122,0H11.7V-7.448H16.72V-9.557H11.7v-2.261h5.453V-14H6.422a12.13,12.13,0,0,0,.627-1.558l-2.3-.589A14.652,14.652,0,0,1,.76-9.823,17.486,17.486,0,0,1,2.717-8.36,17.075,17.075,0,0,0,5.3-11.818H9.367v2.261H3.819v5h-3v2.166h8.55V1.672H11.7V-2.394h6.5Z" transform="translate(292.113 761.023)" fill="#6a6a6a"/>
        <path id="パス_1742" data-name="パス 1742" d="M4.028-5.415c2.014,0,3.439-1.653,3.439-4.484,0-2.812-1.425-4.427-3.439-4.427S.608-12.711.608-9.9C.608-7.068,2.014-5.415,4.028-5.415Zm0-1.577c-.817,0-1.444-.836-1.444-2.907s.627-2.85,1.444-2.85,1.463.779,1.463,2.85S4.845-6.992,4.028-6.992ZM4.5.266H6.156l7.638-14.592H12.141Zm9.747,0c2,0,3.439-1.672,3.439-4.484,0-2.831-1.444-4.446-3.439-4.446s-3.42,1.615-3.42,4.446C10.83-1.406,12.255.266,14.25.266Zm0-1.6c-.817,0-1.444-.817-1.444-2.888s.627-2.869,1.444-2.869,1.463.8,1.463,2.869S15.067-1.33,14.25-1.33Z" transform="translate(491.831 761.023)" fill="#6a6a6a"/>
        <path id="パス_1711" data-name="パス 1711" d="M6.4-26.275H25.6V-31.41h-6V-58.251H14.9a19.921,19.921,0,0,1-7.422,2.719v3.927h5.782v20.2H6.4Zm28.869.6a3.974,3.974,0,0,0,3.97-4.143,3.949,3.949,0,0,0-3.97-4.143,3.94,3.94,0,0,0-3.927,4.143A3.966,3.966,0,0,0,35.265-25.671Zm19.764,0c6.516,0,10.788-5.7,10.788-16.7S61.545-58.812,55.029-58.812,44.2-53.418,44.2-42.371C44.2-31.367,48.513-25.671,55.029-25.671Zm0-4.963c-2.762,0-4.833-2.762-4.833-11.737,0-8.933,2.071-11.522,4.833-11.522s4.79,2.589,4.79,11.522C59.819-33.4,57.791-30.633,55.029-30.633Z" transform="translate(321.172 789.64)" fill="#6a6a6a"/>
        <path id="パス_1712" data-name="パス 1712" d="M12.73-25.671c6.084,0,11.22-3.409,11.22-9.278,0-4.186-2.762-6.861-6.343-7.854v-.216c3.366-1.338,5.308-3.841,5.308-7.293,0-5.437-4.186-8.5-10.357-8.5a14.167,14.167,0,0,0-9.58,3.927L6.214-51c1.9-1.769,3.754-2.8,6.041-2.8,2.719,0,4.272,1.467,4.272,3.97,0,2.848-1.9,4.876-7.767,4.876v4.531c6.948,0,8.8,1.985,8.8,5.092,0,2.891-2.2,4.488-5.437,4.488a10.144,10.144,0,0,1-7.12-3.28L2.028-30.116C4.272-27.57,7.681-25.671,12.73-25.671Zm20.584,0a3.974,3.974,0,0,0,3.97-4.143,3.949,3.949,0,0,0-3.97-4.143,3.94,3.94,0,0,0-3.927,4.143A3.966,3.966,0,0,0,33.314-25.671Zm19.764,0c6.516,0,10.788-5.7,10.788-16.7S59.593-58.812,53.077-58.812,42.246-53.418,42.246-42.371C42.246-31.367,46.561-25.671,53.077-25.671Zm0-4.963c-2.762,0-4.833-2.762-4.833-11.737,0-8.933,2.071-11.522,4.833-11.522s4.79,2.589,4.79,11.522C57.867-33.4,55.839-30.633,53.077-30.633Z" transform="translate(421.771 789.64)" fill="#6a6a6a"/>
        <path id="パス_1715" data-name="パス 1715" d="M13.429-36.631a7.631,7.631,0,0,0,5.952,2.774c2.7,0,5.17-1.513,6.86-4.641L23.467-40.01c-.958,1.791-2.4,3.027-4.01,3.027A4.615,4.615,0,0,1,15.7-38.8a7.631,7.631,0,0,0-5.952-2.774c-2.7,0-5.17,1.513-6.86,4.641L5.66-35.42c.958-1.791,2.4-3.027,4.01-3.027A4.65,4.65,0,0,1,13.429-36.631Z" transform="translate(391.839 787.426)" fill="#6a6a6a"/>
        <g id="長方形_79" data-name="長方形 79" transform="translate(214 718.553)" fill="none" stroke="#6a6a6a" stroke-width="5">
          <rect width="59.196" height="56.983" stroke="none"/>
          <rect x="2.5" y="2.5" width="54.196" height="51.983" fill="none"/>
        </g>
      </g>
      <g id="グループ_1349" data-name="グループ 1349" transform="translate(19414.5 -6555.725)">
        <path id="パス_1743" data-name="パス 1743" d="M5.668-10.556H3.874a10.462,10.462,0,0,1,.091,1.144c0,.221,0,.6-.013,1.053-.26.013-.52.026-.754.026a14.416,14.416,0,0,1-1.794-.1L1.43-6.864A15.938,15.938,0,0,0,3.25-6.8c.208,0,.442-.013.689-.026v1.092c0,.3,0,.611.013.923-1.6.689-2.9,1.872-2.9,3,0,1.378,1.781,2.47,3.042,2.47.858,0,1.43-.429,1.43-2.041,0-.442-.026-1.456-.052-2.483a8.765,8.765,0,0,1,2.444-.364c1.131,0,1.911.52,1.911,1.4,0,.949-.832,1.469-1.885,1.664a10.01,10.01,0,0,1-1.6.091l.6,1.677A11.9,11.9,0,0,0,8.645.4c2.067-.52,2.873-1.677,2.873-3.211,0-1.794-1.573-2.834-3.575-2.834a10.772,10.772,0,0,0-2.5.338v-.481c0-.377,0-.78.013-1.17.845-.1,1.742-.234,2.483-.4L7.9-8.97A15.921,15.921,0,0,1,5.512-8.5c.013-.325.026-.637.039-.923C5.577-9.763,5.629-10.322,5.668-10.556Zm3.705,1.4L8.658-7.891a20.684,20.684,0,0,1,3.133,1.9l.78-1.326A27.166,27.166,0,0,0,9.373-9.152ZM2.652-1.872c0-.455.533-.988,1.326-1.417.026.7.039,1.3.039,1.625,0,.442-.182.546-.416.546C3.263-1.118,2.652-1.469,2.652-1.872Zm13.455-9.1A13.817,13.817,0,0,1,13.156-6.1a9.793,9.793,0,0,1,.819,1.6,11.946,11.946,0,0,0,.884-1.04V1.105h1.469V-7.826A20.72,20.72,0,0,0,17.576-10.5ZM23.1-3.51v.871h-3.51V-3.51ZM19.591-.559v-.923H23.1v.923ZM18.109,1.183h1.482V.7H23.1v.416h1.56V-4.771H18.109ZM20.4-8.177h1.755v1.261H20.4Zm3.276,1.261V-8.177H25.3V-9.5H23.673v-1.4H22.152v1.4H20.4v-1.4H18.889v1.4H17.368v1.326h1.521v1.261H16.9v1.391h8.723V-6.916ZM29-10.283V-8.71h2.964c.039.442.091.91.182,1.4l-.793-.143C30.641-4.03,29.094-1.521,26.39-.156a12.347,12.347,0,0,1,1.417,1.261,11.249,11.249,0,0,0,4.8-6.422,10.984,10.984,0,0,0,4.784,6.409A8.323,8.323,0,0,1,38.636-.26C33.852-3.081,33.5-7.826,33.5-10.283ZM4.277,8.483l-.221.065H.988V20.131H2.431V9.926H3.575c-.234.91-.533,2.08-.806,2.912a3.417,3.417,0,0,1,.962,2.288.885.885,0,0,1-.234.728.647.647,0,0,1-.377.117c-.169,0-.364,0-.611-.013a3.379,3.379,0,0,1,.351,1.378,6.557,6.557,0,0,0,.9-.026,1.669,1.669,0,0,0,.767-.3,1.868,1.868,0,0,0,.6-1.69,3.87,3.87,0,0,0-1-2.652c.4-1.014.845-2.444,1.209-3.575Zm2.912,3.7H10.2V13.28H7.189ZM10.2,9.9v1.027H7.189V9.9Zm.936,4.8a11.528,11.528,0,0,1-1.17,1.287,9.085,9.085,0,0,1-.494-1.378h2.262V8.561H5.707V18.22c-.507.078-.962.156-1.352.208l.507,1.5c1.222-.273,2.821-.6,4.316-.949l-.117-1.352c-.624.117-1.261.234-1.872.338V14.606h.936c.585,2.535,1.6,4.472,3.51,5.486a5.491,5.491,0,0,1,1-1.313,4.921,4.921,0,0,1-2.041-1.7,22.88,22.88,0,0,0,1.755-1.521Zm4.81-4.16h9.373V9.159H20.709V8H19.1V9.159H14.469V12.8c0,1.9-.078,4.6-1.157,6.448a5.629,5.629,0,0,1,1.261.845c1.183-2,1.378-5.187,1.378-7.293Zm5.9,2.314v.858H19.487v-.858Zm1.534,2.028V12.851h1.872V11.629H23.387v-.858H21.853v.858H19.487v-.858H18.031v.858H16.276v1.222h1.755v2.028Zm-1.053,1.729a5.905,5.905,0,0,1-1.56,1.066,5.2,5.2,0,0,1-1.521-1.066Zm1.313-1.274-.273.065H16.367v1.209H18.3l-.611.221a6.565,6.565,0,0,0,1.495,1.443,17.638,17.638,0,0,1-3.367.585,5.213,5.213,0,0,1,.624,1.3,17.619,17.619,0,0,0,4.277-1.014,13.728,13.728,0,0,0,3.952,1.027,6.158,6.158,0,0,1,.91-1.326,17.183,17.183,0,0,1-3.2-.559,6.375,6.375,0,0,0,2.223-2.47Zm12.987-2.691H34.06V11.85h2.574Zm0,1.859H34.06v-.793h2.574Zm0,1.9H34.06v-.806h2.574Zm-3.965-5.707v6.851H38.09V10.693h-2.3c.1-.273.208-.572.312-.884H38.35V8.5H32.279V9.809h2.184c-.052.286-.1.6-.156.884Zm-4.823-.429h3.107v.9H32.24V9.068H30.121V8.015H28.678V9.068H26.6v2.093h1.248Zm2.34,7.917H28.613v-1.2h1.573Zm-1.547-2.392a9.452,9.452,0,0,0,1.092-.845c.39.3.78.585,1.105.845Zm1.56-3.458a5.556,5.556,0,0,1-.637.923l-.9-.585c.091-.117.182-.221.273-.338Zm1.3,4,.026.026.871-1.079a20.422,20.422,0,0,0-1.768-1.3,7.564,7.564,0,0,0,1.287-2.34l-.871-.4-.234.065H29.6a5.131,5.131,0,0,0,.3-.6l-1.261-.312a6.252,6.252,0,0,1-2.379,2.717,5.832,5.832,0,0,1,.975.9,5.954,5.954,0,0,0,.559-.442l.858.6a7.71,7.71,0,0,1-2.392,1.365,4.462,4.462,0,0,1,.78,1.105l.273-.117v3.367h1.3v-.52H31.5a9.17,9.17,0,0,1,.715.741,9.244,9.244,0,0,0,2.769-1.729l-1.248-.78a7.368,7.368,0,0,1-2.236,1.43Zm4.056,2.028a14.325,14.325,0,0,1,2.028,1.781l1.2-.793a16.365,16.365,0,0,0-2.106-1.69Z" transform="translate(545.176 742.745)" fill="#6a6a6a"/>
        <path id="パス_1744" data-name="パス 1744" d="M13.49-13.262H5.434v-.779H13.49Zm0,2.166H5.434v-.8H13.49Zm2.261-4.389H3.268v5.833H15.751ZM14.668-4.731a7.955,7.955,0,0,1-1.292,1.862A7.356,7.356,0,0,1,12.1-4.731ZM4.6-2.47h2.47v.741c-.836.076-1.672.133-2.47.19Zm0-2.356h2.47v.8H4.6Zm2.47-2.337v.76H4.6v-.76ZM16-6.536l-.38.076H9.709v1.729h1.748L10.2-4.389a11.636,11.636,0,0,0,1.729,2.812,9.755,9.755,0,0,1-2.7,1.368V-7.163h8.7V-8.949H1.045v1.786H2.527v5.776c-.589.057-1.159.076-1.653.114L1.045.665C2.717.513,4.883.323,7.068.114V1.653H9.234V.114a8.4,8.4,0,0,1,1.007,1.52,12.38,12.38,0,0,0,3.23-1.767A10.645,10.645,0,0,0,17,1.634a9.359,9.359,0,0,1,1.33-1.767,10.622,10.622,0,0,1-3.344-1.406A11.327,11.327,0,0,0,17.385-6ZM30.115-1.425H26.828V-2.66h3.287ZM36.195-6.9H20.957v8.55h2.2V-5.016H33.915V-.779c0,.228-.076.285-.361.3-.209.019-.8.019-1.444,0V-4.161H24.852V.95h1.976V.095h4.9a6.408,6.408,0,0,1,.437,1.52,7.584,7.584,0,0,0,3.078-.361c.741-.342.95-.95.95-1.995ZM31.388-9.215H25.46v-1.159h5.928Zm-8.075-2.66V-7.7H33.687v-4.18Zm6.213-2.641v-1.6h-2.3v1.6H20.2V-12.6H36.8v-1.919Z" transform="translate(612.33 759.917)" fill="#6a6a6a"/>
        <path id="パス_1745" data-name="パス 1745" d="M17.86-12.578V-14.8H1.159v2.223H5.586C5.453-8,5.3-2.945.418-.209A6.761,6.761,0,0,1,2.052,1.615C5.586-.513,6.954-3.8,7.543-7.315H13.87c-.209,4.066-.513,5.928-1.007,6.4a1.222,1.222,0,0,1-.893.247c-.57,0-1.862,0-3.173-.114a5.431,5.431,0,0,1,.8,2.223A23.226,23.226,0,0,0,12.9,1.425a2.754,2.754,0,0,0,2.033-.95C15.675-.361,16-2.66,16.283-8.493c.038-.285.057-1.007.057-1.007H7.809c.1-1.026.133-2.071.171-3.078Zm11.7,4.712v-4.788h4.75v4.788Zm-6.726-4.788h4.484v4.788H22.838ZM36.594-14.9H20.558V1.634h2.28V-5.624H34.314v4.6c0,.323-.133.437-.494.456-.38,0-1.615.019-2.7-.057a9.235,9.235,0,0,1,.817,2.261,8.778,8.778,0,0,0,3.591-.418c.8-.361,1.064-.988,1.064-2.223Z" transform="translate(783.642 759.917)" fill="#6a6a6a"/>
        <path id="パス_1713" data-name="パス 1713" d="M12.816-25.671c5.912,0,11.176-4.1,11.176-11.22,0-6.948-4.488-10.141-9.839-10.141a8.387,8.387,0,0,0-3.841.906l.6-6.775H22.525v-5.351H5.437L4.574-42.716l2.891,1.9a7.64,7.64,0,0,1,4.79-1.683c3.236,0,5.394,2.071,5.394,5.782,0,3.754-2.33,5.869-5.653,5.869a9.926,9.926,0,0,1-7.034-3.236L2.028-30.029A14.554,14.554,0,0,0,12.816-25.671Zm17.132,8.587C35.169-18.81,38.1-22.65,38.1-27.7c0-3.927-1.64-6.257-4.574-6.257a3.817,3.817,0,0,0-4.1,3.754,3.726,3.726,0,0,0,3.97,3.754h.388c.043,2.417-1.812,4.66-5.178,5.912Zm23.13-8.587c6.516,0,10.788-5.7,10.788-16.7S59.593-58.812,53.077-58.812,42.246-53.418,42.246-42.371C42.246-31.367,46.561-25.671,53.077-25.671Zm0-4.963c-2.762,0-4.833-2.762-4.833-11.737,0-8.933,2.071-11.522,4.833-11.522s4.79,2.589,4.79,11.522C57.867-33.4,55.839-30.633,53.077-30.633Zm25.417,4.963c6.516,0,10.788-5.7,10.788-16.7S85.01-58.812,78.494-58.812,67.663-53.418,67.663-42.371C67.663-31.367,71.978-25.671,78.494-25.671Zm0-4.963c-2.762,0-4.833-2.762-4.833-11.737,0-8.933,2.071-11.522,4.833-11.522s4.79,2.589,4.79,11.522C83.284-33.4,81.256-30.633,78.494-30.633Zm25.417,4.963c6.516,0,10.788-5.7,10.788-16.7s-4.272-16.441-10.788-16.441S93.08-53.418,93.08-42.371C93.08-31.367,97.395-25.671,103.911-25.671Zm0-4.963c-2.762,0-4.833-2.762-4.833-11.737,0-8.933,2.071-11.522,4.833-11.522s4.79,2.589,4.79,11.522C108.7-33.4,106.673-30.633,103.911-30.633Z" transform="translate(662.683 787.427)" fill="#6a6a6a"/>
        <g id="長方形_80" data-name="長方形 80" transform="translate(534.877 719.106)" fill="none" stroke="#6a6a6a" stroke-width="5">
          <rect width="59.196" height="56.983" stroke="none"/>
          <rect x="2.5" y="2.5" width="54.196" height="51.983" fill="none"/>
        </g>
      </g>
      <g id="グループ_1350" data-name="グループ 1350" transform="translate(19099.5 -6488.725)">
        <path id="パス_1746" data-name="パス 1746" d="M9.581-1.872H7.241v-.611h2.34ZM7.241-4.225h2.34v.559H7.241ZM3.627-6.812v-.624H5.668v.624Zm5.72-.624v.624H7.241v-.624Zm3.159,3.77H11.154v-1.6H7.241v-.572h3.692V-8.411H7.241v-.533h4.966v-1.222H7.241v-.845H5.668v.845H.819v1.222H5.668v.533H2.145v2.574H5.668v.572H1.82v1.04H5.668v.559H.52v1.183H5.668v.611H1.716V-.754H5.668v.4c0,.234-.078.312-.325.325-.208,0-.975,0-1.6-.026A4.766,4.766,0,0,1,4.251,1.17a6.846,6.846,0,0,0,2.3-.221c.507-.221.689-.533.689-1.3v-.4h2.34v.533h1.573V-2.483h1.352ZM15.8-2.7v-.845h2.171V-2.7Zm2.171-2.8v.806H15.8V-5.5Zm1.5-1.3H14.326V1.053H15.8V-1.573h2.171V-.416c0,.156-.052.208-.208.208s-.689.013-1.17-.013a5.346,5.346,0,0,1,.494,1.313A4.077,4.077,0,0,0,18.889.845c.442-.221.572-.585.572-1.248Zm3.7,6.2c0,.182-.065.234-.273.234s-.9.013-1.56-.013a5.421,5.421,0,0,1,.559,1.456,5.1,5.1,0,0,0,2.132-.26c.52-.247.663-.624.663-1.391V-7.033H23.166ZM22-6.669H20.579v5.3H22Zm.741-2.418c.325-.455.676-.962.988-1.469l-1.677-.494a14.574,14.574,0,0,1-1.066,1.963H17.368l.715-.247a7.183,7.183,0,0,0-1.209-1.69l-1.469.507a8.718,8.718,0,0,1,.975,1.43H13.611V-7.7H25.376V-9.087Zm5.6.273h8.229V-7.54h1.508v-2.574h-4.8V-11H31.733v.884H26.91V-7.54h1.43Zm1.7,5.265a11.726,11.726,0,0,0,1.69-1.326v1.2h1.456V-4.914h.1a10.2,10.2,0,0,0,1.872,1.365ZM33.176-.312V-.949h2.067v.637ZM29.77-.949h1.963v.637H29.77Zm1.963-.936H29.77V-2.5h1.963Zm3.51,0H33.176V-2.5h2.067Zm-3.51-4.277h-1.4a3.583,3.583,0,0,0-.429-.949c.6-.013,1.222-.026,1.833-.065Zm1.456,0V-7.254c.676-.052,1.339-.117,1.95-.182a9.534,9.534,0,0,1-.559,1.274Zm5.083,1.248V-6.162H36.088c.182-.273.39-.585.611-.91l-1.534-.377c.377-.039.728-.091,1.066-.143l-.793-1.027a59.41,59.41,0,0,1-6.747.481,3.739,3.739,0,0,1,.312,1l-.546.1a5.294,5.294,0,0,1,.4.871H26.754v1.248H29.77A13.638,13.638,0,0,1,26.3-3.38a5.987,5.987,0,0,1,.988,1.222c.338-.117.676-.273,1.027-.429V1.092H29.77V.754h5.473v.3h1.521V-2.769a9.425,9.425,0,0,0,.962.338,5.716,5.716,0,0,1,.949-1.222,12.94,12.94,0,0,1-3.393-1.261ZM2.873,13.54A10.872,10.872,0,0,0,5.694,11.1v2.093H7.215V11.148a10.8,10.8,0,0,0,2.9,2.392ZM4.29,18.545V18H8.658v.546Zm0-2.158H8.658v.546H4.29Zm4.368-1.066H4.29V14.8H8.658Zm3.64-4.55V9.432H7.215V7.989H5.694V9.432H.715v1.339h3.5a10.144,10.144,0,0,1-3.861,2.34,6.471,6.471,0,0,1,.962,1.2,10.93,10.93,0,0,0,1.469-.715v4.953H.637V19.9H12.389V18.545H10.257V13.618a9.275,9.275,0,0,0,1.365.637,5.861,5.861,0,0,1,1-1.235,10.562,10.562,0,0,1-3.991-2.249Zm11.271,5.005a5.372,5.372,0,0,1-.754,1.183c-.1-.351-.208-.754-.3-1.183Zm-5.98-1.2c-.312-.546-.936-1.547-1.209-1.95v-.559h1.183V10.693a8.39,8.39,0,0,1,.962.962c-.26.416-.533.806-.78,1.144l-.4.026.208,1.144c.728-.078,1.534-.182,2.379-.273.026.143.039.273.052.39l.884-.351c.039.286.078.572.1.845Zm1.859-2.509a6.132,6.132,0,0,1,.208.585l-.7.052c.559-.728,1.17-1.638,1.69-2.444.026,1.04.091,2.041.182,2.99a7.749,7.749,0,0,0-.507-1.456Zm2.639.546c-.052-.65-.091-1.313-.1-2.015a8.79,8.79,0,0,1,1.04,1.053c-.221.338-.442.663-.65.936Zm.221,1.963c-.065-.39-.117-.793-.156-1.222l.078.364c.364-.039.741-.091,1.144-.13l-.585.507a7.258,7.258,0,0,1,.624.481Zm1.339,1.2h1.82v-1.2h-.988l.247-.221a5.081,5.081,0,0,0-.988-.819l.962-.13a5.048,5.048,0,0,1,.1.507l.923-.39a7.967,7.967,0,0,0-.676-1.924l-.871.312c.078.169.156.351.221.533l-.78.052c.572-.767,1.2-1.716,1.716-2.535l-1.053-.52c-.182.377-.416.819-.663,1.248l-.338-.338c.325-.507.7-1.209,1.066-1.859l-1.157-.429a13.472,13.472,0,0,1-.637,1.664l-.208-.156-.377.546c-.013-.689-.013-1.391,0-2.119H20.6c0,.637.013,1.261.026,1.872l-.871-.429c-.182.39-.4.819-.663,1.261-.091-.1-.208-.221-.325-.338.312-.52.689-1.235,1.053-1.859l-1.144-.442a17.29,17.29,0,0,1-.637,1.677l-.221-.169-.572.845c.091.078.195.156.286.247H16.38V7.989H15v2.678H13.611v1.4H14.9a13.669,13.669,0,0,1-1.586,4.381,8.813,8.813,0,0,1,.65,1.313A11.124,11.124,0,0,0,15,15.321v4.8H16.38V14.4c.26.572.52,1.17.65,1.56l.52-.767v.585h.806a4.14,4.14,0,0,1-1.6,3.315,3.581,3.581,0,0,1,.871,1.014,4.444,4.444,0,0,0,1.729-2.5,8.215,8.215,0,0,1,1,.884l.832-1.027a10.361,10.361,0,0,0-1.547-1.2c.026-.156.052-.325.065-.494h1.469a11.963,11.963,0,0,0,.6,2.184A8.064,8.064,0,0,1,19.6,19.13a5.711,5.711,0,0,1,.806.988,9.385,9.385,0,0,0,1.963-1.027,2.144,2.144,0,0,0,1.781,1.04c1.014,0,1.378-.39,1.612-1.859a3.7,3.7,0,0,1-1-.7c-.065,1.027-.182,1.274-.507,1.274a1.093,1.093,0,0,1-.871-.6,7.5,7.5,0,0,0,1.469-2.015ZM30.6,9.549v.637H28.561V9.549Zm-2.041,2.275v-.676H30.6v.676Zm3.5,1.053V8.483h-5V20.131h1.508V12.877Zm2.327-1.027v-.7h2.106v.7Zm2.106-2.3v.637H34.385V9.549Zm1.521-1.066h-5.1v4.433h3.575V18.48c0,.156-.052.221-.208.221a6.526,6.526,0,0,1-.728,0,2.589,2.589,0,0,1,.247-.273,3.907,3.907,0,0,1-2.483-1.417h2.418V15.88H33.085V15.2h2.522V14.125H34.476l.559-.819-1.417-.364c-.1.325-.286.793-.442,1.183H31.824a4.258,4.258,0,0,0-.624-1.17l-1.183.325a5.16,5.16,0,0,1,.429.845H29.432V15.2h2.275v.676H29.25v1.131h2.223a3.644,3.644,0,0,1-2.457,1.521,4.92,4.92,0,0,1,.9,1,5.05,5.05,0,0,0,2.6-1.625,4.453,4.453,0,0,0,2.457,1.638,5.48,5.48,0,0,1,.4-.624,5.357,5.357,0,0,1,.312,1.209,3.589,3.589,0,0,0,1.794-.286c.416-.247.533-.637.533-1.352Z" transform="translate(859.967 741.639)" fill="#6a6a6a"/>
        <path id="パス_1747" data-name="パス 1747" d="M13.49-13.262H5.434v-.779H13.49Zm0,2.166H5.434v-.8H13.49Zm2.261-4.389H3.268v5.833H15.751ZM14.668-4.731a7.955,7.955,0,0,1-1.292,1.862A7.356,7.356,0,0,1,12.1-4.731ZM4.6-2.47h2.47v.741c-.836.076-1.672.133-2.47.19Zm0-2.356h2.47v.8H4.6Zm2.47-2.337v.76H4.6v-.76ZM16-6.536l-.38.076H9.709v1.729h1.748L10.2-4.389a11.636,11.636,0,0,0,1.729,2.812,9.755,9.755,0,0,1-2.7,1.368V-7.163h8.7V-8.949H1.045v1.786H2.527v5.776c-.589.057-1.159.076-1.653.114L1.045.665C2.717.513,4.883.323,7.068.114V1.653H9.234V.114a8.4,8.4,0,0,1,1.007,1.52,12.38,12.38,0,0,0,3.23-1.767A10.645,10.645,0,0,0,17,1.634a9.359,9.359,0,0,1,1.33-1.767,10.622,10.622,0,0,1-3.344-1.406A11.327,11.327,0,0,0,17.385-6Zm21.09-8.8H27.379v2.09h9.709ZM34.295-7.505H30.153V-9.8h4.142Zm2.2-4.275H28.082v6.251H36.5ZM34.58-.95c.456-.931.969-2.451,1.482-3.838l-2.223-.475A20.868,20.868,0,0,1,32.68-1.387Zm-3.192-.57a13.352,13.352,0,0,0-.95-3.629l-1.919.456a15.474,15.474,0,0,1,.855,3.686ZM27.816-2.736c-.418-.494-2.09-2.508-2.85-3.287.038-.247.057-.475.076-.722h2.489v-2.09H25.175V-11.78H27.3v-2.033H23.161c.152-.608.3-1.235.418-1.862l-2.128-.4a14.919,14.919,0,0,1-2.033,5.738,11.688,11.688,0,0,1,1.919,1.045,15.268,15.268,0,0,0,1.178-2.489h.513v2.945H19.8v2.09h3.116a10.06,10.06,0,0,1-3.268,6.8,7.775,7.775,0,0,1,1.558,1.6,10.808,10.808,0,0,0,3.249-5.32A31.165,31.165,0,0,1,26.372-.874ZM26.505-.8v2.09H37.354V-.8Z" transform="translate(927.122 758.81)" fill="#6a6a6a"/>
        <path id="パス_1748" data-name="パス 1748" d="M5.282-2.09V-6.346h8.436V-2.09Zm8.436-10.583v4.085H5.282v-4.085ZM2.945-14.953V1.425H5.282V.19h8.436v1.2H16.15v-16.34Z" transform="translate(1006.64 759.917)" fill="#6a6a6a"/>
        <path id="パス_1714" data-name="パス 1714" d="M28.3-25.749c6.343,0,11.694-3.452,11.694-9.062a8.009,8.009,0,0,0-6.343-8.07v-.173a7.412,7.412,0,0,0,5.524-7.465c0-5.006-4.315-8.372-11.176-8.372a17.212,17.212,0,0,0-11.824,5.049l3.323,3.884a11.418,11.418,0,0,1,8.285-3.884c3.582,0,5.437,1.683,5.437,3.97,0,2.719-2.675,4.919-9.407,4.919v4.531c7.724,0,10.141,1.985,10.141,5.092,0,2.675-2.5,4.4-6.041,4.4a12.859,12.859,0,0,1-9.278-4.358l-3.107,3.97A16.223,16.223,0,0,0,28.3-25.749Z" transform="translate(963.553 787.462)" fill="#6a6a6a"/>
        <g id="長方形_81" data-name="長方形 81" transform="translate(849.669 718)" fill="none" stroke="#6a6a6a" stroke-width="5">
          <rect width="59.196" height="56.983" stroke="none"/>
          <rect x="2.5" y="2.5" width="54.196" height="51.983" fill="none"/>
        </g>
      </g>
    </g>
  </g>
</svg>
