<svg xmlns="http://www.w3.org/2000/svg" xmlns:xlink="http://www.w3.org/1999/xlink" width="1645" height="531.449" viewBox="0 0 1645 531.449">
  <defs>
    <clipPath id="clip-path">
      <rect id="長方形_168" data-name="長方形 168" width="23.762" height="29.971" transform="translate(0 0)" fill="#541413"/>
    </clipPath>
  </defs>
  <g id="グループ_3098" data-name="グループ 3098" transform="translate(-137.5 -276.551)">
    <g id="グループ_1463" data-name="グループ 1463">
      <g id="グループ_1346" data-name="グループ 1346">
        <g id="グループ_322" data-name="グループ 322" transform="translate(-11521.5 -14212)">
          <g id="楕円形_40" data-name="楕円形 40" transform="translate(12985 14743.172)" fill="#fcfcfc" stroke="#707070" stroke-width="5">
            <ellipse cx="33.5" cy="47.5" rx="33.5" ry="47.5" stroke="none"/>
            <ellipse cx="33.5" cy="47.5" rx="31" ry="45" fill="none"/>
          </g>
          <g id="グループ_316" data-name="グループ 316" transform="translate(0 3)">
            <g id="グループ_315" data-name="グループ 315" transform="translate(1083 164)">
              <g id="グループ_314" data-name="グループ 314" transform="translate(11543.895 14367.448)">
                <g id="グループ_311" data-name="グループ 311" transform="translate(260.029 176.917)">
                  <path id="パス_879" data-name="パス 879" d="M158.09,164.819c-5.738,3.371-12.546,2.429-15.208-2.105s-.169-10.939,5.569-14.31,12.546-2.426,15.208,2.108S163.828,161.452,158.09,164.819Z" transform="translate(-141.815 -144.67)" fill="#ffb300"/>
                  <path id="パス_880" data-name="パス 880" d="M158.365,164.232c-5.738,3.37-12.546,2.426-15.208-2.108s-.169-10.937,5.569-14.307,12.546-2.426,15.208,2.108S164.1,160.865,158.365,164.232Z" transform="translate(-141.288 -145.797)" fill="#ffd500"/>
                  <path id="パス_881" data-name="パス 881" d="M152.139,147.828s-1.816-2.143-6-.945" transform="translate(-133.538 -144.414)" fill="rgba(0,0,0,0)" stroke="#fff589" stroke-linecap="round" stroke-miterlimit="10" stroke-width="1.823"/>
                  <line id="線_25" data-name="線 25" x2="4.27" y2="7.272" transform="translate(14.277 4.139)" fill="none" stroke="#ffbe00" stroke-linecap="round" stroke-miterlimit="10" stroke-width="1.215"/>
                  <line id="線_26" data-name="線 26" x2="4.27" y2="7.272" transform="translate(10.329 6.457)" fill="none" stroke="#ffbe00" stroke-linecap="round" stroke-miterlimit="10" stroke-width="1.215"/>
                  <line id="線_27" data-name="線 27" x2="4.271" y2="7.272" transform="translate(6.07 8.958)" fill="none" stroke="#ffbe00" stroke-linecap="round" stroke-miterlimit="10" stroke-width="1.215"/>
                </g>
                <g id="グループ_312" data-name="グループ 312" transform="translate(272.959 222.846)">
                  <path id="パス_882" data-name="パス 882" d="M165.647,174.238c-.07,6.653-4.385,12-9.642,11.945s-9.461-5.493-9.391-12.147,4.388-12,9.645-11.948S165.717,167.584,165.647,174.238Z" transform="translate(-145.554 -160.519)" fill="#ffb300"/>
                  <path id="パス_883" data-name="パス 883" d="M165.287,173.7c-.07,6.654-4.388,12-9.645,11.945s-9.461-5.493-9.391-12.147,4.388-12,9.645-11.945S165.357,167.043,165.287,173.7Z" transform="translate(-146.25 -161.55)" fill="#ffd500"/>
                  <path id="パス_884" data-name="パス 884" d="M151.2,162.612s-2.776.455-3.9,4.659" transform="translate(-144.247 -159.515)" fill="rgba(0,0,0,0)" stroke="#fff589" stroke-linecap="round" stroke-miterlimit="10" stroke-width="1.823"/>
                  <line id="線_28" data-name="線 28" x2="8.433" y2="0.089" transform="translate(5.343 7.177)" fill="none" stroke="#ffbe00" stroke-linecap="round" stroke-miterlimit="10" stroke-width="1.215"/>
                  <line id="線_29" data-name="線 29" x2="8.433" y2="0.088" transform="translate(5.294 11.755)" fill="none" stroke="#ffbe00" stroke-linecap="round" stroke-miterlimit="10" stroke-width="1.215"/>
                  <line id="線_30" data-name="線 30" x2="8.433" y2="0.089" transform="translate(5.243 16.694)" fill="none" stroke="#ffbe00" stroke-linecap="round" stroke-miterlimit="10" stroke-width="1.215"/>
                </g>
                <g id="グループ_313" data-name="グループ 313" transform="translate(80.105 129.552)">
                  <path id="パス_885" data-name="パス 885" d="M292.153,199.3c-6.178-22.634-5.75-19.427-21.369-36.935-18.535-20.774-46.294-32.821-74.136-32.813s-55.365,11.907-74.917,31.728c-14.768,24.016-12.947,20.011-14.634,49.454-7.452,3.612-15.257,3.288-26.028,8.458,10.34,4.093,15.122,5.226,17.268,7.022-7.277,6.723-10.931,7.286-17.268,17.559,16.444,0,14.788,1.657,22.244,0-2.154,5.3-7.389,12.008-8.85,17.979,1.79-4.639,7.82-6.339,12.633-5.1s8.747,4.589,12.715,7.584c20.619,15.564,46.58,23.509,72.413,23.657s51.47-7.295,74-19.928c11.5-6.446,23.048-15.4,25.923-28.261a49.4,49.4,0,0,1,24.7,3.1,43.765,43.765,0,0,0-16.9-14.08A25.535,25.535,0,0,1,324,227.992a75.683,75.683,0,0,0-21.232-17.258,39.337,39.337,0,0,1,22.162-4.849C316.522,201.582,299,201.478,292.153,199.3Z" transform="translate(-80.105 -129.552)" fill="#fcfcfc" stroke="#707070" stroke-width="5"/>
                  <path id="パス_886" data-name="パス 886" d="M99.772,181.608c-2.9-13.587-5.808-27.611-3.21-41.259.7-3.682,2.055-7.633,5.295-9.517,4.3-2.5,9.913-.16,13.45,3.333s5.927,8.041,9.642,11.345C113.082,155.213,101.3,182.5,99.772,181.608Z" transform="translate(-50.512 -129.098)" fill="#fff" stroke="#707070" stroke-width="5"/>
                  <path id="パス_887" data-name="パス 887" d="M132.857,146.762c4.8-9.423,9.257-10.6,18.787-15.711,2.766-1.483,15.521-2.979,16.256,9.214.642,10.617-.073,15.764-2.075,26.212C159.088,158.061,143.394,146.19,132.857,146.762Z" transform="translate(16.949 -129.381)" fill="#fff" stroke="#707070" stroke-width="5"/>
                  <path id="パス_888" data-name="パス 888" d="M136.286,149.641" transform="translate(27.517 -91.069)" fill="#8e3920"/>
                  <circle id="楕円形_39" data-name="楕円形 39" cx="8.379" cy="8.379" r="8.379" transform="matrix(0.112, -0.994, 0.994, 0.112, 68.331, 57.636)" fill="#541413"/>
                  <path id="パス_889" data-name="パス 889" d="M129.836,152.169a8.38,8.38,0,1,1,9.52,7.059A8.38,8.38,0,0,1,129.836,152.169Z" transform="translate(14.986 -104.638)" fill="#541413"/>
                  <path id="パス_890" data-name="パス 890" d="M99.8,146.029a9.235,9.235,0,0,1-1.612-8.266,6.96,6.96,0,0,1,6.584-4.822c2.916.128,5.578,2.863,5.283,5.77A23.37,23.37,0,0,0,99.8,146.029Z" transform="translate(-44.201 -118.76)" fill="#541413"/>
                  <path id="パス_892" data-name="パス 892" d="M110.029,142.425a37.932,37.932,0,0,1,52.219-1.5C146.369,133.262,127.056,134.991,110.029,142.425Z" transform="translate(-22.782 -124.322)" fill="#541413"/>
                  <path id="パス_893" data-name="パス 893" d="M110.5,145.6a37.932,37.932,0,0,1,52.219-1.5C146.841,136.438,127.525,138.167,110.5,145.6Z" transform="translate(-21.877 -118.239)" fill="#541413"/>
                  <path id="パス_894" data-name="パス 894" d="M111,148.985a37.936,37.936,0,0,1,52.222-1.5C147.345,139.818,128.029,141.547,111,148.985Z" transform="translate(-20.918 -111.758)" fill="#541413"/>
                  <path id="パス_895" data-name="パス 895" d="M87.392,162.911a237.856,237.856,0,0,0,26.392,4.05,24.271,24.271,0,0,1-17.593,2.624C92.494,168.713,88.646,166.509,87.392,162.911Z" transform="translate(-61.146 -72.648)" fill="#541413"/>
                  <path id="パス_896" data-name="パス 896" d="M87.354,166.76a49.491,49.491,0,0,0,25.812,1.228c-.388,2.315-2.811,3.615-4.954,4.572-4.061,1.814-8.709,3.642-12.808,1.918C92.118,173.093,90.133,169.786,87.354,166.76Z" transform="translate(-61.219 -65.275)" fill="#541413"/>
                  <path id="パス_897" data-name="パス 897" d="M144.5,172.337c10.855-2.709,17.57-6.971,25.089-14.838a5.366,5.366,0,0,1,.551,5.219,11.976,11.976,0,0,1-3.286,4.341,32.445,32.445,0,0,1-13.464,7.371,11.325,11.325,0,0,1-4.907.44A6.109,6.109,0,0,1,144.5,172.337Z" transform="translate(43.256 -82.016)" fill="#541413"/>
                  <path id="パス_898" data-name="パス 898" d="M144.453,172.871a49.683,49.683,0,0,0,29.495-10.56c-.8,6.554-5.219,12.7-11.423,14.96A17.617,17.617,0,0,1,144.453,172.871Z" transform="translate(43.162 -72.798)" fill="#541413"/>
                </g>
                <path id="パス_899" data-name="パス 899" d="M115.918,130.27s9.7,41.764,10.7,34.921,4.741-35.612,4.741-35.612Z" transform="translate(68.605 2.052)" fill="#541413"/>
                <path id="パス_900" data-name="パス 900" d="M155.654,161.914s-38.91-16.136-49.334,4.3c-11.406,22.363,6.487,38.154,29.713,35.988s47.1-1.8,56.176-6.653c12.846-6.875,24.448-26.124,9.062-38.889S155.654,161.914,155.654,161.914Z" transform="translate(43.453 42.413)" fill="#fcfcfc"/>
                <path id="パス_901" data-name="パス 901" d="M115.383,167.342s2.047,9.543,14.336,9.995c9.665.356,15.639-10.8,15.639-10.8L132.6,156.143Z" transform="translate(67.58 55.939)" fill="#e13b40"/>
                <path id="パス_902" data-name="パス 902" d="M111.662,156.125c-2.082,3.522.962,7.805,5.957,9.406a22.328,22.328,0,0,0,15.759-1.446,19.744,19.744,0,0,0,9.2-9.307c2.265,5.962,9.992,11.021,19.054,11.342s18.29-4.945,18.135-11.12c.207,6.108-6.528,14.788-15.2,16.47s-18.453-3.8-22.806-9.1a26.559,26.559,0,0,1-14.619,7.589c-6.088.988-13.179-.484-16.319-4.12S109.942,156.624,111.662,156.125Z" transform="translate(55.827 53.324)" fill="#6d261a"/>
                <path id="パス_903" data-name="パス 903" d="M117.443,158.249c-.061-3.344,4.86-6.146,10.986-6.257s11.146,2.51,11.208,5.855-4.86,6.143-10.986,6.254S117.5,161.59,117.443,158.249Z" transform="translate(71.526 47.981)" fill="#772616"/>
              </g>
              <path id="パス_904" data-name="パス 904" d="M11685.086,14552.687l-21.856,1.781,5.105-14.825,25.332-26.46,9.066-2.59,2.267,3.4Z" fill="#fcfcfc"/>
              <path id="パス_905" data-name="パス 905" d="M11693.216,14546.675l11.785,7.793,2.357-16.071-4.853-4.738.809-5.267-.809-4.475-4.823-1.579-12.619-7.647-6.015-3.392h-2.008l-2.478,1.884-9.066-2.59-2.267,3.4Z" transform="translate(101.999)" fill="#fcfcfc"/>
            </g>
          </g>
          <path id="パス_906" data-name="パス 906" d="M136.755,139.465c1.2-2.853,2.9-6.113,5.971-6.517,2.989-.394,5.628,2.419,6.168,5.384s-.441,5.971-1.411,8.824A22.351,22.351,0,0,0,136.755,139.465Z" transform="translate(12734.048 14540.456)" fill="#541413"/>
        </g>
        <g id="グループ_404" data-name="グループ 404" transform="translate(1512 546) rotate(90)">
          <g id="グループ_403" data-name="グループ 403" clip-path="url(#clip-path)">
            <path id="パス_1706" data-name="パス 1706" d="M19.067,5.838A5.538,5.538,0,0,1,23.423,9.95a11.206,11.206,0,0,1-.005,5.423c-.164.5.16.972.2,1.477a9.642,9.642,0,0,1-1.065,4.772c-.595,1.267-1.594,2.744-3.14,2.826a8.128,8.128,0,0,1-3.354-.351,4.435,4.435,0,0,1-2.549-2.939c-.648-1.748-2.108-2.562-3.39-3.421a2.99,2.99,0,0,1-1.507-2.688c.069-1.882.659-3.536,2.837-4.2a7.239,7.239,0,0,0,4.26-3.014,4.069,4.069,0,0,1,3.361-1.993" fill="#541413"/>
            <path id="パス_1707" data-name="パス 1707" d="M12.187,26.344a3.763,3.763,0,0,1-2.633,3.471,2.347,2.347,0,0,1-3.2-2.829c.272-1.383.709-2.9,2.495-3.371,1.52-.4,3.653,1.261,3.339,2.729" fill="#541413"/>
            <path id="パス_1708" data-name="パス 1708" d="M3,22.541A3.472,3.472,0,0,1,.217,20.905c-.556-.67.093-1.392.435-2.017a4.459,4.459,0,0,1,4.6-1.723,2.434,2.434,0,0,1,1,3.887A4.2,4.2,0,0,1,3,22.541" fill="#541413"/>
            <path id="パス_1709" data-name="パス 1709" d="M14.534,3.108c-.174,2.277-.916,3.327-2.286,3.233C10.6,6.229,8.746,4.192,8.89,2.663A2.684,2.684,0,0,1,11.723.017c1.381.17,2.927,1.689,2.811,3.091" fill="#541413"/>
            <path id="パス_1710" data-name="パス 1710" d="M4.066,6.122A3.015,3.015,0,0,1,7.257,9.215a3.036,3.036,0,0,1-2.579,2.232C2.805,11.386.657,9.779.762,8.428c.1-1.31,1.566-2.353,3.3-2.306" fill="#541413"/>
          </g>
        </g>
      </g>
      <g id="パス_1181" data-name="パス 1181" transform="translate(137.5 573)" fill="#f8f8f8">
        <path d="M 1612 231 L 33 231 C 29.08333396911621 231 25.28583335876465 230.2337493896484 21.71312522888184 228.7227020263672 C 18.26020812988281 227.2622985839844 15.15854167938232 225.1706237792969 12.49395847320557 222.5060424804688 C 9.829375267028809 219.8414611816406 7.737708568572998 216.7397918701172 6.277291774749756 213.2868804931641 C 4.766250133514404 209.7141723632812 4 205.9166717529297 4 202 L 4 33 C 4 29.08333396911621 4.766250133514404 25.28583335876465 6.277291774749756 21.71312522888184 C 7.737708568572998 18.26020812988281 9.829375267028809 15.15854167938232 12.49395847320557 12.49395847320557 C 15.15854167938232 9.829375267028809 18.26020812988281 7.737708568572998 21.71312522888184 6.277291774749756 C 25.28583335876465 4.766250133514404 29.08333396911621 4 33 4 L 1612 4 C 1615.916625976562 4 1619.714111328125 4.766250133514404 1623.286865234375 6.277291774749756 C 1626.73974609375 7.737708568572998 1629.841430664062 9.829375267028809 1632.505981445312 12.49395847320557 C 1635.170654296875 15.15854167938232 1637.262329101562 18.26020812988281 1638.72265625 21.71312522888184 C 1640.233764648438 25.28583335876465 1641 29.08333396911621 1641 33 L 1641 202 C 1641 205.9166717529297 1640.233764648438 209.7141723632812 1638.72265625 213.2868804931641 C 1637.262329101562 216.7397918701172 1635.170654296875 219.8414611816406 1632.505981445312 222.5060424804688 C 1629.841430664062 225.1706237792969 1626.73974609375 227.2622985839844 1623.286865234375 228.7227020263672 C 1619.714111328125 230.2337493896484 1615.916625976562 231 1612 231 Z" stroke="none"/>
        <path d="M 33 8 C 19.2149658203125 8 8 19.21499633789062 8 33 L 8 202 C 8 215.7850036621094 19.2149658203125 227 33 227 L 1612 227 C 1625.785034179688 227 1637 215.7850036621094 1637 202 L 1637 33 C 1637 19.21499633789062 1625.785034179688 8 1612 8 L 33 8 M 33 0 L 1612 0 C 1630.225463867188 0 1645 14.77458190917969 1645 33 L 1645 202 C 1645 220.2254180908203 1630.225463867188 235 1612 235 L 33 235 C 14.7745361328125 235 0 220.2254180908203 0 202 L 0 33 C 0 14.77458190917969 14.7745361328125 0 33 0 Z" stroke="none" fill="#707070"/>
      </g>
      <g id="グループ_307" data-name="グループ 307" transform="translate(-0.5 -80)">
        <path id="パス_1795" data-name="パス 1795" d="M4.966-14.976V-17.03H20.878v2.054H14.4v-1.482H11.31v1.482ZM24.44-4.108V-6.786H14.17a8.827,8.827,0,0,0,.208-1.638h7.1v-2.5H14.4v-1.56H22V-14.2h2.08v-5.538H14.56V-22H11.388v2.262H1.9V-14.2H4.212v1.716h7.1v1.56H4.628v2.5h6.656a11.916,11.916,0,0,1-.26,1.638H1.69v2.678H9.516C8.086-2.574,5.59-1.222,1.222-.234a12.618,12.618,0,0,1,1.924,2.5c5.3-1.43,8.19-3.484,9.724-5.8,2.054,3.224,5.148,5.07,10.088,5.85a12.029,12.029,0,0,1,1.82-2.7c-4.108-.442-7.02-1.638-8.866-3.718Zm9.022-1.014H44.746v1.144H33.462Zm0-2.86H44.746v1.118H33.462Zm0-2.886H44.746V-9.75H33.462Zm14.43,8.762V-12.714H39.416a6.909,6.909,0,0,0,2.548-3.2H44.59v2.73h2.756v-2.73h3.276v-2.236H42.484c.026-.26.026-.52.026-.754v-.13a40.587,40.587,0,0,0,7.1-1.118L47.736-22a40.129,40.129,0,0,1-5.824,1.066l-2.08-.494v2.366a4.707,4.707,0,0,1-.91,3.016v-2.106h-7.15c.026-.26.026-.546.026-.78v-.13a33.3,33.3,0,0,0,6.6-1.118L36.5-22a31.757,31.757,0,0,1-5.408,1.04L29.12-21.45v2.366a7.057,7.057,0,0,1-2.21,5.564A8.914,8.914,0,0,1,28.938-11.6a8.688,8.688,0,0,0,2.5-4.316h2.288v2.7h2.756v-2.7h2.34a6.4,6.4,0,0,1-1.508,1.3,7.39,7.39,0,0,1,1.794,1.9H30.472V-2.106H34.32A30.53,30.53,0,0,1,27.17.078,31.359,31.359,0,0,1,29.458,2.34,32.217,32.217,0,0,0,37.57-1.066L35.2-2.106H42.8L40.456-.754a51.266,51.266,0,0,1,6.76,3.068L50.8.936c-1.768-.858-4.758-2.106-7.41-3.042ZM11.232,30.656v5.2H7.722l2.132-.91a17.541,17.541,0,0,0-2.392-4.29Zm-2.938-7.93a27.123,27.123,0,0,0,4.6-4.81,27.741,27.741,0,0,0,4.784,4.81Zm9.8,7.93a27,27,0,0,1-2.47,4.5l1.69.7H14.482v-5.2H22.49V28H14.482V25.43h4.966V24.078a32.862,32.862,0,0,0,3.952,2.47,14.523,14.523,0,0,1,2.054-2.782,26.565,26.565,0,0,1-11.1-8.866h-3.2A27.728,27.728,0,0,1,.65,24.078a12.119,12.119,0,0,1,1.924,2.5,33.227,33.227,0,0,0,3.874-2.418V25.43h4.784V28h-7.9v2.652H7.306L4.94,31.67A17.863,17.863,0,0,1,7.1,35.856H2.028v2.652h22V35.856H18.148c.91-1.092,1.924-2.678,2.912-4.108Zm17.056-5.148h4.472V22.674H35.152V18.8a33.8,33.8,0,0,0,4.394-1.352l-2.184-2.392A43.907,43.907,0,0,1,26.91,17.734a9.7,9.7,0,0,1,.884,2.418c1.4-.182,2.886-.416,4.368-.7v3.224h-4.94v2.834h4.342A25.185,25.185,0,0,1,26.624,33a17.4,17.4,0,0,1,1.56,3.016,25.867,25.867,0,0,0,3.978-6.11V39.21h2.99V30.24c1.04,1.066,2.132,2.236,2.756,3.042L39.7,30.63c-.7-.546-3.276-2.756-4.55-3.718Zm8.71-7.384H40.846V32.658h3.016Zm3.12-2.652V35.466c0,.468-.208.624-.7.65-.546,0-2.21,0-3.9-.078a11.866,11.866,0,0,1,1.066,3.2c2.366.026,4.108-.078,5.174-.6,1.066-.494,1.43-1.352,1.43-3.146V15.472Z" transform="translate(242 764)" fill="#6a6a6a"/>
        <path id="パス_1798" data-name="パス 1798" d="M11.336-21.112H7.748a20.924,20.924,0,0,1,.182,2.288c0,.442,0,1.2-.026,2.106-.52.026-1.04.052-1.508.052a28.831,28.831,0,0,1-3.588-.208l.052,3.146a31.876,31.876,0,0,0,3.64.13c.416,0,.884-.026,1.378-.052v2.184c0,.6,0,1.222.026,1.846-3.2,1.378-5.8,3.744-5.8,6.006,0,2.756,3.562,4.94,6.084,4.94,1.716,0,2.86-.858,2.86-4.082,0-.884-.052-2.912-.1-4.966a17.529,17.529,0,0,1,4.888-.728c2.262,0,3.822,1.04,3.822,2.808,0,1.9-1.664,2.938-3.77,3.328a20.02,20.02,0,0,1-3.2.182l1.2,3.354A23.806,23.806,0,0,0,17.29.806c4.134-1.04,5.746-3.354,5.746-6.422,0-3.588-3.146-5.668-7.15-5.668a21.544,21.544,0,0,0-4.992.676v-.962c0-.754,0-1.56.026-2.34,1.69-.208,3.484-.468,4.966-.806l-.078-3.224A31.843,31.843,0,0,1,11.024-17c.026-.65.052-1.274.078-1.846C11.154-19.526,11.258-20.644,11.336-21.112Zm7.41,2.808-1.43,2.522a41.367,41.367,0,0,1,6.266,3.8l1.56-2.652A54.332,54.332,0,0,0,18.746-18.3ZM5.3-3.744c0-.91,1.066-1.976,2.652-2.834.052,1.4.078,2.6.078,3.25,0,.884-.364,1.092-.832,1.092C6.526-2.236,5.3-2.938,5.3-3.744Zm26.91-18.2a27.633,27.633,0,0,1-5.9,9.75A19.585,19.585,0,0,1,27.95-9a23.892,23.892,0,0,0,1.768-2.08V2.21h2.938V-15.652a41.44,41.44,0,0,0,2.5-5.356ZM46.2-7.02v1.742h-7.02V-7.02Zm-7.02,5.9V-2.964H46.2v1.846ZM36.218,2.366h2.964V1.4H46.2v.832h3.12V-9.542h-13.1Zm4.576-18.72H44.3v2.522h-3.51Zm6.552,2.522v-2.522H50.6v-2.652h-3.25v-2.808H44.3v2.808h-3.51v-2.808H37.778v2.808H34.736v2.652h3.042v2.522H33.8v2.782H51.246v-2.782Zm10.66-6.734v3.146h5.928c.078.884.182,1.82.364,2.808L62.712-14.9C61.282-8.06,58.188-3.042,52.78-.312A24.694,24.694,0,0,1,55.614,2.21c4.524-2.7,7.644-7.02,9.594-12.844A21.969,21.969,0,0,0,74.776,2.184a16.646,16.646,0,0,1,2.5-2.7C67.7-6.162,67-15.652,67-20.566ZM8.554,15.966l-.442.13H1.976V39.262H4.862V18.852H7.15c-.468,1.82-1.066,4.16-1.612,5.824a6.835,6.835,0,0,1,1.924,4.576,1.77,1.77,0,0,1-.468,1.456,1.3,1.3,0,0,1-.754.234c-.338,0-.728,0-1.222-.026a6.759,6.759,0,0,1,.7,2.756,13.115,13.115,0,0,0,1.794-.052,3.339,3.339,0,0,0,1.534-.6c.832-.572,1.222-1.664,1.2-3.38a7.741,7.741,0,0,0-2-5.3c.806-2.028,1.69-4.888,2.418-7.15Zm5.824,7.41H20.41V25.56H14.378ZM20.41,18.8v2.054H14.378V18.8Zm1.872,9.594a23.056,23.056,0,0,1-2.34,2.574,18.171,18.171,0,0,1-.988-2.756h4.524V16.122H11.414V35.44c-1.014.156-1.924.312-2.7.416l1.014,2.99c2.444-.546,5.642-1.2,8.632-1.9l-.234-2.7c-1.248.234-2.522.468-3.744.676V28.212H16.25c1.17,5.07,3.2,8.944,7.02,10.972a10.981,10.981,0,0,1,2-2.626,9.841,9.841,0,0,1-4.082-3.406A45.759,45.759,0,0,0,24.7,30.11Zm9.62-8.32H50.648V17.318h-9.23V15H38.194v2.314H28.938V24.6c0,3.8-.156,9.2-2.314,12.9a11.259,11.259,0,0,1,2.522,1.69C31.512,35.18,31.9,28.81,31.9,24.6Zm11.8,4.628v1.716H38.974V24.7Zm3.068,4.056V24.7h3.744V22.258H46.774V20.542H43.706v1.716H38.974V20.542H36.062v1.716h-3.51V24.7h3.51v4.056Zm-2.106,3.458a11.81,11.81,0,0,1-3.12,2.132,10.391,10.391,0,0,1-3.042-2.132Zm2.626-2.548-.546.13H32.734v2.418h3.874l-1.222.442a13.131,13.131,0,0,0,2.99,2.886,35.275,35.275,0,0,1-6.734,1.17,10.426,10.426,0,0,1,1.248,2.6,35.238,35.238,0,0,0,8.554-2.028,27.456,27.456,0,0,0,7.9,2.054,12.316,12.316,0,0,1,1.82-2.652,34.366,34.366,0,0,1-6.4-1.118,12.75,12.75,0,0,0,4.446-4.94Zm25.974-5.382H68.12V22.7h5.148Zm0,3.718H68.12V26.418h5.148Zm0,3.8H68.12V30.188h5.148Zm-7.93-11.414v13.7H76.18v-13.7h-4.6c.208-.546.416-1.144.624-1.768h4.5V15.992H64.558v2.626h4.368c-.1.572-.208,1.2-.312,1.768Zm-9.646-.858h6.214v1.794H64.48V17.136H60.242V15.03H57.356v2.106H53.2v4.186h2.5Zm4.68,15.834H57.226V32.97h3.146Zm-3.094-4.784a18.9,18.9,0,0,0,2.184-1.69c.78.6,1.56,1.17,2.21,1.69Zm3.12-6.916a11.112,11.112,0,0,1-1.274,1.846l-1.794-1.17c.182-.234.364-.442.546-.676ZM63,31.67l.052.052,1.742-2.158a40.844,40.844,0,0,0-3.536-2.6,15.129,15.129,0,0,0,2.574-4.68l-1.742-.806-.468.13H59.2a10.262,10.262,0,0,0,.6-1.2l-2.522-.624a12.5,12.5,0,0,1-4.758,5.434,11.664,11.664,0,0,1,1.95,1.794,11.907,11.907,0,0,0,1.118-.884l1.716,1.2a15.42,15.42,0,0,1-4.784,2.73,8.925,8.925,0,0,1,1.56,2.21l.546-.234v6.734h2.6v-1.04H63a18.34,18.34,0,0,1,1.43,1.482,18.488,18.488,0,0,0,5.538-3.458l-2.5-1.56A14.736,14.736,0,0,1,63,37.052Zm8.112,4.056a28.649,28.649,0,0,1,4.056,3.562L77.558,37.7a32.731,32.731,0,0,0-4.212-3.38Z" transform="translate(809 762)" fill="#6a6a6a"/>
        <path id="パス_1801" data-name="パス 1801" d="M19.162-3.744h-4.68V-4.966h4.68ZM14.482-8.45h4.68v1.118h-4.68ZM7.254-13.624v-1.248h4.082v1.248Zm11.44-1.248v1.248H14.482v-1.248Zm6.318,7.54h-2.7v-3.2H14.482v-1.144h7.384v-5.148H14.482v-1.066h9.932v-2.444H14.482v-1.69H11.336v1.69h-9.7v2.444h9.7v1.066H4.29v5.148h7.046v1.144H3.64v2.08h7.7v1.118H1.04v2.366h10.3v1.222h-7.9v2.236h7.9V-.7c0,.468-.156.624-.65.65-.416,0-1.95,0-3.2-.052A9.532,9.532,0,0,1,8.5,2.34,13.693,13.693,0,0,0,13.1,1.9c1.014-.442,1.378-1.066,1.378-2.6v-.806h4.68V-.442h3.146V-4.966h2.7ZM31.59-5.408V-7.1h4.342v1.69ZM35.932-11v1.612H31.59V-11Zm2.99-2.6H28.652v15.7H31.59V-3.146h4.342V-.832c0,.312-.1.416-.416.416-.338.026-1.378.026-2.34-.026a10.692,10.692,0,0,1,.988,2.626,8.154,8.154,0,0,0,3.614-.494c.884-.442,1.144-1.17,1.144-2.5Zm7.41,12.4c0,.364-.13.468-.546.468-.442.026-1.794.026-3.12-.026a10.841,10.841,0,0,1,1.118,2.912,10.2,10.2,0,0,0,4.264-.52c1.04-.494,1.326-1.248,1.326-2.782V-14.066H46.332Zm-2.34-12.142H41.158V-2.73h2.834Zm1.482-4.836c.65-.91,1.352-1.924,1.976-2.938L44.1-22.1a29.148,29.148,0,0,1-2.132,3.926H34.736l1.43-.494a14.366,14.366,0,0,0-2.418-3.38L30.81-21.034a17.436,17.436,0,0,1,1.95,2.86H27.222v2.782h23.53v-2.782Zm11.206.546H73.138v2.548h3.016v-5.148H66.56V-22H63.466v1.768H53.82v5.148h2.86ZM60.086-7.1a23.452,23.452,0,0,0,3.38-2.652v2.392h2.912v-2.47h.208A20.4,20.4,0,0,0,70.33-7.1ZM66.352-.624V-1.9h4.134V-.624ZM59.54-1.9h3.926V-.624H59.54ZM63.466-3.77H59.54V-4.992h3.926Zm7.02,0H66.352V-4.992h4.134Zm-7.02-8.554H60.658a7.166,7.166,0,0,0-.858-1.9c1.2-.026,2.444-.052,3.666-.13Zm2.912,0v-2.184c1.352-.1,2.678-.234,3.9-.364a19.068,19.068,0,0,1-1.118,2.548Zm10.166,2.5v-2.5H72.176c.364-.546.78-1.17,1.222-1.82L70.33-14.9c.754-.078,1.456-.182,2.132-.286l-1.586-2.054a118.821,118.821,0,0,1-13.494.962,7.478,7.478,0,0,1,.624,2l-1.092.208a10.588,10.588,0,0,1,.806,1.742H53.508v2.5H59.54A27.276,27.276,0,0,1,52.6-6.76a11.974,11.974,0,0,1,1.976,2.444c.676-.234,1.352-.546,2.054-.858V2.184H59.54V1.508H70.486v.6h3.042V-5.538a18.85,18.85,0,0,0,1.924.676,11.431,11.431,0,0,1,1.9-2.444,25.88,25.88,0,0,1-6.786-2.522ZM5.746,26.08a21.745,21.745,0,0,0,5.642-4.888v4.186H14.43V21.3a21.6,21.6,0,0,0,5.8,4.784ZM8.58,36.09V35h8.736V36.09Zm0-4.316h8.736v1.092H8.58Zm8.736-2.132H8.58V28.6h8.736Zm7.28-9.1V17.864H14.43V14.978H11.388v2.886H1.43v2.678H8.424A20.287,20.287,0,0,1,.7,25.222a12.942,12.942,0,0,1,1.924,2.392,21.861,21.861,0,0,0,2.938-1.43V36.09H1.274v2.7h23.5v-2.7H20.514V26.236a18.55,18.55,0,0,0,2.73,1.274,11.722,11.722,0,0,1,2-2.47,21.123,21.123,0,0,1-7.982-4.5Zm22.542,10.01a10.744,10.744,0,0,1-1.508,2.366c-.208-.7-.416-1.508-.6-2.366ZM35.178,28.16c-.624-1.092-1.872-3.094-2.418-3.9V23.142h2.366V20.386A16.779,16.779,0,0,1,37.05,22.31c-.52.832-1.066,1.612-1.56,2.288l-.806.052.416,2.288c1.456-.156,3.068-.364,4.758-.546.052.286.078.546.1.78l1.768-.7c.078.572.156,1.144.208,1.69ZM38.9,23.142a12.263,12.263,0,0,1,.416,1.17l-1.4.1c1.118-1.456,2.34-3.276,3.38-4.888.052,2.08.182,4.082.364,5.98A15.5,15.5,0,0,0,40.638,22.6Zm5.278,1.092c-.1-1.3-.182-2.626-.208-4.03a17.579,17.579,0,0,1,2.08,2.106c-.442.676-.884,1.326-1.3,1.872Zm.442,3.926c-.13-.78-.234-1.586-.312-2.444l.156.728c.728-.078,1.482-.182,2.288-.26L45.578,27.2a14.517,14.517,0,0,1,1.248.962Zm2.678,2.392h3.64V28.16H48.958l.494-.442a10.162,10.162,0,0,0-1.976-1.638l1.924-.26a10.1,10.1,0,0,1,.208,1.014l1.846-.78A15.934,15.934,0,0,0,50.1,22.206l-1.742.624c.156.338.312.7.442,1.066l-1.56.1c1.144-1.534,2.392-3.432,3.432-5.07l-2.106-1.04c-.364.754-.832,1.638-1.326,2.5l-.676-.676c.65-1.014,1.4-2.418,2.132-3.718l-2.314-.858a26.943,26.943,0,0,1-1.274,3.328l-.416-.312-.754,1.092c-.026-1.378-.026-2.782,0-4.238H41.21c0,1.274.026,2.522.052,3.744L39.52,17.89c-.364.78-.806,1.638-1.326,2.522-.182-.208-.416-.442-.65-.676.624-1.04,1.378-2.47,2.106-3.718l-2.288-.884a34.58,34.58,0,0,1-1.274,3.354l-.442-.338L34.5,19.84c.182.156.39.312.572.494H32.76V14.978H30v5.356H27.222v2.808H29.8A27.339,27.339,0,0,1,26.624,31.9a17.625,17.625,0,0,1,1.3,2.626A22.247,22.247,0,0,0,30,29.642v9.594H32.76V27.8c.52,1.144,1.04,2.34,1.3,3.12l1.04-1.534v1.17h1.612c-.26,2.626-.91,5.1-3.2,6.63a7.162,7.162,0,0,1,1.742,2.028,8.888,8.888,0,0,0,3.458-4.992,16.429,16.429,0,0,1,2,1.768l1.664-2.054a20.722,20.722,0,0,0-3.094-2.392c.052-.312.1-.65.13-.988h2.938a23.926,23.926,0,0,0,1.2,4.368,16.128,16.128,0,0,1-4.342,2.34,11.422,11.422,0,0,1,1.612,1.976,18.771,18.771,0,0,0,3.926-2.054,4.288,4.288,0,0,0,3.562,2.08c2.028,0,2.756-.78,3.224-3.718a7.405,7.405,0,0,1-2-1.4c-.13,2.054-.364,2.548-1.014,2.548a2.186,2.186,0,0,1-1.742-1.2,15.008,15.008,0,0,0,2.938-4.03ZM61.2,18.1v1.274H57.122V18.1Zm-4.082,4.55V21.3H61.2v1.352Zm6.994,2.106V15.966H54.106v23.3h3.016V24.754ZM68.77,22.7V21.3h4.212v1.4Zm4.212-4.6v1.274H68.77V18.1Zm3.042-2.132H65.832v8.866h7.15V35.96c0,.312-.1.442-.416.442a13.051,13.051,0,0,1-1.456,0,5.178,5.178,0,0,1,.494-.546,7.814,7.814,0,0,1-4.966-2.834h4.836V30.76h-5.3V29.408h5.044V27.25H68.952c.338-.494.728-1.066,1.118-1.638l-2.834-.728c-.208.65-.572,1.586-.884,2.366h-2.7A8.516,8.516,0,0,0,62.4,24.91l-2.366.65a10.32,10.32,0,0,1,.858,1.69H58.864v2.158h4.55V30.76H58.5v2.262h4.446c-.624,1.144-2,2.262-4.914,3.042a9.84,9.84,0,0,1,1.794,2,10.1,10.1,0,0,0,5.2-3.25,8.906,8.906,0,0,0,4.914,3.276,10.959,10.959,0,0,1,.806-1.248,10.714,10.714,0,0,1,.624,2.418,7.178,7.178,0,0,0,3.588-.572c.832-.494,1.066-1.274,1.066-2.7Z" transform="translate(1378 760)" fill="#6a6a6a"/>
        <path id="パス_1796" data-name="パス 1796" d="M11.52-8.64v-5.472h6.228V-8.64Zm22.968,0H22.176v-5.472h9.5v-4h-9.5v-4.284H32.508v-4.14H12.168a22.983,22.983,0,0,0,1.188-2.952L9-30.6c-1.548,4.644-4.32,9.252-7.56,11.988A33.132,33.132,0,0,1,5.148-15.84a32.353,32.353,0,0,0,4.9-6.552h7.7v4.284H7.236V-8.64H1.548v4.1h16.2v7.7h4.428v-7.7H34.488Z" transform="translate(357 798)" fill="#6a6a6a"/>
        <path id="パス_1797" data-name="パス 1797" d="M7.632-10.26c3.816,0,6.516-3.132,6.516-8.5,0-5.328-2.7-8.388-6.516-8.388s-6.48,3.06-6.48,8.388C1.152-13.392,3.816-10.26,7.632-10.26Zm0-2.988c-1.548,0-2.736-1.584-2.736-5.508s1.188-5.4,2.736-5.4,2.772,1.476,2.772,5.4S9.18-13.248,7.632-13.248ZM8.532.5h3.132L26.136-27.144H23ZM27,.5c3.78,0,6.516-3.168,6.516-8.5,0-5.364-2.736-8.424-6.516-8.424s-6.48,3.06-6.48,8.424C20.52-2.664,23.22.5,27,.5ZM27-2.52c-1.548,0-2.736-1.548-2.736-5.472S25.452-13.428,27-13.428s2.772,1.512,2.772,5.436S28.548-2.52,27-2.52Z" transform="translate(718 798)" fill="#6a6a6a"/>
        <path id="パス_1799" data-name="パス 1799" d="M25.56-25.128H10.3V-26.6H25.56Zm0,4.1H10.3v-1.512H25.56Zm4.284-8.316H6.192v11.052H29.844ZM27.792-8.964a15.073,15.073,0,0,1-2.448,3.528,13.938,13.938,0,0,1-2.412-3.528ZM8.712-4.68h4.68v1.4c-1.584.144-3.168.252-4.68.36Zm0-4.464h4.68v1.512H8.712Zm4.68-4.428v1.44H8.712v-1.44Zm16.92,1.188-.72.144H18.4v3.276h3.312l-2.376.648a22.048,22.048,0,0,0,3.276,5.328A18.482,18.482,0,0,1,17.5-.4V-13.572H33.984v-3.384h-32v3.384H4.788V-2.628c-1.116.108-2.2.144-3.132.216L1.98,1.26C5.148.972,9.252.612,13.392.216V3.132h4.1V.216A15.914,15.914,0,0,1,19.4,3.1a23.456,23.456,0,0,0,6.12-3.348A20.169,20.169,0,0,0,32.22,3.1,17.733,17.733,0,0,1,34.74-.252,20.126,20.126,0,0,1,28.4-2.916a21.462,21.462,0,0,0,4.536-8.46ZM57.06-2.7H50.832V-5.04H57.06ZM68.58-13.068H39.708v16.2h4.176V-9.5H64.26v8.028c0,.432-.144.54-.684.576-.4.036-1.512.036-2.736,0V-7.884H47.088V1.8h3.744V.18H60.12a12.142,12.142,0,0,1,.828,2.88c2.592,0,4.5-.036,5.832-.684,1.4-.648,1.8-1.8,1.8-3.78ZM59.472-17.46H48.24v-2.2H59.472Zm-15.3-5.04v7.92H63.828V-22.5Zm11.772-5v-3.024H51.588V-27.5H38.268v3.636H69.732V-27.5Z" transform="translate(934 796)" fill="#6a6a6a"/>
        <path id="パス_1802" data-name="パス 1802" d="M25.56-25.128H10.3V-26.6H25.56Zm0,4.1H10.3v-1.512H25.56Zm4.284-8.316H6.192v11.052H29.844ZM27.792-8.964a15.073,15.073,0,0,1-2.448,3.528,13.938,13.938,0,0,1-2.412-3.528ZM8.712-4.68h4.68v1.4c-1.584.144-3.168.252-4.68.36Zm0-4.464h4.68v1.512H8.712Zm4.68-4.428v1.44H8.712v-1.44Zm16.92,1.188-.72.144H18.4v3.276h3.312l-2.376.648a22.048,22.048,0,0,0,3.276,5.328A18.482,18.482,0,0,1,17.5-.4V-13.572H33.984v-3.384h-32v3.384H4.788V-2.628c-1.116.108-2.2.144-3.132.216L1.98,1.26C5.148.972,9.252.612,13.392.216V3.132h4.1V.216A15.914,15.914,0,0,1,19.4,3.1a23.456,23.456,0,0,0,6.12-3.348A20.169,20.169,0,0,0,32.22,3.1,17.733,17.733,0,0,1,34.74-.252,20.126,20.126,0,0,1,28.4-2.916a21.462,21.462,0,0,0,4.536-8.46Zm39.96-16.668h-18.4v3.96h18.4ZM64.98-14.22H57.132v-4.356H64.98Zm4.176-8.1H53.208v11.844H69.156ZM65.52-1.8c.864-1.764,1.836-4.644,2.808-7.272l-4.212-.9a39.54,39.54,0,0,1-2.2,7.344ZM59.472-2.88a25.3,25.3,0,0,0-1.8-6.876l-3.636.864a29.318,29.318,0,0,1,1.62,6.984ZM52.7-5.184c-.792-.936-3.96-4.752-5.4-6.228.072-.468.108-.9.144-1.368h4.716v-3.96H47.7v-5.58h4.032v-3.852H43.884c.288-1.152.576-2.34.792-3.528l-4.032-.756c-.684,4.068-2.016,8.28-3.852,10.872a22.146,22.146,0,0,1,3.636,1.98A28.929,28.929,0,0,0,42.66-22.32h.972v5.58h-6.12v3.96h5.9c-.5,4.392-1.944,9.252-6.192,12.888a14.732,14.732,0,0,1,2.952,3.024,20.478,20.478,0,0,0,6.156-10.08,59.05,59.05,0,0,1,3.636,5.292ZM50.22-1.512v3.96H70.776v-3.96Z" transform="translate(1503 794)" fill="#6a6a6a"/>
        <path id="パス_1800" data-name="パス 1800" d="M33.84-23.832v-4.212H2.2v4.212h8.388C10.332-15.156,10.044-5.58.792-.4a12.811,12.811,0,0,1,3.1,3.456c6.7-4.032,9.288-10.26,10.4-16.92H26.28c-.4,7.7-.972,11.232-1.908,12.132a2.316,2.316,0,0,1-1.692.468c-1.08,0-3.528,0-6.012-.216A10.289,10.289,0,0,1,18.18,2.736,44.007,44.007,0,0,0,24.444,2.7,5.218,5.218,0,0,0,28.3.9c1.4-1.584,2.016-5.94,2.556-16.992.072-.54.108-1.908.108-1.908H14.8c.18-1.944.252-3.924.324-5.832ZM56.016-14.9v-9.072h9V-14.9ZM43.272-23.976h8.5V-14.9h-8.5Zm26.064-4.248H38.952V3.1h4.32V-10.656H65.016v8.712c0,.612-.252.828-.936.864-.72,0-3.06.036-5.112-.108A17.5,17.5,0,0,1,60.516,3.1c3.2,0,5.364-.072,6.8-.792,1.512-.684,2.016-1.872,2.016-4.212Z" transform="translate(1231 796)" fill="#6a6a6a"/>
        <path id="パス_1803" data-name="パス 1803" d="M10.008-3.96v-8.064H25.992V-3.96ZM25.992-24.012v7.74H10.008v-7.74ZM5.58-28.332V2.7h4.428V.36H25.992V2.628H30.6v-30.96Z" transform="translate(1663 796)" fill="#6a6a6a"/>
        <path id="パス_1711" data-name="パス 1711" d="M6.4,0h34.71V-9.282H30.264V-57.8h-8.5c-3.666,2.34-7.644,3.822-13.416,4.914v7.1H18.8v36.5H6.4ZM58.578,1.092A7.183,7.183,0,0,0,65.754-6.4a7.138,7.138,0,0,0-7.176-7.488c-4.056,0-7.1,3.2-7.1,7.488A7.168,7.168,0,0,0,58.578,1.092Zm35.724,0c11.778,0,19.5-10.3,19.5-30.186S106.08-58.812,94.3-58.812s-19.578,9.75-19.578,29.718C74.724-9.2,82.524,1.092,94.3,1.092Zm0-8.97c-4.992,0-8.736-4.992-8.736-21.216,0-16.146,3.744-20.826,8.736-20.826s8.658,4.68,8.658,20.826C102.96-12.87,99.294-7.878,94.3-7.878Z" transform="translate(393 800)" fill="#6a6a6a"/>
        <path id="パス_1712" data-name="パス 1712" d="M21.372,1.092c11,0,20.28-6.162,20.28-16.77,0-7.566-4.992-12.4-11.466-14.2v-.39c6.084-2.418,9.594-6.942,9.594-13.182,0-9.828-7.566-15.366-18.72-15.366-6.786,0-12.324,2.73-17.316,7.1l5.85,7.02c3.432-3.2,6.786-5.07,10.92-5.07,4.914,0,7.722,2.652,7.722,7.176,0,5.148-3.432,8.814-14.04,8.814v8.19c12.558,0,15.912,3.588,15.912,9.2,0,5.226-3.978,8.112-9.828,8.112-5.226,0-9.438-2.574-12.87-5.928L2.028-6.942C6.084-2.34,12.246,1.092,21.372,1.092Zm37.206,0A7.183,7.183,0,0,0,65.754-6.4a7.138,7.138,0,0,0-7.176-7.488c-4.056,0-7.1,3.2-7.1,7.488A7.168,7.168,0,0,0,58.578,1.092Zm35.724,0c11.778,0,19.5-10.3,19.5-30.186S106.08-58.812,94.3-58.812s-19.578,9.75-19.578,29.718C74.724-9.2,82.524,1.092,94.3,1.092Zm0-8.97c-4.992,0-8.736-4.992-8.736-21.216,0-16.146,3.744-20.826,8.736-20.826s8.658,4.68,8.658,20.826C102.96-12.87,99.294-7.878,94.3-7.878Z" transform="translate(593 800)" fill="#6a6a6a"/>
        <path id="パス_1713" data-name="パス 1713" d="M21.528,1.092c10.686,0,20.2-7.41,20.2-20.28,0-12.558-8.112-18.33-17.784-18.33A15.16,15.16,0,0,0,17-35.88L18.1-48.126H39.078V-57.8H8.19L6.63-29.718l5.226,3.432c3.354-2.184,5.226-3.042,8.658-3.042,5.85,0,9.75,3.744,9.75,10.452,0,6.786-4.212,10.608-10.218,10.608-5.382,0-9.438-2.652-12.714-5.85l-5.3,7.332A26.307,26.307,0,0,0,21.528,1.092ZM52.494,16.614c9.438-3.12,14.742-10.062,14.742-19.188,0-7.1-2.964-11.31-8.268-11.31-4.056,0-7.41,2.652-7.41,6.786,0,4.368,3.432,6.786,7.176,6.786h.7c.078,4.368-3.276,8.424-9.36,10.686ZM94.3,1.092c11.778,0,19.5-10.3,19.5-30.186S106.08-58.812,94.3-58.812s-19.578,9.75-19.578,29.718C74.724-9.2,82.524,1.092,94.3,1.092Zm0-8.97c-4.992,0-8.736-4.992-8.736-21.216,0-16.146,3.744-20.826,8.736-20.826s8.658,4.68,8.658,20.826C102.96-12.87,99.294-7.878,94.3-7.878Zm45.942,8.97c11.778,0,19.5-10.3,19.5-30.186s-7.722-29.718-19.5-29.718-19.578,9.75-19.578,29.718C120.666-9.2,128.466,1.092,140.244,1.092Zm0-8.97c-4.992,0-8.736-4.992-8.736-21.216,0-16.146,3.744-20.826,8.736-20.826s8.658,4.68,8.658,20.826C148.9-12.87,145.236-7.878,140.244-7.878Zm45.942,8.97c11.778,0,19.5-10.3,19.5-30.186s-7.722-29.718-19.5-29.718-19.578,9.75-19.578,29.718C166.608-9.2,174.408,1.092,186.186,1.092Zm0-8.97c-4.992,0-8.736-4.992-8.736-21.216,0-16.146,3.744-20.826,8.736-20.826s8.658,4.68,8.658,20.826C194.844-12.87,191.178-7.878,186.186-7.878Z" transform="translate(1014 796)" fill="#6a6a6a"/>
        <path id="パス_1714" data-name="パス 1714" d="M38.61,1.014c11.466,0,21.138-6.24,21.138-16.38,0-7.8-4.914-12.948-11.466-14.586v-.312c6.4-2.028,9.984-6.864,9.984-13.494,0-9.048-7.8-15.132-20.2-15.132-7.956,0-15.366,3.432-21.372,9.126l6.006,7.02c4.758-4.914,9.906-7.02,14.976-7.02,6.474,0,9.828,3.042,9.828,7.176,0,4.914-4.836,8.892-17,8.892v8.19c13.962,0,18.33,3.588,18.33,9.2,0,4.836-4.524,7.956-10.92,7.956a23.243,23.243,0,0,1-16.77-7.878L15.522-9.048C20.124-3.666,27.612,1.014,38.61,1.014Z" transform="translate(1585 796)" fill="#6a6a6a"/>
        <path id="パス_1715" data-name="パス 1715" d="M35.49-26.286c5.3,5.772,11,8.58,18.408,8.58,8.346,0,15.99-4.68,21.216-14.352l-8.58-4.68c-2.964,5.538-7.41,9.36-12.4,9.36-5.382,0-8.268-2.028-11.622-5.616-5.3-5.772-11-8.58-18.408-8.58-8.346,0-15.99,4.68-21.216,14.352l8.58,4.68c2.964-5.538,7.41-9.36,12.4-9.36C29.328-31.9,32.136-29.8,35.49-26.286Z" transform="translate(515 800)" fill="#6a6a6a"/>
        <g id="長方形_79" data-name="長方形 79" transform="translate(214 719)" fill="none" stroke="#6a6a6a" stroke-width="5">
          <rect width="107" height="103" stroke="none"/>
          <rect x="2.5" y="2.5" width="102" height="98" fill="none"/>
        </g>
        <g id="長方形_80" data-name="長方形 80" transform="translate(794 720)" fill="none" stroke="#6a6a6a" stroke-width="5">
          <rect width="107" height="103" stroke="none"/>
          <rect x="2.5" y="2.5" width="102" height="98" fill="none"/>
        </g>
        <g id="長方形_81" data-name="長方形 81" transform="translate(1363 718)" fill="none" stroke="#6a6a6a" stroke-width="5">
          <rect width="107" height="103" stroke="none"/>
          <rect x="2.5" y="2.5" width="102" height="98" fill="none"/>
        </g>
      </g>
    </g>
    <g id="グループ_3096" data-name="グループ 3096" transform="translate(-0.823)">
      <path id="パス_907" data-name="パス 907" d="M636.67,129.439l9.876-7.265a5.973,5.973,0,0,1,8.076,1.018l7.771,9.495a8.137,8.137,0,0,0,8.756,2.251l11.387-4.575a5.977,5.977,0,0,1,7.565,3l5.171,11.131a8.1,8.1,0,0,0,7.911,4.356l12.188-1.608a5.979,5.979,0,0,1,6.586,4.782l2.223,12.071a8.152,8.152,0,0,0,6.592,6.19l12.18,1.475a5.979,5.979,0,0,1,5.193,6.274l-.837,12.231a8.122,8.122,0,0,0,4.846,7.635l11.423,4.457a5.967,5.967,0,0,1,3.475,7.36l-3.853,11.66a8.122,8.122,0,0,0,2.794,8.6l9.971,7.156a5.98,5.98,0,0,1,1.526,7.995l-6.638,10.33a8.118,8.118,0,0,0,.563,9.023l7.868,9.412a5.974,5.974,0,0,1-.512,8.124l-8.978,8.348a8.14,8.14,0,0,0-1.7,8.891l5.282,11.072a5.973,5.973,0,0,1-2.511,7.741l-10.787,5.849a8.109,8.109,0,0,0-3.845,8.186l2.365,12.027a5.986,5.986,0,0,1-4.358,6.875l-11.912,2.986a8.127,8.127,0,0,0-5.763,6.976l-.712,12.245a5.97,5.97,0,0,1-5.926,5.578l-12.269-.066a8.124,8.124,0,0,0-7.319,5.316l-3.728,11.68a5.975,5.975,0,0,1-7.126,3.922l-11.861-3.114a8.107,8.107,0,0,0-8.416,3.333l-6.527,10.4a5.962,5.962,0,0,1-7.875,2.022L654.088,406.3a8.121,8.121,0,0,0-8.972,1.144l-8.9,8.446a5.976,5.976,0,0,1-8.134.008l-8.912-8.457a8.13,8.13,0,0,0-8.98-1.141l-10.72,5.989a5.966,5.966,0,0,1-7.875-2.029l-6.533-10.4a8.087,8.087,0,0,0-8.4-3.333L564.8,399.644a5.985,5.985,0,0,1-7.135-3.922l-3.728-11.68a8.115,8.115,0,0,0-7.327-5.316l-12.267.066a5.993,5.993,0,0,1-5.941-5.578l-.689-12.245a8.149,8.149,0,0,0-5.772-6.976l-11.9-2.986a5.984,5.984,0,0,1-4.356-6.875l2.363-12.027a8.132,8.132,0,0,0-3.845-8.186l-10.8-5.849a5.979,5.979,0,0,1-2.5-7.741l5.275-11.072a8.115,8.115,0,0,0-1.689-8.888l-8.986-8.351a5.966,5.966,0,0,1-.511-8.124l7.868-9.412a8.133,8.133,0,0,0,.57-9.023l-6.645-10.33a5.988,5.988,0,0,1,1.541-7.991l9.972-7.163a8.108,8.108,0,0,0,2.785-8.6l-3.859-11.66a5.975,5.975,0,0,1,3.466-7.36l11.43-4.457a8.1,8.1,0,0,0,4.846-7.635l-.837-12.231a5.988,5.988,0,0,1,5.193-6.274l12.187-1.475a8.127,8.127,0,0,0,6.586-6.19l2.23-12.071a5.986,5.986,0,0,1,6.585-4.782l12.18,1.608a8.1,8.1,0,0,0,7.919-4.356l5.165-11.131a5.984,5.984,0,0,1,7.571-3l11.394,4.575a8.125,8.125,0,0,0,8.748-2.251l7.765-9.495a5.987,5.987,0,0,1,8.082-1.024l9.9,7.274A8.092,8.092,0,0,0,636.67,129.439Z" transform="translate(981.688 155.505)" fill="#ffeb3b"/>
      <g id="グループ_317" data-name="グループ 317" transform="matrix(0.999, 0.052, -0.052, 0.999, 936.312, -4821.253)">
        <path id="パス_1805" data-name="パス 1805" d="M12.194-20.826l-3.666-.208A13.926,13.926,0,0,1,8.5-18.72c-.052.6-.13,1.3-.208,2.106A24.554,24.554,0,0,1,2.938-17.6l-.182,2.99a30.531,30.531,0,0,0,5.174.936c-.13,1.17-.286,2.392-.442,3.562a23.893,23.893,0,0,1-5.122-1.04L2.184-8.008a29.09,29.09,0,0,0,4.992.858c-.1,1.066-.182,2-.182,2.626,0,4.342,2.886,6.11,6.968,6.11,5.694,0,9.23-2.808,9.23-6.734,0-2.21-.806-4.056-2.522-6.24L17-10.608C18.72-9,19.682-7.332,19.682-5.564c0,2.132-1.976,3.8-5.616,3.8-2.548,0-3.874-1.144-3.874-3.3,0-.468.052-1.118.1-1.9h1.04c1.638,0,3.146-.1,4.6-.234l.078-3.094a45.04,45.04,0,0,1-5.226.312h-.182c.13-1.17.286-2.392.442-3.536a46.858,46.858,0,0,0,5.07-.26l.1-3.094a36.672,36.672,0,0,1-4.758.364c.1-.858.208-1.56.286-2A23.273,23.273,0,0,1,12.194-20.826Zm20.878,2.08c0,.286-.052,1.014-.1,2-1.118.156-2.262.286-3.016.338a22.339,22.339,0,0,1-2.262.026l.338,3.328c1.456-.208,3.458-.468,4.732-.624-.026.624-.078,1.248-.13,1.846-1.482,2.184-4.082,5.616-5.564,7.436L29.12-1.56C30.03-2.782,31.3-4.68,32.4-6.318c-.026,2.184-.052,3.692-.1,5.72,0,.416-.026,1.326-.078,1.924H35.8c-.078-.6-.156-1.534-.182-2-.156-2.444-.156-4.628-.156-6.76,0-.676.026-1.378.052-2.106,2.132-2.34,4.94-4.732,6.864-4.732,1.092,0,1.768.65,1.768,1.924,0,2.366-.936,6.188-.936,9,0,2.522,1.3,3.926,3.25,3.926A6.93,6.93,0,0,0,51.35-1.352l-.416-3.666a5.394,5.394,0,0,1-3.38,1.872c-.65,0-.988-.494-.988-1.17,0-2.678.858-6.5.858-9.2,0-2.184-1.274-3.848-4.082-3.848-2.522,0-5.512,2.106-7.566,3.9.026-.208.026-.39.052-.572.442-.676.962-1.534,1.326-2l-.962-1.248c.182-1.612.416-2.938.572-3.666l-3.8-.13A14.356,14.356,0,0,1,33.072-18.746Zm31.2-2.184-3.588-.364a21.864,21.864,0,0,1-.7,4.342c-.806.078-1.586.1-2.366.1a32.846,32.846,0,0,1-3.458-.182l.234,3.016c1.118.078,2.184.1,3.25.1.442,0,.884,0,1.352-.026a40.964,40.964,0,0,1-5.3,9.178l3.146,1.612A47.907,47.907,0,0,0,62.4-14.274a45.106,45.106,0,0,0,4.55-.91l-.1-3.016a31.874,31.874,0,0,1-3.51.832C63.726-18.772,64.064-20.1,64.272-20.93ZM62.92-2.938c0-.91.962-1.586,2.47-1.586a9.34,9.34,0,0,1,2.106.26v.52c0,1.43-.546,2.418-2.34,2.418C63.726-1.326,62.92-1.976,62.92-2.938Zm7.436-9.906h-3.25c.052,1.586.182,3.9.286,5.824-.6-.052-1.17-.1-1.794-.1-3.614,0-5.746,1.95-5.746,4.5,0,2.86,2.548,4.29,5.772,4.29,3.692,0,5.018-1.872,5.018-4.29v-.26A22.042,22.042,0,0,1,74.152-.1l1.742-2.782a17,17,0,0,0-5.382-3.328c-.052-1.3-.13-2.548-.156-3.3C70.33-10.66,70.278-11.752,70.356-12.844Zm4.472,1.378,1.846-2.73a44.786,44.786,0,0,0-6.422-3.536l-1.664,2.574A37.526,37.526,0,0,1,74.828-11.466Zm22.256-7.28-3.042-2.678a18.071,18.071,0,0,1-2,2.21c-1.742,1.69-5.3,4.576-7.358,6.24-2.6,2.184-2.808,3.562-.208,5.772,2.366,2.028,6.188,5.278,7.774,6.916.78.78,1.534,1.612,2.262,2.418L97.552-.65C94.9-3.224,89.96-7.124,88.01-8.762c-1.4-1.222-1.43-1.508-.052-2.7,1.742-1.482,5.174-4.134,6.864-5.486C95.42-17.446,96.278-18.122,97.084-18.746Z" transform="translate(903.25 5180.972)" fill="#6a6a6a"/>
        <path id="パス_1806" data-name="パス 1806" d="M6.552-10.036c.572-2,1.144-4.186,1.638-6.292h.13c.546,2.08,1.066,4.29,1.664,6.292l.572,2.106H5.98ZM-.1,0H3.8L5.148-4.94h6.24L12.74,0h4.03L10.582-19.266H6.058ZM18.72,0h3.822V-10.01a4.15,4.15,0,0,1,2.782-1.638c1.378,0,2.054.78,2.054,3.042V0h3.8V-10.01a4.248,4.248,0,0,1,2.808-1.638c1.378,0,2.028.78,2.028,3.042V0h3.822V-9.074c0-3.666-1.43-5.85-4.524-5.85-1.9,0-3.3,1.144-4.628,2.548a3.963,3.963,0,0,0-4-2.548A6.13,6.13,0,0,0,22.2-12.61h-.078l-.286-1.95H18.72ZM47.372.364A6.846,6.846,0,0,0,51.766-1.56h.1L52.13,0h3.12V-8.5c0-4.212-1.9-6.422-5.59-6.422A11.632,11.632,0,0,0,43.576-13l1.378,2.522a8.226,8.226,0,0,1,4-1.378c1.794,0,2.418,1.092,2.5,2.522-5.876.624-8.4,2.262-8.4,5.382A4.136,4.136,0,0,0,47.372.364Zm1.248-2.99C47.5-2.626,46.7-3.12,46.7-4.264c0-1.3,1.2-2.288,4.758-2.73v2.938A3.956,3.956,0,0,1,48.62-2.626ZM58.162,0H69.68V-3.016H62.92l6.526-9.49V-14.56H58.89v3.016h5.8l-6.526,9.49ZM78.208.364c3.64,0,6.994-2.808,6.994-7.644s-3.354-7.644-6.994-7.644-6.994,2.808-6.994,7.644S74.568.364,78.208.364Zm0-3.12c-1.976,0-3.094-1.768-3.094-4.524,0-2.73,1.118-4.524,3.094-4.524S81.3-10.01,81.3-7.28C81.3-4.524,80.184-2.756,78.208-2.756ZM88.4,0h3.822V-10.01c1.066-1.066,1.82-1.638,3.016-1.638,1.43,0,2.054.78,2.054,3.042V0h3.822V-9.074c0-3.666-1.352-5.85-4.5-5.85a6.711,6.711,0,0,0-4.732,2.288h-.078L91.52-14.56H88.4Zm34.4-21.424-2.054.858a30.159,30.159,0,0,1,1.794,3.146c-.468.1-1.014.234-1.482.312-.936.182-2.912.494-5.1.858-.234-1.17-.39-2.054-.442-2.418-.13-.6-.208-1.482-.286-2l-3.666.6c.182.6.364,1.222.52,1.976.078.416.26,1.274.468,2.366-2.236.364-4.238.65-5.148.754-.806.078-1.586.13-2.418.182l.7,3.588c.884-.234,1.56-.39,2.392-.546.806-.13,2.808-.468,5.1-.832.26,1.326.52,2.756.806,4.16-2.652.416-5.07.806-6.266.988-.832.1-2,.26-2.7.286l.728,3.458c.6-.156,1.482-.312,2.6-.52s3.562-.624,6.24-1.066c.416,2.184.728,3.978.858,4.706.156.78.234,1.664.364,2.652l3.744-.676c-.234-.832-.494-1.768-.676-2.548-.156-.806-.52-2.574-.936-4.68,2.288-.364,4.394-.7,5.642-.91.988-.156,2.054-.338,2.756-.39l-.7-3.432c-.676.182-1.638.416-2.652.624-1.17.234-3.3.572-5.642.962-.26-1.4-.546-2.834-.806-4.16,2.158-.338,4.134-.65,5.2-.806.78-.1,1.82-.26,2.392-.312l-.546-3.042,1.3-.572C124.384-18.824,123.448-20.462,122.8-21.424Zm3.068-1.17-2.054.858a27.566,27.566,0,0,1,2.106,3.588l2.054-.91A30.768,30.768,0,0,0,125.866-22.594Zm26.26,5.278-2.548-1.638a8.715,8.715,0,0,1-2.054.208H135.512c-.858,0-2.34-.13-3.12-.208v3.666c.676-.052,1.924-.1,3.094-.1H147.6A16.458,16.458,0,0,1,144.56-8.06c-2.106,2.626-5.044,4.888-10.192,6.11L137.2,1.144a20.8,20.8,0,0,0,10.452-7.176c2.158-2.886,3.3-6.916,3.9-9.464A11.358,11.358,0,0,1,152.126-17.316ZM163.176-2.5a28.559,28.559,0,0,1-.26,3.64h4.056c-.1-1.066-.234-2.886-.234-3.64V-9.854a75.1,75.1,0,0,1,9.386,3.874l1.482-3.588a84.917,84.917,0,0,0-10.868-4.03v-3.848a28.267,28.267,0,0,1,.234-3.12h-4.056a18.049,18.049,0,0,1,.26,3.12Zm25.662-5.486a18.02,18.02,0,0,0,1.768-2.184h6.942a17.269,17.269,0,0,0,1.664,2.184Zm6.292-7.046c.26.728.546,1.4.858,2.08H192.3c.338-.676.676-1.378.962-2.08Zm10.478,4.862v-2.782h-6.37a19.569,19.569,0,0,1-1.066-2.08h6.006v-2.73H200.59c.572-.91,1.274-2.054,1.9-3.2l-3.068-.91a26.86,26.86,0,0,1-1.95,3.978l.39.13h-3.614c.39-1.222.728-2.5,1.014-3.77l-3.25-.546a30.769,30.769,0,0,1-1.066,4.316H189.02l.832-.312a16.3,16.3,0,0,0-2.028-3.666l-2.574.936a19.137,19.137,0,0,1,1.612,3.042h-2.808v2.73h5.824a19.934,19.934,0,0,1-1.118,2.08h-6.4v2.782h4.264a16.348,16.348,0,0,1-4.914,3.51,14.894,14.894,0,0,1,1.9,2.522,19.7,19.7,0,0,0,3.2-2.028V-5.2h3.874c-.6,2.262-2,3.9-6.552,4.862a8.591,8.591,0,0,1,1.716,2.652c5.668-1.456,7.384-3.978,8.086-7.514h4.082c-.208,2.73-.468,3.952-.832,4.316a1.2,1.2,0,0,1-.936.286c-.52,0-1.586-.026-2.756-.1a6.169,6.169,0,0,1,.91,2.886,22.689,22.689,0,0,0,3.38-.052,3.029,3.029,0,0,0,2.054-.988c.7-.78,1.066-2.782,1.352-7.2a16.833,16.833,0,0,0,3.042,1.95,10.812,10.812,0,0,1,2.028-2.548,14.523,14.523,0,0,1-4.94-3.51Z" transform="translate(850.817 5212.948)" fill="#ea6552"/>
        <path id="パス_1807" data-name="パス 1807" d="M2.132,0H13.7V-3.094H10.088V-19.266H7.254a12,12,0,0,1-4.472,1.638v2.366H6.266V-3.094H2.132ZM18.018,5.538c3.146-1.04,4.914-3.354,4.914-6.4,0-2.366-.988-3.77-2.756-3.77a2.3,2.3,0,0,0-2.47,2.262A2.245,2.245,0,0,0,20.1-.1h.234c.026,1.456-1.092,2.808-3.12,3.562ZM32.474.364c3.926,0,6.5-3.432,6.5-10.062S36.4-19.6,32.474-19.6s-6.526,3.25-6.526,9.906C25.948-3.068,28.548.364,32.474.364Zm0-2.99c-1.664,0-2.912-1.664-2.912-7.072,0-5.382,1.248-6.942,2.912-6.942S35.36-15.08,35.36-9.7C35.36-4.29,34.138-2.626,32.474-2.626ZM48.308.364c3.926,0,6.5-3.432,6.5-10.062s-2.574-9.906-6.5-9.906-6.526,3.25-6.526,9.906C41.782-3.068,44.382.364,48.308.364Zm0-2.99C46.644-2.626,45.4-4.29,45.4-9.7c0-5.382,1.248-6.942,2.912-6.942s2.886,1.56,2.886,6.942C51.194-4.29,49.972-2.626,48.308-2.626ZM64.142.364c3.926,0,6.5-3.432,6.5-10.062s-2.574-9.906-6.5-9.906-6.526,3.25-6.526,9.906C57.616-3.068,60.216.364,64.142.364Zm0-2.99c-1.664,0-2.912-1.664-2.912-7.072,0-5.382,1.248-6.942,2.912-6.942s2.886,1.56,2.886,6.942C67.028-4.29,65.806-2.626,64.142-2.626Zm22.62-8.138v-6.552h6.5v6.552Zm-9.2-6.552h6.136v6.552H77.558Zm18.824-3.068H74.438V2.236h3.12V-7.7h15.7V-1.4c0,.442-.182.6-.676.624-.52,0-2.21.026-3.692-.078a12.637,12.637,0,0,1,1.118,3.094c2.314,0,3.874-.052,4.914-.572,1.092-.494,1.456-1.352,1.456-3.042Zm17.264-.13a44.152,44.152,0,0,0,5.434,7.982H105.04a31.183,31.183,0,0,0,5.148-8.19l-3.328-.962a21.557,21.557,0,0,1-7.67,9.724,18.593,18.593,0,0,1,2.652,2.5,19.59,19.59,0,0,0,2.08-1.872v1.82h4.394c-.52,3.8-1.872,7.2-7.748,9.1a10.359,10.359,0,0,1,2.054,2.86c6.734-2.522,8.424-6.968,9.074-11.96h5.122c-.234,5.434-.52,7.748-1.04,8.294a1.206,1.206,0,0,1-1.04.364c-.65,0-2-.026-3.432-.13a7.471,7.471,0,0,1,1.014,3.12,26.011,26.011,0,0,0,3.926-.078A3.137,3.137,0,0,0,118.612.832c.91-1.092,1.222-4.16,1.508-12.012v-.182c.572.6,1.118,1.17,1.664,1.664a14.81,14.81,0,0,1,2.626-2.782,29.937,29.937,0,0,1-7.722-9.256Z" transform="translate(893.753 5247.483)" fill="#ea6552"/>
        <path id="パス_1808" data-name="パス 1808" d="M24.12-21.99a1.741,1.741,0,0,1,1.74-1.74,1.735,1.735,0,0,1,1.71,1.74,1.729,1.729,0,0,1-1.71,1.71A1.735,1.735,0,0,1,24.12-21.99Zm-1.86,0a3.323,3.323,0,0,0,.06.57,12.944,12.944,0,0,1-1.71.12H6.72a33.4,33.4,0,0,1-3.57-.24v4.23c.75-.06,2.19-.12,3.57-.12H20.67a18.852,18.852,0,0,1-3.51,8.46C14.73-5.91,11.34-3.3,5.4-1.92l3.27,3.6A24.1,24.1,0,0,0,20.73-6.63c2.52-3.33,3.81-7.98,4.5-10.92.09-.27.15-.57.24-.9a1.711,1.711,0,0,0,.39.03,3.6,3.6,0,0,0,3.57-3.57,3.6,3.6,0,0,0-3.57-3.6A3.611,3.611,0,0,0,22.26-21.99ZM35.85-1.2,38.7,1.26A7.743,7.743,0,0,1,40.47.45c7.08-2.31,13.29-5.88,17.4-10.8l-2.13-3.39C51.9-9.06,45.21-5.22,40.32-3.81v-15.6a21.944,21.944,0,0,1,.3-3.42H35.91a19.167,19.167,0,0,1,.33,3.42V-3.15A3.918,3.918,0,0,1,35.85-1.2ZM83.22-24.54l-2.4.99a38.2,38.2,0,0,1,2.37,4.17l2.4-1.05C85.02-21.54,83.97-23.43,83.22-24.54Zm3.54-1.35-2.37.99a35.005,35.005,0,0,1,2.4,4.11l2.4-1.02A46.923,46.923,0,0,0,86.76-25.89ZM68.04-3.42c0,3.54.99,5.19,7.8,5.19a70.616,70.616,0,0,0,9.33-.66l.12-4.05a51.818,51.818,0,0,1-9.48.99C72.54-1.95,72-2.61,72-4.47v-7.95c4.23-.84,8.28-1.65,9.21-1.83a25.846,25.846,0,0,1-4.77,6.06l3.3,1.95a42.182,42.182,0,0,0,6.21-8.73c.27-.54.69-1.2.96-1.62l-2.88-2.25a8.783,8.783,0,0,1-2.13.72c-1.35.3-5.55,1.17-9.9,1.98v-3.51a24.764,24.764,0,0,1,.27-3.45H67.8a25.254,25.254,0,0,1,.24,3.45v4.26c-2.97.54-5.61.99-7.05,1.17l.75,3.93c1.26-.3,3.63-.78,6.3-1.32ZM97.23-22.8l-2.82,3a62.378,62.378,0,0,1,7.5,6.48l3.06-3.12A60.59,60.59,0,0,0,97.23-22.8ZM93.48-2.82,96,1.14a32.489,32.489,0,0,0,11.13-4.23,31.9,31.9,0,0,0,11.1-11.1l-2.34-4.23A28.248,28.248,0,0,1,104.97-6.75,30.92,30.92,0,0,1,93.48-2.82Zm35.94-.06a32.949,32.949,0,0,1-.3,4.2h4.68c-.12-1.23-.27-3.33-.27-4.2v-8.49A86.651,86.651,0,0,1,144.36-6.9l1.71-4.14a97.982,97.982,0,0,0-12.54-4.65v-4.44a32.614,32.614,0,0,1,.27-3.6h-4.68a20.824,20.824,0,0,1,.3,3.6Zm34.05-4.83h3.06l.81-10.26.15-4.47h-4.98l.15,4.47ZM165,.27a2.553,2.553,0,0,0,2.64-2.64A2.56,2.56,0,0,0,165-5.04a2.56,2.56,0,0,0-2.64,2.67A2.536,2.536,0,0,0,165,.27Z" transform="translate(859.075 5283.999)" fill="#6a6a6a"/>
        <path id="パス_1809" data-name="パス 1809" d="M10.608-6.08A10.544,10.544,0,0,0,13.76,1.6L15.28.928A9.94,9.94,0,0,1,12.416-6.08a9.94,9.94,0,0,1,2.864-7.008l-1.52-.672A10.544,10.544,0,0,0,10.608-6.08ZM24-9.44a1.209,1.209,0,0,0,1.2-1.2,1.209,1.209,0,0,0-1.2-1.2,1.209,1.209,0,0,0-1.2,1.2A1.209,1.209,0,0,0,24-9.44Zm0,2.9-5.28-5.28-.464.464,5.28,5.28-5.3,5.3L18.7-.32l5.3-5.3,5.28,5.28L29.744-.8l-5.28-5.28,5.28-5.28-.464-.464Zm-3.36.464a1.209,1.209,0,0,0-1.2-1.2,1.209,1.209,0,0,0-1.2,1.2,1.209,1.209,0,0,0,1.2,1.2A1.209,1.209,0,0,0,20.64-6.08Zm6.72,0a1.209,1.209,0,0,0,1.2,1.2,1.209,1.209,0,0,0,1.2-1.2,1.209,1.209,0,0,0-1.2-1.2A1.209,1.209,0,0,0,27.36-6.08ZM24-2.72a1.209,1.209,0,0,0-1.2,1.2A1.209,1.209,0,0,0,24-.32a1.209,1.209,0,0,0,1.2-1.2A1.209,1.209,0,0,0,24-2.72ZM37.392-6.08a10.544,10.544,0,0,0-3.152-7.68l-1.52.672A9.94,9.94,0,0,1,35.584-6.08,9.94,9.94,0,0,1,32.72.928l1.52.672A10.544,10.544,0,0,0,37.392-6.08Z" transform="translate(1022.423 5282.524)" fill="#6a6a6a"/>
        <path id="パス_1804" data-name="パス 1804" d="M11.336-21.112H7.748a20.924,20.924,0,0,1,.182,2.288c0,.442,0,1.2-.026,2.106-.52.026-1.04.052-1.508.052a28.831,28.831,0,0,1-3.588-.208l.052,3.146a31.876,31.876,0,0,0,3.64.13c.416,0,.884-.026,1.378-.052v2.184c0,.6,0,1.222.026,1.846-3.2,1.378-5.8,3.744-5.8,6.006,0,2.756,3.562,4.94,6.084,4.94,1.716,0,2.86-.858,2.86-4.082,0-.884-.052-2.912-.1-4.966a17.529,17.529,0,0,1,4.888-.728c2.262,0,3.822,1.04,3.822,2.808,0,1.9-1.664,2.938-3.77,3.328a20.02,20.02,0,0,1-3.2.182l1.2,3.354A23.806,23.806,0,0,0,17.29.806c4.134-1.04,5.746-3.354,5.746-6.422,0-3.588-3.146-5.668-7.15-5.668a21.544,21.544,0,0,0-4.992.676v-.962c0-.754,0-1.56.026-2.34,1.69-.208,3.484-.468,4.966-.806l-.078-3.224A31.843,31.843,0,0,1,11.024-17c.026-.65.052-1.274.078-1.846C11.154-19.526,11.258-20.644,11.336-21.112Zm7.41,2.808-1.43,2.522a41.367,41.367,0,0,1,6.266,3.8l1.56-2.652A54.332,54.332,0,0,0,18.746-18.3ZM5.3-3.744c0-.91,1.066-1.976,2.652-2.834.052,1.4.078,2.6.078,3.25,0,.884-.364,1.092-.832,1.092C6.526-2.236,5.3-2.938,5.3-3.744Zm28.08.806c0-.884,1.014-1.612,2.86-1.612a14.44,14.44,0,0,1,2.132.182c.026.468.026.832.026,1.118,0,1.508-.91,1.9-2.288,1.9C34.32-1.352,33.384-1.95,33.384-2.938Zm8.138-18.1h-3.51a10.452,10.452,0,0,1,.156,1.794v1.222H37.154a48.541,48.541,0,0,1-6.422-.572l.078,2.964a59.769,59.769,0,0,0,6.37.468h.962c-.026.884-.026,1.82-.026,2.678H36.868a45.943,45.943,0,0,1-6.266-.494l.026,3.068c1.716.208,4.68.338,6.188.338h1.352c.026.78.052,1.612.1,2.418-.52-.052-1.066-.078-1.612-.078-4,0-6.422,1.846-6.422,4.472,0,2.756,2.184,4.342,6.344,4.342C40.014,1.586,41.7-.13,41.7-2.34c0-.286,0-.6-.026-.962A19.929,19.929,0,0,1,46.93.312L48.8-2.6a20.356,20.356,0,0,0-7.28-3.926c-.078-1.04-.13-2.106-.182-3.094,2.5-.078,4.524-.26,6.864-.52l.026-3.068c-2.106.286-4.316.494-6.942.624v-2.678c2.522-.13,4.888-.364,6.6-.572l.026-2.99a54.492,54.492,0,0,1-6.578.7c0-.416,0-.806.026-1.066A17.559,17.559,0,0,1,41.522-21.034Zm19.058.312L57.33-19.4c1.17,2.756,2.418,5.538,3.614,7.748-2.5,1.846-4.316,4-4.316,6.864,0,4.472,3.926,5.9,9.1,5.9a48.286,48.286,0,0,0,8.346-.65l.052-3.744a40.138,40.138,0,0,1-8.5.962c-3.614,0-5.408-.988-5.408-2.86,0-1.82,1.456-3.3,3.614-4.732a76.96,76.96,0,0,1,7.254-3.848c.962-.494,1.794-.936,2.574-1.4l-1.794-3.016a16.246,16.246,0,0,1-2.418,1.586c-1.222.7-3.484,1.82-5.616,3.068A61.759,61.759,0,0,1,60.58-20.722Zm35.594.338-3.588-.338a17.564,17.564,0,0,1-.208,2.47q-.078.585-.234,1.248a14.171,14.171,0,0,0-5.9,1.56c-.182-.546-.338-1.092-.468-1.586-.208-.78-.416-1.638-.572-2.5L81.8-18.46a16.5,16.5,0,0,1,1.04,2.7c.234.7.442,1.4.7,2.106A11.367,11.367,0,0,0,79.69-5.434c0,3.354,1.976,5.174,4.134,5.174,1.924,0,3.38-.858,5.122-2.756.26.338.572.676.884,1.014l2.626-2.08a20.78,20.78,0,0,1-1.43-1.56,32.879,32.879,0,0,0,3.536-8.268,5.627,5.627,0,0,1,4.212,5.746c0,3.25-2.262,6.188-7.956,6.656l1.976,3.016c5.408-.832,9.334-3.978,9.334-9.49a8.571,8.571,0,0,0-6.786-8.788c.078-.338.156-.65.234-.988C95.732-18.408,95.966-19.682,96.174-20.384ZM82.732-5.694a7.856,7.856,0,0,1,1.924-4.888A28.006,28.006,0,0,0,87.074-5.59c-.962,1.17-1.924,1.976-2.86,1.976S82.732-4.42,82.732-5.694Zm4.446-6.916a10.418,10.418,0,0,1,4.186-1.456A29.953,29.953,0,0,1,89.05-8.45,26.7,26.7,0,0,1,87.178-12.61Zm37.232-1.118a26.319,26.319,0,0,1-2.5,5.772,61.4,61.4,0,0,1-1.04-7.124h8.034v-3.068h-2.7l1.248-1.326a21.752,21.752,0,0,0-4.238-2.782l-1.872,1.846a32.549,32.549,0,0,1,3.328,2.262h-3.978c-.052-1.274-.078-2.548-.052-3.848h-3.25c0,1.3.052,2.574.1,3.848H106.886v7.592c0,3.38-.182,7.9-2.158,11.024a13.534,13.534,0,0,1,2.626,2.106c2.132-3.172,2.678-8.242,2.782-12.038h3.38c-.078,3.276-.182,4.524-.442,4.888a.841.841,0,0,1-.78.312c-.416,0-1.3-.026-2.236-.1a7.015,7.015,0,0,1,.858,2.886,20.458,20.458,0,0,0,2.99-.078A2.443,2.443,0,0,0,115.7-2.6c.6-.754.754-3.068.832-8.528,0-.364.026-1.17.026-1.17h-6.422V-15.08h7.54A53.709,53.709,0,0,0,119.47-4.6a19.863,19.863,0,0,1-5.3,4.212A20.381,20.381,0,0,1,116.4,2.158,22.038,22.038,0,0,0,120.8-1.378c1.144,2.132,2.574,3.432,4.394,3.432,2.418,0,3.458-1.144,3.952-5.954a8.41,8.41,0,0,1-2.626-1.742c-.13,3.25-.442,4.55-1.066,4.55-.832,0-1.664-1.092-2.418-2.964a30.2,30.2,0,0,0,4.472-8.918Zm29.64-3.744h-9.49V-22h-3.224v4.524h-9.23v3.042H154.05ZM140.842-3.484a42.524,42.524,0,0,0-2.444-9.984l-2.964.78A42.151,42.151,0,0,1,137.67-2.652ZM147.5-1.846a105.816,105.816,0,0,0,3.25-11.076l-3.562-.65a64.98,64.98,0,0,1-2.964,11.726H131.274V1.248H154.8V-1.846Zm10.3-15.99.338,3.562c3.016-.65,8.32-1.222,10.764-1.482a10.4,10.4,0,0,0-3.874,8.034c0,5.642,5.148,8.554,10.608,8.918l1.222-3.562c-4.42-.234-8.424-1.768-8.424-6.058a7.9,7.9,0,0,1,5.512-7.28,27.01,27.01,0,0,1,5.018-.364l-.026-3.328c-1.846.078-4.68.234-7.358.468-4.758.39-9.048.78-11.232.962C159.848-17.914,158.834-17.862,157.794-17.836ZM175.24-13.52l-1.924.806A20.06,20.06,0,0,1,175.344-9.1l1.976-.884A32.273,32.273,0,0,0,175.24-13.52Zm2.912-1.2-1.9.884a22.873,22.873,0,0,1,2.132,3.51l1.95-.936A38.89,38.89,0,0,0,178.152-14.716Z" transform="translate(862.322 5144.179)" fill="#6a6a6a"/>
      </g>
    </g>
  </g>
</svg>
