<svg xmlns="http://www.w3.org/2000/svg" xmlns:xlink="http://www.w3.org/1999/xlink" width="1645" height="531.45" viewBox="0 0 1645 531.45">
  <defs>
    <clipPath id="clip-path">
      <rect id="長方形_168" data-name="長方形 168" width="23.762" height="29.971" transform="translate(0 0)" fill="#541413"/>
    </clipPath>
  </defs>
  <g id="グループ_1463" data-name="グループ 1463" transform="translate(-137.5 -276.55)">
    <g id="グループ_1346" data-name="グループ 1346">
      <g id="グループ_322" data-name="グループ 322" transform="translate(-11521.5 -14212)">
        <g id="楕円形_40" data-name="楕円形 40" transform="translate(12985 14743.172)" fill="#fcfcfc" stroke="#707070" stroke-width="5">
          <ellipse cx="33.5" cy="47.5" rx="33.5" ry="47.5" stroke="none"/>
          <ellipse cx="33.5" cy="47.5" rx="31" ry="45" fill="none"/>
        </g>
        <g id="グループ_316" data-name="グループ 316" transform="translate(0 3)">
          <g id="グループ_315" data-name="グループ 315" transform="translate(1083 164)">
            <g id="グループ_314" data-name="グループ 314" transform="translate(11543.895 14367.448)">
              <g id="グループ_311" data-name="グループ 311" transform="translate(260.029 176.917)">
                <path id="パス_879" data-name="パス 879" d="M158.09,164.819c-5.738,3.371-12.546,2.429-15.208-2.105s-.169-10.939,5.569-14.31,12.546-2.426,15.208,2.108S163.828,161.452,158.09,164.819Z" transform="translate(-141.815 -144.67)" fill="#ffb300"/>
                <path id="パス_880" data-name="パス 880" d="M158.365,164.232c-5.738,3.37-12.546,2.426-15.208-2.108s-.169-10.937,5.569-14.307,12.546-2.426,15.208,2.108S164.1,160.865,158.365,164.232Z" transform="translate(-141.288 -145.797)" fill="#ffd500"/>
                <path id="パス_881" data-name="パス 881" d="M152.139,147.828s-1.816-2.143-6-.945" transform="translate(-133.538 -144.414)" fill="rgba(0,0,0,0)" stroke="#fff589" stroke-linecap="round" stroke-miterlimit="10" stroke-width="1.823"/>
                <line id="線_25" data-name="線 25" x2="4.27" y2="7.272" transform="translate(14.277 4.139)" fill="none" stroke="#ffbe00" stroke-linecap="round" stroke-miterlimit="10" stroke-width="1.215"/>
                <line id="線_26" data-name="線 26" x2="4.27" y2="7.272" transform="translate(10.329 6.457)" fill="none" stroke="#ffbe00" stroke-linecap="round" stroke-miterlimit="10" stroke-width="1.215"/>
                <line id="線_27" data-name="線 27" x2="4.271" y2="7.272" transform="translate(6.07 8.958)" fill="none" stroke="#ffbe00" stroke-linecap="round" stroke-miterlimit="10" stroke-width="1.215"/>
              </g>
              <g id="グループ_312" data-name="グループ 312" transform="translate(272.959 222.846)">
                <path id="パス_882" data-name="パス 882" d="M165.647,174.238c-.07,6.653-4.385,12-9.642,11.945s-9.461-5.493-9.391-12.147,4.388-12,9.645-11.948S165.717,167.584,165.647,174.238Z" transform="translate(-145.554 -160.519)" fill="#ffb300"/>
                <path id="パス_883" data-name="パス 883" d="M165.287,173.7c-.07,6.654-4.388,12-9.645,11.945s-9.461-5.493-9.391-12.147,4.388-12,9.645-11.945S165.357,167.043,165.287,173.7Z" transform="translate(-146.25 -161.55)" fill="#ffd500"/>
                <path id="パス_884" data-name="パス 884" d="M151.2,162.612s-2.776.455-3.9,4.659" transform="translate(-144.247 -159.515)" fill="rgba(0,0,0,0)" stroke="#fff589" stroke-linecap="round" stroke-miterlimit="10" stroke-width="1.823"/>
                <line id="線_28" data-name="線 28" x2="8.433" y2="0.089" transform="translate(5.343 7.177)" fill="none" stroke="#ffbe00" stroke-linecap="round" stroke-miterlimit="10" stroke-width="1.215"/>
                <line id="線_29" data-name="線 29" x2="8.433" y2="0.088" transform="translate(5.294 11.755)" fill="none" stroke="#ffbe00" stroke-linecap="round" stroke-miterlimit="10" stroke-width="1.215"/>
                <line id="線_30" data-name="線 30" x2="8.433" y2="0.089" transform="translate(5.243 16.694)" fill="none" stroke="#ffbe00" stroke-linecap="round" stroke-miterlimit="10" stroke-width="1.215"/>
              </g>
              <g id="グループ_313" data-name="グループ 313" transform="translate(80.105 129.552)">
                <path id="パス_885" data-name="パス 885" d="M292.153,199.3c-6.178-22.634-5.75-19.427-21.369-36.935-18.535-20.774-46.294-32.821-74.136-32.813s-55.365,11.907-74.917,31.728c-14.768,24.016-12.947,20.011-14.634,49.454-7.452,3.612-15.257,3.288-26.028,8.458,10.34,4.093,15.122,5.226,17.268,7.022-7.277,6.723-10.931,7.286-17.268,17.559,16.444,0,14.788,1.657,22.244,0-2.154,5.3-7.389,12.008-8.85,17.979,1.79-4.639,7.82-6.339,12.633-5.1s8.747,4.589,12.715,7.584c20.619,15.564,46.58,23.509,72.413,23.657s51.47-7.295,74-19.928c11.5-6.446,23.048-15.4,25.923-28.261a49.4,49.4,0,0,1,24.7,3.1,43.765,43.765,0,0,0-16.9-14.08A25.535,25.535,0,0,1,324,227.992a75.683,75.683,0,0,0-21.232-17.258,39.337,39.337,0,0,1,22.162-4.849C316.522,201.582,299,201.478,292.153,199.3Z" transform="translate(-80.105 -129.552)" fill="#fcfcfc" stroke="#707070" stroke-width="5"/>
                <path id="パス_886" data-name="パス 886" d="M99.772,181.608c-2.9-13.587-5.808-27.611-3.21-41.259.7-3.682,2.055-7.633,5.295-9.517,4.3-2.5,9.913-.16,13.45,3.333s5.927,8.041,9.642,11.345C113.082,155.213,101.3,182.5,99.772,181.608Z" transform="translate(-50.512 -129.098)" fill="#fff" stroke="#707070" stroke-width="5"/>
                <path id="パス_887" data-name="パス 887" d="M132.857,146.762c4.8-9.423,9.257-10.6,18.787-15.711,2.766-1.483,15.521-2.979,16.256,9.214.642,10.617-.073,15.764-2.075,26.212C159.088,158.061,143.394,146.19,132.857,146.762Z" transform="translate(16.949 -129.381)" fill="#fff" stroke="#707070" stroke-width="5"/>
                <path id="パス_888" data-name="パス 888" d="M136.286,149.641" transform="translate(27.517 -91.069)" fill="#8e3920"/>
                <circle id="楕円形_39" data-name="楕円形 39" cx="8.379" cy="8.379" r="8.379" transform="matrix(0.112, -0.994, 0.994, 0.112, 68.331, 57.636)" fill="#541413"/>
                <path id="パス_889" data-name="パス 889" d="M129.836,152.169a8.38,8.38,0,1,1,9.52,7.059A8.38,8.38,0,0,1,129.836,152.169Z" transform="translate(14.986 -104.638)" fill="#541413"/>
                <path id="パス_890" data-name="パス 890" d="M99.8,146.029a9.235,9.235,0,0,1-1.612-8.266,6.96,6.96,0,0,1,6.584-4.822c2.916.128,5.578,2.863,5.283,5.77A23.37,23.37,0,0,0,99.8,146.029Z" transform="translate(-44.201 -118.76)" fill="#541413"/>
                <path id="パス_892" data-name="パス 892" d="M110.029,142.425a37.932,37.932,0,0,1,52.219-1.5C146.369,133.262,127.056,134.991,110.029,142.425Z" transform="translate(-22.782 -124.322)" fill="#541413"/>
                <path id="パス_893" data-name="パス 893" d="M110.5,145.6a37.932,37.932,0,0,1,52.219-1.5C146.841,136.438,127.525,138.167,110.5,145.6Z" transform="translate(-21.877 -118.239)" fill="#541413"/>
                <path id="パス_894" data-name="パス 894" d="M111,148.985a37.936,37.936,0,0,1,52.222-1.5C147.345,139.818,128.029,141.547,111,148.985Z" transform="translate(-20.918 -111.758)" fill="#541413"/>
                <path id="パス_895" data-name="パス 895" d="M87.392,162.911a237.856,237.856,0,0,0,26.392,4.05,24.271,24.271,0,0,1-17.593,2.624C92.494,168.713,88.646,166.509,87.392,162.911Z" transform="translate(-61.146 -72.648)" fill="#541413"/>
                <path id="パス_896" data-name="パス 896" d="M87.354,166.76a49.491,49.491,0,0,0,25.812,1.228c-.388,2.315-2.811,3.615-4.954,4.572-4.061,1.814-8.709,3.642-12.808,1.918C92.118,173.093,90.133,169.786,87.354,166.76Z" transform="translate(-61.219 -65.275)" fill="#541413"/>
                <path id="パス_897" data-name="パス 897" d="M144.5,172.337c10.855-2.709,17.57-6.971,25.089-14.838a5.366,5.366,0,0,1,.551,5.219,11.976,11.976,0,0,1-3.286,4.341,32.445,32.445,0,0,1-13.464,7.371,11.325,11.325,0,0,1-4.907.44A6.109,6.109,0,0,1,144.5,172.337Z" transform="translate(43.256 -82.016)" fill="#541413"/>
                <path id="パス_898" data-name="パス 898" d="M144.453,172.871a49.683,49.683,0,0,0,29.495-10.56c-.8,6.554-5.219,12.7-11.423,14.96A17.617,17.617,0,0,1,144.453,172.871Z" transform="translate(43.162 -72.798)" fill="#541413"/>
              </g>
              <path id="パス_899" data-name="パス 899" d="M115.918,130.27s9.7,41.764,10.7,34.921,4.741-35.612,4.741-35.612Z" transform="translate(68.605 2.052)" fill="#541413"/>
              <path id="パス_900" data-name="パス 900" d="M155.654,161.914s-38.91-16.136-49.334,4.3c-11.406,22.363,6.487,38.154,29.713,35.988s47.1-1.8,56.176-6.653c12.846-6.875,24.448-26.124,9.062-38.889S155.654,161.914,155.654,161.914Z" transform="translate(43.453 42.413)" fill="#fcfcfc"/>
              <path id="パス_901" data-name="パス 901" d="M115.383,167.342s2.047,9.543,14.336,9.995c9.665.356,15.639-10.8,15.639-10.8L132.6,156.143Z" transform="translate(67.58 55.939)" fill="#e13b40"/>
              <path id="パス_902" data-name="パス 902" d="M111.662,156.125c-2.082,3.522.962,7.805,5.957,9.406a22.328,22.328,0,0,0,15.759-1.446,19.744,19.744,0,0,0,9.2-9.307c2.265,5.962,9.992,11.021,19.054,11.342s18.29-4.945,18.135-11.12c.207,6.108-6.528,14.788-15.2,16.47s-18.453-3.8-22.806-9.1a26.559,26.559,0,0,1-14.619,7.589c-6.088.988-13.179-.484-16.319-4.12S109.942,156.624,111.662,156.125Z" transform="translate(55.827 53.324)" fill="#6d261a"/>
              <path id="パス_903" data-name="パス 903" d="M117.443,158.249c-.061-3.344,4.86-6.146,10.986-6.257s11.146,2.51,11.208,5.855-4.86,6.143-10.986,6.254S117.5,161.59,117.443,158.249Z" transform="translate(71.526 47.981)" fill="#772616"/>
            </g>
            <path id="パス_904" data-name="パス 904" d="M11685.086,14552.687l-21.856,1.781,5.105-14.825,25.332-26.46,9.066-2.59,2.267,3.4Z" fill="#fcfcfc"/>
            <path id="パス_905" data-name="パス 905" d="M11693.216,14546.675l11.785,7.793,2.357-16.071-4.853-4.738.809-5.267-.809-4.475-4.823-1.579-12.619-7.647-6.015-3.392h-2.008l-2.478,1.884-9.066-2.59-2.267,3.4Z" transform="translate(101.999)" fill="#fcfcfc"/>
          </g>
        </g>
        <path id="パス_906" data-name="パス 906" d="M136.755,139.465c1.2-2.853,2.9-6.113,5.971-6.517,2.989-.394,5.628,2.419,6.168,5.384s-.441,5.971-1.411,8.824A22.351,22.351,0,0,0,136.755,139.465Z" transform="translate(12734.048 14540.456)" fill="#541413"/>
      </g>
      <g id="グループ_404" data-name="グループ 404" transform="translate(1512 546) rotate(90)">
        <g id="グループ_403" data-name="グループ 403" clip-path="url(#clip-path)">
          <path id="パス_1706" data-name="パス 1706" d="M19.067,5.838A5.538,5.538,0,0,1,23.423,9.95a11.206,11.206,0,0,1-.005,5.423c-.164.5.16.972.2,1.477a9.642,9.642,0,0,1-1.065,4.772c-.595,1.267-1.594,2.744-3.14,2.826a8.128,8.128,0,0,1-3.354-.351,4.435,4.435,0,0,1-2.549-2.939c-.648-1.748-2.108-2.562-3.39-3.421a2.99,2.99,0,0,1-1.507-2.688c.069-1.882.659-3.536,2.837-4.2a7.239,7.239,0,0,0,4.26-3.014,4.069,4.069,0,0,1,3.361-1.993" fill="#541413"/>
          <path id="パス_1707" data-name="パス 1707" d="M12.187,26.344a3.763,3.763,0,0,1-2.633,3.471,2.347,2.347,0,0,1-3.2-2.829c.272-1.383.709-2.9,2.495-3.371,1.52-.4,3.653,1.261,3.339,2.729" fill="#541413"/>
          <path id="パス_1708" data-name="パス 1708" d="M3,22.541A3.472,3.472,0,0,1,.217,20.905c-.556-.67.093-1.392.435-2.017a4.459,4.459,0,0,1,4.6-1.723,2.434,2.434,0,0,1,1,3.887A4.2,4.2,0,0,1,3,22.541" fill="#541413"/>
          <path id="パス_1709" data-name="パス 1709" d="M14.534,3.108c-.174,2.277-.916,3.327-2.286,3.233C10.6,6.229,8.746,4.192,8.89,2.663A2.684,2.684,0,0,1,11.723.017c1.381.17,2.927,1.689,2.811,3.091" fill="#541413"/>
          <path id="パス_1710" data-name="パス 1710" d="M4.066,6.122A3.015,3.015,0,0,1,7.257,9.215a3.036,3.036,0,0,1-2.579,2.232C2.805,11.386.657,9.779.762,8.428c.1-1.31,1.566-2.353,3.3-2.306" fill="#541413"/>
        </g>
      </g>
    </g>
    <g id="グループ_1347" data-name="グループ 1347">
      <path id="パス_907" data-name="パス 907" d="M636.67,129.439l9.876-7.265a5.973,5.973,0,0,1,8.076,1.018l7.771,9.495a8.137,8.137,0,0,0,8.756,2.251l11.387-4.575a5.977,5.977,0,0,1,7.565,3l5.171,11.131a8.1,8.1,0,0,0,7.911,4.356l12.188-1.608a5.979,5.979,0,0,1,6.586,4.782l2.223,12.071a8.152,8.152,0,0,0,6.592,6.19l12.18,1.475a5.979,5.979,0,0,1,5.193,6.274l-.837,12.231a8.122,8.122,0,0,0,4.846,7.635l11.423,4.457a5.967,5.967,0,0,1,3.475,7.36l-3.853,11.66a8.122,8.122,0,0,0,2.794,8.6l9.971,7.156a5.98,5.98,0,0,1,1.526,7.995l-6.638,10.33a8.118,8.118,0,0,0,.563,9.023l7.868,9.412a5.974,5.974,0,0,1-.512,8.124l-8.978,8.348a8.14,8.14,0,0,0-1.7,8.891l5.282,11.072a5.973,5.973,0,0,1-2.511,7.741l-10.787,5.849a8.109,8.109,0,0,0-3.845,8.186l2.365,12.027a5.986,5.986,0,0,1-4.358,6.875l-11.912,2.986a8.127,8.127,0,0,0-5.763,6.976l-.712,12.245a5.97,5.97,0,0,1-5.926,5.578l-12.269-.066a8.124,8.124,0,0,0-7.319,5.316l-3.728,11.68a5.975,5.975,0,0,1-7.126,3.922l-11.861-3.114a8.107,8.107,0,0,0-8.416,3.333l-6.527,10.4a5.962,5.962,0,0,1-7.875,2.022L654.088,406.3a8.121,8.121,0,0,0-8.972,1.144l-8.9,8.446a5.976,5.976,0,0,1-8.134.008l-8.912-8.457a8.13,8.13,0,0,0-8.98-1.141l-10.72,5.989a5.966,5.966,0,0,1-7.875-2.029l-6.533-10.4a8.087,8.087,0,0,0-8.4-3.333L564.8,399.644a5.985,5.985,0,0,1-7.135-3.922l-3.728-11.68a8.115,8.115,0,0,0-7.327-5.316l-12.267.066a5.993,5.993,0,0,1-5.941-5.578l-.689-12.245a8.149,8.149,0,0,0-5.772-6.976l-11.9-2.986a5.984,5.984,0,0,1-4.356-6.875l2.363-12.027a8.132,8.132,0,0,0-3.845-8.186l-10.8-5.849a5.979,5.979,0,0,1-2.5-7.741l5.275-11.072a8.115,8.115,0,0,0-1.689-8.888l-8.986-8.351a5.966,5.966,0,0,1-.511-8.124l7.868-9.412a8.133,8.133,0,0,0,.57-9.023l-6.645-10.33a5.988,5.988,0,0,1,1.541-7.991l9.972-7.163a8.108,8.108,0,0,0,2.785-8.6l-3.859-11.66a5.975,5.975,0,0,1,3.466-7.36l11.43-4.457a8.1,8.1,0,0,0,4.846-7.635l-.837-12.231a5.988,5.988,0,0,1,5.193-6.274l12.187-1.475a8.127,8.127,0,0,0,6.586-6.19l2.23-12.071a5.986,5.986,0,0,1,6.585-4.782l12.18,1.608a8.1,8.1,0,0,0,7.919-4.356l5.165-11.131a5.984,5.984,0,0,1,7.571-3l11.394,4.575a8.125,8.125,0,0,0,8.748-2.251l7.765-9.495a5.987,5.987,0,0,1,8.082-1.024l9.9,7.274A8.092,8.092,0,0,0,636.67,129.439Z" transform="translate(981.688 155.505)" fill="#ffeb3b"/>
      <g id="グループ_317" data-name="グループ 317" transform="matrix(0.995, 0.105, -0.105, 0.995, 1211.729, -4852.462)">
        <text id="もれなく" transform="translate(884.929 5207.426)" fill="#6a6a6a" font-size="31" font-family="SourceHanSansJP-Bold, Source Han Sans JP" font-weight="700"><tspan x="0" y="0">もれなく</tspan></text>
        <text id="_" data-name="○○○○○○" transform="translate(853.296 5243.852)" fill="#6a6a6a" font-size="31" font-family="SourceHanSansJP-Bold, Source Han Sans JP" font-weight="700"><tspan x="0" y="0">○○○○○○</tspan></text>
        <text id="プレゼント_" data-name="プレゼント！" transform="translate(837 5283.153)" fill="#ea6552" font-size="35" font-family="SourceHanSansJP-Bold, Source Han Sans JP" font-weight="700"><tspan x="0" y="0">プレゼント！</tspan></text>
        <text id="_2" data-name="（※）" transform="translate(1024.389 5282.421)" fill="#6a6a6a" font-size="18" font-family="SourceHanSansJP-Bold, Source Han Sans JP" font-weight="700"><tspan x="0" y="0">（※）</tspan></text>
        <text id="おまとめ成立で" transform="translate(837 5171)" fill="#6a6a6a" font-size="31" font-family="SourceHanSansJP-Bold, Source Han Sans JP" font-weight="700"><tspan x="0" y="0">おまとめ</tspan><tspan y="0">成立</tspan><tspan y="0">で</tspan></text>
      </g>
    </g>
    <g id="パス_1181" data-name="パス 1181" transform="translate(137.5 573)" fill="#f8f8f8">
      <path d="M 1612 231 L 33 231 C 29.08333396911621 231 25.28583335876465 230.2337493896484 21.71312522888184 228.7227020263672 C 18.26020812988281 227.2622985839844 15.15854167938232 225.1706237792969 12.49395847320557 222.5060424804688 C 9.829375267028809 219.8414611816406 7.737708568572998 216.7397918701172 6.277291774749756 213.2868804931641 C 4.766250133514404 209.7141723632812 4 205.9166717529297 4 202 L 4 33 C 4 29.08333396911621 4.766250133514404 25.28583335876465 6.277291774749756 21.71312522888184 C 7.737708568572998 18.26020812988281 9.829375267028809 15.15854167938232 12.49395847320557 12.49395847320557 C 15.15854167938232 9.829375267028809 18.26020812988281 7.737708568572998 21.71312522888184 6.277291774749756 C 25.28583335876465 4.766250133514404 29.08333396911621 4 33 4 L 1612 4 C 1615.916625976562 4 1619.714111328125 4.766250133514404 1623.286865234375 6.277291774749756 C 1626.73974609375 7.737708568572998 1629.841430664062 9.829375267028809 1632.505981445312 12.49395847320557 C 1635.170654296875 15.15854167938232 1637.262329101562 18.26020812988281 1638.72265625 21.71312522888184 C 1640.233764648438 25.28583335876465 1641 29.08333396911621 1641 33 L 1641 202 C 1641 205.9166717529297 1640.233764648438 209.7141723632812 1638.72265625 213.2868804931641 C 1637.262329101562 216.7397918701172 1635.170654296875 219.8414611816406 1632.505981445312 222.5060424804688 C 1629.841430664062 225.1706237792969 1626.73974609375 227.2622985839844 1623.286865234375 228.7227020263672 C 1619.714111328125 230.2337493896484 1615.916625976562 231 1612 231 Z" stroke="none"/>
      <path d="M 33 8 C 19.2149658203125 8 8 19.21499633789062 8 33 L 8 202 C 8 215.7850036621094 19.2149658203125 227 33 227 L 1612 227 C 1625.785034179688 227 1637 215.7850036621094 1637 202 L 1637 33 C 1637 19.21499633789062 1625.785034179688 8 1612 8 L 33 8 M 33 0 L 1612 0 C 1630.225463867188 0 1645 14.77458190917969 1645 33 L 1645 202 C 1645 220.2254180908203 1630.225463867188 235 1612 235 L 33 235 C 14.7745361328125 235 0 220.2254180908203 0 202 L 0 33 C 0 14.77458190917969 14.7745361328125 0 33 0 Z" stroke="none" fill="#707070"/>
    </g>
    <g id="グループ_307" data-name="グループ 307" transform="translate(-0.5 -80)">
      <text id="実質_金利" data-name="実質
金利" transform="translate(242 764)" fill="#6a6a6a" font-size="26" font-family="SourceHanSansJP-Bold, Source Han Sans JP" font-weight="700"><tspan x="0" y="0">実質</tspan><tspan x="0" y="37">金利</tspan></text>
      <text id="お借入_限度額" data-name="お借入
限度額" transform="translate(809 762)" fill="#6a6a6a" font-size="26" font-family="SourceHanSansJP-Bold, Source Han Sans JP" font-weight="700"><tspan x="0" y="0">お</tspan><tspan y="0">借入</tspan><tspan x="0" y="37">限度額</tspan></text>
      <text id="事前審_査機関" data-name="事前審
査機関" transform="translate(1378 760)" fill="#6a6a6a" font-size="26" font-family="SourceHanSansJP-Bold, Source Han Sans JP" font-weight="700"><tspan x="0" y="0">事前審</tspan><tspan x="0" y="37">査機関</tspan></text>
      <text id="年" transform="translate(357 798)" fill="#6a6a6a" font-size="36" font-family="SourceHanSansJP-Bold, Source Han Sans JP" font-weight="700"><tspan x="0" y="0">年</tspan></text>
      <text id="_3" data-name="%" transform="translate(718 798)" fill="#6a6a6a" font-size="36" font-family="SourceHanSansJP-Bold, Source Han Sans JP" font-weight="700"><tspan x="0" y="0">%</tspan></text>
      <text id="最高" transform="translate(934 796)" fill="#6a6a6a" font-size="36" font-family="SourceHanSansJP-Bold, Source Han Sans JP" font-weight="700"><tspan x="0" y="0">最高</tspan></text>
      <text id="最短" transform="translate(1503 794)" fill="#6a6a6a" font-size="36" font-family="SourceHanSansJP-Bold, Source Han Sans JP" font-weight="700"><tspan x="0" y="0">最短</tspan></text>
      <text id="万円" transform="translate(1231 796)" fill="#6a6a6a" font-size="36" font-family="SourceHanSansJP-Bold, Source Han Sans JP" font-weight="700"><tspan x="0" y="0">万円</tspan></text>
      <text id="日" transform="translate(1663 796)" fill="#6a6a6a" font-size="36" font-family="SourceHanSansJP-Bold, Source Han Sans JP" font-weight="700"><tspan x="0" y="0">日</tspan></text>
      <path id="パス_1711" data-name="パス 1711" d="M6.4,0h34.71V-9.282H30.264V-57.8h-8.5c-3.666,2.34-7.644,3.822-13.416,4.914v7.1H18.8v36.5H6.4ZM58.578,1.092A7.183,7.183,0,0,0,65.754-6.4a7.138,7.138,0,0,0-7.176-7.488c-4.056,0-7.1,3.2-7.1,7.488A7.168,7.168,0,0,0,58.578,1.092Zm35.724,0c11.778,0,19.5-10.3,19.5-30.186S106.08-58.812,94.3-58.812s-19.578,9.75-19.578,29.718C74.724-9.2,82.524,1.092,94.3,1.092Zm0-8.97c-4.992,0-8.736-4.992-8.736-21.216,0-16.146,3.744-20.826,8.736-20.826s8.658,4.68,8.658,20.826C102.96-12.87,99.294-7.878,94.3-7.878Z" transform="translate(393 800)" fill="#6a6a6a"/>
      <path id="パス_1712" data-name="パス 1712" d="M21.372,1.092c11,0,20.28-6.162,20.28-16.77,0-7.566-4.992-12.4-11.466-14.2v-.39c6.084-2.418,9.594-6.942,9.594-13.182,0-9.828-7.566-15.366-18.72-15.366-6.786,0-12.324,2.73-17.316,7.1l5.85,7.02c3.432-3.2,6.786-5.07,10.92-5.07,4.914,0,7.722,2.652,7.722,7.176,0,5.148-3.432,8.814-14.04,8.814v8.19c12.558,0,15.912,3.588,15.912,9.2,0,5.226-3.978,8.112-9.828,8.112-5.226,0-9.438-2.574-12.87-5.928L2.028-6.942C6.084-2.34,12.246,1.092,21.372,1.092Zm37.206,0A7.183,7.183,0,0,0,65.754-6.4a7.138,7.138,0,0,0-7.176-7.488c-4.056,0-7.1,3.2-7.1,7.488A7.168,7.168,0,0,0,58.578,1.092Zm35.724,0c11.778,0,19.5-10.3,19.5-30.186S106.08-58.812,94.3-58.812s-19.578,9.75-19.578,29.718C74.724-9.2,82.524,1.092,94.3,1.092Zm0-8.97c-4.992,0-8.736-4.992-8.736-21.216,0-16.146,3.744-20.826,8.736-20.826s8.658,4.68,8.658,20.826C102.96-12.87,99.294-7.878,94.3-7.878Z" transform="translate(593 800)" fill="#6a6a6a"/>
      <path id="パス_1713" data-name="パス 1713" d="M21.528,1.092c10.686,0,20.2-7.41,20.2-20.28,0-12.558-8.112-18.33-17.784-18.33A15.16,15.16,0,0,0,17-35.88L18.1-48.126H39.078V-57.8H8.19L6.63-29.718l5.226,3.432c3.354-2.184,5.226-3.042,8.658-3.042,5.85,0,9.75,3.744,9.75,10.452,0,6.786-4.212,10.608-10.218,10.608-5.382,0-9.438-2.652-12.714-5.85l-5.3,7.332A26.307,26.307,0,0,0,21.528,1.092ZM52.494,16.614c9.438-3.12,14.742-10.062,14.742-19.188,0-7.1-2.964-11.31-8.268-11.31-4.056,0-7.41,2.652-7.41,6.786,0,4.368,3.432,6.786,7.176,6.786h.7c.078,4.368-3.276,8.424-9.36,10.686ZM94.3,1.092c11.778,0,19.5-10.3,19.5-30.186S106.08-58.812,94.3-58.812s-19.578,9.75-19.578,29.718C74.724-9.2,82.524,1.092,94.3,1.092Zm0-8.97c-4.992,0-8.736-4.992-8.736-21.216,0-16.146,3.744-20.826,8.736-20.826s8.658,4.68,8.658,20.826C102.96-12.87,99.294-7.878,94.3-7.878Zm45.942,8.97c11.778,0,19.5-10.3,19.5-30.186s-7.722-29.718-19.5-29.718-19.578,9.75-19.578,29.718C120.666-9.2,128.466,1.092,140.244,1.092Zm0-8.97c-4.992,0-8.736-4.992-8.736-21.216,0-16.146,3.744-20.826,8.736-20.826s8.658,4.68,8.658,20.826C148.9-12.87,145.236-7.878,140.244-7.878Zm45.942,8.97c11.778,0,19.5-10.3,19.5-30.186s-7.722-29.718-19.5-29.718-19.578,9.75-19.578,29.718C166.608-9.2,174.408,1.092,186.186,1.092Zm0-8.97c-4.992,0-8.736-4.992-8.736-21.216,0-16.146,3.744-20.826,8.736-20.826s8.658,4.68,8.658,20.826C194.844-12.87,191.178-7.878,186.186-7.878Z" transform="translate(1014 796)" fill="#6a6a6a"/>
      <path id="パス_1714" data-name="パス 1714" d="M38.61,1.014c11.466,0,21.138-6.24,21.138-16.38,0-7.8-4.914-12.948-11.466-14.586v-.312c6.4-2.028,9.984-6.864,9.984-13.494,0-9.048-7.8-15.132-20.2-15.132-7.956,0-15.366,3.432-21.372,9.126l6.006,7.02c4.758-4.914,9.906-7.02,14.976-7.02,6.474,0,9.828,3.042,9.828,7.176,0,4.914-4.836,8.892-17,8.892v8.19c13.962,0,18.33,3.588,18.33,9.2,0,4.836-4.524,7.956-10.92,7.956a23.243,23.243,0,0,1-16.77-7.878L15.522-9.048C20.124-3.666,27.612,1.014,38.61,1.014Z" transform="translate(1585 796)" fill="#6a6a6a"/>
      <path id="パス_1715" data-name="パス 1715" d="M35.49-26.286c5.3,5.772,11,8.58,18.408,8.58,8.346,0,15.99-4.68,21.216-14.352l-8.58-4.68c-2.964,5.538-7.41,9.36-12.4,9.36-5.382,0-8.268-2.028-11.622-5.616-5.3-5.772-11-8.58-18.408-8.58-8.346,0-15.99,4.68-21.216,14.352l8.58,4.68c2.964-5.538,7.41-9.36,12.4-9.36C29.328-31.9,32.136-29.8,35.49-26.286Z" transform="translate(515 800)" fill="#6a6a6a"/>
      <g id="長方形_79" data-name="長方形 79" transform="translate(214 719)" fill="none" stroke="#6a6a6a" stroke-width="5">
        <rect width="107" height="103" stroke="none"/>
        <rect x="2.5" y="2.5" width="102" height="98" fill="none"/>
      </g>
      <g id="長方形_80" data-name="長方形 80" transform="translate(794 720)" fill="none" stroke="#6a6a6a" stroke-width="5">
        <rect width="107" height="103" stroke="none"/>
        <rect x="2.5" y="2.5" width="102" height="98" fill="none"/>
      </g>
      <g id="長方形_81" data-name="長方形 81" transform="translate(1363 718)" fill="none" stroke="#6a6a6a" stroke-width="5">
        <rect width="107" height="103" stroke="none"/>
        <rect x="2.5" y="2.5" width="102" height="98" fill="none"/>
      </g>
    </g>
  </g>
</svg>
