<svg xmlns="http://www.w3.org/2000/svg" xmlns:xlink="http://www.w3.org/1999/xlink" width="352.236" height="366.509" viewBox="0 0 352.236 366.509">
  <defs>
    <clipPath id="clip-path">
      <rect id="長方形_168" data-name="長方形 168" width="14.575" height="18.384" fill="#541413"/>
    </clipPath>
  </defs>
  <g id="グループ_1483" data-name="グループ 1483" transform="translate(-7.764 -268.491)">
    <g id="グループ_1357" data-name="グループ 1357" transform="translate(-1172.465 -149.455)">
      <g id="グループ_322" data-name="グループ 322" transform="translate(1186.465 452)">
        <g id="楕円形_40" data-name="楕円形 40" transform="translate(165.928 48.562)" fill="#fcfcfc" stroke="#707070" stroke-width="5">
          <ellipse cx="20.548" cy="29.136" rx="20.548" ry="29.136" stroke="none"/>
          <ellipse cx="20.548" cy="29.136" rx="18.048" ry="26.636" fill="none"/>
        </g>
        <g id="グループ_316" data-name="グループ 316" transform="translate(0 0)">
          <g id="グループ_315" data-name="グループ 315" transform="translate(0 0)">
            <g id="グループ_314" data-name="グループ 314" transform="translate(0 0)">
              <g id="グループ_311" data-name="グループ 311" transform="translate(109.77 29.053)">
                <path id="パス_879" data-name="パス 879" d="M151.8,157.693c-3.52,2.067-7.7,1.49-9.328-1.291s-.1-6.71,3.416-8.777,7.7-1.488,9.328,1.293S155.317,155.627,151.8,157.693Z" transform="translate(-141.815 -145.333)" fill="#ffb300"/>
                <path id="パス_880" data-name="パス 880" d="M152.073,157.1c-3.52,2.067-7.7,1.488-9.328-1.293s-.1-6.708,3.416-8.776,7.7-1.488,9.328,1.293S155.592,155.039,152.073,157.1Z" transform="translate(-141.598 -145.797)" fill="#ffd500"/>
                <path id="パス_881" data-name="パス 881" d="M149.818,147.322s-1.114-1.314-3.682-.579" transform="translate(-138.409 -145.228)" fill="rgba(0,0,0,0)" stroke="#fff589" stroke-linecap="round" stroke-miterlimit="10" stroke-width="1.823"/>
                <line id="線_25" data-name="線 25" x2="2.619" y2="4.461" transform="translate(8.757 2.539)" fill="none" stroke="#ffbe00" stroke-linecap="round" stroke-miterlimit="10" stroke-width="1.215"/>
                <line id="線_26" data-name="線 26" x2="2.619" y2="4.461" transform="translate(6.336 3.96)" fill="none" stroke="#ffbe00" stroke-linecap="round" stroke-miterlimit="10" stroke-width="1.215"/>
                <line id="線_27" data-name="線 27" x2="2.619" y2="4.461" transform="translate(3.723 5.495)" fill="none" stroke="#ffbe00" stroke-linecap="round" stroke-miterlimit="10" stroke-width="1.215"/>
              </g>
              <g id="グループ_312" data-name="グループ 312" transform="translate(117.701 57.225)">
                <path id="パス_882" data-name="パス 882" d="M158.288,169.54c-.043,4.081-2.69,7.361-5.914,7.327s-5.8-3.369-5.76-7.45,2.691-7.361,5.916-7.329S158.331,165.459,158.288,169.54Z" transform="translate(-145.964 -161.126)" fill="#ffb300"/>
                <path id="パス_883" data-name="パス 883" d="M157.927,169c-.043,4.081-2.692,7.361-5.916,7.327s-5.8-3.369-5.76-7.45,2.692-7.361,5.916-7.327S157.97,164.919,157.927,169Z" transform="translate(-146.25 -161.55)" fill="#ffd500"/>
                <path id="パス_884" data-name="パス 884" d="M149.69,162.612s-1.7.279-2.395,2.858" transform="translate(-145.426 -160.712)" fill="rgba(0,0,0,0)" stroke="#fff589" stroke-linecap="round" stroke-miterlimit="10" stroke-width="1.823"/>
                <line id="線_28" data-name="線 28" x2="5.173" y2="0.054" transform="translate(3.277 4.402)" fill="none" stroke="#ffbe00" stroke-linecap="round" stroke-miterlimit="10" stroke-width="1.215"/>
                <line id="線_29" data-name="線 29" x2="5.173" y2="0.054" transform="translate(3.248 7.211)" fill="none" stroke="#ffbe00" stroke-linecap="round" stroke-miterlimit="10" stroke-width="1.215"/>
                <line id="線_30" data-name="線 30" x2="5.173" y2="0.054" transform="translate(3.216 10.24)" fill="none" stroke="#ffbe00" stroke-linecap="round" stroke-miterlimit="10" stroke-width="1.215"/>
              </g>
              <g id="グループ_313" data-name="グループ 313" transform="translate(0 0)">
                <path id="パス_885" data-name="パス 885" d="M210.545,172.334c-3.79-13.883-3.527-11.916-13.107-22.655a61.635,61.635,0,0,0-45.474-20.127,65.5,65.5,0,0,0-45.953,19.461c-9.058,14.731-7.942,12.274-8.976,30.334-4.571,2.216-9.358,2.017-15.965,5.188,6.342,2.51,9.275,3.206,10.592,4.307-4.464,4.124-6.7,4.469-10.592,10.77,10.087,0,9.071,1.016,13.644,0-1.321,3.253-5.227,8.889-6.123,12.552,1.1-2.845,5.491-5.412,8.443-4.652s5.365,2.815,7.8,4.652c12.648,9.546,28.571,14.42,44.417,14.511s31.571-4.475,45.393-12.224c7.052-3.954,14.137-9.444,15.9-17.335a30.3,30.3,0,0,1,15.15,1.9,26.845,26.845,0,0,0-10.366-8.636,15.663,15.663,0,0,1,14.749-.451,46.422,46.422,0,0,0-13.023-10.586,24.129,24.129,0,0,1,13.594-2.974C225.492,173.734,214.744,173.67,210.545,172.334Z" transform="translate(-81.07 -129.552)" fill="#fcfcfc" stroke="#707070" stroke-width="5"/>
                <path id="パス_886" data-name="パス 886" d="M98.141,161.574c-1.778-8.334-3.562-16.936-1.969-25.308.429-2.259,1.261-4.682,3.248-5.837,2.636-1.533,6.081-.1,8.25,2.044s3.636,4.932,5.914,6.959C106.3,145.384,99.08,162.121,98.141,161.574Z" transform="translate(-68.518 -129.365)" fill="#fff" stroke="#707070" stroke-width="5"/>
                <path id="パス_887" data-name="パス 887" d="M132.857,140.309c2.947-5.78,5.678-6.5,11.523-9.637,1.7-.91,9.521-1.827,9.971,5.652.394,6.512-.045,9.669-1.273,16.078C148.947,147.24,139.32,139.958,132.857,140.309Z" transform="translate(-41.561 -129.648)" fill="#fff" stroke="#707070" stroke-width="5"/>
                <path id="パス_888" data-name="パス 888" d="M136.286,149.641" transform="translate(-36.404 -113.714)" fill="#8e3920"/>
                <circle id="楕円形_39" data-name="楕円形 39" cx="5.14" cy="5.14" r="5.14" transform="matrix(0.112, -0.994, 0.994, 0.112, 41.321, 35.353)" fill="#541413"/>
                <path id="パス_889" data-name="パス 889" d="M129.8,148.453a5.14,5.14,0,1,1,5.839,4.33A5.14,5.14,0,0,1,129.8,148.453Z" transform="translate(-41.561 -119.299)" fill="#541413"/>
                <path id="パス_890" data-name="パス 890" d="M99.028,140.967a5.664,5.664,0,0,1-.989-5.07,4.269,4.269,0,0,1,4.038-2.958,3.436,3.436,0,0,1,3.241,3.539A14.335,14.335,0,0,0,99.028,140.967Z" transform="translate(-65.516 -124.24)" fill="#541413"/>
                <path id="パス_892" data-name="パス 892" d="M110.029,138.1a23.267,23.267,0,0,1,32.03-.921C132.32,132.479,120.473,133.54,110.029,138.1Z" transform="translate(-57.105 -126.996)" fill="#541413"/>
                <path id="パス_893" data-name="パス 893" d="M110.5,141.276a23.267,23.267,0,0,1,32.03-.921C132.792,135.655,120.943,136.716,110.5,141.276Z" transform="translate(-56.733 -124.492)" fill="#541413"/>
                <path id="パス_894" data-name="パス 894" d="M111,144.659a23.269,23.269,0,0,1,32.032-.921C133.294,139.037,121.446,140.1,111,144.659Z" transform="translate(-56.338 -121.825)" fill="#541413"/>
                <path id="パス_895" data-name="パス 895" d="M87.392,162.911a145.9,145.9,0,0,0,16.189,2.484A14.887,14.887,0,0,1,92.789,167C90.522,166.47,88.161,165.118,87.392,162.911Z" transform="translate(-71.885 -107.546)" fill="#541413"/>
                <path id="パス_896" data-name="パス 896" d="M87.354,166.76a30.357,30.357,0,0,0,15.833.753c-.238,1.42-1.724,2.218-3.038,2.8-2.491,1.112-5.342,2.234-7.856,1.177C90.276,170.644,89.058,168.616,87.354,166.76Z" transform="translate(-71.915 -104.511)" fill="#541413"/>
                <path id="パス_897" data-name="パス 897" d="M144.5,166.6c6.658-1.661,10.777-4.276,15.389-9.1a3.292,3.292,0,0,1,.338,3.2,7.346,7.346,0,0,1-2.016,2.663,19.9,19.9,0,0,1-8.259,4.521,6.947,6.947,0,0,1-3.01.27A3.747,3.747,0,0,1,144.5,166.6Z" transform="translate(-29.927 -111.199)" fill="#541413"/>
                <path id="パス_898" data-name="パス 898" d="M144.453,168.789a30.475,30.475,0,0,0,18.091-6.478,11.286,11.286,0,0,1-7.007,9.176A10.806,10.806,0,0,1,144.453,168.789Z" transform="translate(-29.965 -107.405)" fill="#541413"/>
              </g>
              <path id="パス_899" data-name="パス 899" d="M115.918,130s5.95,25.617,6.562,21.42,2.908-21.843,2.908-21.843Z" transform="translate(-52.462 -128.304)" fill="#541413"/>
              <path id="パス_900" data-name="パス 900" d="M135.215,158.114s-23.867-9.9-30.26,2.636c-7,13.717,3.979,23.4,18.226,22.074s28.89-1.1,34.457-4.081c7.88-4.217,15-16.024,5.558-23.854S135.215,158.114,135.215,158.114Z" transform="translate(-62.813 -112.249)" fill="#fcfcfc"/>
              <path id="パス_901" data-name="パス 901" d="M115.383,163.012s1.255,5.853,8.794,6.131c5.929.218,9.593-6.624,9.593-6.624l-7.828-6.376Z" transform="translate(-52.884 -105.521)" fill="#e13b40"/>
              <path id="パス_902" data-name="パス 902" d="M110.729,155.6c-1.277,2.16.59,4.788,3.654,5.769a13.7,13.7,0,0,0,9.666-.887,12.11,12.11,0,0,0,5.641-5.709c1.39,3.657,6.129,6.76,11.687,6.957S152.6,158.7,152.5,154.914c.127,3.747-4,9.071-9.325,10.1s-11.319-2.328-13.989-5.583a16.291,16.291,0,0,1-8.967,4.655c-3.734.606-8.084-.3-10.01-2.527S109.674,155.91,110.729,155.6Z" transform="translate(-57.721 -106.597)" fill="#6d261a"/>
              <path id="パス_903" data-name="パス 903" d="M117.443,155.829c-.038-2.051,2.981-3.77,6.739-3.838s6.837,1.54,6.875,3.591-2.981,3.768-6.739,3.836S117.481,157.878,117.443,155.829Z" transform="translate(-51.26 -108.796)" fill="#772616"/>
            </g>
            <path id="パス_904" data-name="パス 904" d="M11676.635,14536.411l-13.406,1.095,3.131-9.095,14.5-16.22,6.6-1.6,1.391,2.087Z" transform="translate(-11639.758 -14502.255)" fill="#fcfcfc"/>
            <path id="パス_905" data-name="パス 905" d="M11681.622,14532.726l7.23,4.78,2.84-9.333-4.372-3.433.5-3.23-.5-2.745-2.019-1.552-5.379-3.316-3.76-2.211-3.23-.66h-1.231l-1.521,1.154-5.561-1.588-1.39,2.087,1,3.354Z" transform="translate(-11577.194 -14502.255)" fill="#fcfcfc"/>
          </g>
        </g>
        <path id="パス_906" data-name="パス 906" d="M136.755,136.931c.735-1.75,1.781-3.75,3.662-4,1.833-.241,3.452,1.484,3.783,3.3a11,11,0,0,1-.866,5.413A13.71,13.71,0,0,0,136.755,136.931Z" transform="translate(-36.873 -127.166)" fill="#541413"/>
      </g>
      <g id="グループ_404" data-name="グループ 404" transform="translate(1382.142 509.658) rotate(90)">
        <g id="グループ_403" data-name="グループ 403" transform="translate(0 0)" clip-path="url(#clip-path)">
          <path id="パス_1706" data-name="パス 1706" d="M6.416,0A3.4,3.4,0,0,1,9.088,2.523a6.874,6.874,0,0,1,0,3.326c-.1.307.1.6.12.906a5.914,5.914,0,0,1-.653,2.927c-.365.777-.978,1.683-1.926,1.733A4.986,4.986,0,0,1,4.569,11.2,2.72,2.72,0,0,1,3.005,9.4,4.527,4.527,0,0,0,.926,7.3,1.834,1.834,0,0,1,0,5.651a2.445,2.445,0,0,1,1.74-2.579A4.44,4.44,0,0,0,4.355,1.224,2.5,2.5,0,0,1,6.416,0" transform="translate(5.279 3.58)" fill="#541413"/>
          <path id="パス_1707" data-name="パス 1707" d="M3.619,1.712A2.308,2.308,0,0,1,2,3.841,1.44,1.44,0,0,1,.041,2.105C.208,1.257.476.328,1.571.038,2.5-.21,3.812.811,3.619,1.712" transform="translate(3.856 14.447)" fill="#541413"/>
          <path id="パス_1708" data-name="パス 1708" d="M1.839,3.382a2.129,2.129,0,0,1-1.706-1C-.208,1.967.19,1.524.4,1.141A2.735,2.735,0,0,1,3.219.084a1.493,1.493,0,0,1,.616,2.384,2.577,2.577,0,0,1-2,.913" transform="translate(0 10.445)" fill="#541413"/>
          <path id="パス_1709" data-name="パス 1709" d="M3.467,1.907C3.36,3.3,2.9,3.947,2.065,3.89A2.49,2.49,0,0,1,0,1.634,1.646,1.646,0,0,1,1.743.011a2.065,2.065,0,0,1,1.724,1.9" transform="translate(5.448 0)" fill="#541413"/>
          <path id="パス_1710" data-name="パス 1710" d="M2.029,0A1.849,1.849,0,0,1,3.986,1.9,1.862,1.862,0,0,1,2.4,3.267C1.255,3.23-.062,2.244,0,1.415A1.842,1.842,0,0,1,2.029,0" transform="translate(0.465 3.754)" fill="#541413"/>
        </g>
      </g>
    </g>
    <g id="グループ_1358" data-name="グループ 1358" transform="translate(-1251.5 -13.389)">
      <path id="パス_907" data-name="パス 907" d="M555.688,125l4.65-3.42a2.812,2.812,0,0,1,3.8.479l3.659,4.47a3.831,3.831,0,0,0,4.122,1.06l5.361-2.154a2.814,2.814,0,0,1,3.562,1.411l2.434,5.241A3.813,3.813,0,0,0,587,134.135l5.738-.757a2.815,2.815,0,0,1,3.1,2.252l1.047,5.683a3.838,3.838,0,0,0,3.1,2.915l5.735.694a2.815,2.815,0,0,1,2.445,2.954l-.394,5.759a3.824,3.824,0,0,0,2.281,3.595l5.378,2.1a2.809,2.809,0,0,1,1.636,3.465l-1.814,5.49a3.824,3.824,0,0,0,1.315,4.05l4.694,3.369a2.815,2.815,0,0,1,.719,3.764l-3.125,4.864a3.822,3.822,0,0,0,.265,4.248l3.7,4.431a2.813,2.813,0,0,1-.241,3.825l-4.227,3.93a3.832,3.832,0,0,0-.8,4.186l2.487,5.213a2.812,2.812,0,0,1-1.182,3.645l-5.079,2.754a3.818,3.818,0,0,0-1.811,3.854l1.113,5.663a2.818,2.818,0,0,1-2.052,3.237l-5.609,1.406a3.827,3.827,0,0,0-2.713,3.285l-.335,5.765a2.811,2.811,0,0,1-2.79,2.627l-5.777-.031a3.825,3.825,0,0,0-3.446,2.5l-1.755,5.5a2.813,2.813,0,0,1-3.355,1.847l-5.584-1.466a3.817,3.817,0,0,0-3.963,1.569l-3.073,4.9a2.807,2.807,0,0,1-3.708.952l-5.047-2.816a3.823,3.823,0,0,0-4.224.539l-4.189,3.977a2.814,2.814,0,0,1-3.829,0l-4.2-3.982a3.828,3.828,0,0,0-4.228-.537l-5.047,2.82a2.809,2.809,0,0,1-3.708-.955l-3.076-4.9a3.808,3.808,0,0,0-3.956-1.569l-5.584,1.466a2.818,2.818,0,0,1-3.359-1.847l-1.755-5.5a3.821,3.821,0,0,0-3.45-2.5l-5.776.031a2.821,2.821,0,0,1-2.8-2.627l-.324-5.765a3.837,3.837,0,0,0-2.717-3.285l-5.6-1.406a2.817,2.817,0,0,1-2.051-3.237l1.113-5.663a3.829,3.829,0,0,0-1.811-3.854l-5.086-2.754a2.815,2.815,0,0,1-1.179-3.645l2.483-5.213a3.821,3.821,0,0,0-.8-4.184l-4.231-3.932a2.809,2.809,0,0,1-.24-3.825l3.7-4.431a3.829,3.829,0,0,0,.268-4.248l-3.129-4.864a2.819,2.819,0,0,1,.726-3.763l4.7-3.373a3.817,3.817,0,0,0,1.311-4.048l-1.817-5.49a2.813,2.813,0,0,1,1.632-3.465l5.382-2.1a3.812,3.812,0,0,0,2.281-3.595l-.394-5.759a2.819,2.819,0,0,1,2.445-2.954l5.738-.694a3.827,3.827,0,0,0,3.1-2.915l1.05-5.683a2.818,2.818,0,0,1,3.1-2.252l5.735.757a3.814,3.814,0,0,0,3.728-2.051l2.432-5.241a2.817,2.817,0,0,1,3.565-1.411l5.365,2.154a3.825,3.825,0,0,0,4.119-1.06l3.656-4.47a2.819,2.819,0,0,1,3.805-.482l4.66,3.425A3.81,3.81,0,0,0,555.688,125Z" transform="translate(981.688 160.835)" fill="#ffeb3b"/>
      <g id="グループ_317" data-name="グループ 317" transform="matrix(0.995, 0.105, -0.105, 0.995, 1488.31, 305.153)">
        <text id="もれなく" transform="translate(23.912 35.173)" fill="#6a6a6a" font-size="15" font-family="SourceHanSansJP-Bold, Source Han Sans JP" font-weight="700"><tspan x="0" y="0">もれなく</tspan></text>
        <text id="_" data-name="○○○○○○" transform="translate(8.13 53.347)" fill="#6a6a6a" font-size="15" font-family="SourceHanSansJP-Bold, Source Han Sans JP" font-weight="700"><tspan x="0" y="0">○○○○○○</tspan></text>
        <text id="プレゼント_" data-name="プレゼント！" transform="translate(0 73.46)" fill="#ea6552" font-size="17" font-family="SourceHanSansJP-Bold, Source Han Sans JP" font-weight="700"><tspan x="0" y="0">プレゼント！</tspan></text>
        <text id="_2" data-name="（※）" transform="translate(93.491 72.073)" fill="#6a6a6a" font-size="8" font-family="SourceHanSansJP-Bold, Source Han Sans JP" font-weight="700"><tspan x="0" y="0">（※）</tspan></text>
        <text id="おまとめ成立で" transform="translate(0 17)" fill="#6a6a6a" font-size="15" font-family="SourceHanSansJP-Bold, Source Han Sans JP" font-weight="700"><tspan x="0" y="0">おまとめ</tspan><tspan y="0">成立</tspan><tspan y="0">で</tspan></text>
      </g>
    </g>
    <g id="長方形_1202" data-name="長方形 1202" transform="translate(14 380)" fill="#fff" stroke="#707070" stroke-width="5">
      <rect width="346" height="255" rx="17" stroke="none"/>
      <rect x="2.5" y="2.5" width="341" height="250" rx="14.5" fill="none"/>
    </g>
    <g id="グループ_1359" data-name="グループ 1359" transform="translate(-19909.416 6316)">
      <g id="グループ_1348" data-name="グループ 1348" transform="translate(19734.5 -6622.725)">
        <text id="実質_金利" data-name="実質
金利" transform="translate(230.491 742.852)" fill="#6a6a6a" font-size="13" font-family="SourceHanSansJP-Bold, Source Han Sans JP" font-weight="700"><tspan x="0" y="0">実質</tspan><tspan x="0" y="19">金利</tspan></text>
        <text id="年" transform="translate(292.113 761.023)" fill="#6a6a6a" font-size="19" font-family="SourceHanSansJP-Bold, Source Han Sans JP" font-weight="700"><tspan x="0" y="0">年</tspan></text>
        <text id="_3" data-name="%" transform="translate(491.831 761.023)" fill="#6a6a6a" font-size="19" font-family="SourceHanSansJP-Bold, Source Han Sans JP" font-weight="700"><tspan x="0" y="0">%</tspan></text>
        <path id="パス_1711" data-name="パス 1711" d="M6.4-26.275H25.6V-31.41h-6V-58.251H14.9a19.921,19.921,0,0,1-7.422,2.719v3.927h5.782v20.2H6.4Zm28.869.6a3.974,3.974,0,0,0,3.97-4.143,3.949,3.949,0,0,0-3.97-4.143,3.94,3.94,0,0,0-3.927,4.143A3.966,3.966,0,0,0,35.265-25.671Zm19.764,0c6.516,0,10.788-5.7,10.788-16.7S61.545-58.812,55.029-58.812,44.2-53.418,44.2-42.371C44.2-31.367,48.513-25.671,55.029-25.671Zm0-4.963c-2.762,0-4.833-2.762-4.833-11.737,0-8.933,2.071-11.522,4.833-11.522s4.79,2.589,4.79,11.522C59.819-33.4,57.791-30.633,55.029-30.633Z" transform="translate(321.172 789.64)" fill="#6a6a6a"/>
        <path id="パス_1712" data-name="パス 1712" d="M12.73-25.671c6.084,0,11.22-3.409,11.22-9.278,0-4.186-2.762-6.861-6.343-7.854v-.216c3.366-1.338,5.308-3.841,5.308-7.293,0-5.437-4.186-8.5-10.357-8.5a14.167,14.167,0,0,0-9.58,3.927L6.214-51c1.9-1.769,3.754-2.8,6.041-2.8,2.719,0,4.272,1.467,4.272,3.97,0,2.848-1.9,4.876-7.767,4.876v4.531c6.948,0,8.8,1.985,8.8,5.092,0,2.891-2.2,4.488-5.437,4.488a10.144,10.144,0,0,1-7.12-3.28L2.028-30.116C4.272-27.57,7.681-25.671,12.73-25.671Zm20.584,0a3.974,3.974,0,0,0,3.97-4.143,3.949,3.949,0,0,0-3.97-4.143,3.94,3.94,0,0,0-3.927,4.143A3.966,3.966,0,0,0,33.314-25.671Zm19.764,0c6.516,0,10.788-5.7,10.788-16.7S59.593-58.812,53.077-58.812,42.246-53.418,42.246-42.371C42.246-31.367,46.561-25.671,53.077-25.671Zm0-4.963c-2.762,0-4.833-2.762-4.833-11.737,0-8.933,2.071-11.522,4.833-11.522s4.79,2.589,4.79,11.522C57.867-33.4,55.839-30.633,53.077-30.633Z" transform="translate(421.771 789.64)" fill="#6a6a6a"/>
        <path id="パス_1715" data-name="パス 1715" d="M13.429-36.631a7.631,7.631,0,0,0,5.952,2.774c2.7,0,5.17-1.513,6.86-4.641L23.467-40.01c-.958,1.791-2.4,3.027-4.01,3.027A4.615,4.615,0,0,1,15.7-38.8a7.631,7.631,0,0,0-5.952-2.774c-2.7,0-5.17,1.513-6.86,4.641L5.66-35.42c.958-1.791,2.4-3.027,4.01-3.027A4.65,4.65,0,0,1,13.429-36.631Z" transform="translate(391.839 787.426)" fill="#6a6a6a"/>
        <g id="長方形_79" data-name="長方形 79" transform="translate(214 718.553)" fill="none" stroke="#6a6a6a" stroke-width="5">
          <rect width="59.196" height="56.983" stroke="none"/>
          <rect x="2.5" y="2.5" width="54.196" height="51.983" fill="none"/>
        </g>
      </g>
      <g id="グループ_1349" data-name="グループ 1349" transform="translate(19414.5 -6555.725)">
        <text id="お借入_限度額" data-name="お借入
限度額" transform="translate(545.176 742.745)" fill="#6a6a6a" font-size="13" font-family="SourceHanSansJP-Bold, Source Han Sans JP" font-weight="700"><tspan x="0" y="0">お</tspan><tspan y="0">借入</tspan><tspan x="0" y="19">限度額</tspan></text>
        <text id="最高" transform="translate(612.33 759.917)" fill="#6a6a6a" font-size="19" font-family="SourceHanSansJP-Bold, Source Han Sans JP" font-weight="700"><tspan x="0" y="0">最高</tspan></text>
        <text id="万円" transform="translate(783.642 759.917)" fill="#6a6a6a" font-size="19" font-family="SourceHanSansJP-Bold, Source Han Sans JP" font-weight="700"><tspan x="0" y="0">万円</tspan></text>
        <path id="パス_1713" data-name="パス 1713" d="M12.816-25.671c5.912,0,11.176-4.1,11.176-11.22,0-6.948-4.488-10.141-9.839-10.141a8.387,8.387,0,0,0-3.841.906l.6-6.775H22.525v-5.351H5.437L4.574-42.716l2.891,1.9a7.64,7.64,0,0,1,4.79-1.683c3.236,0,5.394,2.071,5.394,5.782,0,3.754-2.33,5.869-5.653,5.869a9.926,9.926,0,0,1-7.034-3.236L2.028-30.029A14.554,14.554,0,0,0,12.816-25.671Zm17.132,8.587C35.169-18.81,38.1-22.65,38.1-27.7c0-3.927-1.64-6.257-4.574-6.257a3.817,3.817,0,0,0-4.1,3.754,3.726,3.726,0,0,0,3.97,3.754h.388c.043,2.417-1.812,4.66-5.178,5.912Zm23.13-8.587c6.516,0,10.788-5.7,10.788-16.7S59.593-58.812,53.077-58.812,42.246-53.418,42.246-42.371C42.246-31.367,46.561-25.671,53.077-25.671Zm0-4.963c-2.762,0-4.833-2.762-4.833-11.737,0-8.933,2.071-11.522,4.833-11.522s4.79,2.589,4.79,11.522C57.867-33.4,55.839-30.633,53.077-30.633Zm25.417,4.963c6.516,0,10.788-5.7,10.788-16.7S85.01-58.812,78.494-58.812,67.663-53.418,67.663-42.371C67.663-31.367,71.978-25.671,78.494-25.671Zm0-4.963c-2.762,0-4.833-2.762-4.833-11.737,0-8.933,2.071-11.522,4.833-11.522s4.79,2.589,4.79,11.522C83.284-33.4,81.256-30.633,78.494-30.633Zm25.417,4.963c6.516,0,10.788-5.7,10.788-16.7s-4.272-16.441-10.788-16.441S93.08-53.418,93.08-42.371C93.08-31.367,97.395-25.671,103.911-25.671Zm0-4.963c-2.762,0-4.833-2.762-4.833-11.737,0-8.933,2.071-11.522,4.833-11.522s4.79,2.589,4.79,11.522C108.7-33.4,106.673-30.633,103.911-30.633Z" transform="translate(662.683 787.427)" fill="#6a6a6a"/>
        <g id="長方形_80" data-name="長方形 80" transform="translate(534.877 719.106)" fill="none" stroke="#6a6a6a" stroke-width="5">
          <rect width="59.196" height="56.983" stroke="none"/>
          <rect x="2.5" y="2.5" width="54.196" height="51.983" fill="none"/>
        </g>
      </g>
      <g id="グループ_1350" data-name="グループ 1350" transform="translate(19099.5 -6488.725)">
        <text id="事前審_査機関" data-name="事前審
査機関" transform="translate(859.967 741.639)" fill="#6a6a6a" font-size="13" font-family="SourceHanSansJP-Bold, Source Han Sans JP" font-weight="700"><tspan x="0" y="0">事前審</tspan><tspan x="0" y="19">査機関</tspan></text>
        <text id="最短" transform="translate(927.122 758.81)" fill="#6a6a6a" font-size="19" font-family="SourceHanSansJP-Bold, Source Han Sans JP" font-weight="700"><tspan x="0" y="0">最短</tspan></text>
        <text id="日" transform="translate(1006.64 759.917)" fill="#6a6a6a" font-size="19" font-family="SourceHanSansJP-Bold, Source Han Sans JP" font-weight="700"><tspan x="0" y="0">日</tspan></text>
        <path id="パス_1714" data-name="パス 1714" d="M28.3-25.749c6.343,0,11.694-3.452,11.694-9.062a8.009,8.009,0,0,0-6.343-8.07v-.173a7.412,7.412,0,0,0,5.524-7.465c0-5.006-4.315-8.372-11.176-8.372a17.212,17.212,0,0,0-11.824,5.049l3.323,3.884a11.418,11.418,0,0,1,8.285-3.884c3.582,0,5.437,1.683,5.437,3.97,0,2.719-2.675,4.919-9.407,4.919v4.531c7.724,0,10.141,1.985,10.141,5.092,0,2.675-2.5,4.4-6.041,4.4a12.859,12.859,0,0,1-9.278-4.358l-3.107,3.97A16.223,16.223,0,0,0,28.3-25.749Z" transform="translate(963.553 787.462)" fill="#6a6a6a"/>
        <g id="長方形_81" data-name="長方形 81" transform="translate(849.669 718)" fill="none" stroke="#6a6a6a" stroke-width="5">
          <rect width="59.196" height="56.983" stroke="none"/>
          <rect x="2.5" y="2.5" width="54.196" height="51.983" fill="none"/>
        </g>
      </g>
    </g>
  </g>
</svg>
