<svg xmlns="http://www.w3.org/2000/svg" xmlns:xlink="http://www.w3.org/1999/xlink" width="352.236" height="367.525" viewBox="0 0 352.236 367.525">
  <defs>
    <clipPath id="clip-path">
      <rect id="長方形_168" data-name="長方形 168" width="14.575" height="18.384" fill="#541413"/>
    </clipPath>
  </defs>
  <g id="グループ_3101" data-name="グループ 3101" transform="translate(-7.764 -267.475)">
    <g id="グループ_3099" data-name="グループ 3099" transform="translate(-1252.322 -7.98)">
      <path id="パス_907" data-name="パス 907" d="M556.695,125.052l4.715-3.468a2.851,2.851,0,0,1,3.856.486l3.71,4.533a3.885,3.885,0,0,0,4.18,1.075l5.436-2.184a2.853,2.853,0,0,1,3.612,1.431l2.469,5.314a3.866,3.866,0,0,0,3.777,2.08l5.818-.768a2.854,2.854,0,0,1,3.144,2.283l1.061,5.763a3.892,3.892,0,0,0,3.147,2.955l5.815.7a2.855,2.855,0,0,1,2.479,3l-.4,5.839a3.877,3.877,0,0,0,2.313,3.645l5.453,2.128a2.849,2.849,0,0,1,1.659,3.514l-1.839,5.567a3.878,3.878,0,0,0,1.334,4.107l4.76,3.416a2.855,2.855,0,0,1,.729,3.817l-3.169,4.932a3.875,3.875,0,0,0,.269,4.308l3.756,4.493a2.852,2.852,0,0,1-.245,3.879l-4.286,3.985a3.886,3.886,0,0,0-.81,4.244l2.522,5.286a2.851,2.851,0,0,1-1.2,3.7l-5.15,2.792a3.871,3.871,0,0,0-1.836,3.908l1.129,5.742a2.858,2.858,0,0,1-2.08,3.282l-5.687,1.425a3.88,3.88,0,0,0-2.751,3.33l-.34,5.846a2.85,2.85,0,0,1-2.829,2.663l-5.857-.032a3.878,3.878,0,0,0-3.494,2.538l-1.78,5.576a2.852,2.852,0,0,1-3.4,1.873l-5.662-1.487A3.87,3.87,0,0,0,577,254.154l-3.116,4.966a2.846,2.846,0,0,1-3.76.965l-5.117-2.856a3.877,3.877,0,0,0-4.283.546l-4.248,4.032a2.853,2.853,0,0,1-3.883,0l-4.255-4.037a3.881,3.881,0,0,0-4.287-.545l-5.118,2.859a2.848,2.848,0,0,1-3.76-.969l-3.119-4.966a3.861,3.861,0,0,0-4.011-1.591l-5.662,1.487a2.857,2.857,0,0,1-3.406-1.873L517.2,246.6a3.874,3.874,0,0,0-3.5-2.538l-5.857.032a2.861,2.861,0,0,1-2.836-2.663l-.329-5.846a3.89,3.89,0,0,0-2.756-3.33l-5.68-1.425a2.857,2.857,0,0,1-2.08-3.282l1.128-5.742a3.882,3.882,0,0,0-1.836-3.908l-5.157-2.792a2.854,2.854,0,0,1-1.2-3.7l2.518-5.286a3.874,3.874,0,0,0-.806-4.243l-4.29-3.987a2.848,2.848,0,0,1-.244-3.879l3.756-4.493a3.882,3.882,0,0,0,.272-4.308l-3.172-4.932a2.859,2.859,0,0,1,.736-3.815l4.761-3.42a3.871,3.871,0,0,0,1.329-4.1l-1.842-5.567a2.852,2.852,0,0,1,1.655-3.514l5.457-2.128a3.865,3.865,0,0,0,2.313-3.645l-.4-5.839a2.858,2.858,0,0,1,2.479-3l5.818-.7a3.88,3.88,0,0,0,3.144-2.955l1.065-5.763a2.858,2.858,0,0,1,3.144-2.283l5.815.768a3.867,3.867,0,0,0,3.781-2.08l2.466-5.314a2.857,2.857,0,0,1,3.615-1.431l5.44,2.184a3.879,3.879,0,0,0,4.176-1.075l3.707-4.533a2.858,2.858,0,0,1,3.858-.489l4.726,3.473A3.863,3.863,0,0,0,556.695,125.052Z" transform="translate(981.688 154.409)" fill="#ffeb3b"/>
      <g id="グループ_317" data-name="グループ 317" transform="matrix(0.999, 0.052, -0.052, 0.999, 1489.422, 299.081)">
        <path id="パス_1811" data-name="パス 1811" d="M6.566-11.214l-1.974-.112a7.5,7.5,0,0,1-.014,1.246c-.028.322-.07.7-.112,1.134a13.221,13.221,0,0,1-2.884-.532l-.1,1.61a16.44,16.44,0,0,0,2.786.5c-.07.63-.154,1.288-.238,1.918a12.865,12.865,0,0,1-2.758-.56l-.1,1.694a15.664,15.664,0,0,0,2.688.462c-.056.574-.1,1.078-.1,1.414C3.766-.1,5.32.854,7.518.854c3.066,0,4.97-1.512,4.97-3.626a5.218,5.218,0,0,0-1.358-3.36l-1.974.42A3.819,3.819,0,0,1,10.6-3c0,1.148-1.064,2.044-3.024,2.044C6.2-.952,5.488-1.568,5.488-2.73c0-.252.028-.6.056-1.022H6.1c.882,0,1.694-.056,2.478-.126l.042-1.666a24.252,24.252,0,0,1-2.814.168h-.1c.07-.63.154-1.288.238-1.9a25.231,25.231,0,0,0,2.73-.14l.056-1.666a19.747,19.747,0,0,1-2.562.2c.056-.462.112-.84.154-1.078A12.532,12.532,0,0,1,6.566-11.214Zm11.242,1.12c0,.154-.028.546-.056,1.078-.6.084-1.218.154-1.624.182a12.029,12.029,0,0,1-1.218.014l.182,1.792c.784-.112,1.862-.252,2.548-.336-.014.336-.042.672-.07.994-.8,1.176-2.2,3.024-3,4L15.68-.84c.49-.658,1.176-1.68,1.764-2.562-.014,1.176-.028,1.988-.056,3.08,0,.224-.014.714-.042,1.036h1.932c-.042-.322-.084-.826-.1-1.078C19.1-1.68,19.1-2.856,19.1-4c0-.364.014-.742.028-1.134,1.148-1.26,2.66-2.548,3.7-2.548.588,0,.952.35.952,1.036,0,1.274-.5,3.332-.5,4.844,0,1.358.7,2.114,1.75,2.114A3.731,3.731,0,0,0,27.65-.728L27.426-2.7a2.9,2.9,0,0,1-1.82,1.008c-.35,0-.532-.266-.532-.63,0-1.442.462-3.5.462-4.956a1.956,1.956,0,0,0-2.2-2.072c-1.358,0-2.968,1.134-4.074,2.1.014-.112.014-.21.028-.308.238-.364.518-.826.714-1.078l-.518-.672c.1-.868.224-1.582.308-1.974l-2.044-.07A7.73,7.73,0,0,1,17.808-10.094Zm16.8-1.176-1.932-.2A11.773,11.773,0,0,1,32.3-9.128c-.434.042-.854.056-1.274.056a17.686,17.686,0,0,1-1.862-.1l.126,1.624c.6.042,1.176.056,1.75.056.238,0,.476,0,.728-.014A22.057,22.057,0,0,1,28.91-2.562l1.694.868a25.8,25.8,0,0,0,3-5.992,24.288,24.288,0,0,0,2.45-.49L35.994-9.8a17.163,17.163,0,0,1-1.89.448C34.314-10.108,34.5-10.822,34.608-11.27ZM33.88-1.582c0-.49.518-.854,1.33-.854a5.029,5.029,0,0,1,1.134.14v.28c0,.77-.294,1.3-1.26,1.3C34.314-.714,33.88-1.064,33.88-1.582Zm4-5.334h-1.75c.028.854.1,2.1.154,3.136-.322-.028-.63-.056-.966-.056-1.946,0-3.094,1.05-3.094,2.422C32.228.126,33.6.9,35.336.9c1.988,0,2.7-1.008,2.7-2.31v-.14a11.869,11.869,0,0,1,1.89,1.5l.938-1.5a9.155,9.155,0,0,0-2.9-1.792c-.028-.7-.07-1.372-.084-1.778C37.87-5.74,37.842-6.328,37.884-6.916Zm2.408.742.994-1.47a24.116,24.116,0,0,0-3.458-1.9l-.9,1.386A20.206,20.206,0,0,1,40.292-6.174Zm11.984-3.92-1.638-1.442a9.73,9.73,0,0,1-1.078,1.19c-.938.91-2.856,2.464-3.962,3.36-1.4,1.176-1.512,1.918-.112,3.108,1.274,1.092,3.332,2.842,4.186,3.724.42.42.826.868,1.218,1.3l1.638-1.5C51.1-1.736,48.44-3.836,47.39-4.718c-.756-.658-.77-.812-.028-1.456.938-.8,2.786-2.226,3.7-2.954C51.38-9.394,51.842-9.758,52.276-10.094Z" transform="translate(20.644 29.646)" fill="#6a6a6a"/>
        <path id="パス_1812" data-name="パス 1812" d="M3.528-5.4c.308-1.078.616-2.254.882-3.388h.07c.294,1.12.574,2.31.9,3.388L5.684-4.27H3.22ZM-.056,0h2.1l.728-2.66h3.36L6.86,0H9.03L5.7-10.374H3.262ZM10.08,0h2.058V-5.39a2.234,2.234,0,0,1,1.5-.882c.742,0,1.106.42,1.106,1.638V0h2.044V-5.39A2.288,2.288,0,0,1,18.3-6.272c.742,0,1.092.42,1.092,1.638V0h2.058V-4.886c0-1.974-.77-3.15-2.436-3.15A3.477,3.477,0,0,0,16.52-6.664a2.134,2.134,0,0,0-2.156-1.372A3.3,3.3,0,0,0,11.956-6.79h-.042L11.76-7.84H10.08ZM25.508.2A3.686,3.686,0,0,0,27.874-.84h.056l.14.84h1.68V-4.578c0-2.268-1.022-3.458-3.01-3.458A6.263,6.263,0,0,0,23.464-7l.742,1.358a4.43,4.43,0,0,1,2.156-.742c.966,0,1.3.588,1.344,1.358-3.164.336-4.522,1.218-4.522,2.9A2.227,2.227,0,0,0,25.508.2Zm.672-1.61c-.6,0-1.036-.266-1.036-.882,0-.7.644-1.232,2.562-1.47v1.582A2.13,2.13,0,0,1,26.18-1.414ZM31.318,0h6.2V-1.624H33.88l3.514-5.11V-7.84H31.71v1.624h3.122l-3.514,5.11ZM42.112.2A3.825,3.825,0,0,0,45.878-3.92a3.825,3.825,0,0,0-3.766-4.116A3.825,3.825,0,0,0,38.346-3.92,3.825,3.825,0,0,0,42.112.2Zm0-1.68c-1.064,0-1.666-.952-1.666-2.436s.6-2.436,1.666-2.436,1.666.966,1.666,2.436S43.176-1.484,42.112-1.484ZM47.6,0h2.058V-5.39a2.2,2.2,0,0,1,1.624-.882c.77,0,1.106.42,1.106,1.638V0h2.058V-4.886c0-1.974-.728-3.15-2.422-3.15A3.613,3.613,0,0,0,49.476-6.8h-.042L49.28-7.84H47.6ZM66.122-11.536l-1.106.462a16.24,16.24,0,0,1,.966,1.694c-.252.056-.546.126-.8.168-.5.1-1.568.266-2.744.462-.126-.63-.21-1.106-.238-1.3-.07-.322-.112-.8-.154-1.078l-1.974.322c.1.322.2.658.28,1.064.042.224.14.686.252,1.274-1.2.2-2.282.35-2.772.406-.434.042-.854.07-1.3.1l.378,1.932c.476-.126.84-.21,1.288-.294s1.512-.252,2.744-.448c.14.714.28,1.484.434,2.24C59.948-4.312,58.646-4.1,58-4c-.448.056-1.078.14-1.456.154l.392,1.862c.322-.084.8-.168,1.4-.28s1.918-.336,3.36-.574c.224,1.176.392,2.142.462,2.534.084.42.126.9.2,1.428L64.372.756c-.126-.448-.266-.952-.364-1.372s-.28-1.386-.5-2.52c1.232-.2,2.366-.378,3.038-.49.532-.084,1.106-.182,1.484-.21l-.378-1.848c-.364.1-.882.224-1.428.336-.63.126-1.778.308-3.038.518-.14-.756-.294-1.526-.434-2.24,1.162-.182,2.226-.35,2.8-.434.42-.056.98-.14,1.288-.168L66.542-9.31l.7-.308C66.976-10.136,66.472-11.018,66.122-11.536Zm1.652-.63-1.106.462A14.844,14.844,0,0,1,67.8-9.772l1.106-.49A16.568,16.568,0,0,0,67.774-12.166Zm14.14,2.842-1.372-.882a4.693,4.693,0,0,1-1.106.112H72.968c-.462,0-1.26-.07-1.68-.112v1.974c.364-.028,1.036-.056,1.666-.056h6.524A8.862,8.862,0,0,1,77.84-4.34a9.313,9.313,0,0,1-5.488,3.29L73.878.616a11.2,11.2,0,0,0,5.628-3.864,14.388,14.388,0,0,0,2.1-5.1A6.115,6.115,0,0,1,81.914-9.324Zm5.95,7.98a15.377,15.377,0,0,1-.14,1.96h2.184c-.056-.574-.126-1.554-.126-1.96V-5.306A40.437,40.437,0,0,1,94.836-3.22l.8-1.932a45.725,45.725,0,0,0-5.852-2.17V-9.394a15.221,15.221,0,0,1,.126-1.68H87.724a9.718,9.718,0,0,1,.14,1.68ZM101.682-4.3a9.7,9.7,0,0,0,.952-1.176h3.738a9.3,9.3,0,0,0,.9,1.176Zm3.388-3.794c.14.392.294.756.462,1.12h-1.988c.182-.364.364-.742.518-1.12Zm5.642,2.618v-1.5h-3.43a10.539,10.539,0,0,1-.574-1.12h3.234v-1.47H108.01c.308-.49.686-1.106,1.022-1.722l-1.652-.49a14.464,14.464,0,0,1-1.05,2.142l.21.07h-1.946c.21-.658.392-1.344.546-2.03l-1.75-.294a16.567,16.567,0,0,1-.574,2.324H101.78l.448-.168a8.78,8.78,0,0,0-1.092-1.974l-1.386.5a10.3,10.3,0,0,1,.868,1.638H99.106v1.47h3.136a10.734,10.734,0,0,1-.6,1.12H98.2v1.5h2.3a8.8,8.8,0,0,1-2.646,1.89,8.02,8.02,0,0,1,1.022,1.358,10.607,10.607,0,0,0,1.722-1.092V-2.8h2.086c-.322,1.218-1.078,2.1-3.528,2.618a4.626,4.626,0,0,1,.924,1.428C103.124.462,104.048-.9,104.426-2.8h2.2c-.112,1.47-.252,2.128-.448,2.324a.645.645,0,0,1-.5.154c-.28,0-.854-.014-1.484-.056a3.322,3.322,0,0,1,.49,1.554,12.217,12.217,0,0,0,1.82-.028A1.631,1.631,0,0,0,107.6.616c.378-.42.574-1.5.728-3.878a9.064,9.064,0,0,0,1.638,1.05,5.822,5.822,0,0,1,1.092-1.372,7.82,7.82,0,0,1-2.66-1.89Z" transform="translate(-6.005 45.89)" fill="#ea6552"/>
        <path id="パス_1813" data-name="パス 1813" d="M1.148,0h6.23V-1.666H5.432v-8.708H3.906A6.463,6.463,0,0,1,1.5-9.492v1.274H3.374v6.552H1.148ZM9.7,2.982A3.516,3.516,0,0,0,12.348-.462c0-1.274-.532-2.03-1.484-2.03a1.238,1.238,0,0,0-1.33,1.218A1.209,1.209,0,0,0,10.822-.056h.126c.014.784-.588,1.512-1.68,1.918ZM17.486.2c2.114,0,3.5-1.848,3.5-5.418s-1.386-5.334-3.5-5.334-3.514,1.75-3.514,5.334S15.372.2,17.486.2Zm0-1.61c-.9,0-1.568-.9-1.568-3.808S16.59-8.96,17.486-8.96s1.554.84,1.554,3.738S18.382-1.414,17.486-1.414ZM26.012.2c2.114,0,3.5-1.848,3.5-5.418s-1.386-5.334-3.5-5.334S22.5-8.806,22.5-5.222,23.9.2,26.012.2Zm0-1.61c-.9,0-1.568-.9-1.568-3.808s.672-3.738,1.568-3.738,1.554.84,1.554,3.738S26.908-1.414,26.012-1.414ZM34.538.2c2.114,0,3.5-1.848,3.5-5.418s-1.386-5.334-3.5-5.334-3.514,1.75-3.514,5.334S32.424.2,34.538.2Zm0-1.61c-.9,0-1.568-.9-1.568-3.808s.672-3.738,1.568-3.738,1.554.84,1.554,3.738S35.434-1.414,34.538-1.414ZM46.718-5.8V-9.324h3.5V-5.8ZM41.762-9.324h3.3V-5.8h-3.3ZM51.9-10.976H40.082V1.2h1.68V-4.144h8.456V-.756c0,.238-.1.322-.364.336s-1.19.014-1.988-.042a6.8,6.8,0,0,1,.6,1.666A6.468,6.468,0,0,0,51.114.9C51.7.63,51.9.168,51.9-.742Zm9.3-.07a23.774,23.774,0,0,0,2.926,4.3H56.56a16.791,16.791,0,0,0,2.772-4.41l-1.792-.518A11.608,11.608,0,0,1,53.41-6.44,10.012,10.012,0,0,1,54.838-5.1,10.548,10.548,0,0,0,55.958-6.1v.98h2.366c-.28,2.044-1.008,3.878-4.172,4.9a5.578,5.578,0,0,1,1.106,1.54c3.626-1.358,4.536-3.752,4.886-6.44H62.9c-.126,2.926-.28,4.172-.56,4.466a.649.649,0,0,1-.56.2c-.35,0-1.078-.014-1.848-.07a4.023,4.023,0,0,1,.546,1.68,14.006,14.006,0,0,0,2.114-.042A1.689,1.689,0,0,0,63.868.448c.49-.588.658-2.24.812-6.468v-.1c.308.322.6.63.9.9a7.975,7.975,0,0,1,1.414-1.5A16.12,16.12,0,0,1,62.832-11.7Z" transform="translate(16.898 63.117)" fill="#ea6552"/>
        <path id="パス_1814" data-name="パス 1814" d="M11.256-10.262a.813.813,0,0,1,.812-.812.81.81,0,0,1,.8.812.807.807,0,0,1-.8.8A.81.81,0,0,1,11.256-10.262Zm-.868,0a1.551,1.551,0,0,0,.028.266,6.041,6.041,0,0,1-.8.056H3.136a15.588,15.588,0,0,1-1.666-.112v1.974c.35-.028,1.022-.056,1.666-.056h6.51A8.8,8.8,0,0,1,8.008-4.186,9.178,9.178,0,0,1,2.52-.9L4.046.784A11.244,11.244,0,0,0,9.674-3.094a14.133,14.133,0,0,0,2.1-5.1c.042-.126.07-.266.112-.42a.8.8,0,0,0,.182.014,1.679,1.679,0,0,0,1.666-1.666,1.682,1.682,0,0,0-1.666-1.68A1.685,1.685,0,0,0,10.388-10.262ZM16.73-.56,18.06.588A3.614,3.614,0,0,1,18.886.21a17.544,17.544,0,0,0,8.12-5.04l-.994-1.582a16.042,16.042,0,0,1-7.2,4.634v-7.28a10.24,10.24,0,0,1,.14-1.6h-2.2a8.945,8.945,0,0,1,.154,1.6V-1.47A1.828,1.828,0,0,1,16.73-.56ZM38.836-11.452l-1.12.462a17.825,17.825,0,0,1,1.106,1.946l1.12-.49C39.676-10.052,39.186-10.934,38.836-11.452Zm1.652-.63-1.106.462A16.336,16.336,0,0,1,40.5-9.7l1.12-.476A21.9,21.9,0,0,0,40.488-12.082ZM31.752-1.6c0,1.652.462,2.422,3.64,2.422A32.954,32.954,0,0,0,39.746.518l.056-1.89a24.182,24.182,0,0,1-4.424.462c-1.526,0-1.778-.308-1.778-1.176V-5.8c1.974-.392,3.864-.77,4.3-.854a12.061,12.061,0,0,1-2.226,2.828l1.54.91a19.685,19.685,0,0,0,2.9-4.074c.126-.252.322-.56.448-.756l-1.344-1.05a4.1,4.1,0,0,1-.994.336c-.63.14-2.59.546-4.62.924V-9.17a11.556,11.556,0,0,1,.126-1.61H31.64a11.785,11.785,0,0,1,.112,1.61v1.988c-1.386.252-2.618.462-3.29.546l.35,1.834c.588-.14,1.694-.364,2.94-.616ZM45.374-10.64l-1.316,1.4a29.109,29.109,0,0,1,3.5,3.024l1.428-1.456A28.275,28.275,0,0,0,45.374-10.64Zm-1.75,9.324L44.8.532a15.162,15.162,0,0,0,5.194-1.974,14.887,14.887,0,0,0,5.18-5.18L54.082-8.6a13.182,13.182,0,0,1-5.1,5.446A14.43,14.43,0,0,1,43.624-1.316ZM60.4-1.344a15.377,15.377,0,0,1-.14,1.96H62.44c-.056-.574-.126-1.554-.126-1.96V-5.306A40.437,40.437,0,0,1,67.368-3.22l.8-1.932a45.725,45.725,0,0,0-5.852-2.17V-9.394a15.221,15.221,0,0,1,.126-1.68H60.256a9.718,9.718,0,0,1,.14,1.68ZM76.286-3.6h1.428l.378-4.788.07-2.086H75.838l.07,2.086ZM77,.126a1.191,1.191,0,0,0,1.232-1.232A1.2,1.2,0,0,0,77-2.352a1.2,1.2,0,0,0-1.232,1.246A1.184,1.184,0,0,0,77,.126Z" transform="translate(3.912 79.866)" fill="#6a6a6a"/>
        <path id="パス_1815" data-name="パス 1815" d="M4.641-2.66A4.613,4.613,0,0,0,6.02.7L6.685.406A4.349,4.349,0,0,1,5.432-2.66,4.349,4.349,0,0,1,6.685-5.726L6.02-6.02A4.613,4.613,0,0,0,4.641-2.66ZM10.5-4.13a.529.529,0,0,0,.525-.525A.529.529,0,0,0,10.5-5.18a.529.529,0,0,0-.525.525A.529.529,0,0,0,10.5-4.13Zm0,1.267L8.19-5.173l-.2.2L10.3-2.66,7.98-.343l.2.2L10.5-2.457l2.31,2.31.2-.2L10.7-2.66l2.31-2.31-.2-.2Zm-1.47.2a.529.529,0,0,0-.525-.525.529.529,0,0,0-.525.525.529.529,0,0,0,.525.525A.529.529,0,0,0,9.03-2.66Zm2.94,0a.529.529,0,0,0,.525.525.529.529,0,0,0,.525-.525.529.529,0,0,0-.525-.525A.529.529,0,0,0,11.97-2.66ZM10.5-1.19a.529.529,0,0,0-.525.525A.529.529,0,0,0,10.5-.14a.529.529,0,0,0,.525-.525A.529.529,0,0,0,10.5-1.19Zm5.859-1.47A4.613,4.613,0,0,0,14.98-6.02l-.665.294A4.349,4.349,0,0,1,15.568-2.66,4.349,4.349,0,0,1,14.315.406L14.98.7A4.613,4.613,0,0,0,16.359-2.66Z" transform="translate(82.343 79.693)" fill="#6a6a6a"/>
        <path id="パス_1810" data-name="パス 1810" d="M6.1-11.368H4.172a11.267,11.267,0,0,1,.1,1.232c0,.238,0,.644-.014,1.134-.28.014-.56.028-.812.028a15.524,15.524,0,0,1-1.932-.112L1.54-7.392a17.164,17.164,0,0,0,1.96.07c.224,0,.476-.014.742-.028v1.176c0,.322,0,.658.014.994-1.722.742-3.122,2.016-3.122,3.234C1.134-.462,3.052.714,4.41.714c.924,0,1.54-.462,1.54-2.2,0-.476-.028-1.568-.056-2.674A9.439,9.439,0,0,1,8.526-4.55c1.218,0,2.058.56,2.058,1.512,0,1.022-.9,1.582-2.03,1.792a10.78,10.78,0,0,1-1.722.1L7.476.658A12.818,12.818,0,0,0,9.31.434C11.536-.126,12.4-1.372,12.4-3.024c0-1.932-1.694-3.052-3.85-3.052a11.6,11.6,0,0,0-2.688.364V-6.23c0-.406,0-.84.014-1.26.91-.112,1.876-.252,2.674-.434L8.512-9.66a17.146,17.146,0,0,1-2.576.5c.014-.35.028-.686.042-.994C6.006-10.514,6.062-11.116,6.1-11.368Zm3.99,1.512L9.324-8.5A22.275,22.275,0,0,1,12.7-6.454l.84-1.428A29.255,29.255,0,0,0,10.094-9.856ZM2.856-2.016c0-.49.574-1.064,1.428-1.526.028.756.042,1.4.042,1.75,0,.476-.2.588-.448.588C3.514-1.2,2.856-1.582,2.856-2.016Zm15.12.434c0-.476.546-.868,1.54-.868a7.775,7.775,0,0,1,1.148.1c.014.252.014.448.014.6,0,.812-.49,1.022-1.232,1.022C18.48-.728,17.976-1.05,17.976-1.582Zm4.382-9.744h-1.89a5.628,5.628,0,0,1,.084.966V-9.7h-.546a26.138,26.138,0,0,1-3.458-.308l.042,1.6a32.183,32.183,0,0,0,3.43.252h.518c-.014.476-.014.98-.014,1.442h-.672a24.738,24.738,0,0,1-3.374-.266l.014,1.652c.924.112,2.52.182,3.332.182h.728c.014.42.028.868.056,1.3-.28-.028-.574-.042-.868-.042-2.156,0-3.458.994-3.458,2.408C16.282,0,17.458.854,19.7.854c1.848,0,2.758-.924,2.758-2.114,0-.154,0-.322-.014-.518A10.731,10.731,0,0,1,25.27.168L26.278-1.4a10.961,10.961,0,0,0-3.92-2.114c-.042-.56-.07-1.134-.1-1.666,1.344-.042,2.436-.14,3.7-.28l.014-1.652c-1.134.154-2.324.266-3.738.336V-8.218c1.358-.07,2.632-.2,3.556-.308l.014-1.61a29.342,29.342,0,0,1-3.542.378c0-.224,0-.434.014-.574A9.455,9.455,0,0,1,22.358-11.326Zm10.262.168-1.75.714c.63,1.484,1.3,2.982,1.946,4.172-1.344.994-2.324,2.156-2.324,3.7C30.492-.168,32.606.6,35.392.6a26,26,0,0,0,4.494-.35l.028-2.016a21.613,21.613,0,0,1-4.578.518c-1.946,0-2.912-.532-2.912-1.54,0-.98.784-1.778,1.946-2.548a41.44,41.44,0,0,1,3.906-2.072c.518-.266.966-.5,1.386-.756L38.7-9.786a8.748,8.748,0,0,1-1.3.854c-.658.378-1.876.98-3.024,1.652A33.256,33.256,0,0,1,32.62-11.158Zm19.166.182-1.932-.182a9.458,9.458,0,0,1-.112,1.33q-.042.315-.126.672a7.631,7.631,0,0,0-3.178.84c-.1-.294-.182-.588-.252-.854-.112-.42-.224-.882-.308-1.344l-1.834.574a8.883,8.883,0,0,1,.56,1.456c.126.378.238.756.378,1.134A6.121,6.121,0,0,0,42.91-2.926c0,1.806,1.064,2.786,2.226,2.786a3.6,3.6,0,0,0,2.758-1.484c.14.182.308.364.476.546L49.784-2.2a11.189,11.189,0,0,1-.77-.84,17.7,17.7,0,0,0,1.9-4.452A3.03,3.03,0,0,1,53.186-4.4c0,1.75-1.218,3.332-4.284,3.584L49.966.812C52.878.364,54.992-1.33,54.992-4.3A4.615,4.615,0,0,0,51.338-9.03c.042-.182.084-.35.126-.532C51.548-9.912,51.674-10.6,51.786-10.976Zm-7.238,7.91A4.23,4.23,0,0,1,45.584-5.7a15.08,15.08,0,0,0,1.3,2.688c-.518.63-1.036,1.064-1.54,1.064S44.548-2.38,44.548-3.066ZM46.942-6.79A5.61,5.61,0,0,1,49.2-7.574,16.129,16.129,0,0,1,47.95-4.55,14.377,14.377,0,0,1,46.942-6.79Zm20.048-.6a14.171,14.171,0,0,1-1.344,3.108,33.06,33.06,0,0,1-.56-3.836h4.326V-9.772H67.956l.672-.714a11.713,11.713,0,0,0-2.282-1.5l-1.008.994A17.526,17.526,0,0,1,67.13-9.772H64.988c-.028-.686-.042-1.372-.028-2.072H63.21c0,.7.028,1.386.056,2.072H57.554v4.088c0,1.82-.1,4.256-1.162,5.936a7.288,7.288,0,0,1,1.414,1.134C58.954-.322,59.248-3.052,59.3-5.1h1.82a7.921,7.921,0,0,1-.238,2.632.453.453,0,0,1-.42.168c-.224,0-.7-.014-1.2-.056A3.778,3.778,0,0,1,59.724-.8a11.016,11.016,0,0,0,1.61-.042A1.315,1.315,0,0,0,62.3-1.4c.322-.406.406-1.652.448-4.592,0-.2.014-.63.014-.63H59.3v-1.5h4.06a28.92,28.92,0,0,0,.966,5.642A10.7,10.7,0,0,1,61.474-.21a10.974,10.974,0,0,1,1.2,1.372,11.866,11.866,0,0,0,2.366-1.9C65.66.406,66.43,1.106,67.41,1.106c1.3,0,1.862-.616,2.128-3.206a4.528,4.528,0,0,1-1.414-.938c-.07,1.75-.238,2.45-.574,2.45-.448,0-.9-.588-1.3-1.6a16.262,16.262,0,0,0,2.408-4.8ZM82.95-9.408H77.84v-2.436H76.1v2.436h-4.97V-7.77H82.95ZM75.838-1.876a22.9,22.9,0,0,0-1.316-5.376l-1.6.42a22.7,22.7,0,0,1,1.2,5.4Zm3.584.882a56.975,56.975,0,0,0,1.75-5.964l-1.918-.35a34.988,34.988,0,0,1-1.6,6.314H70.686V.672h12.67V-.994ZM84.966-9.6l.182,1.918c1.624-.35,4.48-.658,5.8-.8a5.6,5.6,0,0,0-2.086,4.326c0,3.038,2.772,4.606,5.712,4.8l.658-1.918c-2.38-.126-4.536-.952-4.536-3.262a4.254,4.254,0,0,1,2.968-3.92,14.544,14.544,0,0,1,2.7-.2l-.014-1.792c-.994.042-2.52.126-3.962.252-2.562.21-4.872.42-6.048.518C86.072-9.646,85.526-9.618,84.966-9.6ZM94.36-7.28l-1.036.434A10.8,10.8,0,0,1,94.416-4.9l1.064-.476A17.377,17.377,0,0,0,94.36-7.28Zm1.568-.644-1.022.476a12.316,12.316,0,0,1,1.148,1.89l1.05-.5A20.943,20.943,0,0,0,95.928-7.924Z" transform="translate(1.204 11.218)" fill="#6a6a6a"/>
      </g>
    </g>
    <g id="グループ_1483" data-name="グループ 1483">
      <g id="グループ_1357" data-name="グループ 1357" transform="translate(-1172.465 -149.455)">
        <g id="グループ_322" data-name="グループ 322" transform="translate(1186.465 452)">
          <g id="楕円形_40" data-name="楕円形 40" transform="translate(165.928 48.562)" fill="#fcfcfc" stroke="#707070" stroke-width="5">
            <ellipse cx="20.548" cy="29.136" rx="20.548" ry="29.136" stroke="none"/>
            <ellipse cx="20.548" cy="29.136" rx="18.048" ry="26.636" fill="none"/>
          </g>
          <g id="グループ_316" data-name="グループ 316" transform="translate(0 0)">
            <g id="グループ_315" data-name="グループ 315" transform="translate(0 0)">
              <g id="グループ_314" data-name="グループ 314" transform="translate(0 0)">
                <g id="グループ_311" data-name="グループ 311" transform="translate(109.77 29.053)">
                  <path id="パス_879" data-name="パス 879" d="M151.8,157.693c-3.52,2.067-7.7,1.49-9.328-1.291s-.1-6.71,3.416-8.777,7.7-1.488,9.328,1.293S155.317,155.627,151.8,157.693Z" transform="translate(-141.815 -145.333)" fill="#ffb300"/>
                  <path id="パス_880" data-name="パス 880" d="M152.073,157.1c-3.52,2.067-7.7,1.488-9.328-1.293s-.1-6.708,3.416-8.776,7.7-1.488,9.328,1.293S155.592,155.039,152.073,157.1Z" transform="translate(-141.598 -145.797)" fill="#ffd500"/>
                  <path id="パス_881" data-name="パス 881" d="M149.818,147.322s-1.114-1.314-3.682-.579" transform="translate(-138.409 -145.228)" fill="rgba(0,0,0,0)" stroke="#fff589" stroke-linecap="round" stroke-miterlimit="10" stroke-width="1.823"/>
                  <line id="線_25" data-name="線 25" x2="2.619" y2="4.461" transform="translate(8.757 2.539)" fill="none" stroke="#ffbe00" stroke-linecap="round" stroke-miterlimit="10" stroke-width="1.215"/>
                  <line id="線_26" data-name="線 26" x2="2.619" y2="4.461" transform="translate(6.336 3.96)" fill="none" stroke="#ffbe00" stroke-linecap="round" stroke-miterlimit="10" stroke-width="1.215"/>
                  <line id="線_27" data-name="線 27" x2="2.619" y2="4.461" transform="translate(3.723 5.495)" fill="none" stroke="#ffbe00" stroke-linecap="round" stroke-miterlimit="10" stroke-width="1.215"/>
                </g>
                <g id="グループ_312" data-name="グループ 312" transform="translate(117.701 57.225)">
                  <path id="パス_882" data-name="パス 882" d="M158.288,169.54c-.043,4.081-2.69,7.361-5.914,7.327s-5.8-3.369-5.76-7.45,2.691-7.361,5.916-7.329S158.331,165.459,158.288,169.54Z" transform="translate(-145.964 -161.126)" fill="#ffb300"/>
                  <path id="パス_883" data-name="パス 883" d="M157.927,169c-.043,4.081-2.692,7.361-5.916,7.327s-5.8-3.369-5.76-7.45,2.692-7.361,5.916-7.327S157.97,164.919,157.927,169Z" transform="translate(-146.25 -161.55)" fill="#ffd500"/>
                  <path id="パス_884" data-name="パス 884" d="M149.69,162.612s-1.7.279-2.395,2.858" transform="translate(-145.426 -160.712)" fill="rgba(0,0,0,0)" stroke="#fff589" stroke-linecap="round" stroke-miterlimit="10" stroke-width="1.823"/>
                  <line id="線_28" data-name="線 28" x2="5.173" y2="0.054" transform="translate(3.277 4.402)" fill="none" stroke="#ffbe00" stroke-linecap="round" stroke-miterlimit="10" stroke-width="1.215"/>
                  <line id="線_29" data-name="線 29" x2="5.173" y2="0.054" transform="translate(3.248 7.211)" fill="none" stroke="#ffbe00" stroke-linecap="round" stroke-miterlimit="10" stroke-width="1.215"/>
                  <line id="線_30" data-name="線 30" x2="5.173" y2="0.054" transform="translate(3.216 10.24)" fill="none" stroke="#ffbe00" stroke-linecap="round" stroke-miterlimit="10" stroke-width="1.215"/>
                </g>
                <g id="グループ_313" data-name="グループ 313" transform="translate(0 0)">
                  <path id="パス_885" data-name="パス 885" d="M210.545,172.334c-3.79-13.883-3.527-11.916-13.107-22.655a61.635,61.635,0,0,0-45.474-20.127,65.5,65.5,0,0,0-45.953,19.461c-9.058,14.731-7.942,12.274-8.976,30.334-4.571,2.216-9.358,2.017-15.965,5.188,6.342,2.51,9.275,3.206,10.592,4.307-4.464,4.124-6.7,4.469-10.592,10.77,10.087,0,9.071,1.016,13.644,0-1.321,3.253-5.227,8.889-6.123,12.552,1.1-2.845,5.491-5.412,8.443-4.652s5.365,2.815,7.8,4.652c12.648,9.546,28.571,14.42,44.417,14.511s31.571-4.475,45.393-12.224c7.052-3.954,14.137-9.444,15.9-17.335a30.3,30.3,0,0,1,15.15,1.9,26.845,26.845,0,0,0-10.366-8.636,15.663,15.663,0,0,1,14.749-.451,46.422,46.422,0,0,0-13.023-10.586,24.129,24.129,0,0,1,13.594-2.974C225.492,173.734,214.744,173.67,210.545,172.334Z" transform="translate(-81.07 -129.552)" fill="#fcfcfc" stroke="#707070" stroke-width="5"/>
                  <path id="パス_886" data-name="パス 886" d="M98.141,161.574c-1.778-8.334-3.562-16.936-1.969-25.308.429-2.259,1.261-4.682,3.248-5.837,2.636-1.533,6.081-.1,8.25,2.044s3.636,4.932,5.914,6.959C106.3,145.384,99.08,162.121,98.141,161.574Z" transform="translate(-68.518 -129.365)" fill="#fff" stroke="#707070" stroke-width="5"/>
                  <path id="パス_887" data-name="パス 887" d="M132.857,140.309c2.947-5.78,5.678-6.5,11.523-9.637,1.7-.91,9.521-1.827,9.971,5.652.394,6.512-.045,9.669-1.273,16.078C148.947,147.24,139.32,139.958,132.857,140.309Z" transform="translate(-41.561 -129.648)" fill="#fff" stroke="#707070" stroke-width="5"/>
                  <path id="パス_888" data-name="パス 888" d="M136.286,149.641" transform="translate(-36.404 -113.714)" fill="#8e3920"/>
                  <circle id="楕円形_39" data-name="楕円形 39" cx="5.14" cy="5.14" r="5.14" transform="matrix(0.112, -0.994, 0.994, 0.112, 41.321, 35.353)" fill="#541413"/>
                  <path id="パス_889" data-name="パス 889" d="M129.8,148.453a5.14,5.14,0,1,1,5.839,4.33A5.14,5.14,0,0,1,129.8,148.453Z" transform="translate(-41.561 -119.299)" fill="#541413"/>
                  <path id="パス_890" data-name="パス 890" d="M99.028,140.967a5.664,5.664,0,0,1-.989-5.07,4.269,4.269,0,0,1,4.038-2.958,3.436,3.436,0,0,1,3.241,3.539A14.335,14.335,0,0,0,99.028,140.967Z" transform="translate(-65.516 -124.24)" fill="#541413"/>
                  <path id="パス_892" data-name="パス 892" d="M110.029,138.1a23.267,23.267,0,0,1,32.03-.921C132.32,132.479,120.473,133.54,110.029,138.1Z" transform="translate(-57.105 -126.996)" fill="#541413"/>
                  <path id="パス_893" data-name="パス 893" d="M110.5,141.276a23.267,23.267,0,0,1,32.03-.921C132.792,135.655,120.943,136.716,110.5,141.276Z" transform="translate(-56.733 -124.492)" fill="#541413"/>
                  <path id="パス_894" data-name="パス 894" d="M111,144.659a23.269,23.269,0,0,1,32.032-.921C133.294,139.037,121.446,140.1,111,144.659Z" transform="translate(-56.338 -121.825)" fill="#541413"/>
                  <path id="パス_895" data-name="パス 895" d="M87.392,162.911a145.9,145.9,0,0,0,16.189,2.484A14.887,14.887,0,0,1,92.789,167C90.522,166.47,88.161,165.118,87.392,162.911Z" transform="translate(-71.885 -107.546)" fill="#541413"/>
                  <path id="パス_896" data-name="パス 896" d="M87.354,166.76a30.357,30.357,0,0,0,15.833.753c-.238,1.42-1.724,2.218-3.038,2.8-2.491,1.112-5.342,2.234-7.856,1.177C90.276,170.644,89.058,168.616,87.354,166.76Z" transform="translate(-71.915 -104.511)" fill="#541413"/>
                  <path id="パス_897" data-name="パス 897" d="M144.5,166.6c6.658-1.661,10.777-4.276,15.389-9.1a3.292,3.292,0,0,1,.338,3.2,7.346,7.346,0,0,1-2.016,2.663,19.9,19.9,0,0,1-8.259,4.521,6.947,6.947,0,0,1-3.01.27A3.747,3.747,0,0,1,144.5,166.6Z" transform="translate(-29.927 -111.199)" fill="#541413"/>
                  <path id="パス_898" data-name="パス 898" d="M144.453,168.789a30.475,30.475,0,0,0,18.091-6.478,11.286,11.286,0,0,1-7.007,9.176A10.806,10.806,0,0,1,144.453,168.789Z" transform="translate(-29.965 -107.405)" fill="#541413"/>
                </g>
                <path id="パス_899" data-name="パス 899" d="M115.918,130s5.95,25.617,6.562,21.42,2.908-21.843,2.908-21.843Z" transform="translate(-52.462 -128.304)" fill="#541413"/>
                <path id="パス_900" data-name="パス 900" d="M135.215,158.114s-23.867-9.9-30.26,2.636c-7,13.717,3.979,23.4,18.226,22.074s28.89-1.1,34.457-4.081c7.88-4.217,15-16.024,5.558-23.854S135.215,158.114,135.215,158.114Z" transform="translate(-62.813 -112.249)" fill="#fcfcfc"/>
                <path id="パス_901" data-name="パス 901" d="M115.383,163.012s1.255,5.853,8.794,6.131c5.929.218,9.593-6.624,9.593-6.624l-7.828-6.376Z" transform="translate(-52.884 -105.521)" fill="#e13b40"/>
                <path id="パス_902" data-name="パス 902" d="M110.729,155.6c-1.277,2.16.59,4.788,3.654,5.769a13.7,13.7,0,0,0,9.666-.887,12.11,12.11,0,0,0,5.641-5.709c1.39,3.657,6.129,6.76,11.687,6.957S152.6,158.7,152.5,154.914c.127,3.747-4,9.071-9.325,10.1s-11.319-2.328-13.989-5.583a16.291,16.291,0,0,1-8.967,4.655c-3.734.606-8.084-.3-10.01-2.527S109.674,155.91,110.729,155.6Z" transform="translate(-57.721 -106.597)" fill="#6d261a"/>
                <path id="パス_903" data-name="パス 903" d="M117.443,155.829c-.038-2.051,2.981-3.77,6.739-3.838s6.837,1.54,6.875,3.591-2.981,3.768-6.739,3.836S117.481,157.878,117.443,155.829Z" transform="translate(-51.26 -108.796)" fill="#772616"/>
              </g>
              <path id="パス_904" data-name="パス 904" d="M11676.635,14536.411l-13.406,1.095,3.131-9.095,14.5-16.22,6.6-1.6,1.391,2.087Z" transform="translate(-11639.758 -14502.255)" fill="#fcfcfc"/>
              <path id="パス_905" data-name="パス 905" d="M11681.622,14532.726l7.23,4.78,2.84-9.333-4.372-3.433.5-3.23-.5-2.745-2.019-1.552-5.379-3.316-3.76-2.211-3.23-.66h-1.231l-1.521,1.154-5.561-1.588-1.39,2.087,1,3.354Z" transform="translate(-11577.194 -14502.255)" fill="#fcfcfc"/>
            </g>
          </g>
          <path id="パス_906" data-name="パス 906" d="M136.755,136.931c.735-1.75,1.781-3.75,3.662-4,1.833-.241,3.452,1.484,3.783,3.3a11,11,0,0,1-.866,5.413A13.71,13.71,0,0,0,136.755,136.931Z" transform="translate(-36.873 -127.166)" fill="#541413"/>
        </g>
        <g id="グループ_404" data-name="グループ 404" transform="translate(1382.142 509.658) rotate(90)">
          <g id="グループ_403" data-name="グループ 403" transform="translate(0 0)" clip-path="url(#clip-path)">
            <path id="パス_1706" data-name="パス 1706" d="M6.416,0A3.4,3.4,0,0,1,9.088,2.523a6.874,6.874,0,0,1,0,3.326c-.1.307.1.6.12.906a5.914,5.914,0,0,1-.653,2.927c-.365.777-.978,1.683-1.926,1.733A4.986,4.986,0,0,1,4.569,11.2,2.72,2.72,0,0,1,3.005,9.4,4.527,4.527,0,0,0,.926,7.3,1.834,1.834,0,0,1,0,5.651a2.445,2.445,0,0,1,1.74-2.579A4.44,4.44,0,0,0,4.355,1.224,2.5,2.5,0,0,1,6.416,0" transform="translate(5.279 3.58)" fill="#541413"/>
            <path id="パス_1707" data-name="パス 1707" d="M3.619,1.712A2.308,2.308,0,0,1,2,3.841,1.44,1.44,0,0,1,.041,2.105C.208,1.257.476.328,1.571.038,2.5-.21,3.812.811,3.619,1.712" transform="translate(3.856 14.447)" fill="#541413"/>
            <path id="パス_1708" data-name="パス 1708" d="M1.839,3.382a2.129,2.129,0,0,1-1.706-1C-.208,1.967.19,1.524.4,1.141A2.735,2.735,0,0,1,3.219.084a1.493,1.493,0,0,1,.616,2.384,2.577,2.577,0,0,1-2,.913" transform="translate(0 10.445)" fill="#541413"/>
            <path id="パス_1709" data-name="パス 1709" d="M3.467,1.907C3.36,3.3,2.9,3.947,2.065,3.89A2.49,2.49,0,0,1,0,1.634,1.646,1.646,0,0,1,1.743.011a2.065,2.065,0,0,1,1.724,1.9" transform="translate(5.448 0)" fill="#541413"/>
            <path id="パス_1710" data-name="パス 1710" d="M2.029,0A1.849,1.849,0,0,1,3.986,1.9,1.862,1.862,0,0,1,2.4,3.267C1.255,3.23-.062,2.244,0,1.415A1.842,1.842,0,0,1,2.029,0" transform="translate(0.465 3.754)" fill="#541413"/>
          </g>
        </g>
      </g>
      <g id="長方形_1202" data-name="長方形 1202" transform="translate(14 380)" fill="#fff" stroke="#707070" stroke-width="5">
        <rect width="346" height="255" rx="17" stroke="none"/>
        <rect x="2.5" y="2.5" width="341" height="250" rx="14.5" fill="none"/>
      </g>
      <g id="グループ_1359" data-name="グループ 1359" transform="translate(-19909.416 6316)">
        <g id="グループ_1348" data-name="グループ 1348" transform="translate(19734.5 -6622.725)">
          <path id="パス_1740" data-name="パス 1740" d="M2.483-7.488V-8.515h7.956v1.027H7.2v-.741H5.655v.741ZM12.22-2.054V-3.393H7.085a4.414,4.414,0,0,0,.1-.819h3.549V-5.46H7.2v-.78H11V-7.1h1.04V-9.867H7.28V-11H5.694v1.131H.949V-7.1H2.106v.858H5.655v.78H2.314v1.248H5.642a5.958,5.958,0,0,1-.13.819H.845v1.339H4.758A7.893,7.893,0,0,1,.611-.117a6.309,6.309,0,0,1,.962,1.248C4.225.416,5.668-.611,6.435-1.768,7.462-.156,9.009.767,11.479,1.157a6.015,6.015,0,0,1,.91-1.352A6.6,6.6,0,0,1,7.956-2.054Zm4.511-.507h5.642v.572H16.731Zm0-1.43h5.642v.559H16.731Zm0-1.443h5.642v.559H16.731Zm7.215,4.381v-5.3H19.708a3.455,3.455,0,0,0,1.274-1.6H22.3v1.365h1.378V-7.956h1.638V-9.074H21.242c.013-.13.013-.26.013-.377v-.065a20.294,20.294,0,0,0,3.549-.559L23.868-11a20.065,20.065,0,0,1-2.912.533l-1.04-.247v1.183a2.353,2.353,0,0,1-.455,1.508V-9.074H15.886c.013-.13.013-.273.013-.39v-.065a16.651,16.651,0,0,0,3.3-.559L18.252-11a15.878,15.878,0,0,1-2.7.52l-.988-.247v1.183a3.528,3.528,0,0,1-1.1,2.782,4.457,4.457,0,0,1,1.014.962,4.344,4.344,0,0,0,1.248-2.158h1.144V-6.6h1.378V-7.956h1.17a3.2,3.2,0,0,1-.754.65,3.7,3.7,0,0,1,.9.949H15.236v5.3H17.16A15.265,15.265,0,0,1,13.585.039,15.68,15.68,0,0,1,14.729,1.17a16.109,16.109,0,0,0,4.056-1.7L17.6-1.053h3.8l-1.17.676a25.633,25.633,0,0,1,3.38,1.534L25.4.468c-.884-.429-2.379-1.053-3.7-1.521ZM5.616,15.828v2.6H3.861l1.066-.455a8.77,8.77,0,0,0-1.2-2.145ZM4.147,11.863a13.561,13.561,0,0,0,2.3-2.405A13.871,13.871,0,0,0,8.84,11.863Zm4.9,3.965a13.5,13.5,0,0,1-1.235,2.249l.845.351H7.241v-2.6h4V14.5h-4V13.215H9.724v-.676A16.431,16.431,0,0,0,11.7,13.774a7.262,7.262,0,0,1,1.027-1.391A13.283,13.283,0,0,1,7.176,7.95h-1.6A13.864,13.864,0,0,1,.325,12.539a6.06,6.06,0,0,1,.962,1.248,16.614,16.614,0,0,0,1.937-1.209v.637H5.616V14.5H1.664v1.326H3.653l-1.183.507a8.932,8.932,0,0,1,1.079,2.093H1.014v1.326h11V18.428H9.074c.455-.546.962-1.339,1.456-2.054Zm8.528-2.574h2.236V11.837H17.576V9.9a16.9,16.9,0,0,0,2.2-.676l-1.092-1.2a21.954,21.954,0,0,1-5.226,1.339,4.85,4.85,0,0,1,.442,1.209c.7-.091,1.443-.208,2.184-.351v1.612h-2.47v1.417h2.171A12.592,12.592,0,0,1,13.312,17a8.7,8.7,0,0,1,.78,1.508,12.933,12.933,0,0,0,1.989-3.055V20.1h1.5V15.62c.52.533,1.066,1.118,1.378,1.521l.9-1.326c-.351-.273-1.638-1.378-2.275-1.859Zm4.355-3.692H20.423v7.267h1.508Zm1.56-1.326v10c0,.234-.1.312-.351.325-.273,0-1.1,0-1.95-.039a5.933,5.933,0,0,1,.533,1.6,6.4,6.4,0,0,0,2.587-.3c.533-.247.715-.676.715-1.573V8.236Z" transform="translate(230.491 742.852)" fill="#6a6a6a"/>
          <path id="パス_1741" data-name="パス 1741" d="M6.08-4.56V-7.448H9.367V-4.56Zm12.122,0H11.7V-7.448H16.72V-9.557H11.7v-2.261h5.453V-14H6.422a12.13,12.13,0,0,0,.627-1.558l-2.3-.589A14.652,14.652,0,0,1,.76-9.823,17.486,17.486,0,0,1,2.717-8.36,17.075,17.075,0,0,0,5.3-11.818H9.367v2.261H3.819v5h-3v2.166h8.55V1.672H11.7V-2.394h6.5Z" transform="translate(292.113 761.023)" fill="#6a6a6a"/>
          <path id="パス_1742" data-name="パス 1742" d="M4.028-5.415c2.014,0,3.439-1.653,3.439-4.484,0-2.812-1.425-4.427-3.439-4.427S.608-12.711.608-9.9C.608-7.068,2.014-5.415,4.028-5.415Zm0-1.577c-.817,0-1.444-.836-1.444-2.907s.627-2.85,1.444-2.85,1.463.779,1.463,2.85S4.845-6.992,4.028-6.992ZM4.5.266H6.156l7.638-14.592H12.141Zm9.747,0c2,0,3.439-1.672,3.439-4.484,0-2.831-1.444-4.446-3.439-4.446s-3.42,1.615-3.42,4.446C10.83-1.406,12.255.266,14.25.266Zm0-1.6c-.817,0-1.444-.817-1.444-2.888s.627-2.869,1.444-2.869,1.463.8,1.463,2.869S15.067-1.33,14.25-1.33Z" transform="translate(491.831 761.023)" fill="#6a6a6a"/>
          <path id="パス_1711" data-name="パス 1711" d="M6.4-26.275H25.6V-31.41h-6V-58.251H14.9a19.921,19.921,0,0,1-7.422,2.719v3.927h5.782v20.2H6.4Zm28.869.6a3.974,3.974,0,0,0,3.97-4.143,3.949,3.949,0,0,0-3.97-4.143,3.94,3.94,0,0,0-3.927,4.143A3.966,3.966,0,0,0,35.265-25.671Zm19.764,0c6.516,0,10.788-5.7,10.788-16.7S61.545-58.812,55.029-58.812,44.2-53.418,44.2-42.371C44.2-31.367,48.513-25.671,55.029-25.671Zm0-4.963c-2.762,0-4.833-2.762-4.833-11.737,0-8.933,2.071-11.522,4.833-11.522s4.79,2.589,4.79,11.522C59.819-33.4,57.791-30.633,55.029-30.633Z" transform="translate(321.172 789.64)" fill="#6a6a6a"/>
          <path id="パス_1712" data-name="パス 1712" d="M12.73-25.671c6.084,0,11.22-3.409,11.22-9.278,0-4.186-2.762-6.861-6.343-7.854v-.216c3.366-1.338,5.308-3.841,5.308-7.293,0-5.437-4.186-8.5-10.357-8.5a14.167,14.167,0,0,0-9.58,3.927L6.214-51c1.9-1.769,3.754-2.8,6.041-2.8,2.719,0,4.272,1.467,4.272,3.97,0,2.848-1.9,4.876-7.767,4.876v4.531c6.948,0,8.8,1.985,8.8,5.092,0,2.891-2.2,4.488-5.437,4.488a10.144,10.144,0,0,1-7.12-3.28L2.028-30.116C4.272-27.57,7.681-25.671,12.73-25.671Zm20.584,0a3.974,3.974,0,0,0,3.97-4.143,3.949,3.949,0,0,0-3.97-4.143,3.94,3.94,0,0,0-3.927,4.143A3.966,3.966,0,0,0,33.314-25.671Zm19.764,0c6.516,0,10.788-5.7,10.788-16.7S59.593-58.812,53.077-58.812,42.246-53.418,42.246-42.371C42.246-31.367,46.561-25.671,53.077-25.671Zm0-4.963c-2.762,0-4.833-2.762-4.833-11.737,0-8.933,2.071-11.522,4.833-11.522s4.79,2.589,4.79,11.522C57.867-33.4,55.839-30.633,53.077-30.633Z" transform="translate(421.771 789.64)" fill="#6a6a6a"/>
          <path id="パス_1715" data-name="パス 1715" d="M13.429-36.631a7.631,7.631,0,0,0,5.952,2.774c2.7,0,5.17-1.513,6.86-4.641L23.467-40.01c-.958,1.791-2.4,3.027-4.01,3.027A4.615,4.615,0,0,1,15.7-38.8a7.631,7.631,0,0,0-5.952-2.774c-2.7,0-5.17,1.513-6.86,4.641L5.66-35.42c.958-1.791,2.4-3.027,4.01-3.027A4.65,4.65,0,0,1,13.429-36.631Z" transform="translate(391.839 787.426)" fill="#6a6a6a"/>
          <g id="長方形_79" data-name="長方形 79" transform="translate(214 718.553)" fill="none" stroke="#6a6a6a" stroke-width="5">
            <rect width="59.196" height="56.983" stroke="none"/>
            <rect x="2.5" y="2.5" width="54.196" height="51.983" fill="none"/>
          </g>
        </g>
        <g id="グループ_1349" data-name="グループ 1349" transform="translate(19414.5 -6555.725)">
          <path id="パス_1743" data-name="パス 1743" d="M5.668-10.556H3.874a10.462,10.462,0,0,1,.091,1.144c0,.221,0,.6-.013,1.053-.26.013-.52.026-.754.026a14.416,14.416,0,0,1-1.794-.1L1.43-6.864A15.938,15.938,0,0,0,3.25-6.8c.208,0,.442-.013.689-.026v1.092c0,.3,0,.611.013.923-1.6.689-2.9,1.872-2.9,3,0,1.378,1.781,2.47,3.042,2.47.858,0,1.43-.429,1.43-2.041,0-.442-.026-1.456-.052-2.483a8.765,8.765,0,0,1,2.444-.364c1.131,0,1.911.52,1.911,1.4,0,.949-.832,1.469-1.885,1.664a10.01,10.01,0,0,1-1.6.091l.6,1.677A11.9,11.9,0,0,0,8.645.4c2.067-.52,2.873-1.677,2.873-3.211,0-1.794-1.573-2.834-3.575-2.834a10.772,10.772,0,0,0-2.5.338v-.481c0-.377,0-.78.013-1.17.845-.1,1.742-.234,2.483-.4L7.9-8.97A15.921,15.921,0,0,1,5.512-8.5c.013-.325.026-.637.039-.923C5.577-9.763,5.629-10.322,5.668-10.556Zm3.705,1.4L8.658-7.891a20.684,20.684,0,0,1,3.133,1.9l.78-1.326A27.166,27.166,0,0,0,9.373-9.152ZM2.652-1.872c0-.455.533-.988,1.326-1.417.026.7.039,1.3.039,1.625,0,.442-.182.546-.416.546C3.263-1.118,2.652-1.469,2.652-1.872Zm13.455-9.1A13.817,13.817,0,0,1,13.156-6.1a9.793,9.793,0,0,1,.819,1.6,11.946,11.946,0,0,0,.884-1.04V1.105h1.469V-7.826A20.72,20.72,0,0,0,17.576-10.5ZM23.1-3.51v.871h-3.51V-3.51ZM19.591-.559v-.923H23.1v.923ZM18.109,1.183h1.482V.7H23.1v.416h1.56V-4.771H18.109ZM20.4-8.177h1.755v1.261H20.4Zm3.276,1.261V-8.177H25.3V-9.5H23.673v-1.4H22.152v1.4H20.4v-1.4H18.889v1.4H17.368v1.326h1.521v1.261H16.9v1.391h8.723V-6.916ZM29-10.283V-8.71h2.964c.039.442.091.91.182,1.4l-.793-.143C30.641-4.03,29.094-1.521,26.39-.156a12.347,12.347,0,0,1,1.417,1.261,11.249,11.249,0,0,0,4.8-6.422,10.984,10.984,0,0,0,4.784,6.409A8.323,8.323,0,0,1,38.636-.26C33.852-3.081,33.5-7.826,33.5-10.283ZM4.277,8.483l-.221.065H.988V20.131H2.431V9.926H3.575c-.234.91-.533,2.08-.806,2.912a3.417,3.417,0,0,1,.962,2.288.885.885,0,0,1-.234.728.647.647,0,0,1-.377.117c-.169,0-.364,0-.611-.013a3.379,3.379,0,0,1,.351,1.378,6.557,6.557,0,0,0,.9-.026,1.669,1.669,0,0,0,.767-.3,1.868,1.868,0,0,0,.6-1.69,3.87,3.87,0,0,0-1-2.652c.4-1.014.845-2.444,1.209-3.575Zm2.912,3.7H10.2V13.28H7.189ZM10.2,9.9v1.027H7.189V9.9Zm.936,4.8a11.528,11.528,0,0,1-1.17,1.287,9.085,9.085,0,0,1-.494-1.378h2.262V8.561H5.707V18.22c-.507.078-.962.156-1.352.208l.507,1.5c1.222-.273,2.821-.6,4.316-.949l-.117-1.352c-.624.117-1.261.234-1.872.338V14.606h.936c.585,2.535,1.6,4.472,3.51,5.486a5.491,5.491,0,0,1,1-1.313,4.921,4.921,0,0,1-2.041-1.7,22.88,22.88,0,0,0,1.755-1.521Zm4.81-4.16h9.373V9.159H20.709V8H19.1V9.159H14.469V12.8c0,1.9-.078,4.6-1.157,6.448a5.629,5.629,0,0,1,1.261.845c1.183-2,1.378-5.187,1.378-7.293Zm5.9,2.314v.858H19.487v-.858Zm1.534,2.028V12.851h1.872V11.629H23.387v-.858H21.853v.858H19.487v-.858H18.031v.858H16.276v1.222h1.755v2.028Zm-1.053,1.729a5.905,5.905,0,0,1-1.56,1.066,5.2,5.2,0,0,1-1.521-1.066Zm1.313-1.274-.273.065H16.367v1.209H18.3l-.611.221a6.565,6.565,0,0,0,1.495,1.443,17.638,17.638,0,0,1-3.367.585,5.213,5.213,0,0,1,.624,1.3,17.619,17.619,0,0,0,4.277-1.014,13.728,13.728,0,0,0,3.952,1.027,6.158,6.158,0,0,1,.91-1.326,17.183,17.183,0,0,1-3.2-.559,6.375,6.375,0,0,0,2.223-2.47Zm12.987-2.691H34.06V11.85h2.574Zm0,1.859H34.06v-.793h2.574Zm0,1.9H34.06v-.806h2.574Zm-3.965-5.707v6.851H38.09V10.693h-2.3c.1-.273.208-.572.312-.884H38.35V8.5H32.279V9.809h2.184c-.052.286-.1.6-.156.884Zm-4.823-.429h3.107v.9H32.24V9.068H30.121V8.015H28.678V9.068H26.6v2.093h1.248Zm2.34,7.917H28.613v-1.2h1.573Zm-1.547-2.392a9.452,9.452,0,0,0,1.092-.845c.39.3.78.585,1.105.845Zm1.56-3.458a5.556,5.556,0,0,1-.637.923l-.9-.585c.091-.117.182-.221.273-.338Zm1.3,4,.026.026.871-1.079a20.422,20.422,0,0,0-1.768-1.3,7.564,7.564,0,0,0,1.287-2.34l-.871-.4-.234.065H29.6a5.131,5.131,0,0,0,.3-.6l-1.261-.312a6.252,6.252,0,0,1-2.379,2.717,5.832,5.832,0,0,1,.975.9,5.954,5.954,0,0,0,.559-.442l.858.6a7.71,7.71,0,0,1-2.392,1.365,4.462,4.462,0,0,1,.78,1.105l.273-.117v3.367h1.3v-.52H31.5a9.17,9.17,0,0,1,.715.741,9.244,9.244,0,0,0,2.769-1.729l-1.248-.78a7.368,7.368,0,0,1-2.236,1.43Zm4.056,2.028a14.325,14.325,0,0,1,2.028,1.781l1.2-.793a16.365,16.365,0,0,0-2.106-1.69Z" transform="translate(545.176 742.745)" fill="#6a6a6a"/>
          <path id="パス_1744" data-name="パス 1744" d="M13.49-13.262H5.434v-.779H13.49Zm0,2.166H5.434v-.8H13.49Zm2.261-4.389H3.268v5.833H15.751ZM14.668-4.731a7.955,7.955,0,0,1-1.292,1.862A7.356,7.356,0,0,1,12.1-4.731ZM4.6-2.47h2.47v.741c-.836.076-1.672.133-2.47.19Zm0-2.356h2.47v.8H4.6Zm2.47-2.337v.76H4.6v-.76ZM16-6.536l-.38.076H9.709v1.729h1.748L10.2-4.389a11.636,11.636,0,0,0,1.729,2.812,9.755,9.755,0,0,1-2.7,1.368V-7.163h8.7V-8.949H1.045v1.786H2.527v5.776c-.589.057-1.159.076-1.653.114L1.045.665C2.717.513,4.883.323,7.068.114V1.653H9.234V.114a8.4,8.4,0,0,1,1.007,1.52,12.38,12.38,0,0,0,3.23-1.767A10.645,10.645,0,0,0,17,1.634a9.359,9.359,0,0,1,1.33-1.767,10.622,10.622,0,0,1-3.344-1.406A11.327,11.327,0,0,0,17.385-6ZM30.115-1.425H26.828V-2.66h3.287ZM36.195-6.9H20.957v8.55h2.2V-5.016H33.915V-.779c0,.228-.076.285-.361.3-.209.019-.8.019-1.444,0V-4.161H24.852V.95h1.976V.095h4.9a6.408,6.408,0,0,1,.437,1.52,7.584,7.584,0,0,0,3.078-.361c.741-.342.95-.95.95-1.995ZM31.388-9.215H25.46v-1.159h5.928Zm-8.075-2.66V-7.7H33.687v-4.18Zm6.213-2.641v-1.6h-2.3v1.6H20.2V-12.6H36.8v-1.919Z" transform="translate(612.33 759.917)" fill="#6a6a6a"/>
          <path id="パス_1745" data-name="パス 1745" d="M17.86-12.578V-14.8H1.159v2.223H5.586C5.453-8,5.3-2.945.418-.209A6.761,6.761,0,0,1,2.052,1.615C5.586-.513,6.954-3.8,7.543-7.315H13.87c-.209,4.066-.513,5.928-1.007,6.4a1.222,1.222,0,0,1-.893.247c-.57,0-1.862,0-3.173-.114a5.431,5.431,0,0,1,.8,2.223A23.226,23.226,0,0,0,12.9,1.425a2.754,2.754,0,0,0,2.033-.95C15.675-.361,16-2.66,16.283-8.493c.038-.285.057-1.007.057-1.007H7.809c.1-1.026.133-2.071.171-3.078Zm11.7,4.712v-4.788h4.75v4.788Zm-6.726-4.788h4.484v4.788H22.838ZM36.594-14.9H20.558V1.634h2.28V-5.624H34.314v4.6c0,.323-.133.437-.494.456-.38,0-1.615.019-2.7-.057a9.235,9.235,0,0,1,.817,2.261,8.778,8.778,0,0,0,3.591-.418c.8-.361,1.064-.988,1.064-2.223Z" transform="translate(783.642 759.917)" fill="#6a6a6a"/>
          <path id="パス_1713" data-name="パス 1713" d="M12.816-25.671c5.912,0,11.176-4.1,11.176-11.22,0-6.948-4.488-10.141-9.839-10.141a8.387,8.387,0,0,0-3.841.906l.6-6.775H22.525v-5.351H5.437L4.574-42.716l2.891,1.9a7.64,7.64,0,0,1,4.79-1.683c3.236,0,5.394,2.071,5.394,5.782,0,3.754-2.33,5.869-5.653,5.869a9.926,9.926,0,0,1-7.034-3.236L2.028-30.029A14.554,14.554,0,0,0,12.816-25.671Zm17.132,8.587C35.169-18.81,38.1-22.65,38.1-27.7c0-3.927-1.64-6.257-4.574-6.257a3.817,3.817,0,0,0-4.1,3.754,3.726,3.726,0,0,0,3.97,3.754h.388c.043,2.417-1.812,4.66-5.178,5.912Zm23.13-8.587c6.516,0,10.788-5.7,10.788-16.7S59.593-58.812,53.077-58.812,42.246-53.418,42.246-42.371C42.246-31.367,46.561-25.671,53.077-25.671Zm0-4.963c-2.762,0-4.833-2.762-4.833-11.737,0-8.933,2.071-11.522,4.833-11.522s4.79,2.589,4.79,11.522C57.867-33.4,55.839-30.633,53.077-30.633Zm25.417,4.963c6.516,0,10.788-5.7,10.788-16.7S85.01-58.812,78.494-58.812,67.663-53.418,67.663-42.371C67.663-31.367,71.978-25.671,78.494-25.671Zm0-4.963c-2.762,0-4.833-2.762-4.833-11.737,0-8.933,2.071-11.522,4.833-11.522s4.79,2.589,4.79,11.522C83.284-33.4,81.256-30.633,78.494-30.633Zm25.417,4.963c6.516,0,10.788-5.7,10.788-16.7s-4.272-16.441-10.788-16.441S93.08-53.418,93.08-42.371C93.08-31.367,97.395-25.671,103.911-25.671Zm0-4.963c-2.762,0-4.833-2.762-4.833-11.737,0-8.933,2.071-11.522,4.833-11.522s4.79,2.589,4.79,11.522C108.7-33.4,106.673-30.633,103.911-30.633Z" transform="translate(662.683 787.427)" fill="#6a6a6a"/>
          <g id="長方形_80" data-name="長方形 80" transform="translate(534.877 719.106)" fill="none" stroke="#6a6a6a" stroke-width="5">
            <rect width="59.196" height="56.983" stroke="none"/>
            <rect x="2.5" y="2.5" width="54.196" height="51.983" fill="none"/>
          </g>
        </g>
        <g id="グループ_1350" data-name="グループ 1350" transform="translate(19099.5 -6488.725)">
          <path id="パス_1746" data-name="パス 1746" d="M9.581-1.872H7.241v-.611h2.34ZM7.241-4.225h2.34v.559H7.241ZM3.627-6.812v-.624H5.668v.624Zm5.72-.624v.624H7.241v-.624Zm3.159,3.77H11.154v-1.6H7.241v-.572h3.692V-8.411H7.241v-.533h4.966v-1.222H7.241v-.845H5.668v.845H.819v1.222H5.668v.533H2.145v2.574H5.668v.572H1.82v1.04H5.668v.559H.52v1.183H5.668v.611H1.716V-.754H5.668v.4c0,.234-.078.312-.325.325-.208,0-.975,0-1.6-.026A4.766,4.766,0,0,1,4.251,1.17a6.846,6.846,0,0,0,2.3-.221c.507-.221.689-.533.689-1.3v-.4h2.34v.533h1.573V-2.483h1.352ZM15.8-2.7v-.845h2.171V-2.7Zm2.171-2.8v.806H15.8V-5.5Zm1.5-1.3H14.326V1.053H15.8V-1.573h2.171V-.416c0,.156-.052.208-.208.208s-.689.013-1.17-.013a5.346,5.346,0,0,1,.494,1.313A4.077,4.077,0,0,0,18.889.845c.442-.221.572-.585.572-1.248Zm3.7,6.2c0,.182-.065.234-.273.234s-.9.013-1.56-.013a5.421,5.421,0,0,1,.559,1.456,5.1,5.1,0,0,0,2.132-.26c.52-.247.663-.624.663-1.391V-7.033H23.166ZM22-6.669H20.579v5.3H22Zm.741-2.418c.325-.455.676-.962.988-1.469l-1.677-.494a14.574,14.574,0,0,1-1.066,1.963H17.368l.715-.247a7.183,7.183,0,0,0-1.209-1.69l-1.469.507a8.718,8.718,0,0,1,.975,1.43H13.611V-7.7H25.376V-9.087Zm5.6.273h8.229V-7.54h1.508v-2.574h-4.8V-11H31.733v.884H26.91V-7.54h1.43Zm1.7,5.265a11.726,11.726,0,0,0,1.69-1.326v1.2h1.456V-4.914h.1a10.2,10.2,0,0,0,1.872,1.365ZM33.176-.312V-.949h2.067v.637ZM29.77-.949h1.963v.637H29.77Zm1.963-.936H29.77V-2.5h1.963Zm3.51,0H33.176V-2.5h2.067Zm-3.51-4.277h-1.4a3.583,3.583,0,0,0-.429-.949c.6-.013,1.222-.026,1.833-.065Zm1.456,0V-7.254c.676-.052,1.339-.117,1.95-.182a9.534,9.534,0,0,1-.559,1.274Zm5.083,1.248V-6.162H36.088c.182-.273.39-.585.611-.91l-1.534-.377c.377-.039.728-.091,1.066-.143l-.793-1.027a59.41,59.41,0,0,1-6.747.481,3.739,3.739,0,0,1,.312,1l-.546.1a5.294,5.294,0,0,1,.4.871H26.754v1.248H29.77A13.638,13.638,0,0,1,26.3-3.38a5.987,5.987,0,0,1,.988,1.222c.338-.117.676-.273,1.027-.429V1.092H29.77V.754h5.473v.3h1.521V-2.769a9.425,9.425,0,0,0,.962.338,5.716,5.716,0,0,1,.949-1.222,12.94,12.94,0,0,1-3.393-1.261ZM2.873,13.54A10.872,10.872,0,0,0,5.694,11.1v2.093H7.215V11.148a10.8,10.8,0,0,0,2.9,2.392ZM4.29,18.545V18H8.658v.546Zm0-2.158H8.658v.546H4.29Zm4.368-1.066H4.29V14.8H8.658Zm3.64-4.55V9.432H7.215V7.989H5.694V9.432H.715v1.339h3.5a10.144,10.144,0,0,1-3.861,2.34,6.471,6.471,0,0,1,.962,1.2,10.93,10.93,0,0,0,1.469-.715v4.953H.637V19.9H12.389V18.545H10.257V13.618a9.275,9.275,0,0,0,1.365.637,5.861,5.861,0,0,1,1-1.235,10.562,10.562,0,0,1-3.991-2.249Zm11.271,5.005a5.372,5.372,0,0,1-.754,1.183c-.1-.351-.208-.754-.3-1.183Zm-5.98-1.2c-.312-.546-.936-1.547-1.209-1.95v-.559h1.183V10.693a8.39,8.39,0,0,1,.962.962c-.26.416-.533.806-.78,1.144l-.4.026.208,1.144c.728-.078,1.534-.182,2.379-.273.026.143.039.273.052.39l.884-.351c.039.286.078.572.1.845Zm1.859-2.509a6.132,6.132,0,0,1,.208.585l-.7.052c.559-.728,1.17-1.638,1.69-2.444.026,1.04.091,2.041.182,2.99a7.749,7.749,0,0,0-.507-1.456Zm2.639.546c-.052-.65-.091-1.313-.1-2.015a8.79,8.79,0,0,1,1.04,1.053c-.221.338-.442.663-.65.936Zm.221,1.963c-.065-.39-.117-.793-.156-1.222l.078.364c.364-.039.741-.091,1.144-.13l-.585.507a7.258,7.258,0,0,1,.624.481Zm1.339,1.2h1.82v-1.2h-.988l.247-.221a5.081,5.081,0,0,0-.988-.819l.962-.13a5.048,5.048,0,0,1,.1.507l.923-.39a7.967,7.967,0,0,0-.676-1.924l-.871.312c.078.169.156.351.221.533l-.78.052c.572-.767,1.2-1.716,1.716-2.535l-1.053-.52c-.182.377-.416.819-.663,1.248l-.338-.338c.325-.507.7-1.209,1.066-1.859l-1.157-.429a13.472,13.472,0,0,1-.637,1.664l-.208-.156-.377.546c-.013-.689-.013-1.391,0-2.119H20.6c0,.637.013,1.261.026,1.872l-.871-.429c-.182.39-.4.819-.663,1.261-.091-.1-.208-.221-.325-.338.312-.52.689-1.235,1.053-1.859l-1.144-.442a17.29,17.29,0,0,1-.637,1.677l-.221-.169-.572.845c.091.078.195.156.286.247H16.38V7.989H15v2.678H13.611v1.4H14.9a13.669,13.669,0,0,1-1.586,4.381,8.813,8.813,0,0,1,.65,1.313A11.124,11.124,0,0,0,15,15.321v4.8H16.38V14.4c.26.572.52,1.17.65,1.56l.52-.767v.585h.806a4.14,4.14,0,0,1-1.6,3.315,3.581,3.581,0,0,1,.871,1.014,4.444,4.444,0,0,0,1.729-2.5,8.215,8.215,0,0,1,1,.884l.832-1.027a10.361,10.361,0,0,0-1.547-1.2c.026-.156.052-.325.065-.494h1.469a11.963,11.963,0,0,0,.6,2.184A8.064,8.064,0,0,1,19.6,19.13a5.711,5.711,0,0,1,.806.988,9.385,9.385,0,0,0,1.963-1.027,2.144,2.144,0,0,0,1.781,1.04c1.014,0,1.378-.39,1.612-1.859a3.7,3.7,0,0,1-1-.7c-.065,1.027-.182,1.274-.507,1.274a1.093,1.093,0,0,1-.871-.6,7.5,7.5,0,0,0,1.469-2.015ZM30.6,9.549v.637H28.561V9.549Zm-2.041,2.275v-.676H30.6v.676Zm3.5,1.053V8.483h-5V20.131h1.508V12.877Zm2.327-1.027v-.7h2.106v.7Zm2.106-2.3v.637H34.385V9.549Zm1.521-1.066h-5.1v4.433h3.575V18.48c0,.156-.052.221-.208.221a6.526,6.526,0,0,1-.728,0,2.589,2.589,0,0,1,.247-.273,3.907,3.907,0,0,1-2.483-1.417h2.418V15.88H33.085V15.2h2.522V14.125H34.476l.559-.819-1.417-.364c-.1.325-.286.793-.442,1.183H31.824a4.258,4.258,0,0,0-.624-1.17l-1.183.325a5.16,5.16,0,0,1,.429.845H29.432V15.2h2.275v.676H29.25v1.131h2.223a3.644,3.644,0,0,1-2.457,1.521,4.92,4.92,0,0,1,.9,1,5.05,5.05,0,0,0,2.6-1.625,4.453,4.453,0,0,0,2.457,1.638,5.48,5.48,0,0,1,.4-.624,5.357,5.357,0,0,1,.312,1.209,3.589,3.589,0,0,0,1.794-.286c.416-.247.533-.637.533-1.352Z" transform="translate(859.967 741.639)" fill="#6a6a6a"/>
          <path id="パス_1747" data-name="パス 1747" d="M13.49-13.262H5.434v-.779H13.49Zm0,2.166H5.434v-.8H13.49Zm2.261-4.389H3.268v5.833H15.751ZM14.668-4.731a7.955,7.955,0,0,1-1.292,1.862A7.356,7.356,0,0,1,12.1-4.731ZM4.6-2.47h2.47v.741c-.836.076-1.672.133-2.47.19Zm0-2.356h2.47v.8H4.6Zm2.47-2.337v.76H4.6v-.76ZM16-6.536l-.38.076H9.709v1.729h1.748L10.2-4.389a11.636,11.636,0,0,0,1.729,2.812,9.755,9.755,0,0,1-2.7,1.368V-7.163h8.7V-8.949H1.045v1.786H2.527v5.776c-.589.057-1.159.076-1.653.114L1.045.665C2.717.513,4.883.323,7.068.114V1.653H9.234V.114a8.4,8.4,0,0,1,1.007,1.52,12.38,12.38,0,0,0,3.23-1.767A10.645,10.645,0,0,0,17,1.634a9.359,9.359,0,0,1,1.33-1.767,10.622,10.622,0,0,1-3.344-1.406A11.327,11.327,0,0,0,17.385-6Zm21.09-8.8H27.379v2.09h9.709ZM34.295-7.505H30.153V-9.8h4.142Zm2.2-4.275H28.082v6.251H36.5ZM34.58-.95c.456-.931.969-2.451,1.482-3.838l-2.223-.475A20.868,20.868,0,0,1,32.68-1.387Zm-3.192-.57a13.352,13.352,0,0,0-.95-3.629l-1.919.456a15.474,15.474,0,0,1,.855,3.686ZM27.816-2.736c-.418-.494-2.09-2.508-2.85-3.287.038-.247.057-.475.076-.722h2.489v-2.09H25.175V-11.78H27.3v-2.033H23.161c.152-.608.3-1.235.418-1.862l-2.128-.4a14.919,14.919,0,0,1-2.033,5.738,11.688,11.688,0,0,1,1.919,1.045,15.268,15.268,0,0,0,1.178-2.489h.513v2.945H19.8v2.09h3.116a10.06,10.06,0,0,1-3.268,6.8,7.775,7.775,0,0,1,1.558,1.6,10.808,10.808,0,0,0,3.249-5.32A31.165,31.165,0,0,1,26.372-.874ZM26.505-.8v2.09H37.354V-.8Z" transform="translate(927.122 758.81)" fill="#6a6a6a"/>
          <path id="パス_1748" data-name="パス 1748" d="M5.282-2.09V-6.346h8.436V-2.09Zm8.436-10.583v4.085H5.282v-4.085ZM2.945-14.953V1.425H5.282V.19h8.436v1.2H16.15v-16.34Z" transform="translate(1006.64 759.917)" fill="#6a6a6a"/>
          <path id="パス_1714" data-name="パス 1714" d="M28.3-25.749c6.343,0,11.694-3.452,11.694-9.062a8.009,8.009,0,0,0-6.343-8.07v-.173a7.412,7.412,0,0,0,5.524-7.465c0-5.006-4.315-8.372-11.176-8.372a17.212,17.212,0,0,0-11.824,5.049l3.323,3.884a11.418,11.418,0,0,1,8.285-3.884c3.582,0,5.437,1.683,5.437,3.97,0,2.719-2.675,4.919-9.407,4.919v4.531c7.724,0,10.141,1.985,10.141,5.092,0,2.675-2.5,4.4-6.041,4.4a12.859,12.859,0,0,1-9.278-4.358l-3.107,3.97A16.223,16.223,0,0,0,28.3-25.749Z" transform="translate(963.553 787.462)" fill="#6a6a6a"/>
          <g id="長方形_81" data-name="長方形 81" transform="translate(849.669 718)" fill="none" stroke="#6a6a6a" stroke-width="5">
            <rect width="59.196" height="56.983" stroke="none"/>
            <rect x="2.5" y="2.5" width="54.196" height="51.983" fill="none"/>
          </g>
        </g>
      </g>
    </g>
  </g>
</svg>
