<svg xmlns="http://www.w3.org/2000/svg" xmlns:xlink="http://www.w3.org/1999/xlink" width="361" height="264.762" viewBox="0 0 361 264.762">
  <defs>
    <clipPath id="clip-path">
      <rect id="長方形_125" data-name="長方形 125" width="42.617" height="31.741" fill="none"/>
    </clipPath>
  </defs>
  <g id="グループ_1487" data-name="グループ 1487" transform="translate(0 -1896.992)">
    <g id="パス_1724" data-name="パス 1724" transform="translate(14 1896.992)" fill="#fcfcfc">
      <path d="M 340.182373046875 260.76220703125 L 6.817670345306396 260.76220703125 C 6.651853561401367 260.7080993652344 5.979464054107666 260.2576293945312 5.284450054168701 258.8226013183594 C 4.456150054931641 257.1123657226562 4 254.8517608642578 4 252.4571533203125 L 4 12.3050537109375 C 4 9.910453796386719 4.456150054931641 7.649803638458252 5.284450054168701 5.939553737640381 C 5.979464054107666 4.504526138305664 6.651853561401367 4.054109573364258 6.817670345306396 4.000003337860107 L 340.182373046875 4.000003337860107 C 340.3482055664062 4.054111480712891 341.0205993652344 4.50457763671875 341.7156066894531 5.939653396606445 C 342.5438537597656 7.649853706359863 343 9.910453796386719 343 12.3050537109375 L 343 252.4571533203125 C 343 254.8516998291016 342.5438537597656 257.1123046875 341.7156066894531 258.8225402832031 C 341.0205993652344 260.2576293945312 340.3482055664062 260.7080993652344 340.182373046875 260.76220703125 Z" stroke="none"/>
      <path d="M 8.74163818359375 8 C 8.38067626953125 8.891433715820312 8 10.38279724121094 8 12.3050537109375 L 8 252.4571533203125 C 8 254.3794097900391 8.38067626953125 255.8707733154297 8.74163818359375 256.76220703125 L 338.2583618164062 256.76220703125 C 338.6193237304688 255.8707733154297 339 254.3794097900391 339 252.4571533203125 L 339 12.3050537109375 C 339 10.38279724121094 338.6193237304688 8.891433715820312 338.2583618164062 8 L 8.74163818359375 8 M 6.7965087890625 0 L 340.2034912109375 0 C 343.9570922851562 0 347 5.5091552734375 347 12.3050537109375 L 347 252.4571533203125 C 347 259.2529907226562 343.9570922851562 264.76220703125 340.2034912109375 264.76220703125 L 6.7965087890625 264.76220703125 C 3.04290771484375 264.76220703125 0 259.2529907226562 0 252.4571533203125 L 0 12.3050537109375 C 0 5.5091552734375 3.04290771484375 0 6.7965087890625 0 Z" stroke="none" fill="#efefef"/>
    </g>
    <g id="グループ_1407" data-name="グループ 1407" transform="translate(-702.086 -857.564)">
      <g id="長方形_113" data-name="長方形 113" transform="translate(735.597 2867.269)" fill="#fcfcfc" stroke="#c4c4c4" stroke-width="5">
        <rect width="316.001" height="126.528" rx="13" stroke="none"/>
        <rect x="2.5" y="2.5" width="311.001" height="121.528" rx="10.5" fill="none"/>
      </g>
      <path id="パス_1791" data-name="パス 1791" d="M5.185-5.559c.068-.714.1-1.428.119-2.074h6.817v2.074Zm6.936-6.069v2.074H5.3v-2.074ZM14.263-13.6H3.213v5.593c0,2.584-.238,5.831-2.8,8.024A7.984,7.984,0,0,1,1.972,1.479,9.145,9.145,0,0,0,4.845-3.6h7.276v2.465c0,.357-.136.493-.544.493-.374,0-1.8.017-2.992-.051a8.678,8.678,0,0,1,.85,2.125,10.284,10.284,0,0,0,3.757-.391c.782-.34,1.071-.918,1.071-2.142Zm15.963,3.2-.374.085h-5c.408-.935.748-1.853,1.054-2.754l-2.261-.51c-.85,3.077-2.7,6.936-5.253,9.2a12.259,12.259,0,0,1,1.955,1.139A18.946,18.946,0,0,0,23.919-8.3h4.862a23.158,23.158,0,0,1-2.312,4.131c-.9-.476-1.819-.918-2.652-1.275l-1.258,1.7a24.2,24.2,0,0,1,6.409,4.2l1.411-1.938a13.311,13.311,0,0,0-2.023-1.564A29.391,29.391,0,0,0,31.79-9.571ZM46.721.476c4.794,0,8.84-2.618,8.84-7.106,0-3.23-2.176-5.3-5-6.052v-.17c2.618-1.054,4.182-2.89,4.182-5.542,0-4.216-3.3-6.6-8.16-6.6a11.2,11.2,0,0,0-7.548,3.128l2.55,3.06a6.883,6.883,0,0,1,4.76-2.244c2.142,0,3.366,1.122,3.366,3.026,0,2.108-1.5,3.638-6.12,3.638v3.6c5.474,0,6.936,1.462,6.936,3.842,0,2.108-1.734,3.332-4.284,3.332a7.993,7.993,0,0,1-5.61-2.584L38.289-3.026A10.7,10.7,0,0,0,46.721.476Zm20.094,0c4.658,0,8.806-3.128,8.806-8.534,0-5.236-3.536-7.616-7.752-7.616a7.04,7.04,0,0,0-3.026.68l.476-5.338h9.146v-4.182H61l-.68,12.24L62.6-10.812a6.02,6.02,0,0,1,3.774-1.326,3.93,3.93,0,0,1,4.25,4.25c0,2.754-1.836,4.284-4.454,4.284a7.821,7.821,0,0,1-5.542-2.55l-2.312,3.2A11.467,11.467,0,0,0,66.815.476Zm13.5,6.766c4.114-1.36,6.426-4.386,6.426-8.364,0-3.094-1.292-4.93-3.6-4.93A3.007,3.007,0,0,0,79.9-3.094,2.935,2.935,0,0,0,83.033-.136h.306c.034,1.9-1.428,3.672-4.08,4.658ZM98.537.476c5.168,0,8.5-4.522,8.5-12.852,0-8.262-3.332-12.614-8.5-12.614S90-20.672,90-12.376C90-4.046,93.369.476,98.537.476Zm0-3.91c-2.176,0-3.808-2.108-3.808-8.942,0-6.8,1.632-8.7,3.808-8.7s3.774,1.9,3.774,8.7C102.311-5.542,100.713-3.434,98.537-3.434ZM118.563.476c5.168,0,8.5-4.522,8.5-12.852,0-8.262-3.332-12.614-8.5-12.614s-8.534,4.318-8.534,12.614C110.029-4.046,113.395.476,118.563.476Zm0-3.91c-2.176,0-3.808-2.108-3.808-8.942,0-6.8,1.632-8.7,3.808-8.7s3.774,1.9,3.774,8.7C122.337-5.542,120.739-3.434,118.563-3.434ZM138.589.476c5.168,0,8.5-4.522,8.5-12.852,0-8.262-3.332-12.614-8.5-12.614s-8.534,4.318-8.534,12.614C130.055-4.046,133.421.476,138.589.476Zm0-3.91c-2.176,0-3.808-2.108-3.808-8.942,0-6.8,1.632-8.7,3.808-8.7s3.774,1.9,3.774,8.7C142.363-5.542,140.765-3.434,138.589-3.434Zm31.058-6.5v-6.048h6v6.048Zm-8.5-6.048h5.664v6.048h-5.664Zm17.376-2.832H158.271V2.064h2.88V-7.1h14.5V-1.3c0,.408-.168.552-.624.576-.48,0-2.04.024-3.408-.072a11.665,11.665,0,0,1,1.032,2.856c2.136,0,3.576-.048,4.536-.528,1.008-.456,1.344-1.248,1.344-2.808Z" transform="translate(797.031 2922.359)" fill="#333"/>
      <path id="パス_1792" data-name="パス 1792" d="M9.92-23.872a23.2,23.2,0,0,0-5.312-3.072L2.464-24.128A20.406,20.406,0,0,1,7.648-20.8ZM8.352-15.424a20.1,20.1,0,0,0-5.28-2.912L.992-15.52a20.94,20.94,0,0,1,5.12,3.168ZM5.312-10.4A90.213,90.213,0,0,1,1.152.224L4.608,2.112C5.92-1.088,7.3-4.9,8.384-8.416Zm13.12.448v3.424H16.224V-9.952ZM20.96-3.744V-12.7H13.728V-2.016h2.5V-3.744ZM20.7-17.28H13.888V-14.5H20.7Zm6.432.288a36.183,36.183,0,0,1-1.76,6.048c-.288-2.4-.512-5.152-.672-8.128H30.5v-3.36H29.184l1.568-1.536a16.9,16.9,0,0,0-4.1-3.072l-2.048,1.92a20.67,20.67,0,0,1,3.552,2.688H24.544q-.1-2.112-.1-4.32H20.96c.032,1.472.064,2.912.128,4.32H9.5V-13.5C9.5-9.184,9.28-3.3,6.848.832A12.364,12.364,0,0,1,9.7,2.752C12.384-1.728,12.832-8.7,12.832-13.5v-5.568h8.416A95.566,95.566,0,0,0,22.656-5.728,19.764,19.764,0,0,1,16.544.128a20.05,20.05,0,0,1,2.5,2.432,23.871,23.871,0,0,0,4.672-4.32c.992,2.848,2.336,4.416,4.1,4.448,1.312,0,2.88-1.248,3.68-7.072A10.18,10.18,0,0,1,28.8-6.336c-.16,2.944-.48,4.576-.928,4.544-.576-.032-1.12-1.344-1.632-3.616A39.377,39.377,0,0,0,30.4-16.384Zm31.04,1.344H51.84V-17.6h6.336Zm0,4.576H51.84v-1.952h6.336Zm0,4.672H51.84V-8.384h6.336Zm-9.76-14.048V-3.584H61.76V-20.448H56.1c.256-.672.512-1.408.768-2.176H62.4v-3.232H47.456v3.232h5.376c-.128.7-.256,1.472-.384,2.176ZM36.544-21.5h7.648V-19.3H47.36v-5.152H42.144V-27.04H38.592v2.592h-5.12V-19.3h3.072ZM42.3-2.016H38.432V-4.96H42.3ZM38.5-7.9a23.266,23.266,0,0,0,2.688-2.08c.96.736,1.92,1.44,2.72,2.08Zm3.84-8.512a13.676,13.676,0,0,1-1.568,2.272l-2.208-1.44c.224-.288.448-.544.672-.832Zm3.2,9.856L45.6-6.5l2.144-2.656a50.269,50.269,0,0,0-4.352-3.2,18.62,18.62,0,0,0,3.168-5.76L44.416-19.1l-.576.16H40.864a12.63,12.63,0,0,0,.736-1.472l-3.1-.768A15.388,15.388,0,0,1,32.64-14.5a14.355,14.355,0,0,1,2.4,2.208,14.655,14.655,0,0,0,1.376-1.088L38.528-11.9a18.979,18.979,0,0,1-5.888,3.36,10.984,10.984,0,0,1,1.92,2.72l.672-.288V2.176h3.2V.9h7.1A22.57,22.57,0,0,1,47.3,2.72a22.755,22.755,0,0,0,6.816-4.256L51.04-3.456a18.136,18.136,0,0,1-5.5,3.52ZM55.52-1.568a35.261,35.261,0,0,1,4.992,4.384L63.456.864A40.284,40.284,0,0,0,58.272-3.3ZM66.208-21.952l.416,4.384c3.712-.8,10.24-1.5,13.248-1.824A12.8,12.8,0,0,0,75.1-9.5C75.1-2.56,81.44,1.024,88.16,1.472l1.5-4.384C84.224-3.2,79.3-5.088,79.3-10.368a9.724,9.724,0,0,1,6.784-8.96,33.244,33.244,0,0,1,6.176-.448l-.032-4.1c-2.272.1-5.76.288-9.056.576-5.856.48-11.136.96-13.824,1.184C68.736-22.048,67.488-21.984,66.208-21.952ZM87.68-16.64l-2.368.992a24.69,24.69,0,0,1,2.5,4.448l2.432-1.088A39.719,39.719,0,0,0,87.68-16.64Zm3.584-1.472-2.336,1.088a28.152,28.152,0,0,1,2.624,4.32l2.4-1.152A47.866,47.866,0,0,0,91.264-18.112Zm9.408,1.856.224,3.776a119.006,119.006,0,0,0,13.92.032c.512,1.088,1.12,2.208,1.792,3.328-.96-.1-2.688-.256-4.032-.384l-.32,3.04c2.336.256,5.792.672,7.584,1.024l1.952-2.944a9.755,9.755,0,0,1-1.44-1.632,29.123,29.123,0,0,1-1.664-2.848,42.879,42.879,0,0,0,5.12-.992l-.64-3.776a41.313,41.313,0,0,1-6.112,1.28c-.192-.512-.384-.992-.544-1.44-.16-.48-.32-.992-.48-1.5a46.65,46.65,0,0,0,5.888-1.184l-.512-3.68a36.78,36.78,0,0,1-6.3,1.376q-.336-1.632-.576-3.36l-4.288.48c.384,1.12.7,2.144,1.024,3.168a66.564,66.564,0,0,1-10.016-.48l.224,3.68a74.818,74.818,0,0,0,10.784.288c.192.544.384,1.152.64,1.888.128.352.256.736.416,1.12A82,82,0,0,1,100.672-16.256Zm6.144,7.424L102.848-9.6a10.627,10.627,0,0,0-1.376,5.152C101.536.128,105.5,2.016,111.9,2.016a49.15,49.15,0,0,0,7.776-.608l.224-4.064a42.117,42.117,0,0,1-8.032.7c-4.224,0-6.464-.96-6.464-3.328A6.006,6.006,0,0,1,106.816-8.832Zm30.272,5.216c0-1.088,1.248-1.984,3.52-1.984a17.772,17.772,0,0,1,2.624.224c.032.576.032,1.024.032,1.376,0,1.856-1.12,2.336-2.816,2.336C138.24-1.664,137.088-2.4,137.088-3.616ZM147.1-25.888h-4.32a12.863,12.863,0,0,1,.192,2.208v1.5h-1.248a59.743,59.743,0,0,1-7.9-.7l.1,3.648a73.561,73.561,0,0,0,7.84.576h1.184c-.032,1.088-.032,2.24-.032,3.3h-1.536a56.545,56.545,0,0,1-7.712-.608l.032,3.776c2.112.256,5.76.416,7.616.416h1.664c.032.96.064,1.984.128,2.976-.64-.064-1.312-.1-1.984-.1-4.928,0-7.9,2.272-7.9,5.5,0,3.392,2.688,5.344,7.808,5.344,4.224,0,6.3-2.112,6.3-4.832,0-.352,0-.736-.032-1.184A24.528,24.528,0,0,1,153.76.384l2.3-3.584a25.053,25.053,0,0,0-8.96-4.832c-.1-1.28-.16-2.592-.224-3.808,3.072-.1,5.568-.32,8.448-.64l.032-3.776c-2.592.352-5.312.608-8.544.768v-3.3c3.1-.16,6.016-.448,8.128-.7l.032-3.68a67.067,67.067,0,0,1-8.1.864c0-.512,0-.992.032-1.312A21.609,21.609,0,0,1,147.1-25.888Zm24.768.512-5.152-.064a20.41,20.41,0,0,1,.416,4.32c0,2.752-.32,11.168-.32,15.456,0,5.472,3.392,7.776,8.64,7.776a16.565,16.565,0,0,0,13.888-7.36l-2.912-3.52c-2.3,3.488-5.664,6.528-10.944,6.528-2.5,0-4.416-1.056-4.416-4.288,0-3.968.256-11.136.384-14.592C171.52-22.4,171.68-24.032,171.872-25.376ZM210.784-7.808l-3.808-.384A22.378,22.378,0,0,0,206.4-3.9c0,3.232,2.912,5.088,8.288,5.088a51.369,51.369,0,0,0,6.528-.448l.16-4.1a37.555,37.555,0,0,1-6.656.672c-3.424,0-4.384-1.056-4.384-2.464A10.964,10.964,0,0,1,210.784-7.808Zm-3.616-17.728-4.9-.384a16.4,16.4,0,0,1-.1,3.232q-.1.768-.288,1.824-1.488.1-2.88.1a31.667,31.667,0,0,1-4.032-.256l.1,4c1.12.064,2.336.128,3.872.128.672,0,1.376-.032,2.112-.064-.192.928-.448,1.824-.672,2.688-1.184,4.48-3.616,11.2-5.536,14.4l4.448,1.5a99.44,99.44,0,0,0,5.088-14.816c.352-1.312.672-2.72.96-4.1a58.909,58.909,0,0,0,6.24-1.056v-4c-1.76.416-3.552.768-5.344,1.024.1-.448.192-.864.256-1.216C206.624-23.232,206.912-24.672,207.168-25.536Zm1.888,9.664v3.744a54.981,54.981,0,0,1,6.176-.32,46.912,46.912,0,0,1,5.5.384l.1-3.84a56.273,56.273,0,0,0-5.632-.288C213.152-16.192,210.848-16.032,209.056-15.872Zm19.328,7.808h3.072l.672-11.808.16-4.448h-4.736l.16,4.448ZM229.92.448a2.967,2.967,0,0,0,2.944-3.072A2.947,2.947,0,0,0,229.92-5.7a2.922,2.922,0,0,0-2.912,3.072A2.941,2.941,0,0,0,229.92.448Zm10.3-8.512H243.3l.672-11.808.16-4.448h-4.736l.16,4.448ZM241.76.448A2.967,2.967,0,0,0,244.7-2.624,2.947,2.947,0,0,0,241.76-5.7a2.922,2.922,0,0,0-2.912,3.072A2.941,2.941,0,0,0,241.76.448Zm10.3-8.512h3.072l.672-11.808.16-4.448h-4.736l.16,4.448ZM253.6.448a2.967,2.967,0,0,0,2.944-3.072A2.947,2.947,0,0,0,253.6-5.7a2.922,2.922,0,0,0-2.912,3.072A2.941,2.941,0,0,0,253.6.448Z" transform="translate(760.822 2966.436)" fill="#ea6552"/>
    </g>
    <g id="グループ_1413" data-name="グループ 1413" transform="translate(-20850.047 5797.977)">
      <path id="パス_1725" data-name="パス 1725" d="M49.087,12.392s-17.514-1.053-21.663-2.105S16.363,7.83,14.058,5.374,8.067-.678,6.165.111,5.129,1.953,5.129,1.953s-2.938.658-3.8,1.447A1.813,1.813,0,0,0,.981,5.374S-.4,6.954.116,7.743A8.053,8.053,0,0,0,1.672,9.322S.116,11.164,1.5,11.69a14.491,14.491,0,0,0,3.457.658l5.877.921S42.4,26.723,48.969,26.591" transform="translate(20873.412 -3798.203) rotate(21)" fill="#fff" stroke="#6a6a6a" stroke-width="3"/>
      <g id="グループ_1409" data-name="グループ 1409" transform="translate(20850.047 -3818.721)">
        <g id="グループ_375" data-name="グループ 375" transform="translate(0 0)">
          <g id="グループ_374" data-name="グループ 374" clip-path="url(#clip-path)">
            <path id="パス_1140" data-name="パス 1140" d="M52.75,67c-.261.845-.68,1-1.347.392a16.811,16.811,0,0,0-8.951-4.063,16.533,16.533,0,0,0-12.557,2.891c-.306.216-1.633.189-2.09.555-.823.7-.566.6-1.188,1.066-.92.685-.823,1.737-1.8,3.017-.9.524.306,2.94-.715,3.384a8.828,8.828,0,0,0,3.487,5.493,18.012,18.012,0,0,0,9.228,3.644c1.953.208,3.939.113,5.91.154.32-.1.65-.169.959-.293a36.76,36.76,0,0,0,5.175-2.153c5.034-3,6.509-8.814,3.887-14.086" transform="translate(-14.899 -53.962)" fill="#fbbcc4"/>
            <path id="パス_1139" data-name="パス 1139" d="M22.312,3.431c-.3-3.366-1.8-4.3-4.21-2.608C17.933.716,17.756.6,17.573.487a2.383,2.383,0,0,0-3.787,1.586A1.635,1.635,0,0,1,12.62,3.442,14.045,14.045,0,0,0,5.7,9.464c-.388,1.432-1.572,2.411-4.1,5.6A22.315,22.315,0,0,0,0,20.693,12.79,12.79,0,0,0,5.062,27.82a21.966,21.966,0,0,0,10.786,3.769,23.968,23.968,0,0,0,9.943-.877,14.152,14.152,0,0,0,9.563-10.019,7.757,7.757,0,0,0-.453-5.239,13.972,13.972,0,0,0-4.869-6.248,1.8,1.8,0,0,1-.485-.52,12.4,12.4,0,0,0-7.234-5.254M27.471,9.48c-.2-.083-.4-.163-.593-.25-6.1-2.718-12.172-3.022-18.2.234a4.6,4.6,0,0,1-.457.168,10.89,10.89,0,0,1,5.722-4.538c.144-.054.435.1.573.246a2.875,2.875,0,0,0,2.839.837,1.449,1.449,0,0,1,.822.034,2.407,2.407,0,0,0,2.976-.467,1.041,1.041,0,0,1,.793-.274,9.54,9.54,0,0,1,5.6,3.927l.053.152-.133-.069M20.835,29.575c-1.971-.041-3.957.054-5.91-.154A18.012,18.012,0,0,1,5.7,25.776a7.773,7.773,0,0,1-3.183-5.193c.375-2.227-.046-2.02.825-4.036,1.131-1.9.83-1.723,3.441-3.558,0,0,.915-.512,1.221-.728A16.533,16.533,0,0,1,20.557,9.371a16.813,16.813,0,0,1,8.951,4.063c.667.607,1.086.453,1.347-.392l.034-.468a3.713,3.713,0,0,1,.4.325,7.761,7.761,0,0,1,2.019,7.6c-1.474,5.073-5.98,8.858-12.471,9.071M17.1,4.17c-1.04.121-1.633-.493-1.438-1.359a2.779,2.779,0,0,1,.437-.736c.269.175.686.3.775.538A7.272,7.272,0,0,1,17.1,4.17m2.194.355c-.517-1.078-.189-2.124.715-2.39a1.62,1.62,0,0,1-.715,2.39" transform="translate(6.995 0)" fill="#707070"/>
            <path id="パス_1141" data-name="パス 1141" d="M75.072,39.425a9.542,9.542,0,0,0-5.6-3.926,1.041,1.041,0,0,0-.793.274,2.407,2.407,0,0,1-2.975.467,1.45,1.45,0,0,0-.822-.034,2.876,2.876,0,0,1-2.839-.837c-.138-.142-.429-.3-.573-.246a10.891,10.891,0,0,0-5.722,4.538,4.66,4.66,0,0,0,.457-.168c6.025-3.256,12.1-2.953,18.2-.234.2.087.4.167.593.25l.081-.084" transform="translate(-40.525 -30.03)" fill="#dfdedc"/>
            <path id="パス_1142" data-name="パス 1142" d="M23.885,87.322C26.507,92.595,25.032,98.41,20,101.408a36.759,36.759,0,0,1-5.175,2.153c-.309.124-.639.2-.959.293,6.491-.213,11-4,12.471-9.071a7.761,7.761,0,0,0-2.019-7.6,3.76,3.76,0,0,0-.4-.325l-.034.468" transform="translate(13.966 -74.28)" fill="#f0d7da"/>
            <path id="パス_1143" data-name="パス 1143" d="M129.4,16.42a7.266,7.266,0,0,0-.227-1.558c-.088-.241-.506-.362-.775-.538a2.778,2.778,0,0,0-.437.736c-.195.867.4,1.481,1.438,1.359" transform="translate(-105.301 -12.25)" fill="#dcdad7"/>
            <path id="パス_1144" data-name="パス 1144" d="M106.351,17.137a1.62,1.62,0,0,0,.715-2.39c-.9.265-1.232,1.312-.715,2.39" transform="translate(-80.06 -12.612)" fill="#dedcdb"/>
            <path id="パス_1145" data-name="パス 1145" d="M55.38,64.986l.133.069-.053-.153-.081.084" transform="translate(-20.914 -55.506)" fill="#dfdedc"/>
          </g>
        </g>
        <g id="グループ_378" data-name="グループ 378" transform="translate(40.245 8.225)">
          <g id="グループ_316" data-name="グループ 316" transform="translate(0 0)">
            <g id="グループ_315" data-name="グループ 315">
              <g id="グループ_314" data-name="グループ 314">
                <g id="グループ_311" data-name="グループ 311" transform="translate(12.233 14.068)">
                  <path id="パス_879" data-name="パス 879" d="M143.786,151.861c1.7,1,3.726.721,4.517-.625s.05-3.249-1.654-4.25-3.726-.721-4.517.626S142.082,150.861,143.786,151.861Z" transform="translate(-141.577 -145.876)" fill="#ffb300"/>
                  <path id="パス_880" data-name="パス 880" d="M144.061,151.273c1.7,1,3.726.72,4.517-.626s.05-3.248-1.654-4.249-3.726-.721-4.517.626S142.357,150.273,144.061,151.273Z" transform="translate(-142.09 -145.797)" fill="#ffd500"/>
                  <path id="パス_881" data-name="パス 881" d="M146.136,146.908a1.68,1.68,0,0,1,1.783-.281" transform="translate(-144.618 -145.894)" fill="rgba(0,0,0,0)" stroke="#fff589" stroke-linecap="round" stroke-miterlimit="10" stroke-width="1.823"/>
                  <line id="線_25" data-name="線 25" x1="1.268" y2="2.16" transform="translate(1.534 1.229)" fill="none" stroke="#ffbe00" stroke-linecap="round" stroke-miterlimit="10" stroke-width="1.215"/>
                  <line id="線_26" data-name="線 26" x1="1.268" y2="2.16" transform="translate(2.707 1.918)" fill="none" stroke="#ffbe00" stroke-linecap="round" stroke-miterlimit="10" stroke-width="1.215"/>
                  <line id="線_27" data-name="線 27" x1="1.268" y2="2.16" transform="translate(3.972 2.661)" fill="none" stroke="#ffbe00" stroke-linecap="round" stroke-miterlimit="10" stroke-width="1.215"/>
                </g>
                <g id="グループ_312" data-name="グループ 312" transform="translate(9.468 27.71)">
                  <path id="パス_882" data-name="パス 882" d="M146.613,165.7c.021,1.976,1.3,3.564,2.864,3.548s2.81-1.632,2.789-3.608-1.3-3.564-2.865-3.549S146.592,163.72,146.613,165.7Z" transform="translate(-146.613 -161.622)" fill="#ffb300"/>
                  <path id="パス_883" data-name="パス 883" d="M146.25,165.158c.021,1.976,1.3,3.564,2.865,3.548s2.81-1.632,2.789-3.608-1.3-3.564-2.865-3.548S146.229,163.182,146.25,165.158Z" transform="translate(-145.936 -161.55)" fill="#ffd500"/>
                  <path id="パス_884" data-name="パス 884" d="M147.3,162.612s.824.135,1.16,1.384" transform="translate(-143.392 -161.692)" fill="rgba(0,0,0,0)" stroke="#fff589" stroke-linecap="round" stroke-miterlimit="10" stroke-width="1.823"/>
                  <line id="線_28" data-name="線 28" x1="2.505" y2="0.026" transform="translate(1.876 2.132)" fill="none" stroke="#ffbe00" stroke-linecap="round" stroke-miterlimit="10" stroke-width="1.215"/>
                  <line id="線_29" data-name="線 29" x1="2.505" y2="0.026" transform="translate(1.891 3.492)" fill="none" stroke="#ffbe00" stroke-linecap="round" stroke-miterlimit="10" stroke-width="1.215"/>
                  <line id="線_30" data-name="線 30" x1="2.505" y2="0.026" transform="translate(1.906 4.959)" fill="none" stroke="#ffbe00" stroke-linecap="round" stroke-miterlimit="10" stroke-width="1.215"/>
                </g>
                <g id="グループ_313" data-name="グループ 313">
                  <path id="パス_885" data-name="パス 885" d="M90.805,150.269c1.835-6.723,1.708-5.77,6.347-10.971a29.846,29.846,0,0,1,22.02-9.746,31.716,31.716,0,0,1,22.252,9.424c4.386,7.133,3.846,5.944,4.346,14.689,2.214,1.073,4.532.976,7.731,2.512-3.071,1.216-4.491,1.552-5.129,2.086,2.162,2,3.247,2.164,5.129,5.215-4.884,0-4.392.492-6.607,0,.64,1.575,2.195,3.567,2.629,5.34-.532-1.378-2.323-1.883-3.752-1.515a11.29,11.29,0,0,0-3.777,2.252,36.216,36.216,0,0,1-21.508,7.027A44.8,44.8,0,0,1,98.5,170.663c-3.415-1.915-6.846-4.573-7.7-8.394a14.674,14.674,0,0,0-7.336.921,13,13,0,0,1,5.019-4.182,7.585,7.585,0,0,0-7.142-.218,22.479,22.479,0,0,1,6.306-5.126,11.684,11.684,0,0,0-6.582-1.44C83.567,150.946,88.772,150.915,90.805,150.269Z" transform="translate(-81.07 -129.552)" fill="#fff" stroke="#707070" stroke-width="2"/>
                  <path id="パス_886" data-name="パス 886" d="M103.031,145.181c.861-4.036,1.725-8.2.953-12.255a3.966,3.966,0,0,0-1.573-2.827c-1.277-.742-2.944-.048-3.995.99s-1.761,2.388-2.864,3.37C99.078,137.341,102.576,145.446,103.031,145.181Z" transform="translate(-44.945 -129.584)" fill="#fff" stroke="#707070" stroke-width="3"/>
                  <path id="パス_887" data-name="パス 887" d="M143.333,135.029c-1.427-2.8-2.75-3.147-5.58-4.666-.822-.44-4.61-.885-4.828,2.737a25.991,25.991,0,0,0,.616,7.785C135.542,138.385,140.2,134.859,143.333,135.029Z" transform="translate(-115.111 -129.866)" fill="#fff" stroke="#707070" stroke-width="3"/>
                  <path id="パス_888" data-name="パス 888" d="M136.286,149.641" transform="translate(-112.221 -132.244)" fill="#8e3920"/>
                  <ellipse id="楕円形_39" data-name="楕円形 39" cx="2.489" cy="2.489" rx="2.489" ry="2.489" transform="translate(47.475 17.675) rotate(-96.417)" fill="#541413"/>
                  <path id="パス_889" data-name="パス 889" d="M134.7,145.412a2.489,2.489,0,1,0-2.827,2.1A2.489,2.489,0,0,0,134.7,145.412Z" transform="translate(-104.994 -131.295)" fill="#541413"/>
                  <path id="パス_890" data-name="パス 890" d="M100.853,136.824a2.743,2.743,0,0,0,.479-2.455,2.067,2.067,0,0,0-1.955-1.432,1.664,1.664,0,0,0-1.569,1.714A6.941,6.941,0,0,1,100.853,136.824Z" transform="translate(-44.65 -128.725)" fill="#541413"/>
                  <path id="パス_892" data-name="パス 892" d="M125.539,134.561a11.267,11.267,0,0,0-15.51-.446C114.745,131.839,120.482,132.353,125.539,134.561Z" transform="translate(-78.736 -129.184)" fill="#541413"/>
                  <path id="パス_893" data-name="パス 893" d="M126.011,137.737a11.267,11.267,0,0,0-15.51-.446C115.217,135.015,120.955,135.529,126.011,137.737Z" transform="translate(-79.617 -129.609)" fill="#541413"/>
                  <path id="パス_894" data-name="パス 894" d="M126.513,141.12A11.268,11.268,0,0,0,111,140.674C115.718,138.4,121.456,138.911,126.513,141.12Z" transform="translate(-80.552 -130.063)" fill="#541413"/>
                  <path id="パス_895" data-name="パス 895" d="M95.231,162.911a70.649,70.649,0,0,1-7.839,1.2,7.209,7.209,0,0,0,5.225.779A3.512,3.512,0,0,0,95.231,162.911Z" transform="translate(-30.309 -136.101)" fill="#541413"/>
                  <path id="パス_896" data-name="パス 896" d="M95.021,166.76a14.7,14.7,0,0,1-7.667.365c.115.688.835,1.074,1.471,1.358,1.206.539,2.587,1.082,3.8.57C93.606,168.641,94.2,167.659,95.021,166.76Z" transform="translate(-30.066 -136.617)" fill="#541413"/>
                  <path id="パス_897" data-name="パス 897" d="M152.243,161.906a14.047,14.047,0,0,1-7.452-4.407,1.594,1.594,0,0,0-.164,1.55,3.558,3.558,0,0,0,.976,1.289,9.637,9.637,0,0,0,4,2.189,3.364,3.364,0,0,0,1.457.131A1.814,1.814,0,0,0,152.243,161.906Z" transform="translate(-135.293 -135.079)" fill="#541413"/>
                  <path id="パス_898" data-name="パス 898" d="M153.214,165.448a14.757,14.757,0,0,1-8.76-3.137,5.465,5.465,0,0,0,3.393,4.443A5.233,5.233,0,0,0,153.214,165.448Z" transform="translate(-136.222 -135.724)" fill="#541413"/>
                </g>
                <path id="パス_899" data-name="パス 899" d="M120.5,129.784s-2.881,12.4-3.177,10.372-1.408-10.577-1.408-10.577Z" transform="translate(-78.8 -128.962)" fill="#541413"/>
                <path id="パス_900" data-name="パス 900" d="M118.52,155s11.557-4.793,14.653,1.276c3.388,6.642-1.927,11.333-8.825,10.689s-13.989-.533-16.685-1.976c-3.816-2.042-7.261-7.759-2.692-11.551S118.52,155,118.52,155Z" transform="translate(-81.148 -132.795)" fill="#fff"/>
                <path id="パス_901" data-name="パス 901" d="M124.286,159.469s-.608,2.834-4.258,2.969c-2.871.106-4.645-3.208-4.645-3.208l3.79-3.087Z" transform="translate(-82.12 -131.63)" fill="#e13b40"/>
                <path id="パス_902" data-name="パス 902" d="M129.477,155.178c.618,1.046-.286,2.318-1.769,2.794a6.632,6.632,0,0,1-4.681-.43,5.864,5.864,0,0,1-2.731-2.764c-.673,1.771-2.968,3.273-5.659,3.369s-5.432-1.469-5.387-3.3c-.061,1.814,1.939,4.392,4.515,4.892s5.481-1.128,6.774-2.7a7.889,7.889,0,0,0,4.342,2.254c1.808.294,3.914-.144,4.847-1.224A2.066,2.066,0,0,0,129.477,155.178Z" transform="translate(-82.714 -131.447)" fill="#6d261a"/>
                <path id="パス_903" data-name="パス 903" d="M124.035,153.848c.018-.993-1.444-1.826-3.263-1.858s-3.311.746-3.329,1.739,1.444,1.825,3.263,1.858S124.017,154.841,124.035,153.848Z" transform="translate(-83.652 -131.073)" fill="#772616"/>
              </g>
              <path id="パス_904" data-name="パス 904" d="M11668.924,14523.1l2.5,1.115,4-.586v-3.252l-1.516-1.152-6.578-7.833h-.461l-3.178-.795-1.2.795Z" transform="translate(-11614.35 -14506.556)" fill="#fff"/>
              <path id="パス_905" data-name="パス 905" d="M11666.706,14521.311l-3.5,2.314-1.409-4.089,2.15-2.092-.239-1.564.239-1.33,1.785-1.581,2.477-1.729,1.678-.647h1.027l1.333.77,2.693-.77.673,1.01-.27,1.823Z" transform="translate(-11644.843 -14506.556)" fill="#fff"/>
            </g>
          </g>
          <path id="パス_906" data-name="パス 906" d="M140.406,134.858c-.356-.847-.863-1.816-1.773-1.936a1.832,1.832,0,0,0-1.832,1.6,5.325,5.325,0,0,0,.419,2.621A6.639,6.639,0,0,1,140.406,134.858Z" transform="translate(-116.342 -130.129)" fill="#541413"/>
        </g>
      </g>
    </g>
    <g id="グループ_1412" data-name="グループ 1412" transform="translate(104.71 1913.607)">
      <path id="パス_1789" data-name="パス 1789" d="M8.54-9.156c.112-1.176.168-2.352.2-3.416H19.964v3.416Zm11.424-10v3.416H8.736v-3.416ZM23.492-22.4H5.292v9.212c0,4.256-.392,9.6-4.62,13.216A13.151,13.151,0,0,1,3.248,2.436,15.062,15.062,0,0,0,7.98-5.936H19.964v4.06c0,.588-.224.812-.9.812-.616,0-2.968.028-4.928-.084a14.294,14.294,0,0,1,1.4,3.5c2.884,0,4.844-.056,6.188-.644C23.016,1.148,23.492.2,23.492-1.82Zm26.292,5.264-.616.14H40.936c.672-1.54,1.232-3.052,1.736-4.536l-3.724-.84C37.548-17.3,34.5-10.948,30.3-7.224a20.191,20.191,0,0,1,3.22,1.876,31.206,31.206,0,0,0,5.88-8.316H47.4A38.142,38.142,0,0,1,43.6-6.86c-1.484-.784-3-1.512-4.368-2.1l-2.072,2.8C40.964-4.4,45.612-1.484,47.712.756l2.324-3.192A21.924,21.924,0,0,0,46.7-5.012,48.409,48.409,0,0,0,52.36-15.764Zm32.172,7.28c0-6.1-4.368-10.92-11.312-10.92-7.252,0-12.852,5.516-12.852,11.984,0,4.732,2.576,8.148,5.684,8.148,3.052,0,5.46-3.472,7.14-9.128A56.626,56.626,0,0,0,72.3-17.36c3.78.644,5.88,3.528,5.88,7.392,0,4.088-2.8,6.664-6.384,7.5a21.536,21.536,0,0,1-2.6.448l2.1,3.332C78.344.224,81.956-3.948,81.956-9.856Zm-20.58.7a8.814,8.814,0,0,1,7.112-8.12A42.028,42.028,0,0,1,67-10.5c-1.148,3.78-2.24,5.544-3.416,5.544C62.5-4.956,61.376-6.328,61.376-9.156Zm43.96-4.788a15.514,15.514,0,0,1-2.212,4.088,15.119,15.119,0,0,1-2.352-4.088ZM107.268-17l-.616.084H97.8v-2.6h12.208v-3.108h-15.4v6.5c0,3.528-.252,8.4-2.884,11.732a11.647,11.647,0,0,1,2.8,1.792c2.268-2.968,3-7.28,3.22-10.92a20.613,20.613,0,0,0,3.136,5.992A14.655,14.655,0,0,1,96.04-4.844a11.95,11.95,0,0,1,1.876,2.8,19.278,19.278,0,0,0,5.264-3.08A16.664,16.664,0,0,0,109-1.96a11.49,11.49,0,0,1,2.128-2.884A15.693,15.693,0,0,1,105.5-7.532a20.862,20.862,0,0,0,3.892-8.792Zm-14.9-1.792a23.336,23.336,0,0,0-4.564-4.284l-2.492,1.988a21.253,21.253,0,0,1,4.4,4.48Zm-.728,5.936H85.316V-9.8H88.4v5.908a37.217,37.217,0,0,1-3.7,2.576l1.624,3.472C87.808.98,89.012-.112,90.216-1.2,92.036.98,94.36,1.764,97.832,1.9c3.36.14,8.988.084,12.376-.084a14.244,14.244,0,0,1,1.036-3.36c-3.724.28-10.08.364-13.356.224-2.94-.112-5.068-.868-6.244-2.744Zm27.02,3.892a88.961,88.961,0,0,1-5.012,8.932l2.912,2.072c1.568-2.744,3.22-5.964,4.62-8.932Zm1.148-4.424a19.537,19.537,0,0,0-5.18-2.66l-1.764,2.492a21.746,21.746,0,0,1,5.04,2.94Zm13.524,2.436V-9.8h-6.86v-1.232h-2.352a33.611,33.611,0,0,0,5.656-1.988,29.624,29.624,0,0,0,6.468,2.072ZM126.308-5.1a16.4,16.4,0,0,0,.168-1.932h6.86V-5.1Zm6.076-13.216a10.873,10.873,0,0,1-2.436,2.016,14.407,14.407,0,0,1-2.8-2.016Zm6.356,0V-21.2H131.6v-2.492h-3.444V-21.2h-7.028v.2a22.636,22.636,0,0,0-4.844-2.576l-1.82,2.464a19.227,19.227,0,0,1,4.956,3.024l1.708-2.436v2.212h2.184a17.261,17.261,0,0,0,3.5,3.5,34.919,34.919,0,0,1-6.832,1.568,13.769,13.769,0,0,1,1.568,2.8c.588-.112,1.176-.252,1.736-.392v3.052c0,2.38-.364,6.272-3.5,8.736a14.157,14.157,0,0,1,2.66,1.764,10.33,10.33,0,0,0,3.3-5.068h7.588V2.38h3.276V-10.864l1.008.2a8.152,8.152,0,0,1,1.792-3A39.314,39.314,0,0,1,133-14.98a13.628,13.628,0,0,0,3.136-3.332Zm24.164,4.62H157.36V-15.4H162.9Zm0,4H157.36V-11.4H162.9Zm0,4.088H157.36V-7.336H162.9Zm-8.54-12.292V-3.136H166.04V-17.892h-4.956c.224-.588.448-1.232.672-1.9H166.6v-2.828H153.524V-19.8h4.7c-.112.616-.224,1.288-.336,1.9Zm-10.388-.924h6.692v1.932h2.772v-4.508h-4.564V-23.66h-3.108v2.268h-4.48v4.508h2.688Zm5.04,17.052h-3.388V-4.34h3.388Zm-3.332-5.152a20.358,20.358,0,0,0,2.352-1.82c.84.644,1.68,1.26,2.38,1.82Zm3.36-7.448a11.968,11.968,0,0,1-1.372,1.988l-1.932-1.26c.2-.252.392-.476.588-.728Zm2.8,8.624.056.056,1.876-2.324a43.986,43.986,0,0,0-3.808-2.8,16.293,16.293,0,0,0,2.772-5.04l-1.876-.868-.5.14h-2.6a11.052,11.052,0,0,0,.644-1.288l-2.716-.672a13.465,13.465,0,0,1-5.124,5.852,12.561,12.561,0,0,1,2.1,1.932,12.823,12.823,0,0,0,1.2-.952l1.848,1.288a16.606,16.606,0,0,1-5.152,2.94,9.611,9.611,0,0,1,1.68,2.38l.588-.252V1.9h2.8V.784h6.216a19.75,19.75,0,0,1,1.54,1.6,19.911,19.911,0,0,0,5.964-3.724l-2.688-1.68a15.869,15.869,0,0,1-4.816,3.08Zm8.736,4.368a30.854,30.854,0,0,1,4.368,3.836L167.524.756a35.249,35.249,0,0,0-4.536-3.64Z" transform="translate(0 32)" fill="#333"/>
    </g>
    <path id="パス_1790" data-name="パス 1790" d="M4.27-4.578c.056-.588.084-1.176.1-1.708H9.982v1.708Zm5.712-5v1.708H4.368V-9.576ZM11.746-11.2h-9.1v4.606c0,2.128-.2,4.8-2.31,6.608a6.575,6.575,0,0,1,1.288,1.2A7.531,7.531,0,0,0,3.99-2.968H9.982v2.03c0,.294-.112.406-.448.406-.308,0-1.484.014-2.464-.042a7.147,7.147,0,0,1,.7,1.75A8.47,8.47,0,0,0,10.864.854c.644-.28.882-.756.882-1.764ZM24.892-8.568l-.308.07H20.468c.336-.77.616-1.526.868-2.268l-1.862-.42a16.661,16.661,0,0,1-4.326,7.574,10.1,10.1,0,0,1,1.61.938A15.6,15.6,0,0,0,19.7-6.832h4a19.071,19.071,0,0,1-1.9,3.4c-.742-.392-1.5-.756-2.184-1.05l-1.036,1.4A19.925,19.925,0,0,1,23.856.378l1.162-1.6a10.962,10.962,0,0,0-1.666-1.288A24.2,24.2,0,0,0,26.18-7.882ZM35.063,0h12.46V-3.332H43.631V-20.188H40.579a13.44,13.44,0,0,1-4.816,1.736V-15.9h3.752V-3.332H35.063ZM57.519.392c4.256,0,7-3.724,7-10.584,0-6.8-2.744-10.388-7-10.388s-7.028,3.556-7.028,10.388C50.491-3.332,53.263.392,57.519.392Zm0-3.22c-1.792,0-3.136-1.736-3.136-7.364,0-5.6,1.344-7.168,3.136-7.168s3.108,1.568,3.108,7.168C60.627-4.564,59.311-2.828,57.519-2.828ZM74.011.392c4.256,0,7-3.724,7-10.584,0-6.8-2.744-10.388-7-10.388s-7.028,3.556-7.028,10.388C66.983-3.332,69.755.392,74.011.392Zm0-3.22c-1.792,0-3.136-1.736-3.136-7.364,0-5.6,1.344-7.168,3.136-7.168s3.108,1.568,3.108,7.168C77.119-4.564,75.8-2.828,74.011-2.828ZM84.595,5.964c3.388-1.12,5.292-3.612,5.292-6.888,0-2.548-1.064-4.06-2.968-4.06a2.476,2.476,0,0,0-2.66,2.436A2.417,2.417,0,0,0,86.835-.112h.252c.028,1.568-1.176,3.024-3.36,3.836ZM99.6.392c4.256,0,7-3.724,7-10.584,0-6.8-2.744-10.388-7-10.388s-7.028,3.556-7.028,10.388C92.575-3.332,95.347.392,99.6.392Zm0-3.22c-1.792,0-3.136-1.736-3.136-7.364,0-5.6,1.344-7.168,3.136-7.168s3.108,1.568,3.108,7.168C102.711-4.564,101.4-2.828,99.6-2.828ZM116.1.392c4.256,0,7-3.724,7-10.584,0-6.8-2.744-10.388-7-10.388s-7.028,3.556-7.028,10.388C109.067-3.332,111.839.392,116.1.392Zm0-3.22c-1.792,0-3.136-1.736-3.136-7.364,0-5.6,1.344-7.168,3.136-7.168s3.108,1.568,3.108,7.168C119.2-4.564,117.887-2.828,116.1-2.828ZM132.587.392c4.256,0,7-3.724,7-10.584,0-6.8-2.744-10.388-7-10.388s-7.028,3.556-7.028,10.388C125.559-3.332,128.331.392,132.587.392Zm0-3.22c-1.792,0-3.136-1.736-3.136-7.364,0-5.6,1.344-7.168,3.136-7.168s3.108,1.568,3.108,7.168C135.7-4.564,134.379-2.828,132.587-2.828Zm25.152-5.038v-4.788h4.75v4.788Zm-6.726-4.788H155.5v4.788h-4.484ZM164.769-14.9H148.733V1.634h2.28V-5.624h11.476v4.6c0,.323-.133.437-.494.456-.38,0-1.615.019-2.7-.057a9.235,9.235,0,0,1,.817,2.261,8.778,8.778,0,0,0,3.591-.418c.8-.361,1.064-.988,1.064-2.223Z" transform="translate(102.291 1985.047)" fill="#333"/>
    <path id="Icon_open-arrow-thick-bottom" data-name="Icon open-arrow-thick-bottom" d="M7.856,0V19.639H0L11.9,31.423,23.567,19.639H15.711V0Z" transform="translate(179.729 1997.885)"/>
  </g>
</svg>
