<svg id="グループ_98" data-name="グループ 98" xmlns="http://www.w3.org/2000/svg" width="172.041" height="116.126" viewBox="0 0 172.041 116.126">
  <g id="グループ_84" data-name="グループ 84" transform="translate(0 30.52)">
    <g id="グループ_81" data-name="グループ 81" transform="translate(0 2.802)">
      <path id="パス_144" data-name="パス 144" d="M369.038,54.933c.1.008.2.015.31.025-.667-.161-1.346-.267-2.011-.44-2.494-.581-4.419-1.084-5.686-4.037-1.366-2.529-1.245-5.815-2.316-8.728-.038-.185-.076-.369-.114-.553a33.433,33.433,0,0,1-.63,5.434,10.774,10.774,0,0,1-.466,1.5c-.092.268-.241.509-.182.553a.236.236,0,0,0-.109.13,5.6,5.6,0,0,1-.635,1.026c-.171.315-1.04,1.087-1,1.176-.168.119-.311.276-.46.39a19.489,19.489,0,0,1-3.465,2.238,21.271,21.271,0,0,1-4.541,1.613c-.213-.007-.425-.014-.641-.034.134.033.276.063.421.089-.268.063-.536.123-.8.177.3-.006.758-.041,1.3-.1,2,.256,4.617.029,5.509.185a4.6,4.6,0,0,1,2.067,1.219,7.248,7.248,0,0,1,1.23,3.168c.585,2.272.514,4.633.956,6.93.056.351.116.7.177,1.054.034-.186.062-.372.093-.556.028.389.161-.534.253-.71,1.086-3.051.883-6.348,3-8.786a11.385,11.385,0,0,1,3.925-2.384,13.189,13.189,0,0,1,4.325-.5C369.384,54.981,369.211,54.957,369.038,54.933Zm-9.714,2.775a4.816,4.816,0,0,0-.717,1.08A6.779,6.779,0,0,0,357.964,57a5.639,5.639,0,0,0-4.147-2.076,38.75,38.75,0,0,0-4.563.3,16.809,16.809,0,0,0,2.515-.555,17.429,17.429,0,0,0,5.328-2.5,6.009,6.009,0,0,0,1-.859l0-.009a7.207,7.207,0,0,0,1.254-1.822c1.061,4.037,4.044,4.914,7.7,5.289.13.017.253.028.38.041A11.54,11.54,0,0,0,359.324,57.708Z" transform="translate(-346.716 -41.199)" fill="#ecb651"/>
    </g>
    <g id="グループ_82" data-name="グループ 82" transform="translate(24.952)">
      <path id="パス_145" data-name="パス 145" d="M375.271,38.711c-.2,4.084-.911,6.408-4.708,7.8a3.384,3.384,0,0,1-1.694.33,1.678,1.678,0,0,0,.608.061c2.164-.3,4.619-1.141,5.734-3.164C376.011,42.167,375.615,40.354,375.271,38.711Z" transform="translate(-368.869 -38.711)" fill="#ecb651"/>
      <path id="パス_146" data-name="パス 146" d="M369.086,46.01c3.568-.4,4.681-.642,5.39,3.578a18.782,18.782,0,0,0,.42,2.452c.051-.463.112-.925.194-1.383C375.967,45.494,373.578,44.737,369.086,46.01Z" transform="translate(-368.842 -37.857)" fill="#ecb651"/>
      <path id="パス_147" data-name="パス 147" d="M377.373,45.652c-1.071-.081-1.513-1.233-1.688-2.255-.333-1.444-.616-2.9-1.079-4.314-.114,2.8-.668,7.239,3.46,6.733C378.969,45.815,377.728,45.73,377.373,45.652Z" transform="translate(-368.155 -38.664)" fill="#ecb651"/>
      <path id="パス_148" data-name="パス 148" d="M374.11,47.407a7.918,7.918,0,0,0-.175,4.289,7.893,7.893,0,0,0,.241,1.09c.072-.87.259-1.723.376-2.586.322-3.007,1.46-5.177,4.549-5.161A4.73,4.73,0,0,0,374.11,47.407Z" transform="translate(-368.255 -37.918)" fill="#ecb651"/>
    </g>
    <g id="グループ_83" data-name="グループ 83" transform="translate(16.341 24.436)">
      <path id="パス_149" data-name="パス 149" d="M374.923,68.145c-.353-.041-.714-.071-1.077-.092.2-.02.4-.046.606-.075a9.514,9.514,0,0,1-1.313-.066c-.952-.2-1.952-.158-2.736-.974a5.284,5.284,0,0,1-1.046-2.263,20.254,20.254,0,0,1-.694-3.229c-.027-.34-.064-.685-.122-1.038-.6,3.646-1.965,8.1-6.552,8.352-.223.041-.676.01-.765.025a4.283,4.283,0,0,0,.739.078c.108,0,.2-.01.311-.012-.244.059-.484.125-.719.2a7.938,7.938,0,0,1,3.323.023c1.757.714,2.352,2.458,2.711,4.192a5.961,5.961,0,0,0,.177,1.755c.03.13.162.775.178.639.007-.072.018-.153.026-.23a3.62,3.62,0,0,1,.036.467,4.2,4.2,0,0,0,.188-.731,16.555,16.555,0,0,0,.217-2.19,10.914,10.914,0,0,1,2.118-3.619C371.656,68.144,373.4,68.242,374.923,68.145Zm-6.784,2.834a3.849,3.849,0,0,0-.377-.827,4.127,4.127,0,0,0-3.492-1.563,5.448,5.448,0,0,0,4.041-3.694,3.644,3.644,0,0,0,.886,2.187,4.471,4.471,0,0,0,3.182.987,5.1,5.1,0,0,0-2.822,1.032A5.533,5.533,0,0,0,368.139,70.979Z" transform="translate(-361.224 -60.406)" fill="#ecb651"/>
    </g>
  </g>
  <g id="グループ_87" data-name="グループ 87" transform="translate(73.981 0.156)">
    <path id="パス_156" data-name="パス 156" d="M424.54,18.456a45.385,45.385,0,0,0-4.859-.141c-2.451-.112-5.021-.208-7.283.9,2.887-1.026,5.42-.453,8.324-.4,3.492-.163,5.568.472,9.171.774C428.1,19.248,426.329,18.807,424.54,18.456Z" transform="translate(-412.398 -10.932)" fill="#ecb651"/>
    <path id="パス_157" data-name="パス 157" d="M415.251,28.789c-.207,1.068,1.8-3.951,2.024-4.724,1.408-3.707,2.149-7.946,3.126-11.888A69.976,69.976,0,0,0,415.251,28.789Z" transform="translate(-412.039 -11.699)" fill="#ecb651"/>
    <path id="パス_158" data-name="パス 158" d="M423.474,22.28c-2.774,1.9-5.6,3.753-8.177,5.92,2.168-1.415,4.534-2.515,6.641-4.021,2.14-1.56,4.295-3.087,6.487-4.571A45.172,45.172,0,0,0,423.474,22.28Z" transform="translate(-412.032 -10.761)" fill="#ecb651"/>
    <path id="パス_159" data-name="パス 159" d="M422.573,19.853c-.8-2.773-1.489-5.624-3.034-8.1,1.075,2.782,1.192,5.8,2.048,8.633.884,2.522,1.793,5.28,2.751,7.928A31.448,31.448,0,0,0,422.573,19.853Z" transform="translate(-411.496 -11.753)" fill="#ecb651"/>
    <path id="パス_160" data-name="パス 160" d="M425.208,27.055a70.9,70.9,0,0,0-6.286-5.691,24.7,24.7,0,0,0-6.312-2.541,30.375,30.375,0,0,1,5.215,2.6,82.475,82.475,0,0,0,7.133,5.6,4.614,4.614,0,0,1,.606.492A3,3,0,0,0,425.208,27.055Z" transform="translate(-412.371 -10.86)" fill="#ecb651"/>
  </g>
  <g id="グループ_91" data-name="グループ 91" transform="translate(45.758 37.247)">
    <g id="グループ_90" data-name="グループ 90" transform="translate(5.896 0.284)">
      <path id="パス_193" data-name="パス 193" d="M406.315,44.935c-.511,4.564-1.139,9.323-3.26,13.453-1.741,3.12-5,4.892-8.232,6.127-.742.309-1.49.606-2.248.874.785-.172,1.562-.378,2.335-.6C406.134,62.151,407.858,55.436,406.315,44.935Z" transform="translate(-392.575 -44.935)" fill="#ecb651"/>
      <path id="パス_194" data-name="パス 194" d="M404.013,65.257c-2.585-2.806-6.8-3.166-10.348-2.383,9.4-1.177,10.662,4.562,11.163,12.427.028.906.062,1.812.076,2.718.234-1.059.449-2.124.585-3.2C405.817,71.634,405.874,68.006,404.013,65.257Z" transform="translate(-392.437 -42.714)" fill="#ecb651"/>
      <path id="パス_195" data-name="パス 195" d="M413,62.43a5.113,5.113,0,0,1-4.639-2.294c-3.224-4.031-3.09-9.324-3.516-14.173-.6,3.9-1.113,7.832.323,11.637a10.441,10.441,0,0,0,3.539,4.224,8.485,8.485,0,0,0,4.55.783c.63-.019,1.257-.07,1.883-.132C414.435,62.484,413.554,62.465,413,62.43Z" transform="translate(-391.101 -44.805)" fill="#ecb651"/>
      <path id="パス_196" data-name="パス 196" d="M406.45,65.271c-2.082,4.126-2.728,8.881-3.28,13.425-.033.239.042,1.32.081,1.054a21.074,21.074,0,0,1,1.146-3.712c1.669-3.867,2.2-7.931,4.228-11.434a5.826,5.826,0,0,1,2.292-1.879,16.636,16.636,0,0,1,4.489-1.539C412.172,61.585,408.317,62.314,406.45,65.271Z" transform="translate(-391.237 -42.882)" fill="#ecb651"/>
    </g>
    <path id="パス_197" data-name="パス 197" d="M418.438,44.713c-3.827-.455-4.178,4.322-.206,3.877-3.256.246-2.639-3.994.3-3.521.649.122.87.828.941,1.4a1.985,1.985,0,0,1-1.153,2.266c-.7.242.454-.046.686-.251C420.615,47.652,420.607,44.658,418.438,44.713Z" transform="translate(-383.795 -44.683)" fill="#ecb651"/>
    <path id="パス_198" data-name="パス 198" d="M420.091,55.9c-.01.847,1.112,1.036,1.508.189C422.112,53.764,418.674,54.472,420.091,55.9Zm.787.558c-.007,0-.013,0-.02.008a2.545,2.545,0,0,1-.708-.857c.006-.028,0-.036-.007-.019a.644.644,0,0,1,.032-.535c.088-.134.237-.312.408-.279A1.036,1.036,0,0,1,420.878,56.462Z" transform="translate(-383.246 -43.432)" fill="#ecb651"/>
    <path id="パス_199" data-name="パス 199" d="M394.632,78.883c-.187.072-.475.175-.8.268a1.322,1.322,0,0,0-.094-2.2,2.1,2.1,0,0,0-2.553.821c-.966,1.524.421,1.881,1.771,1.7a1.094,1.094,0,0,1-.549.083,1.677,1.677,0,0,0,1.135-.2A3.136,3.136,0,0,0,394.632,78.883ZM391.6,78.7a2.267,2.267,0,0,1,1.447-1.6c.091.06.3.164.349.253a1.41,1.41,0,0,1,.359,1.358,1.56,1.56,0,0,1-.464.564C392.493,79.443,391.674,79.428,391.6,78.7Z" transform="translate(-386.896 -40.631)" fill="#ecb651"/>
    <path id="パス_200" data-name="パス 200" d="M398.893,85.586a1.384,1.384,0,0,0-.13-2,2.55,2.55,0,0,0-3.286.661,1.2,1.2,0,0,0,.662,1.834,3.5,3.5,0,0,0,2.9-.175c-.38.079-.766.2-1.153.257C398.158,86.062,398.862,85.745,398.893,85.586Zm-1.976.512c-.618-.149-1.2-.821-.868-1.461.446-1.051,2.139-1.617,2.638-.309a1.361,1.361,0,0,1-.835,1.818c-.021.011-.019.012-.031.019A1.873,1.873,0,0,1,396.917,86.1Z" transform="translate(-386.341 -39.81)" fill="#ecb651"/>
    <path id="パス_201" data-name="パス 201" d="M389.381,87.655c-.279-.66-1.2-.569-1.669-.167-1.167,1.02.72,1.4,1.54,1.118a1.014,1.014,0,0,1-.534.749A1.12,1.12,0,0,0,389.381,87.655Zm-1.2-.092a.982.982,0,0,1,.427-.194,1.48,1.48,0,0,1,.607.883.754.754,0,0,1,.044.342C388.475,88.757,387.057,88.411,388.177,87.563Z" transform="translate(-387.341 -39.314)" fill="#ecb651"/>
    <path id="パス_202" data-name="パス 202" d="M420.688,69.712a16.672,16.672,0,0,1-1.838,6.373c-1.055,1.345-2.7,2.032-4.162,2.84a7.646,7.646,0,0,1-.745.305,8.645,8.645,0,0,0,1.274-.374c1.639-.663,3.465-1.258,4.625-2.667C421.035,74.3,420.962,71.857,420.688,69.712Z" transform="translate(-383.98 -41.52)" fill="#ecb651"/>
    <path id="パス_203" data-name="パス 203" d="M414.092,78.056c4.466-.083,5.306,1.236,5.741,5.473.06.527.11,1.055.125,1.586a10.1,10.1,0,0,0,.256-1.045C421.233,78.9,418.982,77.468,414.092,78.056Z" transform="translate(-383.961 -40.482)" fill="#ecb651"/>
    <path id="パス_204" data-name="パス 204" d="M423.713,77.6a6.357,6.357,0,0,1-3.041-2.781,13.326,13.326,0,0,1-.69-4.682c-.384,1.781-.924,3.951.351,5.5a6.687,6.687,0,0,0,3.162,1.987,5.227,5.227,0,0,0,.743.17A4.3,4.3,0,0,1,423.713,77.6Z" transform="translate(-383.273 -41.466)" fill="#ecb651"/>
    <path id="パス_205" data-name="パス 205" d="M420.4,79.153a15.321,15.321,0,0,0-.84,5.449,3.623,3.623,0,0,0,.009.494c.136-.5.317-.986.451-1.487.5-1.47.686-3.046,1.254-4.483a7.011,7.011,0,0,1,3.057-2.116A7.108,7.108,0,0,0,420.4,79.153Z" transform="translate(-383.27 -40.598)" fill="#ecb651"/>
  </g>
  <g id="グループ_93" data-name="グループ 93" transform="translate(28.576 0)">
    <path id="パス_206" data-name="パス 206" d="M380.126,13.234a4.658,4.658,0,0,1-.224.826c-1.139,2.933-2.336,5.481-5.976,4.565,3.684,1.318,6.076-.936,6.233-4.615A3.977,3.977,0,0,0,380.126,13.234Z" transform="translate(-371.854 -11.41)" fill="#ecb651"/>
    <path id="パス_207" data-name="パス 207" d="M383.412,19.2c-2.841.019-4.492-3.423-3.777-5.917a3.865,3.865,0,0,0,3.816,6.028,5.526,5.526,0,0,0,.857-.171A6.278,6.278,0,0,1,383.412,19.2Z" transform="translate(-371.219 -11.404)" fill="#ecb651"/>
    <path id="パス_208" data-name="パス 208" d="M378.762,19.233c-1.352-.981-3.184-.978-4.793-1.079a10.2,10.2,0,0,1,3.867,1.169,4.712,4.712,0,0,1,.967,2.6c.127.435.2,1.9.312,1.063C379.3,21.772,379.663,20.238,378.762,19.233Z" transform="translate(-371.848 -10.788)" fill="#ecb651"/>
    <path id="パス_209" data-name="パス 209" d="M378.273,22.9c-.044,1,.567-1.5.8-1.829.912-2.056,3.127-2.039,5.088-2.427C380.978,18.742,377.833,18.781,378.273,22.9Z" transform="translate(-371.31 -10.726)" fill="#ecb651"/>
    <path id="パス_210" data-name="パス 210" d="M379.711,11.615c-.622.014-.7.283-.518.52a.451.451,0,0,0,.342.389.577.577,0,0,0,.381-.033l.019,0-.016,0C380.355,12.3,380.418,11.587,379.711,11.615Z" transform="translate(-371.199 -11.614)" fill="#ecb651"/>
    <path id="パス_211" data-name="パス 211" d="M384.975,18.153a.519.519,0,0,0-.5.118.463.463,0,0,0-.178.115.493.493,0,0,0,.608.739C385.579,18.967,385.656,18.364,384.975,18.153Z" transform="translate(-370.555 -10.791)" fill="#ecb651"/>
    <path id="パス_212" data-name="パス 212" d="M378.507,23.317c-.695-.137-.783.4-.446.726a.291.291,0,0,0,.123.195.593.593,0,0,0,.591-.05C379.091,23.961,378.8,23.433,378.507,23.317Z" transform="translate(-371.355 -10.138)" fill="#ecb651"/>
    <g id="グループ_92" data-name="グループ 92" transform="translate(0 6.737)">
      <path id="パス_213" data-name="パス 213" d="M372.8,18.523a.442.442,0,0,0,.376-.522c-.054-.405-.641-.5-.942-.312-.48.519.3,1.073.818.8A.658.658,0,0,1,372.8,18.523Z" transform="translate(-372.086 -17.595)" fill="#ecb651"/>
      <path id="パス_214" data-name="パス 214" d="M372.515,17.718h0Z" transform="translate(-372.032 -17.58)" fill="#ecb651"/>
    </g>
  </g>
  <g id="グループ_95" data-name="グループ 95" transform="translate(157.147 70.442)">
    <path id="パス_215" data-name="パス 215" d="M501.52,77.747a4.865,4.865,0,0,1-.224.826c-1.139,2.933-2.337,5.481-5.978,4.565,3.684,1.318,6.076-.936,6.234-4.615A4.063,4.063,0,0,0,501.52,77.747Z" transform="translate(-493.248 -75.923)" fill="#ecb651"/>
    <path id="パス_216" data-name="パス 216" d="M504.806,83.71c-2.841.019-4.492-3.423-3.778-5.917a3.866,3.866,0,0,0,3.817,6.028,5.525,5.525,0,0,0,.857-.171A6.275,6.275,0,0,1,504.806,83.71Z" transform="translate(-492.613 -75.917)" fill="#ecb651"/>
    <path id="パス_217" data-name="パス 217" d="M500.156,83.746c-1.352-.981-3.184-.978-4.793-1.079a10.2,10.2,0,0,1,3.867,1.169,4.712,4.712,0,0,1,.968,2.6c.126.435.2,1.9.311,1.063C500.7,86.285,501.057,84.751,500.156,83.746Z" transform="translate(-493.242 -75.301)" fill="#ecb651"/>
    <path id="パス_218" data-name="パス 218" d="M499.667,87.415c-.045,1,.565-1.5.8-1.828.911-2.057,3.127-2.04,5.087-2.428C502.372,83.255,499.227,83.294,499.667,87.415Z" transform="translate(-492.704 -75.239)" fill="#ecb651"/>
    <path id="パス_219" data-name="パス 219" d="M501.1,76.128c-.621.014-.695.283-.517.52a.449.449,0,0,0,.342.389.573.573,0,0,0,.38-.033l.02,0-.017,0C501.749,76.812,501.811,76.1,501.1,76.128Z" transform="translate(-492.593 -76.127)" fill="#ecb651"/>
    <path id="パス_220" data-name="パス 220" d="M506.368,82.666a.52.52,0,0,0-.5.118.468.468,0,0,0-.177.115.493.493,0,0,0,.608.739C506.973,83.48,507.049,82.877,506.368,82.666Z" transform="translate(-491.949 -75.304)" fill="#ecb651"/>
    <path id="パス_221" data-name="パス 221" d="M499.9,87.83c-.695-.137-.783.4-.446.726a.294.294,0,0,0,.122.195.6.6,0,0,0,.592-.05C500.485,88.474,500.191,87.946,499.9,87.83Z" transform="translate(-492.749 -74.651)" fill="#ecb651"/>
    <g id="グループ_94" data-name="グループ 94" transform="translate(0 6.737)">
      <path id="パス_222" data-name="パス 222" d="M494.194,83.036a.442.442,0,0,0,.377-.521c-.055-.405-.641-.5-.942-.312-.48.519.3,1.073.818.8A.663.663,0,0,1,494.194,83.036Z" transform="translate(-493.48 -82.108)" fill="#ecb651"/>
      <path id="パス_223" data-name="パス 223" d="M493.909,82.231h0Z" transform="translate(-493.426 -82.093)" fill="#ecb651"/>
    </g>
  </g>
  <g id="グループ_96" data-name="グループ 96" transform="translate(108.731 65.597)">
    <path id="パス_224" data-name="パス 224" d="M451.649,25.749c-.664,4.984-.081,11.384-4.693,14.623a18.658,18.658,0,0,1-6.737,3.387,13.043,13.043,0,0,1-2.574.536,6.355,6.355,0,0,0,1.614-.119,20.281,20.281,0,0,0,9.191-3.378C453.7,37.745,452.376,30.791,451.649,25.749Z" transform="translate(-428.937 -17.841)" fill="#ecb651"/>
    <path id="パス_225" data-name="パス 225" d="M438.156,49.205c3.384.268,8.706-.111,10.517,3.73a15.376,15.376,0,0,1,1.5,5.818c.293,2.278.632,4.551.939,6.828.03.189.052.38.087.568l.006-.062a52.827,52.827,0,0,0,.63-6.593C452.684,49.435,446.484,48.638,438.156,49.205Z" transform="translate(-429.04 -22.566)" fill="#ecb651"/>
    <path id="パス_226" data-name="パス 226" d="M465.6,42.466c-7.594-2.274-9.336-8.938-10.135-16.717-1.5,9.367,1.379,16,11.465,17.22.58.061,1.162.1,1.745.1A19.179,19.179,0,0,1,465.6,42.466Z" transform="translate(-432.471 -17.841)" fill="#ecb651"/>
    <path id="パス_227" data-name="パス 227" d="M466.873,47.626a9.6,9.6,0,0,0-3.212.445,16.627,16.627,0,0,0-4.214,1.529c-5.116,3.453-5.271,10.4-4.8,15.961.935-5.439,2.145-11.609,5.927-15.349a17.389,17.389,0,0,1,5.291-2.319,7.264,7.264,0,0,1,2.088-.128A3.263,3.263,0,0,0,466.873,47.626Z" transform="translate(-432.346 -22.272)" fill="#ecb651"/>
    <path id="パス_228" data-name="パス 228" d="M451.136,47.966c-2.04-.1-2.754-.246-5.267-.227-2.354.158-4.681.6-7.017.919,2.528-.089,4.89-.311,7.029-.342,1.395.032,3.809.389,5.83.408a78.524,78.524,0,0,0,10.829-.892C459,47.834,454.061,48.16,451.136,47.966Z" transform="translate(-429.182 -22.296)" fill="#ecb651"/>
    <path id="パス_229" data-name="パス 229" d="M455.365,34.8a97.5,97.5,0,0,0-.138,22.852c.344-3.136.7-6.278.868-9.429A111.094,111.094,0,0,0,455.365,34.8Z" transform="translate(-432.375 -19.674)" fill="#ecb651"/>
    <path id="パス_230" data-name="パス 230" d="M452.076,42.976a27.843,27.843,0,0,0,5.779,8.627A68.122,68.122,0,0,0,452.076,42.976Z" transform="translate(-431.861 -21.331)" fill="#ecb651"/>
    <path id="パス_231" data-name="パス 231" d="M455.535,45.833a15.911,15.911,0,0,0-3.807,5.195c2.044-2.841,4.907-5.011,6.7-8.029A36.85,36.85,0,0,1,455.535,45.833Z" transform="translate(-431.791 -21.336)" fill="#ecb651"/>
    <path id="パス_232" data-name="パス 232" d="M455.278,15.831a13.651,13.651,0,0,0-.126,6.078A14.925,14.925,0,0,0,455.278,15.831Z" transform="translate(-432.427 -15.831)" fill="#ecb651"/>
    <path id="パス_233" data-name="パス 233" d="M454.777,72.209a11.281,11.281,0,0,0,.049,5.575A17.415,17.415,0,0,0,454.777,72.209Z" transform="translate(-432.342 -27.255)" fill="#ecb651"/>
    <path id="パス_234" data-name="パス 234" d="M475.219,47.717c2.551-.2,3.928-.241,6.448-.418A19,19,0,0,0,475.219,47.717Z" transform="translate(-436.551 -22.187)" fill="#ecb651"/>
    <path id="パス_235" data-name="パス 235" d="M426.724,49.043a31.36,31.36,0,0,0,6.2,0A47.625,47.625,0,0,0,426.724,49.043Z" transform="translate(-426.724 -22.539)" fill="#ecb651"/>
    <path id="パス_236" data-name="パス 236" d="M438.156,29.229a21.869,21.869,0,0,0,5.593,6.6A30.9,30.9,0,0,0,438.156,29.229Z" transform="translate(-429.04 -18.546)" fill="#ecb651"/>
    <path id="パス_237" data-name="パス 237" d="M465.649,56.9a30.545,30.545,0,0,0,7.552,7.6A37.574,37.574,0,0,0,465.649,56.9Z" transform="translate(-434.611 -24.152)" fill="#ecb651"/>
    <path id="パス_238" data-name="パス 238" d="M464.455,36.411a32.351,32.351,0,0,0,6.918-6.138A28.61,28.61,0,0,0,464.455,36.411Z" transform="translate(-434.37 -18.757)" fill="#ecb651"/>
    <path id="パス_239" data-name="パス 239" d="M435.837,64.731a43.911,43.911,0,0,0,7.676-6.791A27.281,27.281,0,0,0,435.837,64.731Z" transform="translate(-428.571 -24.364)" fill="#ecb651"/>
  </g>
</svg>
