<svg xmlns="http://www.w3.org/2000/svg" xmlns:xlink="http://www.w3.org/1999/xlink" width="361" height="264.762" viewBox="0 0 361 264.762">
  <defs>
    <clipPath id="clip-path">
      <rect id="長方形_125" data-name="長方形 125" width="42.617" height="31.741" fill="none"/>
    </clipPath>
  </defs>
  <g id="グループ_1487" data-name="グループ 1487" transform="translate(0 -1896.992)">
    <g id="パス_1724" data-name="パス 1724" transform="translate(14 1896.992)" fill="#fcfcfc">
      <path d="M 340.182373046875 260.76220703125 L 6.817670345306396 260.76220703125 C 6.651853561401367 260.7080993652344 5.979464054107666 260.2576293945312 5.284450054168701 258.8226013183594 C 4.456150054931641 257.1123657226562 4 254.8517608642578 4 252.4571533203125 L 4 12.3050537109375 C 4 9.910453796386719 4.456150054931641 7.649803638458252 5.284450054168701 5.939553737640381 C 5.979464054107666 4.504526138305664 6.651853561401367 4.054109573364258 6.817670345306396 4.000003337860107 L 340.182373046875 4.000003337860107 C 340.3482055664062 4.054111480712891 341.0205993652344 4.50457763671875 341.7156066894531 5.939653396606445 C 342.5438537597656 7.649853706359863 343 9.910453796386719 343 12.3050537109375 L 343 252.4571533203125 C 343 254.8516998291016 342.5438537597656 257.1123046875 341.7156066894531 258.8225402832031 C 341.0205993652344 260.2576293945312 340.3482055664062 260.7080993652344 340.182373046875 260.76220703125 Z" stroke="none"/>
      <path d="M 8.74163818359375 8 C 8.38067626953125 8.891433715820312 8 10.38279724121094 8 12.3050537109375 L 8 252.4571533203125 C 8 254.3794097900391 8.38067626953125 255.8707733154297 8.74163818359375 256.76220703125 L 338.2583618164062 256.76220703125 C 338.6193237304688 255.8707733154297 339 254.3794097900391 339 252.4571533203125 L 339 12.3050537109375 C 339 10.38279724121094 338.6193237304688 8.891433715820312 338.2583618164062 8 L 8.74163818359375 8 M 6.7965087890625 0 L 340.2034912109375 0 C 343.9570922851562 0 347 5.5091552734375 347 12.3050537109375 L 347 252.4571533203125 C 347 259.2529907226562 343.9570922851562 264.76220703125 340.2034912109375 264.76220703125 L 6.7965087890625 264.76220703125 C 3.04290771484375 264.76220703125 0 259.2529907226562 0 252.4571533203125 L 0 12.3050537109375 C 0 5.5091552734375 3.04290771484375 0 6.7965087890625 0 Z" stroke="none" fill="#efefef"/>
    </g>
    <g id="グループ_1407" data-name="グループ 1407" transform="translate(-702.086 -857.564)">
      <g id="長方形_113" data-name="長方形 113" transform="translate(735.597 2867.269)" fill="#fcfcfc" stroke="#c4c4c4" stroke-width="5">
        <rect width="316.001" height="126.528" rx="13" stroke="none"/>
        <rect x="2.5" y="2.5" width="311.001" height="121.528" rx="10.5" fill="none"/>
      </g>
      <text id="月々_35_000_円" data-name="月々 35,000 円" transform="translate(797.031 2922.359)" fill="#333" font-size="17" font-family="SourceHanSansJP-Bold, Source Han Sans JP" font-weight="700"><tspan x="0" y="0">月々</tspan><tspan y="0" font-size="15"> </tspan><tspan y="0" font-size="34">35,000 </tspan><tspan y="0" font-size="24">円</tspan></text>
      <text id="減額できました_" data-name="減額できました!!!" transform="translate(760.822 2966.436)" fill="#ea6552" font-size="32" font-family="SourceHanSansJP-Bold, Source Han Sans JP" font-weight="700"><tspan x="0" y="0">減額</tspan><tspan y="0">できました!!!</tspan></text>
    </g>
    <g id="グループ_1413" data-name="グループ 1413" transform="translate(-20850.047 5797.977)">
      <path id="パス_1725" data-name="パス 1725" d="M49.087,12.392s-17.514-1.053-21.663-2.105S16.363,7.83,14.058,5.374,8.067-.678,6.165.111,5.129,1.953,5.129,1.953s-2.938.658-3.8,1.447A1.813,1.813,0,0,0,.981,5.374S-.4,6.954.116,7.743A8.053,8.053,0,0,0,1.672,9.322S.116,11.164,1.5,11.69a14.491,14.491,0,0,0,3.457.658l5.877.921S42.4,26.723,48.969,26.591" transform="translate(20873.412 -3798.203) rotate(21)" fill="#fff" stroke="#6a6a6a" stroke-width="3"/>
      <g id="グループ_1409" data-name="グループ 1409" transform="translate(20850.047 -3818.721)">
        <g id="グループ_375" data-name="グループ 375" transform="translate(0 0)">
          <g id="グループ_374" data-name="グループ 374" clip-path="url(#clip-path)">
            <path id="パス_1140" data-name="パス 1140" d="M52.75,67c-.261.845-.68,1-1.347.392a16.811,16.811,0,0,0-8.951-4.063,16.533,16.533,0,0,0-12.557,2.891c-.306.216-1.633.189-2.09.555-.823.7-.566.6-1.188,1.066-.92.685-.823,1.737-1.8,3.017-.9.524.306,2.94-.715,3.384a8.828,8.828,0,0,0,3.487,5.493,18.012,18.012,0,0,0,9.228,3.644c1.953.208,3.939.113,5.91.154.32-.1.65-.169.959-.293a36.76,36.76,0,0,0,5.175-2.153c5.034-3,6.509-8.814,3.887-14.086" transform="translate(-14.899 -53.962)" fill="#fbbcc4"/>
            <path id="パス_1139" data-name="パス 1139" d="M22.312,3.431c-.3-3.366-1.8-4.3-4.21-2.608C17.933.716,17.756.6,17.573.487a2.383,2.383,0,0,0-3.787,1.586A1.635,1.635,0,0,1,12.62,3.442,14.045,14.045,0,0,0,5.7,9.464c-.388,1.432-1.572,2.411-4.1,5.6A22.315,22.315,0,0,0,0,20.693,12.79,12.79,0,0,0,5.062,27.82a21.966,21.966,0,0,0,10.786,3.769,23.968,23.968,0,0,0,9.943-.877,14.152,14.152,0,0,0,9.563-10.019,7.757,7.757,0,0,0-.453-5.239,13.972,13.972,0,0,0-4.869-6.248,1.8,1.8,0,0,1-.485-.52,12.4,12.4,0,0,0-7.234-5.254M27.471,9.48c-.2-.083-.4-.163-.593-.25-6.1-2.718-12.172-3.022-18.2.234a4.6,4.6,0,0,1-.457.168,10.89,10.89,0,0,1,5.722-4.538c.144-.054.435.1.573.246a2.875,2.875,0,0,0,2.839.837,1.449,1.449,0,0,1,.822.034,2.407,2.407,0,0,0,2.976-.467,1.041,1.041,0,0,1,.793-.274,9.54,9.54,0,0,1,5.6,3.927l.053.152-.133-.069M20.835,29.575c-1.971-.041-3.957.054-5.91-.154A18.012,18.012,0,0,1,5.7,25.776a7.773,7.773,0,0,1-3.183-5.193c.375-2.227-.046-2.02.825-4.036,1.131-1.9.83-1.723,3.441-3.558,0,0,.915-.512,1.221-.728A16.533,16.533,0,0,1,20.557,9.371a16.813,16.813,0,0,1,8.951,4.063c.667.607,1.086.453,1.347-.392l.034-.468a3.713,3.713,0,0,1,.4.325,7.761,7.761,0,0,1,2.019,7.6c-1.474,5.073-5.98,8.858-12.471,9.071M17.1,4.17c-1.04.121-1.633-.493-1.438-1.359a2.779,2.779,0,0,1,.437-.736c.269.175.686.3.775.538A7.272,7.272,0,0,1,17.1,4.17m2.194.355c-.517-1.078-.189-2.124.715-2.39a1.62,1.62,0,0,1-.715,2.39" transform="translate(6.995 0)" fill="#707070"/>
            <path id="パス_1141" data-name="パス 1141" d="M75.072,39.425a9.542,9.542,0,0,0-5.6-3.926,1.041,1.041,0,0,0-.793.274,2.407,2.407,0,0,1-2.975.467,1.45,1.45,0,0,0-.822-.034,2.876,2.876,0,0,1-2.839-.837c-.138-.142-.429-.3-.573-.246a10.891,10.891,0,0,0-5.722,4.538,4.66,4.66,0,0,0,.457-.168c6.025-3.256,12.1-2.953,18.2-.234.2.087.4.167.593.25l.081-.084" transform="translate(-40.525 -30.03)" fill="#dfdedc"/>
            <path id="パス_1142" data-name="パス 1142" d="M23.885,87.322C26.507,92.595,25.032,98.41,20,101.408a36.759,36.759,0,0,1-5.175,2.153c-.309.124-.639.2-.959.293,6.491-.213,11-4,12.471-9.071a7.761,7.761,0,0,0-2.019-7.6,3.76,3.76,0,0,0-.4-.325l-.034.468" transform="translate(13.966 -74.28)" fill="#f0d7da"/>
            <path id="パス_1143" data-name="パス 1143" d="M129.4,16.42a7.266,7.266,0,0,0-.227-1.558c-.088-.241-.506-.362-.775-.538a2.778,2.778,0,0,0-.437.736c-.195.867.4,1.481,1.438,1.359" transform="translate(-105.301 -12.25)" fill="#dcdad7"/>
            <path id="パス_1144" data-name="パス 1144" d="M106.351,17.137a1.62,1.62,0,0,0,.715-2.39c-.9.265-1.232,1.312-.715,2.39" transform="translate(-80.06 -12.612)" fill="#dedcdb"/>
            <path id="パス_1145" data-name="パス 1145" d="M55.38,64.986l.133.069-.053-.153-.081.084" transform="translate(-20.914 -55.506)" fill="#dfdedc"/>
          </g>
        </g>
        <g id="グループ_378" data-name="グループ 378" transform="translate(40.245 8.225)">
          <g id="グループ_316" data-name="グループ 316" transform="translate(0 0)">
            <g id="グループ_315" data-name="グループ 315">
              <g id="グループ_314" data-name="グループ 314">
                <g id="グループ_311" data-name="グループ 311" transform="translate(12.233 14.068)">
                  <path id="パス_879" data-name="パス 879" d="M143.786,151.861c1.7,1,3.726.721,4.517-.625s.05-3.249-1.654-4.25-3.726-.721-4.517.626S142.082,150.861,143.786,151.861Z" transform="translate(-141.577 -145.876)" fill="#ffb300"/>
                  <path id="パス_880" data-name="パス 880" d="M144.061,151.273c1.7,1,3.726.72,4.517-.626s.05-3.248-1.654-4.249-3.726-.721-4.517.626S142.357,150.273,144.061,151.273Z" transform="translate(-142.09 -145.797)" fill="#ffd500"/>
                  <path id="パス_881" data-name="パス 881" d="M146.136,146.908a1.68,1.68,0,0,1,1.783-.281" transform="translate(-144.618 -145.894)" fill="rgba(0,0,0,0)" stroke="#fff589" stroke-linecap="round" stroke-miterlimit="10" stroke-width="1.823"/>
                  <line id="線_25" data-name="線 25" x1="1.268" y2="2.16" transform="translate(1.534 1.229)" fill="none" stroke="#ffbe00" stroke-linecap="round" stroke-miterlimit="10" stroke-width="1.215"/>
                  <line id="線_26" data-name="線 26" x1="1.268" y2="2.16" transform="translate(2.707 1.918)" fill="none" stroke="#ffbe00" stroke-linecap="round" stroke-miterlimit="10" stroke-width="1.215"/>
                  <line id="線_27" data-name="線 27" x1="1.268" y2="2.16" transform="translate(3.972 2.661)" fill="none" stroke="#ffbe00" stroke-linecap="round" stroke-miterlimit="10" stroke-width="1.215"/>
                </g>
                <g id="グループ_312" data-name="グループ 312" transform="translate(9.468 27.71)">
                  <path id="パス_882" data-name="パス 882" d="M146.613,165.7c.021,1.976,1.3,3.564,2.864,3.548s2.81-1.632,2.789-3.608-1.3-3.564-2.865-3.549S146.592,163.72,146.613,165.7Z" transform="translate(-146.613 -161.622)" fill="#ffb300"/>
                  <path id="パス_883" data-name="パス 883" d="M146.25,165.158c.021,1.976,1.3,3.564,2.865,3.548s2.81-1.632,2.789-3.608-1.3-3.564-2.865-3.548S146.229,163.182,146.25,165.158Z" transform="translate(-145.936 -161.55)" fill="#ffd500"/>
                  <path id="パス_884" data-name="パス 884" d="M147.3,162.612s.824.135,1.16,1.384" transform="translate(-143.392 -161.692)" fill="rgba(0,0,0,0)" stroke="#fff589" stroke-linecap="round" stroke-miterlimit="10" stroke-width="1.823"/>
                  <line id="線_28" data-name="線 28" x1="2.505" y2="0.026" transform="translate(1.876 2.132)" fill="none" stroke="#ffbe00" stroke-linecap="round" stroke-miterlimit="10" stroke-width="1.215"/>
                  <line id="線_29" data-name="線 29" x1="2.505" y2="0.026" transform="translate(1.891 3.492)" fill="none" stroke="#ffbe00" stroke-linecap="round" stroke-miterlimit="10" stroke-width="1.215"/>
                  <line id="線_30" data-name="線 30" x1="2.505" y2="0.026" transform="translate(1.906 4.959)" fill="none" stroke="#ffbe00" stroke-linecap="round" stroke-miterlimit="10" stroke-width="1.215"/>
                </g>
                <g id="グループ_313" data-name="グループ 313">
                  <path id="パス_885" data-name="パス 885" d="M90.805,150.269c1.835-6.723,1.708-5.77,6.347-10.971a29.846,29.846,0,0,1,22.02-9.746,31.716,31.716,0,0,1,22.252,9.424c4.386,7.133,3.846,5.944,4.346,14.689,2.214,1.073,4.532.976,7.731,2.512-3.071,1.216-4.491,1.552-5.129,2.086,2.162,2,3.247,2.164,5.129,5.215-4.884,0-4.392.492-6.607,0,.64,1.575,2.195,3.567,2.629,5.34-.532-1.378-2.323-1.883-3.752-1.515a11.29,11.29,0,0,0-3.777,2.252,36.216,36.216,0,0,1-21.508,7.027A44.8,44.8,0,0,1,98.5,170.663c-3.415-1.915-6.846-4.573-7.7-8.394a14.674,14.674,0,0,0-7.336.921,13,13,0,0,1,5.019-4.182,7.585,7.585,0,0,0-7.142-.218,22.479,22.479,0,0,1,6.306-5.126,11.684,11.684,0,0,0-6.582-1.44C83.567,150.946,88.772,150.915,90.805,150.269Z" transform="translate(-81.07 -129.552)" fill="#fff" stroke="#707070" stroke-width="2"/>
                  <path id="パス_886" data-name="パス 886" d="M103.031,145.181c.861-4.036,1.725-8.2.953-12.255a3.966,3.966,0,0,0-1.573-2.827c-1.277-.742-2.944-.048-3.995.99s-1.761,2.388-2.864,3.37C99.078,137.341,102.576,145.446,103.031,145.181Z" transform="translate(-44.945 -129.584)" fill="#fff" stroke="#707070" stroke-width="3"/>
                  <path id="パス_887" data-name="パス 887" d="M143.333,135.029c-1.427-2.8-2.75-3.147-5.58-4.666-.822-.44-4.61-.885-4.828,2.737a25.991,25.991,0,0,0,.616,7.785C135.542,138.385,140.2,134.859,143.333,135.029Z" transform="translate(-115.111 -129.866)" fill="#fff" stroke="#707070" stroke-width="3"/>
                  <path id="パス_888" data-name="パス 888" d="M136.286,149.641" transform="translate(-112.221 -132.244)" fill="#8e3920"/>
                  <ellipse id="楕円形_39" data-name="楕円形 39" cx="2.489" cy="2.489" rx="2.489" ry="2.489" transform="translate(47.475 17.675) rotate(-96.417)" fill="#541413"/>
                  <path id="パス_889" data-name="パス 889" d="M134.7,145.412a2.489,2.489,0,1,0-2.827,2.1A2.489,2.489,0,0,0,134.7,145.412Z" transform="translate(-104.994 -131.295)" fill="#541413"/>
                  <path id="パス_890" data-name="パス 890" d="M100.853,136.824a2.743,2.743,0,0,0,.479-2.455,2.067,2.067,0,0,0-1.955-1.432,1.664,1.664,0,0,0-1.569,1.714A6.941,6.941,0,0,1,100.853,136.824Z" transform="translate(-44.65 -128.725)" fill="#541413"/>
                  <path id="パス_892" data-name="パス 892" d="M125.539,134.561a11.267,11.267,0,0,0-15.51-.446C114.745,131.839,120.482,132.353,125.539,134.561Z" transform="translate(-78.736 -129.184)" fill="#541413"/>
                  <path id="パス_893" data-name="パス 893" d="M126.011,137.737a11.267,11.267,0,0,0-15.51-.446C115.217,135.015,120.955,135.529,126.011,137.737Z" transform="translate(-79.617 -129.609)" fill="#541413"/>
                  <path id="パス_894" data-name="パス 894" d="M126.513,141.12A11.268,11.268,0,0,0,111,140.674C115.718,138.4,121.456,138.911,126.513,141.12Z" transform="translate(-80.552 -130.063)" fill="#541413"/>
                  <path id="パス_895" data-name="パス 895" d="M95.231,162.911a70.649,70.649,0,0,1-7.839,1.2,7.209,7.209,0,0,0,5.225.779A3.512,3.512,0,0,0,95.231,162.911Z" transform="translate(-30.309 -136.101)" fill="#541413"/>
                  <path id="パス_896" data-name="パス 896" d="M95.021,166.76a14.7,14.7,0,0,1-7.667.365c.115.688.835,1.074,1.471,1.358,1.206.539,2.587,1.082,3.8.57C93.606,168.641,94.2,167.659,95.021,166.76Z" transform="translate(-30.066 -136.617)" fill="#541413"/>
                  <path id="パス_897" data-name="パス 897" d="M152.243,161.906a14.047,14.047,0,0,1-7.452-4.407,1.594,1.594,0,0,0-.164,1.55,3.558,3.558,0,0,0,.976,1.289,9.637,9.637,0,0,0,4,2.189,3.364,3.364,0,0,0,1.457.131A1.814,1.814,0,0,0,152.243,161.906Z" transform="translate(-135.293 -135.079)" fill="#541413"/>
                  <path id="パス_898" data-name="パス 898" d="M153.214,165.448a14.757,14.757,0,0,1-8.76-3.137,5.465,5.465,0,0,0,3.393,4.443A5.233,5.233,0,0,0,153.214,165.448Z" transform="translate(-136.222 -135.724)" fill="#541413"/>
                </g>
                <path id="パス_899" data-name="パス 899" d="M120.5,129.784s-2.881,12.4-3.177,10.372-1.408-10.577-1.408-10.577Z" transform="translate(-78.8 -128.962)" fill="#541413"/>
                <path id="パス_900" data-name="パス 900" d="M118.52,155s11.557-4.793,14.653,1.276c3.388,6.642-1.927,11.333-8.825,10.689s-13.989-.533-16.685-1.976c-3.816-2.042-7.261-7.759-2.692-11.551S118.52,155,118.52,155Z" transform="translate(-81.148 -132.795)" fill="#fff"/>
                <path id="パス_901" data-name="パス 901" d="M124.286,159.469s-.608,2.834-4.258,2.969c-2.871.106-4.645-3.208-4.645-3.208l3.79-3.087Z" transform="translate(-82.12 -131.63)" fill="#e13b40"/>
                <path id="パス_902" data-name="パス 902" d="M129.477,155.178c.618,1.046-.286,2.318-1.769,2.794a6.632,6.632,0,0,1-4.681-.43,5.864,5.864,0,0,1-2.731-2.764c-.673,1.771-2.968,3.273-5.659,3.369s-5.432-1.469-5.387-3.3c-.061,1.814,1.939,4.392,4.515,4.892s5.481-1.128,6.774-2.7a7.889,7.889,0,0,0,4.342,2.254c1.808.294,3.914-.144,4.847-1.224A2.066,2.066,0,0,0,129.477,155.178Z" transform="translate(-82.714 -131.447)" fill="#6d261a"/>
                <path id="パス_903" data-name="パス 903" d="M124.035,153.848c.018-.993-1.444-1.826-3.263-1.858s-3.311.746-3.329,1.739,1.444,1.825,3.263,1.858S124.017,154.841,124.035,153.848Z" transform="translate(-83.652 -131.073)" fill="#772616"/>
              </g>
              <path id="パス_904" data-name="パス 904" d="M11668.924,14523.1l2.5,1.115,4-.586v-3.252l-1.516-1.152-6.578-7.833h-.461l-3.178-.795-1.2.795Z" transform="translate(-11614.35 -14506.556)" fill="#fff"/>
              <path id="パス_905" data-name="パス 905" d="M11666.706,14521.311l-3.5,2.314-1.409-4.089,2.15-2.092-.239-1.564.239-1.33,1.785-1.581,2.477-1.729,1.678-.647h1.027l1.333.77,2.693-.77.673,1.01-.27,1.823Z" transform="translate(-11644.843 -14506.556)" fill="#fff"/>
            </g>
          </g>
          <path id="パス_906" data-name="パス 906" d="M140.406,134.858c-.356-.847-.863-1.816-1.773-1.936a1.832,1.832,0,0,0-1.832,1.6,5.325,5.325,0,0,0,.419,2.621A6.639,6.639,0,0,1,140.406,134.858Z" transform="translate(-116.342 -130.129)" fill="#541413"/>
        </g>
      </g>
    </g>
    <g id="グループ_1412" data-name="グループ 1412" transform="translate(104.71 1913.607)">
      <text id="月々の返済額" transform="translate(0 32)" fill="#333" font-size="28" font-family="SourceHanSansJP-Bold, Source Han Sans JP" font-weight="700"><tspan x="0" y="0">月々</tspan><tspan y="0">の</tspan><tspan y="0">返済額</tspan></text>
    </g>
    <text id="月々_100_000_円" data-name="月々 100,000 円" transform="translate(102.291 1985.047)" fill="#333" font-size="14" font-family="SourceHanSansJP-Bold, Source Han Sans JP" font-weight="700"><tspan x="0" y="0">月々</tspan><tspan y="0" font-size="21"> </tspan><tspan y="0" font-size="28">100,000 </tspan><tspan y="0" font-size="19">円</tspan></text>
    <path id="Icon_open-arrow-thick-bottom" data-name="Icon open-arrow-thick-bottom" d="M7.856,0V19.639H0L11.9,31.423,23.567,19.639H15.711V0Z" transform="translate(179.729 1997.885)"/>
  </g>
</svg>
