<svg xmlns="http://www.w3.org/2000/svg" xmlns:xlink="http://www.w3.org/1999/xlink" width="919" height="384.287" viewBox="0 0 919 384.287">
  <defs>
    <clipPath id="clip-path">
      <rect id="長方形_125" data-name="長方形 125" width="86.2" height="64.201" fill="none"/>
    </clipPath>
  </defs>
  <g id="グループ_1478" data-name="グループ 1478" transform="translate(-500.403 -2765.943)">
    <g id="グループ_1477" data-name="グループ 1477">
      <g id="パス_1454" data-name="パス 1454" transform="translate(500.403 2765.943)" fill="#fcfcfc">
        <path d="M 901 378.7867736816406 L 18 378.7867736816406 C 11.10752964019775 378.7867736816406 5.5 373.2420654296875 5.5 366.4266357421875 L 5.5 17.86006164550781 C 5.5 11.04476833343506 11.10752964019775 5.500061988830566 18 5.500061988830566 L 901 5.500061988830566 C 907.8924560546875 5.500061988830566 913.5 11.04476833343506 913.5 17.86006164550781 L 913.5 366.4266357421875 C 913.5 373.2420654296875 907.8924560546875 378.7867736816406 901 378.7867736816406 Z" stroke="none"/>
        <path d="M 18 10.99996948242188 C 14.14013671875 10.99996948242188 11 14.07748413085938 11 17.860107421875 L 11 366.4266052246094 C 11 370.209228515625 14.14013671875 373.2867431640625 18 373.2867431640625 L 901 373.2867431640625 C 904.85986328125 373.2867431640625 908 370.209228515625 908 366.4266052246094 L 908 17.860107421875 C 908 14.07748413085938 904.85986328125 10.99996948242188 901 10.99996948242188 L 18 10.99996948242188 M 18 -3.0517578125e-05 L 901 -3.0517578125e-05 C 910.9411010742188 -3.0517578125e-05 919 7.996246337890625 919 17.860107421875 L 919 366.4266052246094 C 919 376.2904663085938 910.9411010742188 384.2867431640625 901 384.2867431640625 L 18 384.2867431640625 C 8.05889892578125 384.2867431640625 0 376.2904663085938 0 366.4266052246094 L 0 17.860107421875 C 0 7.996246337890625 8.05889892578125 -3.0517578125e-05 18 -3.0517578125e-05 Z" stroke="none" fill="#efefef"/>
      </g>
      <g id="グループ_1476" data-name="グループ 1476">
        <path id="パス_1180" data-name="パス 1180" d="M99.287,25.065s-35.425-2.13-43.817-4.258S33.1,15.838,28.436,10.871,16.317-1.372,12.47.224s-2.1,3.727-2.1,3.727S4.431,5.281,2.683,6.878s-.7,3.992-.7,3.992-2.8,3.194-1.749,4.79a16.288,16.288,0,0,0,3.146,3.194s-3.146,3.725-.349,4.79a29.31,29.31,0,0,0,6.991,1.331L21.91,26.839S85.763,54.051,99.049,53.784" transform="translate(634.307 2927.086) rotate(21)" fill="#fff" stroke="#6a6a6a" stroke-width="5"/>
        <g id="グループ_1475" data-name="グループ 1475">
          <g id="グループ_102" data-name="グループ 102" transform="translate(875.261 2804.531)">
            <text id="月々の返済額" transform="translate(-37.857 40)" fill="#333" font-size="42" font-family="SourceHanSansJP-Bold, Source Han Sans JP" font-weight="700"><tspan x="0" y="0">月々</tspan><tspan y="0">の</tspan><tspan y="0">返済額</tspan></text>
          </g>
          <text id="月々_100_000_円" data-name="月々 100,000 円" transform="translate(833.819 2903.959)" fill="#333" font-size="22" font-family="SourceHanSansJP-Bold, Source Han Sans JP" font-weight="700"><tspan x="0" y="0">月々</tspan><tspan y="0" font-size="33"> </tspan><tspan y="0" font-size="43">100,000 </tspan><tspan y="0" font-size="29">円</tspan></text>
          <g id="グループ_383" data-name="グループ 383" transform="translate(-39.597 66.73)">
            <g id="長方形_113" data-name="長方形 113" transform="translate(735.597 2867.269)" fill="#fcfcfc" stroke="#c4c4c4" stroke-width="11">
              <rect width="540" height="173" rx="18" stroke="none"/>
              <rect x="5.5" y="5.5" width="529" height="162" rx="12.5" fill="none"/>
            </g>
            <text id="月々_35_000_円" data-name="月々 35,000 円" transform="translate(872.597 2946.269)" fill="#333" font-size="25" font-family="SourceHanSansJP-Bold, Source Han Sans JP" font-weight="700"><tspan x="0" y="0">月々</tspan><tspan y="0" font-size="22"> </tspan><tspan y="0" font-size="49">35,000 </tspan><tspan y="0" font-size="35">円</tspan></text>
            <text id="減額できました_" data-name="減額できました!!!" transform="translate(825.597 3004.269)" fill="#ea6552" font-size="45" font-family="SourceHanSansJP-Bold, Source Han Sans JP" font-weight="700"><tspan x="0" y="0">減額</tspan><tspan y="0">できました!!!</tspan></text>
          </g>
          <path id="Icon_open-arrow-thick-bottom" data-name="Icon open-arrow-thick-bottom" d="M11.638,0V29.1H0L17.632,46.553,34.914,29.1H23.276V0Z" transform="translate(948.542 2920.387)"/>
          <g id="グループ_382" data-name="グループ 382" transform="translate(579.421 2869.813)">
            <g id="グループ_375" data-name="グループ 375" transform="translate(7.626 15.772)">
              <g id="グループ_374" data-name="グループ 374" clip-path="url(#clip-path)">
                <path id="パス_1140" data-name="パス 1140" d="M82.046,71c-.527,1.708-1.376,2.02-2.725.792-5.16-4.7-11.33-7.14-18.105-8.218a33.44,33.44,0,0,0-25.4,5.847c-.619.436-3.3.382-4.227,1.122-1.664,1.417-1.146,1.222-2.4,2.157-1.861,1.386-1.664,3.513-3.636,6.1-1.83,1.06.619,5.946-1.446,6.844a17.856,17.856,0,0,0,7.054,11.111,36.433,36.433,0,0,0,18.666,7.371c3.951.421,7.967.228,11.954.312.647-.2,1.314-.341,1.939-.593,3.509-1.413,7.253-2.441,10.467-4.355C84.365,93.426,87.348,81.664,82.046,71" transform="translate(-5.486 -44.621)" fill="#fbbcc4"/>
                <path id="パス_1139" data-name="パス 1139" d="M45.129,6.939c-.6-6.808-3.638-8.69-8.516-5.275-.34-.217-.7-.458-1.068-.679C32.214-1,28.622.409,27.884,4.193a3.307,3.307,0,0,1-2.359,2.769c-5.7,2.395-11.045,6.663-14,12.181-.784,2.9-3.18,4.876-8.283,11.334C1.178,35.318-.126,41.287.01,41.854A25.871,25.871,0,0,0,10.238,56.269a44.429,44.429,0,0,0,21.816,7.623c6.8.628,13.587.419,20.112-1.774,9.948-3.343,16.439-10.163,19.342-20.265a15.689,15.689,0,0,0-.917-10.6,28.261,28.261,0,0,0-9.848-12.638,3.634,3.634,0,0,1-.982-1.052C56.333,12.074,51.27,8.843,45.129,6.939M55.564,19.174c-.4-.168-.8-.329-1.2-.505-12.342-5.5-24.621-6.111-36.809.474a9.306,9.306,0,0,1-.925.34A22.027,22.027,0,0,1,28.2,10.3c.292-.108.879.211,1.159.5a5.816,5.816,0,0,0,5.743,1.693,2.931,2.931,0,0,1,1.663.069c2.456,1.06,3.995.816,6.019-.946a2.1,2.1,0,0,1,1.6-.553c4.635,1.4,8.653,3.731,11.335,7.942l.107.308-.27-.139M42.142,59.819c-3.987-.083-8,.109-11.954-.312a36.433,36.433,0,0,1-18.666-7.371,15.722,15.722,0,0,1-6.439-10.5c.758-4.5-.092-4.085,1.668-8.163,2.288-3.843,1.679-3.484,6.96-7.2,0,0,1.852-1.037,2.471-1.473a33.44,33.44,0,0,1,25.4-5.848c6.774,1.078,12.946,3.523,18.105,8.218,1.349,1.228,2.2.916,2.725-.792.019-.257.038-.514.07-.947a7.51,7.51,0,0,1,.8.658c3.942,4.442,5.762,9.6,4.083,15.381C64.385,51.733,55.271,59.388,42.142,59.819M34.592,8.434c-2.1.246-3.3-1-2.909-2.75a5.621,5.621,0,0,1,.883-1.489c.544.355,1.388.6,1.567,1.088a14.71,14.71,0,0,1,.459,3.151m4.438.718c-1.045-2.18-.383-4.3,1.446-4.833.987,2.166.537,3.757-1.446,4.833" transform="translate(14.149 0)" fill="#707070"/>
                <path id="パス_1141" data-name="パス 1141" d="M94.84,43.836c-2.682-4.21-6.7-6.541-11.335-7.941a2.105,2.105,0,0,0-1.6.553c-2.024,1.761-3.562,2.006-6.018.946a2.932,2.932,0,0,0-1.664-.069,5.816,5.816,0,0,1-5.743-1.693c-.28-.286-.867-.6-1.159-.5a22.028,22.028,0,0,0-11.573,9.179,9.429,9.429,0,0,0,.925-.34C68.856,37.388,81.134,38,93.477,43.5c.4.176.8.337,1.2.505q.081-.086.164-.17" transform="translate(-24.962 -24.831)" fill="#dfdedc"/>
                <path id="パス_1142" data-name="パス 1142" d="M34.133,87.8c5.3,10.665,2.319,22.426-7.863,28.492-3.214,1.914-6.957,2.943-10.467,4.355-.625.252-1.292.4-1.939.593,13.129-.432,22.243-8.087,25.224-18.348,1.679-5.778-.141-10.939-4.083-15.381a7.606,7.606,0,0,0-.8-.658c-.032.433-.051.69-.07.947" transform="translate(42.427 -61.421)" fill="#f0d7da"/>
                <path id="パス_1143" data-name="パス 1143" d="M130.907,18.563a14.7,14.7,0,0,0-.459-3.151c-.179-.488-1.023-.733-1.567-1.088a5.62,5.62,0,0,0-.883,1.49c-.394,1.753.806,2.995,2.909,2.749" transform="translate(-82.165 -10.13)" fill="#dcdad7"/>
                <path id="パス_1144" data-name="パス 1144" d="M106.6,19.58c1.983-1.077,2.433-2.667,1.446-4.833-1.829.537-2.491,2.653-1.446,4.833" transform="translate(-53.424 -10.429)" fill="#dedcdb"/>
                <path id="パス_1145" data-name="パス 1145" d="M55.38,65.071l.27.139q-.054-.154-.107-.309c-.055.056-.11.112-.163.169" transform="translate(14.333 -45.897)" fill="#dfdedc"/>
              </g>
            </g>
            <g id="グループ_378" data-name="グループ 378" transform="translate(89.029 32.408)">
              <g id="グループ_316" data-name="グループ 316" transform="translate(0 0)">
                <g id="グループ_315" data-name="グループ 315">
                  <g id="グループ_314" data-name="グループ 314">
                    <g id="グループ_311" data-name="グループ 311" transform="translate(24.744 28.456)">
                      <path id="パス_879" data-name="パス 879" d="M145.8,157.46c3.447,2.025,7.537,1.459,9.137-1.265s.1-6.572-3.346-8.6-7.537-1.457-9.136,1.266S142.354,155.437,145.8,157.46Z" transform="translate(-141.334 -145.355)" fill="#ffb300"/>
                      <path id="パス_880" data-name="パス 880" d="M146.077,156.872c3.447,2.025,7.537,1.457,9.137-1.266s.1-6.57-3.346-8.6-7.537-1.457-9.137,1.266S142.629,154.849,146.077,156.872Z" transform="translate(-142.09 -145.797)" fill="#ffd500"/>
                      <path id="パス_881" data-name="パス 881" d="M146.136,147.305s1.091-1.287,3.607-.568" transform="translate(-143.066 -145.255)" fill="rgba(0,0,0,0)" stroke="#fff589" stroke-linecap="round" stroke-miterlimit="10" stroke-width="1.823"/>
                      <line id="線_25" data-name="線 25" x1="2.565" y2="4.369" transform="translate(3.103 2.486)" fill="none" stroke="#ffbe00" stroke-linecap="round" stroke-miterlimit="10" stroke-width="1.215"/>
                      <line id="線_26" data-name="線 26" x1="2.565" y2="4.369" transform="translate(5.475 3.879)" fill="none" stroke="#ffbe00" stroke-linecap="round" stroke-miterlimit="10" stroke-width="1.215"/>
                      <line id="線_27" data-name="線 27" x1="2.566" y2="4.369" transform="translate(8.033 5.382)" fill="none" stroke="#ffbe00" stroke-linecap="round" stroke-miterlimit="10" stroke-width="1.215"/>
                    </g>
                    <g id="グループ_312" data-name="グループ 312" transform="translate(19.15 56.048)">
                      <path id="パス_882" data-name="パス 882" d="M146.613,169.387c.042,4,2.634,7.21,5.793,7.176s5.684-3.3,5.642-7.3-2.636-7.21-5.794-7.178S146.571,165.39,146.613,169.387Z" transform="translate(-146.613 -161.145)" fill="#ffb300"/>
                      <path id="パス_883" data-name="パス 883" d="M146.25,168.847c.042,4,2.636,7.21,5.794,7.176s5.684-3.3,5.642-7.3-2.636-7.21-5.794-7.176S146.208,164.85,146.25,168.847Z" transform="translate(-145.616 -161.55)" fill="#ffd500"/>
                      <path id="パス_884" data-name="パス 884" d="M147.3,162.612s1.668.273,2.345,2.8" transform="translate(-139.4 -160.752)" fill="rgba(0,0,0,0)" stroke="#fff589" stroke-linecap="round" stroke-miterlimit="10" stroke-width="1.823"/>
                      <line id="線_28" data-name="線 28" x1="5.066" y2="0.053" transform="translate(3.795 4.312)" fill="none" stroke="#ffbe00" stroke-linecap="round" stroke-miterlimit="10" stroke-width="1.215"/>
                      <line id="線_29" data-name="線 29" x1="5.066" y2="0.053" transform="translate(3.824 7.062)" fill="none" stroke="#ffbe00" stroke-linecap="round" stroke-miterlimit="10" stroke-width="1.215"/>
                      <line id="線_30" data-name="線 30" x1="5.066" y2="0.053" transform="translate(3.856 10.03)" fill="none" stroke="#ffbe00" stroke-linecap="round" stroke-miterlimit="10" stroke-width="1.215"/>
                    </g>
                    <g id="グループ_313" data-name="グループ 313">
                      <path id="パス_885" data-name="パス 885" d="M100.76,171.455c3.712-13.6,3.454-11.671,12.838-22.19a60.368,60.368,0,0,1,44.539-19.713,64.15,64.15,0,0,1,45.008,19.061c8.872,14.428,7.778,12.022,8.791,29.711,4.477,2.17,9.166,1.975,15.637,5.081-6.212,2.459-9.085,3.14-10.374,4.219,4.372,4.039,6.567,4.377,10.374,10.549-9.879,0-8.884,1-13.364,0,1.294,3.186,4.439,7.214,5.317,10.8-1.076-2.787-4.7-3.808-7.59-3.064s-5.255,2.757-7.639,4.556c-12.388,9.35-27.984,14.123-43.5,14.213s-30.922-4.383-44.46-11.972c-6.907-3.873-13.847-9.25-15.574-16.979a29.68,29.68,0,0,0-14.838,1.864,26.293,26.293,0,0,1,10.152-8.459,15.341,15.341,0,0,0-14.446-.441,45.468,45.468,0,0,1,12.755-10.368,23.633,23.633,0,0,0-13.314-2.913C86.12,172.825,96.648,172.763,100.76,171.455Z" transform="translate(-81.07 -129.552)" fill="#fff" stroke="#707070" stroke-width="5"/>
                      <path id="パス_886" data-name="パス 886" d="M110.678,160.921c1.741-8.163,3.489-16.588,1.929-24.787-.42-2.212-1.235-4.586-3.181-5.717-2.582-1.5-5.956-.1-8.08,2s-3.561,4.831-5.793,6.816C102.682,145.063,109.759,161.457,110.678,160.921Z" transform="translate(6.811 -129.374)" fill="#fff" stroke="#707070" stroke-width="5"/>
                      <path id="パス_887" data-name="パス 887" d="M154.047,140.1c-2.887-5.661-5.561-6.366-11.286-9.439-1.662-.891-9.325-1.79-9.766,5.535-.386,6.378.044,9.471,1.246,15.747C138.288,146.887,147.717,139.755,154.047,140.1Z" transform="translate(-96.963 -129.656)" fill="#fff" stroke="#707070" stroke-width="5"/>
                      <path id="パス_888" data-name="パス 888" d="M136.286,149.641" transform="translate(-87.612 -114.452)" fill="#8e3920"/>
                      <ellipse id="楕円形_39" data-name="楕円形 39" cx="5.034" cy="5.034" rx="5.034" ry="5.034" transform="translate(96.026 35.751) rotate(-96.417)" fill="#541413"/>
                      <path id="パス_889" data-name="パス 889" d="M139.759,148.332a5.034,5.034,0,1,0-5.719,4.241A5.035,5.035,0,0,0,139.759,148.332Z" transform="translate(-79.682 -119.777)" fill="#541413"/>
                      <path id="パス_890" data-name="パス 890" d="M103.975,140.8a5.548,5.548,0,0,0,.969-4.966,4.181,4.181,0,0,0-3.955-2.9,3.366,3.366,0,0,0-3.174,3.466A14.04,14.04,0,0,1,103.975,140.8Z" transform="translate(9.705 -124.419)" fill="#541413"/>
                      <path id="パス_892" data-name="パス 892" d="M141.4,137.959a22.788,22.788,0,0,0-31.372-.9C119.568,132.454,131.171,133.492,141.4,137.959Z" transform="translate(-46.734 -127.083)" fill="#541413"/>
                      <path id="パス_893" data-name="パス 893" d="M141.873,141.135a22.789,22.789,0,0,0-31.372-.9C120.04,135.63,131.645,136.668,141.873,141.135Z" transform="translate(-48.033 -124.696)" fill="#541413"/>
                      <path id="パス_894" data-name="パス 894" d="M142.375,144.518a22.791,22.791,0,0,0-31.373-.9C120.541,139.011,132.146,140.05,142.375,144.518Z" transform="translate(-49.413 -122.153)" fill="#541413"/>
                      <path id="パス_895" data-name="パス 895" d="M103.248,162.911a142.9,142.9,0,0,1-15.856,2.433,14.581,14.581,0,0,0,10.569,1.576C100.182,166.4,102.495,165.073,103.248,162.911Z" transform="translate(28.067 -108.684)" fill="#541413"/>
                      <path id="パス_896" data-name="パス 896" d="M102.861,166.76a29.733,29.733,0,0,1-15.507.737c.233,1.391,1.689,2.172,2.976,2.747,2.44,1.09,5.232,2.188,7.695,1.153C100,170.565,101.192,168.578,102.861,166.76Z" transform="translate(28.52 -105.791)" fill="#541413"/>
                      <path id="パス_897" data-name="パス 897" d="M160.159,166.413c-6.521-1.627-10.555-4.188-15.073-8.914a3.224,3.224,0,0,0-.331,3.135,7.2,7.2,0,0,0,1.974,2.608,19.492,19.492,0,0,0,8.089,4.428,6.8,6.8,0,0,0,2.948.264A3.67,3.67,0,0,0,160.159,166.413Z" transform="translate(-125.876 -112.151)" fill="#541413"/>
                      <path id="パス_898" data-name="パス 898" d="M162.173,168.655a29.848,29.848,0,0,1-17.72-6.344,11.054,11.054,0,0,0,6.863,8.988A10.584,10.584,0,0,0,162.173,168.655Z" transform="translate(-127.804 -108.534)" fill="#541413"/>
                    </g>
                    <path id="パス_899" data-name="パス 899" d="M125.193,129.994s-5.828,25.09-6.427,20.979-2.848-21.394-2.848-21.394Z" transform="translate(-40.841 -128.33)" fill="#541413"/>
                    <path id="パス_900" data-name="パス 900" d="M134.607,157.99s23.376-9.694,29.638,2.582c6.852,13.435-3.9,22.922-17.851,21.62s-28.3-1.079-33.749-4c-7.718-4.13-14.687-15.695-5.444-23.363S134.607,157.99,134.607,157.99Z" transform="translate(-59.018 -113.068)" fill="#fff"/>
                    <path id="パス_901" data-name="パス 901" d="M133.392,162.871s-1.23,5.733-8.613,6c-5.807.214-9.4-6.488-9.4-6.488l7.667-6.245Z" transform="translate(-48.103 -106.561)" fill="#e13b40"/>
                    <path id="パス_902" data-name="パス 902" d="M150.164,155.587c1.251,2.116-.578,4.689-3.579,5.651a13.414,13.414,0,0,1-9.468-.869,11.862,11.862,0,0,1-5.525-5.591c-1.361,3.582-6,6.621-11.447,6.814s-10.988-2.971-10.9-6.681c-.124,3.67,3.922,8.884,9.133,9.895s11.086-2.281,13.7-5.469a15.956,15.956,0,0,0,8.783,4.559c3.657.594,7.917-.291,9.8-2.475S151.2,155.887,150.164,155.587Z" transform="translate(-55.579 -107.587)" fill="#6d261a"/>
                    <path id="パス_903" data-name="パス 903" d="M130.777,155.75c.037-2.009-2.92-3.692-6.6-3.759s-6.7,1.508-6.733,3.517,2.92,3.691,6.6,3.757S130.74,157.757,130.777,155.75Z" transform="translate(-49.096 -109.684)" fill="#772616"/>
                  </g>
                  <path id="パス_904" data-name="パス 904" d="M11675.194,14535.882l13.131,1.069-3.067-8.907-11.588-12.759-2.65-3.085-6.428-1.607-1.8,1.851Z" transform="translate(-11564.81 -14502.427)" fill="#fff"/>
                  <path id="パス_905" data-name="パス 905" d="M11671.727,14532.27l-7.08,4.682-2.849-8.271,4.348-4.231-.485-3.164.485-2.688,4.426-2.735,4.829-3.226,2.874-1.712,1.963-.331,2.7,1.557,5.447-1.557,1.361,2.043-.545,3.688Z" transform="translate(-11627.506 -14502.427)" fill="#fff"/>
                </g>
              </g>
              <path id="パス_906" data-name="パス 906" d="M144.14,136.849c-.719-1.714-1.745-3.673-3.587-3.915-1.8-.236-3.381,1.453-3.705,3.235a10.771,10.771,0,0,0,.848,5.3A13.428,13.428,0,0,1,144.14,136.849Z" transform="translate(-95.465 -127.284)" fill="#541413"/>
            </g>
          </g>
        </g>
      </g>
    </g>
    <g id="グループ_251" data-name="グループ 251" transform="translate(656.903 2998.479)">
      <g id="グループ_90" data-name="グループ 90" transform="translate(5.896 0.284)">
        <path id="パス_193" data-name="パス 193" d="M406.315,44.935c-.511,4.564-1.139,9.323-3.26,13.453-1.741,3.12-5,4.892-8.232,6.127-.742.309-1.49.606-2.248.874.785-.172,1.562-.378,2.335-.6C406.134,62.151,407.858,55.436,406.315,44.935Z" transform="translate(-392.575 -44.935)" fill="#ecb651"/>
        <path id="パス_194" data-name="パス 194" d="M404.013,65.257c-2.585-2.806-6.8-3.166-10.348-2.383,9.4-1.177,10.662,4.562,11.163,12.427.028.906.062,1.812.076,2.718.234-1.059.449-2.124.585-3.2C405.817,71.634,405.874,68.006,404.013,65.257Z" transform="translate(-392.437 -42.714)" fill="#ecb651"/>
        <path id="パス_195" data-name="パス 195" d="M413,62.43a5.113,5.113,0,0,1-4.639-2.294c-3.224-4.031-3.09-9.324-3.516-14.173-.6,3.9-1.113,7.832.323,11.637a10.441,10.441,0,0,0,3.539,4.224,8.485,8.485,0,0,0,4.55.783c.63-.019,1.257-.07,1.883-.132C414.435,62.484,413.554,62.465,413,62.43Z" transform="translate(-391.101 -44.805)" fill="#ecb651"/>
        <path id="パス_196" data-name="パス 196" d="M406.45,65.271c-2.082,4.126-2.728,8.881-3.28,13.425-.033.239.042,1.32.081,1.054a21.074,21.074,0,0,1,1.146-3.712c1.669-3.867,2.2-7.931,4.228-11.434a5.826,5.826,0,0,1,2.292-1.879,16.636,16.636,0,0,1,4.489-1.539C412.172,61.585,408.317,62.314,406.45,65.271Z" transform="translate(-391.237 -42.882)" fill="#ecb651"/>
      </g>
      <path id="パス_197" data-name="パス 197" d="M418.438,44.713c-3.827-.455-4.178,4.322-.206,3.877-3.256.246-2.639-3.994.3-3.521.649.122.87.828.941,1.4a1.985,1.985,0,0,1-1.153,2.266c-.7.242.454-.046.686-.251C420.615,47.652,420.607,44.658,418.438,44.713Z" transform="translate(-383.795 -44.683)" fill="#ecb651"/>
      <path id="パス_198" data-name="パス 198" d="M420.091,55.9c-.01.847,1.112,1.036,1.508.189C422.112,53.764,418.674,54.472,420.091,55.9Zm.787.558c-.007,0-.013,0-.02.008a2.545,2.545,0,0,1-.708-.857c.006-.028,0-.036-.007-.019a.644.644,0,0,1,.032-.535c.088-.134.237-.312.408-.279A1.036,1.036,0,0,1,420.878,56.462Z" transform="translate(-383.246 -43.432)" fill="#ecb651"/>
      <path id="パス_199" data-name="パス 199" d="M394.632,78.883c-.187.072-.475.175-.8.268a1.322,1.322,0,0,0-.094-2.2,2.1,2.1,0,0,0-2.553.821c-.966,1.524.421,1.881,1.771,1.7a1.094,1.094,0,0,1-.549.083,1.677,1.677,0,0,0,1.135-.2A3.136,3.136,0,0,0,394.632,78.883ZM391.6,78.7a2.267,2.267,0,0,1,1.447-1.6c.091.06.3.164.349.253a1.41,1.41,0,0,1,.359,1.358,1.56,1.56,0,0,1-.464.564C392.493,79.443,391.674,79.428,391.6,78.7Z" transform="translate(-386.896 -40.631)" fill="#ecb651"/>
      <path id="パス_200" data-name="パス 200" d="M398.893,85.586a1.384,1.384,0,0,0-.13-2,2.55,2.55,0,0,0-3.286.661,1.2,1.2,0,0,0,.662,1.834,3.5,3.5,0,0,0,2.9-.175c-.38.079-.766.2-1.153.257C398.158,86.062,398.862,85.745,398.893,85.586Zm-1.976.512c-.618-.149-1.2-.821-.868-1.461.446-1.051,2.139-1.617,2.638-.309a1.361,1.361,0,0,1-.835,1.818c-.021.011-.019.012-.031.019A1.873,1.873,0,0,1,396.917,86.1Z" transform="translate(-386.341 -39.81)" fill="#ecb651"/>
      <path id="パス_201" data-name="パス 201" d="M389.381,87.655c-.279-.66-1.2-.569-1.669-.167-1.167,1.02.72,1.4,1.54,1.118a1.014,1.014,0,0,1-.534.749A1.12,1.12,0,0,0,389.381,87.655Zm-1.2-.092a.982.982,0,0,1,.427-.194,1.48,1.48,0,0,1,.607.883.754.754,0,0,1,.044.342C388.475,88.757,387.057,88.411,388.177,87.563Z" transform="translate(-387.341 -39.314)" fill="#ecb651"/>
      <path id="パス_202" data-name="パス 202" d="M420.688,69.712a16.672,16.672,0,0,1-1.838,6.373c-1.055,1.345-2.7,2.032-4.162,2.84a7.646,7.646,0,0,1-.745.305,8.645,8.645,0,0,0,1.274-.374c1.639-.663,3.465-1.258,4.625-2.667C421.035,74.3,420.962,71.857,420.688,69.712Z" transform="translate(-383.98 -41.52)" fill="#ecb651"/>
      <path id="パス_203" data-name="パス 203" d="M414.092,78.056c4.466-.083,5.306,1.236,5.741,5.473.06.527.11,1.055.125,1.586a10.1,10.1,0,0,0,.256-1.045C421.233,78.9,418.982,77.468,414.092,78.056Z" transform="translate(-383.961 -40.482)" fill="#ecb651"/>
      <path id="パス_204" data-name="パス 204" d="M423.713,77.6a6.357,6.357,0,0,1-3.041-2.781,13.326,13.326,0,0,1-.69-4.682c-.384,1.781-.924,3.951.351,5.5a6.687,6.687,0,0,0,3.162,1.987,5.227,5.227,0,0,0,.743.17A4.3,4.3,0,0,1,423.713,77.6Z" transform="translate(-383.273 -41.466)" fill="#ecb651"/>
      <path id="パス_205" data-name="パス 205" d="M420.4,79.153a15.321,15.321,0,0,0-.84,5.449,3.623,3.623,0,0,0,.009.494c.136-.5.317-.986.451-1.487.5-1.47.686-3.046,1.254-4.483a7.011,7.011,0,0,1,3.057-2.116A7.108,7.108,0,0,0,420.4,79.153Z" transform="translate(-383.27 -40.598)" fill="#ecb651"/>
    </g>
  </g>
</svg>
