<svg xmlns="http://www.w3.org/2000/svg" width="233.902" height="268.06" viewBox="0 0 233.902 268.06">
  <g id="グループ_99" data-name="グループ 99" transform="translate(-31.854 30.911)">
    <g id="グループ_84" data-name="グループ 84" transform="translate(171.57 17.877)">
      <g id="グループ_81" data-name="グループ 81" transform="translate(13.744 2.972)">
        <path id="パス_144" data-name="パス 144" d="M347.264,55.763c-.11.008-.217.016-.328.026.707-.171,1.427-.283,2.132-.467,2.645-.616,4.686-1.149,6.03-4.281,1.449-2.682,1.32-6.167,2.456-9.256.041-.2.08-.392.121-.586a35.456,35.456,0,0,0,.668,5.762,11.421,11.421,0,0,0,.494,1.59c.1.284.256.54.194.586a.25.25,0,0,1,.116.137,5.939,5.939,0,0,0,.674,1.088c.181.334,1.1,1.153,1.057,1.247.178.127.33.293.487.413a20.667,20.667,0,0,0,3.674,2.373,22.559,22.559,0,0,0,4.816,1.71c.226-.007.45-.014.68-.036-.142.035-.293.067-.447.094.284.067.569.13.849.188-.313-.006-.8-.043-1.38-.107-2.125.271-4.9.031-5.842.2a4.875,4.875,0,0,0-2.192,1.292,7.686,7.686,0,0,0-1.3,3.36c-.62,2.409-.545,4.913-1.014,7.35-.06.373-.123.745-.188,1.118-.036-.2-.066-.394-.1-.59-.03.412-.171-.566-.269-.753-1.152-3.236-.936-6.732-3.183-9.317a12.074,12.074,0,0,0-4.163-2.529,13.987,13.987,0,0,0-4.587-.527C346.9,55.815,347.08,55.79,347.264,55.763Zm10.3,2.943a5.108,5.108,0,0,1,.761,1.146,7.189,7.189,0,0,1,.682-1.9,5.98,5.98,0,0,1,4.4-2.2,41.1,41.1,0,0,1,4.839.319,17.826,17.826,0,0,1-2.667-.589,18.483,18.483,0,0,1-5.65-2.649,6.375,6.375,0,0,1-1.061-.911l0-.01a7.643,7.643,0,0,1-1.329-1.933c-1.125,4.281-4.288,5.211-8.169,5.609-.137.018-.269.03-.4.043A12.239,12.239,0,0,1,357.565,58.706Z" transform="translate(-346.716 -41.199)" fill="#ecb651"/>
      </g>
      <g id="グループ_82" data-name="グループ 82" transform="translate(0)">
        <path id="パス_145" data-name="パス 145" d="M369.3,38.711c.217,4.331.966,6.8,4.993,8.274a3.588,3.588,0,0,0,1.8.35,1.779,1.779,0,0,1-.645.065c-2.295-.32-4.9-1.21-6.081-3.355C368.517,42.376,368.937,40.454,369.3,38.711Z" transform="translate(-364.588 -38.711)" fill="#ecb651"/>
        <path id="パス_146" data-name="パス 146" d="M375.643,46.042c-3.784-.419-4.964-.681-5.716,3.795a19.913,19.913,0,0,1-.445,2.6c-.054-.491-.118-.981-.205-1.467C368.346,45.5,370.88,44.693,375.643,46.042Z" transform="translate(-364.399 -37.397)" fill="#ecb651"/>
        <path id="パス_147" data-name="パス 147" d="M375.595,46.049c1.136-.086,1.6-1.308,1.791-2.391.354-1.531.653-3.078,1.144-4.575.121,2.965.708,7.677-3.669,7.141C373.9,46.222,375.219,46.132,375.595,46.049Z" transform="translate(-373.868 -38.639)" fill="#ecb651"/>
        <path id="パス_148" data-name="パス 148" d="M379.02,47.553c.649,1.431.373,3.045.185,4.549a8.359,8.359,0,0,1-.256,1.156c-.077-.922-.275-1.828-.4-2.743-.342-3.189-1.548-5.49-4.825-5.473A5.016,5.016,0,0,1,379.02,47.553Z" transform="translate(-373.726 -37.49)" fill="#ecb651"/>
      </g>
      <g id="グループ_83" data-name="グループ 83" transform="translate(6.107 25.914)">
        <path id="パス_149" data-name="パス 149" d="M361.224,68.613c.374-.043.757-.075,1.142-.1-.214-.021-.429-.049-.643-.08a10.09,10.09,0,0,0,1.393-.07c1.009-.214,2.07-.167,2.9-1.033a5.6,5.6,0,0,0,1.11-2.4,21.47,21.47,0,0,0,.736-3.425c.029-.361.068-.726.129-1.1.633,3.867,2.084,8.592,6.948,8.857.237.043.717.011.811.026a4.544,4.544,0,0,1-.784.082c-.115,0-.217-.011-.33-.013.259.062.514.133.762.209a8.418,8.418,0,0,0-3.524.024c-1.864.757-2.494,2.606-2.875,4.446a6.32,6.32,0,0,1-.188,1.861c-.032.137-.172.822-.189.677-.007-.076-.019-.162-.028-.244a3.829,3.829,0,0,0-.038.5,4.445,4.445,0,0,1-.2-.775,17.521,17.521,0,0,1-.231-2.322,11.574,11.574,0,0,0-2.246-3.838C364.688,68.612,362.834,68.716,361.224,68.613Zm7.194,3.005a4.079,4.079,0,0,1,.4-.877,4.377,4.377,0,0,1,3.7-1.658,5.778,5.778,0,0,1-4.286-3.918,3.864,3.864,0,0,1-.94,2.32,4.742,4.742,0,0,1-3.374,1.046,5.4,5.4,0,0,1,2.992,1.094A5.867,5.867,0,0,1,368.418,71.619Z" transform="translate(-361.224 -60.406)" fill="#ecb651"/>
      </g>
    </g>
    <g id="グループ_268" data-name="グループ 268" transform="translate(93.115 165.877)">
      <g id="グループ_81-2" data-name="グループ 81" transform="translate(13.744 2.972)">
        <path id="パス_144-2" data-name="パス 144" d="M347.264,55.763c-.11.008-.217.016-.328.026.707-.171,1.427-.283,2.132-.467,2.645-.616,4.686-1.149,6.03-4.281,1.449-2.682,1.32-6.167,2.456-9.256.041-.2.08-.392.121-.586a35.456,35.456,0,0,0,.668,5.762,11.421,11.421,0,0,0,.494,1.59c.1.284.256.54.194.586a.25.25,0,0,1,.116.137,5.939,5.939,0,0,0,.674,1.088c.181.334,1.1,1.153,1.057,1.247.178.127.33.293.487.413a20.667,20.667,0,0,0,3.674,2.373,22.559,22.559,0,0,0,4.816,1.71c.226-.007.45-.014.68-.036-.142.035-.293.067-.447.094.284.067.569.13.849.188-.313-.006-.8-.043-1.38-.107-2.125.271-4.9.031-5.842.2a4.875,4.875,0,0,0-2.192,1.292,7.686,7.686,0,0,0-1.3,3.36c-.62,2.409-.545,4.913-1.014,7.35-.06.373-.123.745-.188,1.118-.036-.2-.066-.394-.1-.59-.03.412-.171-.566-.269-.753-1.152-3.236-.936-6.732-3.183-9.317a12.074,12.074,0,0,0-4.163-2.529,13.987,13.987,0,0,0-4.587-.527C346.9,55.815,347.08,55.79,347.264,55.763Zm10.3,2.943a5.108,5.108,0,0,1,.761,1.146,7.189,7.189,0,0,1,.682-1.9,5.98,5.98,0,0,1,4.4-2.2,41.1,41.1,0,0,1,4.839.319,17.826,17.826,0,0,1-2.667-.589,18.483,18.483,0,0,1-5.65-2.649,6.375,6.375,0,0,1-1.061-.911l0-.01a7.643,7.643,0,0,1-1.329-1.933c-1.125,4.281-4.288,5.211-8.169,5.609-.137.018-.269.03-.4.043A12.239,12.239,0,0,1,357.565,58.706Z" transform="translate(-346.716 -41.199)" fill="#ecb651"/>
      </g>
      <g id="グループ_82-2" data-name="グループ 82" transform="translate(0)">
        <path id="パス_145-2" data-name="パス 145" d="M369.3,38.711c.217,4.331.966,6.8,4.993,8.274a3.588,3.588,0,0,0,1.8.35,1.779,1.779,0,0,1-.645.065c-2.295-.32-4.9-1.21-6.081-3.355C368.517,42.376,368.937,40.454,369.3,38.711Z" transform="translate(-364.588 -38.711)" fill="#ecb651"/>
        <path id="パス_146-2" data-name="パス 146" d="M375.643,46.042c-3.784-.419-4.964-.681-5.716,3.795a19.913,19.913,0,0,1-.445,2.6c-.054-.491-.118-.981-.205-1.467C368.346,45.5,370.88,44.693,375.643,46.042Z" transform="translate(-364.399 -37.397)" fill="#ecb651"/>
        <path id="パス_147-2" data-name="パス 147" d="M375.595,46.049c1.136-.086,1.6-1.308,1.791-2.391.354-1.531.653-3.078,1.144-4.575.121,2.965.708,7.677-3.669,7.141C373.9,46.222,375.219,46.132,375.595,46.049Z" transform="translate(-373.868 -38.639)" fill="#ecb651"/>
        <path id="パス_148-2" data-name="パス 148" d="M379.02,47.553c.649,1.431.373,3.045.185,4.549a8.359,8.359,0,0,1-.256,1.156c-.077-.922-.275-1.828-.4-2.743-.342-3.189-1.548-5.49-4.825-5.473A5.016,5.016,0,0,1,379.02,47.553Z" transform="translate(-373.726 -37.49)" fill="#ecb651"/>
      </g>
      <g id="グループ_83-2" data-name="グループ 83" transform="translate(6.107 25.914)">
        <path id="パス_149-2" data-name="パス 149" d="M361.224,68.613c.374-.043.757-.075,1.142-.1-.214-.021-.429-.049-.643-.08a10.09,10.09,0,0,0,1.393-.07c1.009-.214,2.07-.167,2.9-1.033a5.6,5.6,0,0,0,1.11-2.4,21.47,21.47,0,0,0,.736-3.425c.029-.361.068-.726.129-1.1.633,3.867,2.084,8.592,6.948,8.857.237.043.717.011.811.026a4.544,4.544,0,0,1-.784.082c-.115,0-.217-.011-.33-.013.259.062.514.133.762.209a8.418,8.418,0,0,0-3.524.024c-1.864.757-2.494,2.606-2.875,4.446a6.32,6.32,0,0,1-.188,1.861c-.032.137-.172.822-.189.677-.007-.076-.019-.162-.028-.244a3.829,3.829,0,0,0-.038.5,4.445,4.445,0,0,1-.2-.775,17.521,17.521,0,0,1-.231-2.322,11.574,11.574,0,0,0-2.246-3.838C364.688,68.612,362.834,68.716,361.224,68.613Zm7.194,3.005a4.079,4.079,0,0,1,.4-.877,4.377,4.377,0,0,1,3.7-1.658,5.778,5.778,0,0,1-4.286-3.918,3.864,3.864,0,0,1-.94,2.32,4.742,4.742,0,0,1-3.374,1.046,5.4,5.4,0,0,1,2.992,1.094A5.867,5.867,0,0,1,368.418,71.619Z" transform="translate(-361.224 -60.406)" fill="#ecb651"/>
      </g>
    </g>
    <g id="グループ_85" data-name="グループ 85" transform="translate(31.854 -30.911)">
      <path id="パス_150" data-name="パス 150" d="M505.688,127.963c.374-.043.757-.075,1.142-.1-.215-.023-.429-.049-.643-.081a10.071,10.071,0,0,0,1.392-.07c1.01-.214,2.071-.167,2.9-1.032a5.621,5.621,0,0,0,1.11-2.4,21.458,21.458,0,0,0,.736-3.426c.029-.36.068-.726.129-1.1.632,3.865,2.084,8.591,6.948,8.856.236.044.717.012.811.027a4.545,4.545,0,0,1-.784.081c-.115,0-.219-.01-.33-.012q.389.093.762.208a8.4,8.4,0,0,0-3.524.025c-1.863.756-2.494,2.606-2.875,4.445a6.358,6.358,0,0,1-.188,1.861c-.032.139-.172.823-.19.677-.007-.075-.018-.162-.026-.244a4.078,4.078,0,0,0-.039.5,4.442,4.442,0,0,1-.2-.775,17.586,17.586,0,0,1-.231-2.323,11.582,11.582,0,0,0-2.246-3.837C509.152,127.963,507.3,128.066,505.688,127.963Zm7.194,3.007a4.127,4.127,0,0,1,.4-.878,4.38,4.38,0,0,1,3.7-1.658,5.776,5.776,0,0,1-4.286-3.917,3.855,3.855,0,0,1-.941,2.319,4.738,4.738,0,0,1-3.373,1.048,5.4,5.4,0,0,1,2.991,1.093A5.85,5.85,0,0,1,512.882,130.97Z" transform="translate(-505.688 -119.757)" fill="#ecb651"/>
    </g>
    <g id="グループ_86" data-name="グループ 86" transform="translate(117.963 86.835)">
      <path id="パス_151" data-name="パス 151" d="M399.987,96.442a75.774,75.774,0,0,1,.888,13.806c-.159,2.544-.614,5.06-.92,7.588-.024.168-.049.337-.074.5a41.456,41.456,0,0,1-.535-6.233A117.126,117.126,0,0,1,399.987,96.442Z" transform="translate(-372.115 -96.442)" fill="#ecb651"/>
      <path id="パス_152" data-name="パス 152" d="M401.019,119.364c.178,3.6.57,7.186.583,10.787a69.859,69.859,0,0,1-1.529,11.363C399.849,134.135,399.639,126.653,401.019,119.364Z" transform="translate(-373.569 -91.984)" fill="#ecb651"/>
      <path id="パス_153" data-name="パス 153" d="M403.97,116.911c4.632-.248,16.035-.745,23.208.079-6.042.158-11.867.72-18.3.307-1.659-.074-3.321-.148-4.977-.269-.029,0-.07-.02-.057-.055S403.926,116.925,403.97,116.911Z" transform="translate(-403.842 -92.534)" fill="#ecb651"/>
      <path id="パス_154" data-name="パス 154" d="M398.148,117.222a1.98,1.98,0,0,1,.594-1.518,3.341,3.341,0,0,1,3.762.363,2.009,2.009,0,0,1-.019,2.535,3.348,3.348,0,0,1-3.974.159A1.228,1.228,0,0,1,398.148,117.222Z" transform="translate(-372.672 -92.777)" fill="#ecb651"/>
      <path id="パス_155" data-name="パス 155" d="M390.966,117.064c1.762.051,6.216.5,9.012.653a156.6,156.6,0,0,1-22.966-.529C381.66,117.074,386.321,116.811,390.966,117.064Z" transform="translate(-344.595 -92.452)" fill="#ecb651"/>
    </g>
    <g id="グループ_87" data-name="グループ 87" transform="translate(112.525 -14.324)">
      <path id="パス_156" data-name="パス 156" d="M418.074,18.468a48.13,48.13,0,0,1,5.153-.149c2.6-.118,5.325-.221,7.724.953-3.061-1.088-5.748-.48-8.827-.42-3.7-.173-5.9.5-9.725.821C414.3,19.308,416.177,18.841,418.074,18.468Z" transform="translate(-412.398 -10.489)" fill="#ecb651"/>
      <path id="パス_157" data-name="パス 157" d="M420.7,29.794c.22,1.132-1.906-4.19-2.146-5.01-1.493-3.931-2.279-8.427-3.315-12.607A74.207,74.207,0,0,1,420.7,29.794Z" transform="translate(-405.55 -11.67)" fill="#ecb651"/>
      <path id="パス_158" data-name="パス 158" d="M420.547,22.441c2.942,2.013,5.943,3.98,8.672,6.278-2.3-1.5-4.808-2.667-7.043-4.264-2.27-1.654-4.555-3.274-6.879-4.847A47.9,47.9,0,0,1,420.547,22.441Z" transform="translate(-414.129 -10.225)" fill="#ecb651"/>
      <path id="パス_159" data-name="パス 159" d="M421.41,20.342c.853-2.941,1.579-5.964,3.218-8.589-1.14,2.95-1.264,6.147-2.172,9.156-.938,2.674-1.9,5.6-2.917,8.408A33.352,33.352,0,0,1,421.41,20.342Z" transform="translate(-414.605 -11.753)" fill="#ecb651"/>
      <path id="パス_160" data-name="パス 160" d="M412.987,27.553a75.184,75.184,0,0,1,6.666-6.036,26.2,26.2,0,0,1,6.694-2.695,32.211,32.211,0,0,0-5.53,2.753,87.476,87.476,0,0,1-7.565,5.935,4.888,4.888,0,0,0-.643.522A3.18,3.18,0,0,1,412.987,27.553Z" transform="translate(-408.048 -10.378)" fill="#ecb651"/>
    </g>
    <g id="グループ_89" data-name="グループ 89" transform="translate(213.033 58.908)">
      <path id="パス_161" data-name="パス 161" d="M485.229,117.806a31.647,31.647,0,0,1,.37,11.316A25.263,25.263,0,0,1,485.229,117.806Z" transform="translate(-466.891 -117.806)" fill="#ecb651"/>
      <path id="パス_162" data-name="パス 162" d="M485.165,136.894c.6,4.836,1.012,9.774-.185,14.555A40.039,40.039,0,0,1,485.165,136.894Z" transform="translate(-466.269 -114.094)" fill="#ecb651"/>
      <path id="パス_163" data-name="パス 163" d="M487.548,119.262a31.615,31.615,0,0,1,4.924,10.2A25.276,25.276,0,0,1,487.548,119.262Z" transform="translate(-476.749 -117.523)" fill="#ecb651"/>
      <path id="パス_164" data-name="パス 164" d="M478.715,136.524c2.5,4.181,4.884,8.527,5.726,13.382A40.027,40.027,0,0,1,478.715,136.524Z" transform="translate(-458.168 -114.166)" fill="#ecb651"/>
      <path id="パス_165" data-name="パス 165" d="M489.414,122.587a31.628,31.628,0,0,1,8.265,7.74A25.272,25.272,0,0,1,489.414,122.587Z" transform="translate(-484.185 -116.876)" fill="#ecb651"/>
      <path id="パス_166" data-name="パス 166" d="M474,135.754c3.841,3,7.627,6.2,10.16,10.423A40.052,40.052,0,0,1,474,135.754Z" transform="translate(-452.252 -114.316)" fill="#ecb651"/>
      <path id="パス_167" data-name="パス 167" d="M490.738,127.6a31.655,31.655,0,0,1,10.562,4.078A25.257,25.257,0,0,1,490.738,127.6Z" transform="translate(-489.387 -115.902)" fill="#ecb651"/>
      <path id="パス_168" data-name="パス 168" d="M470.246,134.623c4.685,1.339,9.392,2.886,13.327,5.854A40.028,40.028,0,0,1,470.246,134.623Z" transform="translate(-447.183 -114.535)" fill="#ecb651"/>
      <path id="パス_169" data-name="パス 169" d="M490.327,139.051a31.6,31.6,0,0,1,10.54-4.134A25.29,25.29,0,0,1,490.327,139.051Z" transform="translate(-488.464 -114.478)" fill="#ecb651"/>
      <path id="パス_170" data-name="パス 170" d="M469.361,132.317c4.357-2.181,8.873-4.223,13.778-4.694A40.065,40.065,0,0,1,469.361,132.317Z" transform="translate(-445.692 -115.897)" fill="#ecb651"/>
      <path id="パス_171" data-name="パス 171" d="M489.2,143.963a31.622,31.622,0,0,1,8.346-7.653A25.288,25.288,0,0,1,489.2,143.963Z" transform="translate(-483.803 -114.207)" fill="#ecb651"/>
      <path id="パス_172" data-name="パス 172" d="M472.664,131.45c3.281-3.6,6.758-7.133,11.165-9.34A40.061,40.061,0,0,1,472.664,131.45Z" transform="translate(-450.327 -116.969)" fill="#ecb651"/>
      <g id="グループ_88" data-name="グループ 88" transform="translate(11.074 0.726)">
        <path id="パス_173" data-name="パス 173" d="M487.364,148a31.62,31.62,0,0,1,4.869-10.222A25.279,25.279,0,0,1,487.364,148Z" transform="translate(-487.364 -114.648)" fill="#ecb651"/>
        <path id="パス_174" data-name="パス 174" d="M477.352,131.257c1.691-4.57,3.591-9.146,6.85-12.843A40.082,40.082,0,0,1,477.352,131.257Z" transform="translate(-467.375 -118.414)" fill="#ecb651"/>
      </g>
      <path id="パス_175" data-name="パス 175" d="M491.237,133.843a31.619,31.619,0,0,1,11.316-.372A25.281,25.281,0,0,1,491.237,133.843Z" transform="translate(-491.237 -114.825)" fill="#ecb651"/>
      <path id="パス_176" data-name="パス 176" d="M469.015,133.355c4.837-.6,9.774-1.011,14.555.185A40.039,40.039,0,0,1,469.015,133.355Z" transform="translate(-445.709 -114.895)" fill="#ecb651"/>
      <path id="パス_177" data-name="パス 177" d="M484.18,122.39a16.72,16.72,0,0,1-1.611,6.275A55.41,55.41,0,0,1,484.18,122.39Z" transform="translate(-462.51 -116.915)" fill="#ecb651"/>
      <path id="パス_178" data-name="パス 178" d="M488.263,137.781a20.806,20.806,0,0,1-1.928,8.064A65.072,65.072,0,0,1,488.263,137.781Z" transform="translate(-471.091 -113.921)" fill="#ecb651"/>
      <path id="パス_179" data-name="パス 179" d="M489.724,140.686a26.5,26.5,0,0,1,2.23-3.5c-.563,1.074-.964,2.234-1.605,3.264-.542.883-1.273,1.624-1.776,2.534A10.34,10.34,0,0,1,489.724,140.686Z" transform="translate(-477.456 -114.038)" fill="#ecb651"/>
      <path id="パス_180" data-name="パス 180" d="M488.193,128.131A55.292,55.292,0,0,1,486.5,121.7,18.871,18.871,0,0,1,488.193,128.131Z" transform="translate(-471.217 -117.048)" fill="#ecb651"/>
      <path id="パス_181" data-name="パス 181" d="M492.4,128.526c-1.143-1.745-2.72-3.206-3.5-5.172C490.08,125.073,491.635,126.552,492.4,128.526Z" transform="translate(-478.293 -116.727)" fill="#ecb651"/>
      <path id="パス_182" data-name="パス 182" d="M496.258,130.13c-1.9-1.024-3.593-1.959-5.557-2.953A17.869,17.869,0,0,1,496.258,130.13Z" transform="translate(-484.301 -115.984)" fill="#ecb651"/>
      <path id="パス_183" data-name="パス 183" d="M493.651,131.6c1.208.087,2.389.4,3.579.547-1.375-.013-2.727-.309-4.093-.429a8.467,8.467,0,0,1-1.671-.176C492.188,131.661,492.923,131.528,493.651,131.6Z" transform="translate(-486.185 -115.134)" fill="#ecb651"/>
      <path id="パス_184" data-name="パス 184" d="M497.253,134.07a39.237,39.237,0,0,1-6.006,1.857A35.5,35.5,0,0,1,497.253,134.07Z" transform="translate(-485.948 -114.643)" fill="#ecb651"/>
      <path id="パス_185" data-name="パス 185" d="M495.6,135.871a20.885,20.885,0,0,1-5.28,3.9A38.941,38.941,0,0,1,495.6,135.871Z" transform="translate(-483.186 -114.293)" fill="#ecb651"/>
      <path id="パス_186" data-name="パス 186" d="M484.274,141.763c.082.638.2,1.271.268,1.909-.148-.33-.318-.65-.456-.984a14.747,14.747,0,0,1-1.266-5.124A36.512,36.512,0,0,1,484.274,141.763Z" transform="translate(-463.17 -113.964)" fill="#ecb651"/>
      <path id="パス_187" data-name="パス 187" d="M483.359,143.428a37.31,37.31,0,0,1-4.517-6.629A23.846,23.846,0,0,1,483.359,143.428Z" transform="translate(-457.237 -114.112)" fill="#ecb651"/>
      <path id="パス_188" data-name="パス 188" d="M483.009,139.48a46.819,46.819,0,0,1-6.386-3.882A44.1,44.1,0,0,1,483.009,139.48Z" transform="translate(-454.236 -114.346)" fill="#ecb651"/>
      <path id="パス_189" data-name="パス 189" d="M482.436,135.957c-2.518-.639-5.059-1.194-7.562-1.887A31.13,31.13,0,0,1,482.436,135.957Z" transform="translate(-451.574 -114.643)" fill="#ecb651"/>
      <path id="パス_190" data-name="パス 190" d="M482.4,131.347a75.312,75.312,0,0,1-7.691,1.427A46.168,46.168,0,0,1,482.4,131.347Z" transform="translate(-451.346 -115.173)" fill="#ecb651"/>
      <path id="パス_191" data-name="パス 191" d="M482.414,127.87c-2.144,1.227-4.466,2.151-6.756,3.233A23.879,23.879,0,0,1,482.414,127.87Z" transform="translate(-452.489 -115.849)" fill="#ecb651"/>
      <path id="パス_192" data-name="パス 192" d="M482.9,123.463c-1.188,2.493-3.328,4.306-5.048,6.411C478.95,127.33,481.069,125.471,482.9,123.463Z" transform="translate(-455.595 -116.706)" fill="#ecb651"/>
    </g>
    <g id="グループ_91" data-name="グループ 91" transform="translate(74.419 24.516)">
      <g id="グループ_90" data-name="グループ 90" transform="translate(11.662 0.301)">
        <path id="パス_193" data-name="パス 193" d="M393.088,44.935c.542,4.84,1.208,9.887,3.457,14.267,1.847,3.309,5.306,5.188,8.73,6.5.787.327,1.58.643,2.384.927-.833-.183-1.657-.4-2.476-.633C393.28,63.193,391.452,56.071,393.088,44.935Z" transform="translate(-382.03 -44.935)" fill="#ecb651"/>
        <path id="パス_194" data-name="パス 194" d="M395.419,65.423c2.741-2.975,7.216-3.358,10.974-2.528-9.968-1.248-11.307,4.838-11.839,13.179-.03.96-.066,1.922-.08,2.882-.248-1.123-.477-2.253-.62-3.395C393.505,72.186,393.446,68.339,395.419,65.423Z" transform="translate(-382.064 -41.517)" fill="#ecb651"/>
        <path id="パス_195" data-name="パス 195" d="M406.508,63.426a5.423,5.423,0,0,0,4.92-2.433c3.419-4.275,3.276-9.888,3.729-15.03.635,4.139,1.18,8.305-.343,12.341a11.073,11.073,0,0,1-3.753,4.479,9,9,0,0,1-4.826.83c-.668-.02-1.333-.074-2-.14C404.984,63.484,405.918,63.463,406.508,63.426Z" transform="translate(-404.099 -44.735)" fill="#ecb651"/>
        <path id="パス_196" data-name="パス 196" d="M412.659,65.518c2.207,4.375,2.893,9.418,3.478,14.237.035.253-.044,1.4-.086,1.118a22.347,22.347,0,0,0-1.215-3.937c-1.77-4.1-2.328-8.41-4.484-12.125a6.178,6.178,0,0,0-2.431-1.992,17.641,17.641,0,0,0-4.76-1.632C406.591,61.609,410.679,62.383,412.659,65.518Z" transform="translate(-403.162 -41.774)" fill="#ecb651"/>
      </g>
      <path id="パス_197" data-name="パス 197" d="M417.219,44.715c4.059-.483,4.43,4.583.219,4.111,3.453.26,2.8-4.236-.315-3.734-.688.129-.922.878-1,1.488a2.105,2.105,0,0,0,1.223,2.4c.738.257-.481-.049-.727-.266C414.91,47.832,414.918,44.657,417.219,44.715Z" transform="translate(-410.414 -44.683)" fill="#ecb651"/>
      <path id="パス_198" data-name="パス 198" d="M421.4,55.984c.011.9-1.179,1.1-1.6.2C419.257,53.715,422.9,54.465,421.4,55.984Zm-.835.591c.007,0,.014,0,.021.008a2.7,2.7,0,0,0,.751-.909c-.006-.03,0-.038.007-.02a.683.683,0,0,0-.033-.567c-.093-.142-.251-.331-.432-.3A1.1,1.1,0,0,0,420.566,56.576Z" transform="translate(-416.93 -42.758)" fill="#ecb651"/>
      <path id="パス_199" data-name="パス 199" d="M390.864,79.012c.2.076.5.185.847.284a1.4,1.4,0,0,1,.1-2.336,2.228,2.228,0,0,1,2.708.871c1.025,1.616-.447,1.995-1.878,1.8a1.161,1.161,0,0,0,.582.088,1.779,1.779,0,0,1-1.2-.21A3.326,3.326,0,0,1,390.864,79.012Zm3.216-.191a2.4,2.4,0,0,0-1.535-1.693c-.1.063-.319.174-.37.269a1.5,1.5,0,0,0-.381,1.441,1.654,1.654,0,0,0,.492.6C393.132,79.605,394,79.59,394.079,78.821Z" transform="translate(-355.524 -38.446)" fill="#ecb651"/>
      <path id="パス_200" data-name="パス 200" d="M395.638,85.728a1.468,1.468,0,0,1,.137-2.124,2.7,2.7,0,0,1,3.484.7,1.276,1.276,0,0,1-.7,1.945,3.708,3.708,0,0,1-3.077-.185c.4.084.812.211,1.223.272C396.417,86.232,395.67,85.9,395.638,85.728Zm2.1.543c.656-.158,1.277-.871.921-1.549-.473-1.114-2.268-1.715-2.8-.327a1.444,1.444,0,0,0,.885,1.928c.023.012.02.013.033.02A1.985,1.985,0,0,0,397.733,86.271Z" transform="translate(-365.405 -37.183)" fill="#ecb651"/>
      <path id="パス_201" data-name="パス 201" d="M387.528,87.684c.3-.7,1.276-.6,1.77-.177,1.237,1.082-.763,1.486-1.633,1.186a1.076,1.076,0,0,0,.566.794A1.187,1.187,0,0,1,387.528,87.684Zm1.277-.1a1.041,1.041,0,0,0-.453-.205,1.57,1.57,0,0,0-.644.936.8.8,0,0,0-.047.363C388.488,88.852,389.992,88.486,388.8,87.586Z" transform="translate(-346.147 -36.42)" fill="#ecb651"/>
      <path id="パス_202" data-name="パス 202" d="M414.122,69.712c.356,2.3.7,4.752,1.949,6.758,1.119,1.426,2.864,2.155,4.414,3.011a8.106,8.106,0,0,0,.79.324,9.162,9.162,0,0,1-1.351-.4c-1.738-.7-3.674-1.334-4.9-2.829C413.754,74.574,413.83,71.986,414.122,69.712Z" transform="translate(-409.506 -39.815)" fill="#ecb651"/>
      <path id="パス_203" data-name="パス 203" d="M420.839,78.063c-4.736-.088-5.627,1.31-6.088,5.8-.063.559-.117,1.119-.133,1.682a10.745,10.745,0,0,1-.271-1.108C413.266,78.954,415.654,77.44,420.839,78.063Z" transform="translate(-409.249 -38.217)" fill="#ecb651"/>
      <path id="パス_204" data-name="パス 204" d="M420.09,78.056a6.742,6.742,0,0,0,3.225-2.949,14.131,14.131,0,0,0,.732-4.965c.407,1.888.979,4.19-.373,5.831a7.091,7.091,0,0,1-3.353,2.107,5.543,5.543,0,0,1-.788.18A4.564,4.564,0,0,0,420.09,78.056Z" transform="translate(-419.431 -39.732)" fill="#ecb651"/>
      <path id="パス_205" data-name="パス 205" d="M423.724,79.283a16.247,16.247,0,0,1,.891,5.779,3.83,3.83,0,0,1-.01.524c-.145-.53-.336-1.045-.478-1.577-.532-1.559-.727-3.23-1.329-4.754a7.435,7.435,0,0,0-3.242-2.244A7.538,7.538,0,0,1,423.724,79.283Z" transform="translate(-419.556 -38.396)" fill="#ecb651"/>
    </g>
    <g id="グループ_93" data-name="グループ 93" transform="translate(163.434 -14.489)">
      <path id="パス_206" data-name="パス 206" d="M373.966,13.234a4.946,4.946,0,0,0,.238.876c1.208,3.11,2.477,5.812,6.338,4.841-3.907,1.4-6.443-.993-6.61-4.894A4.209,4.209,0,0,1,373.966,13.234Z" transform="translate(-366.943 -11.299)" fill="#ecb651"/>
      <path id="パス_207" data-name="パス 207" d="M379.9,19.555c3.012.02,4.764-3.63,4.005-6.275a4.1,4.1,0,0,1-4.047,6.393,5.858,5.858,0,0,1-.909-.182A6.657,6.657,0,0,0,379.9,19.555Z" transform="translate(-377.039 -11.29)" fill="#ecb651"/>
      <path id="パス_208" data-name="パス 208" d="M374.59,19.3c1.433-1.04,3.377-1.037,5.082-1.144a10.812,10.812,0,0,0-4.1,1.24,5,5,0,0,0-1.026,2.753c-.135.461-.211,2.016-.331,1.128C374.014,21.991,373.635,20.364,374.59,19.3Z" transform="translate(-366.126 -10.342)" fill="#ecb651"/>
      <path id="パス_209" data-name="パス 209" d="M384.474,23.16c.047,1.06-.6-1.593-.847-1.94-.968-2.18-3.316-2.162-5.4-2.574C381.6,18.748,384.94,18.789,384.474,23.16Z" transform="translate(-376.062 -10.247)" fill="#ecb651"/>
      <path id="パス_210" data-name="パス 210" d="M379.675,11.615c.659.014.738.3.549.552a.478.478,0,0,1-.363.412.612.612,0,0,1-.4-.035l-.02,0,.017,0C378.992,12.34,378.925,11.585,379.675,11.615Z" transform="translate(-372.906 -11.614)" fill="#ecb651"/>
      <path id="パス_211" data-name="パス 211" d="M384.7,18.155a.55.55,0,0,1,.526.125.491.491,0,0,1,.189.122.523.523,0,0,1-.645.784C384.064,19.017,383.982,18.378,384.7,18.155Z" transform="translate(-384.201 -10.347)" fill="#ecb651"/>
      <path id="パス_212" data-name="パス 212" d="M378.3,23.319c.737-.146.83.426.473.77a.309.309,0,0,1-.13.207.629.629,0,0,1-.627-.053C377.681,24,377.993,23.442,378.3,23.319Z" transform="translate(-370.089 -9.343)" fill="#ecb651"/>
      <g id="グループ_92" data-name="グループ 92" transform="translate(14.634 7.144)">
        <path id="パス_213" data-name="パス 213" d="M372.489,18.579a.469.469,0,0,1-.4-.553c.057-.43.68-.534,1-.331.509.551-.321,1.138-.867.85A.7.7,0,0,0,372.489,18.579Z" transform="translate(-372.086 -17.595)" fill="#ecb651"/>
        <path id="パス_214" data-name="パス 214" d="M372.514,17.718h0Z" transform="translate(-371.865 -17.571)" fill="#ecb651"/>
      </g>
    </g>
    <g id="グループ_95" data-name="グループ 95" transform="translate(193.74 121.351)">
      <path id="パス_215" data-name="パス 215" d="M495.358,77.747a5.158,5.158,0,0,0,.238.876c1.208,3.11,2.479,5.812,6.339,4.841-3.907,1.4-6.443-.993-6.611-4.894A4.309,4.309,0,0,1,495.358,77.747Z" transform="translate(-488.336 -75.812)" fill="#ecb651"/>
      <path id="パス_216" data-name="パス 216" d="M501.3,84.068c3.013.02,4.764-3.63,4.006-6.275a4.1,4.1,0,0,1-4.048,6.393,5.86,5.86,0,0,1-.909-.182A6.654,6.654,0,0,0,501.3,84.068Z" transform="translate(-498.433 -75.803)" fill="#ecb651"/>
      <path id="パス_217" data-name="パス 217" d="M495.984,83.811c1.433-1.04,3.377-1.037,5.083-1.144a10.817,10.817,0,0,0-4.1,1.24,5,5,0,0,0-1.026,2.753c-.134.461-.211,2.016-.33,1.128C495.408,86.5,495.028,84.877,495.984,83.811Z" transform="translate(-487.521 -74.855)" fill="#ecb651"/>
      <path id="パス_218" data-name="パス 218" d="M505.867,87.673c.048,1.06-.6-1.593-.847-1.939-.966-2.181-3.316-2.163-5.394-2.575C503,83.261,506.332,83.3,505.867,87.673Z" transform="translate(-497.456 -74.76)" fill="#ecb651"/>
      <path id="パス_219" data-name="パス 219" d="M501.07,76.128c.658.014.737.3.548.552a.477.477,0,0,1-.363.412.608.608,0,0,1-.4-.035l-.021,0,.018,0C500.385,76.853,500.32,76.1,501.07,76.128Z" transform="translate(-494.3 -76.127)" fill="#ecb651"/>
      <path id="パス_220" data-name="パス 220" d="M506.1,82.668a.551.551,0,0,1,.526.125.5.5,0,0,1,.188.122.523.523,0,0,1-.645.784C505.457,83.53,505.376,82.891,506.1,82.668Z" transform="translate(-505.594 -74.86)" fill="#ecb651"/>
      <path id="パス_221" data-name="パス 221" d="M499.694,87.832c.737-.146.83.426.473.77a.311.311,0,0,1-.129.207.631.631,0,0,1-.628-.053C499.075,88.514,499.387,87.955,499.694,87.832Z" transform="translate(-491.484 -73.856)" fill="#ecb651"/>
      <g id="グループ_94" data-name="グループ 94" transform="translate(14.633 7.144)">
        <path id="パス_222" data-name="パス 222" d="M493.884,83.092a.469.469,0,0,1-.4-.553c.059-.43.68-.534,1-.331.509.551-.321,1.138-.867.85A.7.7,0,0,0,493.884,83.092Z" transform="translate(-493.48 -82.108)" fill="#ecb651"/>
        <path id="パス_223" data-name="パス 223" d="M493.908,82.231h0Z" transform="translate(-493.258 -82.084)" fill="#ecb651"/>
      </g>
    </g>
    <g id="グループ_96" data-name="グループ 96" transform="translate(198.171 161.455)">
      <path id="パス_224" data-name="パス 224" d="M438.694,25.749c1,7.467.122,17.054,7.03,21.905a27.951,27.951,0,0,0,10.092,5.074,19.539,19.539,0,0,0,3.856.8,9.52,9.52,0,0,1-2.418-.178,30.382,30.382,0,0,1-13.769-5.06C435.629,43.719,437.606,33.3,438.694,25.749Z" transform="translate(-405.132 -13.902)" fill="#ecb651"/>
      <path id="パス_225" data-name="パス 225" d="M458.768,49.273c-5.069.4-13.041-.166-15.755,5.588a23.033,23.033,0,0,0-2.25,8.716c-.438,3.413-.947,6.817-1.407,10.228-.044.283-.078.569-.13.85l-.009-.093a79.128,79.128,0,0,1-.944-9.876C437,49.617,446.292,48.424,458.768,49.273Z" transform="translate(-404.838 -9.367)" fill="#ecb651"/>
      <path id="パス_226" data-name="パス 226" d="M459.693,50.791c11.376-3.407,13.986-13.39,15.182-25.042,2.253,14.033-2.065,23.973-17.174,25.8-.868.092-1.74.148-2.613.155A28.733,28.733,0,0,0,459.693,50.791Z" transform="translate(-441.73 -13.902)" fill="#ecb651"/>
      <path id="パス_227" data-name="パス 227" d="M456.081,47.63a14.376,14.376,0,0,1,4.811.667,24.911,24.911,0,0,1,6.313,2.291c7.664,5.173,7.9,15.572,7.2,23.91-1.4-8.148-3.213-17.39-8.879-22.994A26.048,26.048,0,0,0,457.6,48.03a10.881,10.881,0,0,0-3.128-.191A4.887,4.887,0,0,1,456.081,47.63Z" transform="translate(-440.218 -9.649)" fill="#ecb651"/>
      <path id="パス_228" data-name="パス 228" d="M455.934,48.08c3.056-.148,4.126-.369,7.891-.34,3.526.237,7.013.893,10.511,1.377-3.786-.133-7.326-.466-10.529-.512-2.089.048-5.706.583-8.733.612-5.535.147-10.953-.751-16.222-1.337C444.15,47.883,451.553,48.371,455.934,48.08Z" transform="translate(-421.238 -9.626)" fill="#ecb651"/>
      <path id="パス_229" data-name="パス 229" d="M455.727,34.8c1.2,11.362,1.691,22.875.207,34.232-.515-4.7-1.051-9.405-1.3-14.125A166.4,166.4,0,0,1,455.727,34.8Z" transform="translate(-422.581 -12.143)" fill="#ecb651"/>
      <path id="パス_230" data-name="パス 230" d="M460.732,42.976A41.71,41.71,0,0,1,452.076,55.9,102.052,102.052,0,0,1,460.732,42.976Z" transform="translate(-423.43 -10.552)" fill="#ecb651"/>
      <path id="パス_231" data-name="パス 231" d="M456.059,47.244a23.834,23.834,0,0,1,5.7,7.782C458.7,50.77,454.412,47.519,451.728,43A55.181,55.181,0,0,0,456.059,47.244Z" transform="translate(-424.045 -10.547)" fill="#ecb651"/>
      <path id="パス_232" data-name="パス 232" d="M455.249,15.831a20.452,20.452,0,0,1,.189,9.105A22.356,22.356,0,0,1,455.249,15.831Z" transform="translate(-421.895 -15.831)" fill="#ecb651"/>
      <path id="パス_233" data-name="パス 233" d="M454.826,72.209a16.9,16.9,0,0,1-.073,8.352A26.084,26.084,0,0,1,454.826,72.209Z" transform="translate(-420.849 -4.867)" fill="#ecb651"/>
      <path id="パス_234" data-name="パス 234" d="M484.878,47.974c-3.821-.3-5.884-.361-9.659-.626A28.461,28.461,0,0,1,484.878,47.974Z" transform="translate(-475.219 -9.73)" fill="#ecb651"/>
      <path id="パス_235" data-name="パス 235" d="M436.015,49.1a46.979,46.979,0,0,1-9.291,0A71.345,71.345,0,0,1,436.015,49.1Z" transform="translate(-368.43 -9.393)" fill="#ecb651"/>
      <path id="パス_236" data-name="パス 236" d="M446.534,29.229c-1.916,3.938-5.122,7.043-8.378,9.891C440.317,35.318,443.434,32.258,446.534,29.229Z" transform="translate(-392.604 -13.225)" fill="#ecb651"/>
      <path id="パス_237" data-name="パス 237" d="M476.962,56.9a45.758,45.758,0,0,1-11.313,11.389A56.288,56.288,0,0,1,476.962,56.9Z" transform="translate(-455.872 -7.845)" fill="#ecb651"/>
      <path id="パス_238" data-name="パス 238" d="M474.818,39.468a48.463,48.463,0,0,1-10.363-9.2A42.858,42.858,0,0,1,474.818,39.468Z" transform="translate(-452.302 -13.022)" fill="#ecb651"/>
      <path id="パス_239" data-name="パス 239" d="M447.336,68.113a65.779,65.779,0,0,1-11.5-10.173A40.869,40.869,0,0,1,447.336,68.113Z" transform="translate(-390.637 -7.642)" fill="#ecb651"/>
    </g>
  </g>
</svg>
