<?xml version="1.0" standalone="no"?>
<!DOCTYPE svg PUBLIC "-//W3C//DTD SVG 20010904//EN"
 "http://www.w3.org/TR/2001/REC-SVG-20010904/DTD/svg10.dtd">
<svg version="1.0" xmlns="http://www.w3.org/2000/svg"
 width="1040.000000pt" height="1040.000000pt" viewBox="0 0 1040.000000 1040.000000"
 preserveAspectRatio="xMidYMid meet">
<metadata>
Created by potrace 1.14, written by Peter Selinger 2001-2017
</metadata>
<g transform="translate(0.000000,1040.000000) scale(0.100000,-0.100000)"
fill="#000000" stroke="none">
<path d="M955 8658 c-55 -3 -107 -8 -115 -10 -31 -8 -76 -37 -107 -70 -66 -69
-61 155 -61 -2688 0 -2059 2 -2588 12 -2602 14 -20 101 -60 110 -51 3 4 6 2 6
-3 0 -5 8 -10 18 -10 9 -1 40 -5 67 -9 96 -15 274 -8 370 14 109 26 131 36
144 70 6 17 10 433 9 1184 0 637 2 1160 5 1163 6 7 539 5 587 -1 19 -3 51 -7
70 -10 112 -14 317 -83 382 -127 14 -10 31 -18 37 -18 6 0 11 -4 11 -8 0 -4
13 -15 29 -25 39 -23 118 -100 161 -157 19 -25 37 -47 40 -50 10 -8 126 -193
142 -225 8 -16 27 -51 41 -77 14 -27 23 -48 20 -48 -2 0 4 -15 15 -32 20 -34
122 -255 137 -298 1 -3 5 -14 10 -25 4 -11 17 -42 28 -70 10 -27 24 -61 30
-75 6 -14 11 -27 12 -30 1 -3 7 -18 14 -35 90 -219 275 -692 273 -698 -1 -4 2
-7 6 -7 5 0 9 -6 9 -12 2 -24 109 -273 135 -313 28 -44 100 -89 158 -99 122
-21 205 -24 350 -12 87 7 188 29 225 48 76 40 87 113 38 258 -14 41 -34 94
-44 117 -10 24 -29 64 -40 91 -12 26 -22 52 -23 57 -1 6 -12 32 -24 59 -12 27
-22 51 -22 53 0 3 -6 19 -14 36 -36 83 -47 110 -91 217 -25 63 -52 129 -60
145 -7 17 -30 73 -51 125 -20 52 -41 100 -46 106 -5 7 -11 20 -13 30 -4 19
-92 234 -134 329 -12 28 -29 66 -38 85 -90 205 -291 524 -400 635 -109 111
-222 193 -326 237 l-47 21 97 39 c189 75 383 184 493 277 81 68 249 241 234
241 -3 0 1 7 8 15 81 89 198 344 214 464 3 19 6 37 9 41 6 10 17 106 20 185 2
39 4 72 5 75 5 16 -7 257 -15 300 -3 14 -8 41 -11 60 -7 41 -29 126 -39 155
-46 128 -137 295 -210 385 -32 39 -221 230 -228 230 -4 0 -26 15 -50 33 -156
119 -616 278 -847 292 -47 3 -114 7 -150 10 -208 17 -1379 26 -1575 13z m1390
-582 c28 -3 57 -7 65 -9 8 -2 33 -7 55 -11 22 -4 60 -12 85 -17 25 -5 55 -12
68 -14 12 -3 31 -7 43 -10 132 -29 324 -147 434 -267 62 -68 116 -182 150
-317 23 -89 26 -112 30 -223 2 -53 6 -101 9 -107 4 -5 2 -12 -4 -16 -6 -4 -8
-9 -6 -13 2 -4 0 -32 -6 -62 -5 -30 -10 -64 -12 -75 -7 -49 -22 -88 -69 -185
-45 -92 -55 -107 -137 -190 -110 -112 -242 -190 -397 -236 -48 -14 -101 -27
-118 -29 -16 -2 -30 -4 -30 -5 0 -2 -36 -10 -75 -16 -19 -3 -257 -7 -527 -10
l-493 -6 -1 24 c-3 140 0 1788 4 1794 6 10 841 9 932 0z"/>
<path d="M5573 8050 c-15 -17 -40 -74 -63 -140 -5 -14 -32 -86 -60 -160 -28
-74 -53 -139 -54 -145 -2 -5 -8 -21 -14 -35 -11 -27 -23 -59 -28 -75 -3 -10
-102 -272 -153 -405 -16 -41 -48 -127 -71 -190 -23 -63 -46 -123 -52 -134 -5
-10 -11 -26 -13 -35 -5 -22 -133 -359 -150 -396 -17 -37 -21 -64 -10 -87 6
-15 21 -18 89 -18 116 0 132 12 174 131 39 109 41 117 42 127 1 4 8 17 16 30
8 12 13 22 10 22 -2 0 11 37 28 83 l32 82 393 2 c303 2 393 0 396 -10 49 -147
154 -429 165 -446 15 -22 22 -23 124 -23 90 0 113 3 134 19 l25 18 -23 65
c-12 36 -28 79 -35 95 -7 17 -18 46 -23 65 -6 19 -24 73 -42 120 -17 47 -44
121 -60 165 -15 44 -52 145 -80 225 -104 292 -141 395 -143 405 -1 6 -4 12 -7
15 -3 3 -16 39 -29 80 -14 41 -31 90 -38 107 -7 18 -13 34 -12 35 1 3 -24 70
-46 123 -4 11 -9 26 -11 32 -1 7 -14 43 -27 80 -14 38 -34 91 -43 120 -12 34
-26 55 -42 62 -13 6 -80 11 -153 10 -114 0 -132 -3 -146 -19z m152 -300 c10
-30 22 -61 28 -67 5 -7 7 -13 4 -13 -4 0 3 -21 14 -47 12 -27 22 -56 24 -65 2
-10 10 -32 19 -50 8 -18 26 -64 39 -103 13 -38 40 -113 59 -165 79 -210 113
-305 113 -315 0 -10 -634 -15 -641 -4 -3 6 4 30 31 109 1 3 5 12 8 20 6 15 95
266 101 285 2 6 5 17 8 25 18 46 147 419 153 439 9 30 19 19 40 -49z"/>
<path d="M5676 7313 c-2 -2 -10 -5 -18 -6 -21 -4 -52 -29 -80 -67 -20 -27 -25
-45 -24 -80 5 -98 69 -162 162 -162 158 0 213 225 72 298 -27 14 -103 26 -112
17z"/>
<path d="M6884 8060 c-12 -5 -25 -14 -29 -20 -4 -7 -8 -413 -8 -902 0 -746 3
-892 14 -899 8 -5 46 -9 86 -9 72 0 122 14 124 34 0 6 1 215 1 464 0 424 2
452 17 435 9 -10 55 -67 101 -128 46 -60 110 -142 142 -182 32 -39 58 -76 58
-81 0 -6 3 -12 8 -14 4 -1 23 -23 42 -48 19 -25 37 -47 40 -50 3 -3 32 -41 65
-85 33 -44 62 -82 65 -85 3 -3 28 -34 54 -70 27 -36 53 -66 58 -68 4 -2 8 -8
8 -13 0 -9 28 -45 67 -86 14 -14 35 -23 55 -24 95 -2 141 1 154 12 8 6 14 8
14 4 0 -4 7 -2 15 5 17 14 20 50 4 50 -5 0 -8 4 -5 8 3 5 -3 18 -12 28 -25 27
-395 502 -407 522 -5 9 -15 21 -21 27 -9 8 -44 53 -159 203 -5 7 -17 21 -25
31 -27 31 -60 80 -60 88 0 4 19 29 43 54 23 26 59 66 79 90 20 24 48 58 63 74
35 40 97 112 263 304 26 30 56 64 67 76 39 44 95 111 125 149 30 39 32 66 6
91 -12 11 -178 12 -217 1 -13 -4 -53 -43 -89 -88 -126 -158 -212 -263 -218
-268 -4 -3 -25 -27 -47 -55 -22 -27 -44 -55 -50 -61 -5 -6 -22 -26 -37 -45
-14 -19 -35 -44 -45 -55 -10 -12 -31 -39 -48 -60 -28 -36 -148 -179 -165 -197
-4 -5 -8 178 -8 407 1 319 -2 419 -12 431 -14 16 -136 20 -176 5z"/>
<path d="M8355 8058 c-11 -6 -22 -12 -23 -14 -9 -6 -19 -74 -12 -74 5 0 5 -13
0 -28 -4 -16 -4 -35 1 -43 4 -8 4 -21 -1 -28 -4 -8 -4 -27 0 -42 5 -16 6 -29
2 -29 -4 0 -7 -16 -7 -35 0 -19 3 -35 7 -35 4 0 4 -10 -1 -22 -5 -13 -5 -33 0
-45 5 -13 5 -23 1 -23 -4 0 -7 -16 -7 -35 0 -19 3 -35 7 -35 4 0 4 -10 -1 -22
-5 -13 -5 -33 0 -45 5 -13 5 -23 1 -23 -4 0 -7 -16 -7 -35 0 -19 3 -35 7 -35
4 0 4 -10 -1 -22 -5 -13 -5 -33 0 -45 5 -13 5 -23 1 -23 -4 0 -7 -16 -7 -35 0
-19 3 -35 7 -35 4 0 3 -12 -2 -26 -6 -15 -6 -32 -1 -42 6 -11 6 -24 0 -34 -6
-11 -6 -19 1 -23 7 -4 7 -12 0 -24 -5 -10 -7 -21 -4 -24 7 -7 11 -87 4 -87
-15 0 11 -295 30 -329 5 -10 10 -28 12 -42 5 -39 73 -150 125 -204 96 -100
218 -159 393 -191 99 -17 274 -12 352 12 10 3 30 7 45 10 16 3 37 8 48 11 11
4 22 8 25 8 3 1 19 8 35 15 17 7 32 14 35 14 15 2 110 69 110 77 0 5 6 9 13 9
6 0 33 29 59 63 121 161 152 318 134 682 -4 77 -9 194 -11 260 -3 66 -5 120
-6 120 0 0 -2 34 -4 75 -2 41 -6 143 -10 225 -3 83 -7 168 -7 190 -1 61 -19
75 -98 75 -40 0 -79 -6 -97 -15 l-30 -15 -1 -588 c0 -565 -2 -625 -23 -720
-20 -93 -108 -222 -179 -264 -22 -13 -87 -38 -115 -44 -51 -11 -88 -16 -130
-18 -55 -3 -190 22 -245 46 -48 21 -135 102 -166 154 -23 39 -58 144 -48 144
2 0 -2 12 -8 28 -8 19 -11 214 -12 644 -2 495 -5 619 -15 632 -16 19 -144 22
-176 4z"/>
<path d="M8985 7305 c-22 -8 -41 -15 -41 -15 -1 0 -14 -16 -29 -35 -34 -45
-43 -121 -19 -167 22 -42 32 -52 80 -75 77 -37 167 -5 205 75 20 41 21 56 6
128 -2 6 -10 23 -20 37 -34 52 -117 75 -182 52z"/>
<path d="M5766 5922 c-2 -1 -25 -4 -52 -7 -134 -11 -304 -57 -389 -105 -132
-73 -251 -219 -302 -369 -34 -103 -43 -288 -18 -376 10 -33 22 -66 27 -72 6
-7 8 -13 4 -13 -11 0 45 -104 82 -150 54 -67 106 -114 201 -179 71 -48 243
-138 326 -171 102 -41 319 -148 345 -170 10 -8 40 -33 67 -54 106 -86 148
-176 147 -316 -1 -108 -4 -123 -36 -190 -26 -54 -86 -130 -101 -130 -4 0 -24
-11 -45 -23 -44 -28 -151 -66 -201 -72 -20 -2 -49 -7 -66 -11 -56 -12 -274 -5
-325 11 -3 1 -12 4 -20 7 -8 3 -42 13 -75 23 -54 16 -209 91 -280 136 -116 73
-163 45 -160 -98 2 -43 5 -85 8 -93 3 -8 8 -27 11 -41 8 -37 74 -101 121 -118
22 -8 56 -21 75 -29 19 -8 35 -13 35 -11 0 1 10 -3 23 -10 13 -7 31 -14 40
-16 9 -1 55 -12 102 -23 200 -48 473 -46 665 4 33 9 65 17 70 19 48 11 126 52
226 117 145 95 251 248 284 409 27 128 24 299 -6 368 -12 28 -25 51 -30 51 -4
0 -11 10 -15 23 -26 83 -165 234 -284 308 -70 44 -230 124 -355 177 -232 99
-313 147 -411 246 -43 44 -67 78 -82 118 -24 64 -33 159 -20 203 5 16 11 39
13 49 9 41 45 102 77 132 38 35 134 91 169 98 13 3 35 8 49 11 14 3 45 8 70
12 25 3 47 7 49 9 2 2 10 -1 18 -7 9 -8 13 -8 13 -1 0 6 6 10 13 7 6 -2 35 -6
62 -9 51 -6 57 -7 110 -20 86 -20 219 -69 235 -86 10 -11 140 -74 159 -77 21
-3 44 15 63 50 13 25 18 216 6 223 -5 3 -6 9 -4 13 7 11 -53 63 -99 86 -22 11
-47 25 -55 31 -16 11 -105 46 -115 45 -3 -1 -18 5 -33 13 -15 7 -46 16 -70 20
-24 3 -47 8 -52 11 -19 12 -255 27 -264 17z"/>
<path d="M9253 5913 c-26 -7 -52 -18 -58 -26 -7 -10 -10 -435 -10 -1302 l0
-1287 23 -19 c13 -10 38 -21 57 -25 31 -6 228 -1 270 7 48 9 49 16 48 273 -1
132 -2 306 -2 386 0 80 0 152 0 160 0 8 -3 321 -5 695 -3 374 -6 772 -6 885
-2 229 -5 240 -71 255 -54 13 -193 11 -246 -2z"/>
<path d="M7168 5892 c-21 -8 -40 -23 -43 -33 -4 -11 -10 -19 -15 -19 -5 0 -12
-16 -16 -37 -4 -20 -7 -575 -7 -1234 0 -1160 1 -1198 19 -1230 11 -18 35 -41
54 -52 34 -20 53 -21 727 -21 l692 -1 22 24 c19 20 22 34 22 109 -1 94 -12
136 -40 149 -10 5 -267 9 -570 8 -380 -1 -553 2 -554 9 -3 34 -4 904 -1 918 4
15 43 16 474 17 316 0 475 4 482 11 21 21 23 149 4 233 -10 42 -9 42 -486 43
-252 0 -462 3 -467 6 -6 4 -10 163 -10 415 l1 408 541 1 c538 2 542 2 564 23
34 31 41 137 16 236 -3 11 -6 23 -6 26 -1 4 -308 6 -683 6 -570 -1 -689 -3
-720 -15z"/>
<path d="M720 2670 c-30 -4 -35 -8 -32 -29 12 -80 88 -185 200 -271 42 -33 82
-65 89 -70 7 -6 15 -10 19 -10 3 0 19 -9 35 -21 35 -24 278 -146 329 -164 3
-1 14 -5 25 -10 170 -70 535 -191 601 -200 12 -2 31 -8 43 -14 11 -7 21 -10
21 -7 0 3 24 -2 53 -11 28 -8 59 -17 67 -18 8 -2 15 -4 15 -5 0 -1 11 -4 25
-6 14 -3 43 -9 65 -15 22 -6 51 -13 65 -16 14 -2 53 -10 86 -18 34 -8 75 -17
90 -20 29 -6 41 -9 99 -20 17 -3 50 -10 75 -15 42 -9 80 -15 140 -25 14 -2 36
-6 50 -9 14 -3 41 -8 60 -10 19 -3 46 -8 60 -11 14 -3 43 -7 65 -10 22 -2 56
-7 75 -10 19 -3 46 -7 60 -10 14 -2 39 -6 55 -8 17 -3 55 -8 85 -12 30 -4 68
-9 85 -11 16 -3 50 -7 75 -9 25 -2 61 -6 80 -9 19 -3 62 -7 95 -11 77 -7 149
-14 200 -20 22 -3 76 -7 120 -11 80 -6 103 -7 265 -18 47 -4 139 -9 205 -12
66 -3 167 -7 225 -10 152 -8 890 -8 1060 0 80 3 190 8 245 10 55 3 129 7 165
10 36 3 103 8 150 11 47 4 105 8 130 10 25 3 79 7 120 10 41 3 86 7 100 10 14
2 57 7 95 11 39 3 84 8 100 11 17 3 48 6 70 8 22 2 40 4 40 4 0 1 21 4 46 6
25 2 59 6 75 9 16 3 52 8 79 11 28 3 57 8 65 10 8 3 40 7 70 10 30 3 62 7 70
10 8 2 33 7 55 10 23 3 52 7 65 10 13 3 42 7 65 11 22 3 59 10 83 15 23 5 59
12 80 15 20 3 63 12 95 19 31 7 57 11 57 8 0 -3 6 0 13 6 8 6 16 9 18 6 3 -2
32 2 65 10 34 8 72 16 85 19 13 3 35 8 49 11 14 3 36 8 50 11 14 3 39 9 57 15
17 5 44 12 60 15 15 3 51 12 79 20 28 8 60 16 70 18 42 9 355 107 448 141 163
59 228 86 381 162 120 58 128 63 198 110 26 18 50 33 55 33 7 0 48 34 119 101
39 37 104 126 110 152 1 7 6 29 12 50 7 31 6 37 -8 38 -72 4 -8984 3 -9011 -1z"/>
</g>
</svg>
