<svg xmlns="http://www.w3.org/2000/svg" xmlns:xlink="http://www.w3.org/1999/xlink" width="200.948" height="329.027" viewBox="0 0 200.948 329.027">
  <defs>
    <clipPath id="clip-path">
      <rect id="長方形_115" data-name="長方形 115" width="200.948" height="254.775" fill="none"/>
    </clipPath>
  </defs>
  <g id="グループ_1479" data-name="グループ 1479" transform="translate(-1147.026 -3808.973)">
    <g id="グループ_264" data-name="グループ 264" transform="translate(9 129)">
      <g id="グループ_263" data-name="グループ 263">
        <rect id="長方形_85" data-name="長方形 85" width="191" height="48" rx="10" transform="translate(1143 3961)" fill="#f0d7da"/>
        <text id="_40代_女性" data-name="40代 女性" transform="translate(1181 3995)" fill="#333" font-size="26" font-family="SourceHanSansJP-Bold, Source Han Sans JP" font-weight="700"><tspan x="0" y="0">40代 女性</tspan></text>
      </g>
    </g>
    <g id="グループ_332" data-name="グループ 332" transform="translate(1147.026 3808.973)">
      <g id="グループ_331" data-name="グループ 331" transform="translate(0 0)" clip-path="url(#clip-path)">
        <path id="パス_956" data-name="パス 956" d="M97.439,94.389,99.463,84.03a78.691,78.691,0,0,0-11.974-.035c-2.72.153-5.4.282-8.074.382a2.032,2.032,0,0,1-1.589-.593,2.221,2.221,0,0,1-.7-1.551l-.2-8.6c-.1-4.176-.2-8.861-.323-13.246a49.707,49.707,0,0,1-16.62,2.869h-.438a49.827,49.827,0,0,1-15.877-2.6c-.123,4.52-.232,9.351-.329,13.654l-.185,7.915a2.2,2.2,0,0,1-.7,1.551,2.035,2.035,0,0,1-1.592.593q-4.018-.154-8.039-.379a78.694,78.694,0,0,0-12,.041l2.021,10.35c22.894,9.622,51.7,9.622,74.6,0" transform="translate(40.332 116.974)" fill="#fff"/>
        <path id="パス_957" data-name="パス 957" d="M58.163,80.193A102.81,102.81,0,0,1,21.844,73.67l6.864,35.1h58.91l6.864-35.1a102.81,102.81,0,0,1-36.319,6.523" transform="translate(42.311 142.698)" fill="#fff"/>
        <path id="パス_958" data-name="パス 958" d="M31.311,70.906a60.41,60.41,0,0,0-14.479,9.842A46.2,46.2,0,0,0,1.5,114.993H34.757Z" transform="translate(2.913 137.344)" fill="#f0d7da"/>
        <path id="パス_959" data-name="パス 959" d="M73.517,80.754A60.844,60.844,0,0,0,59.038,70.9L55.593,115H88.848A46.208,46.208,0,0,0,73.517,80.754" transform="translate(107.683 137.338)" fill="#f0d7da"/>
        <path id="パス_960" data-name="パス 960" d="M60.384,10.84A44.983,44.983,0,0,1,77.965,16.9C75.941,8.185,65.151,1.5,52.149,1.5c-10.006,0-18.712,3.959-23.12,9.757,9.466-2.4,19.886-2.552,31.355-.417" transform="translate(56.229 2.905)" fill="#6a6a6a"/>
        <path id="パス_961" data-name="パス 961" d="M4.417,173.226a46.206,46.206,0,0,1,15.328-34.248,60.486,60.486,0,0,1,14.479-9.839l3.445,44.087.015.17,2.2-.17,2.2-.173-3.709-47.424,17.51-7.745L66.7,173.226l.082.42L71.1,172.8l-.088-.443-6.864-35.1a104.421,104.421,0,0,0,72.64,0l-6.864,35.1-.085.443,4.323.843.085-.42,10.814-55.342,17.51,7.745-3.706,47.424,2.2.173,2.2.17.012-.17,3.445-44.1a60.747,60.747,0,0,1,14.479,9.848,46.209,46.209,0,0,1,15.331,34.248c0,.079.012.156.012.238a2.2,2.2,0,0,0,2.2,2.2h0a2.2,2.2,0,0,0,2.2-2.206c-.029-14.535-5.821-27.572-16.75-37.708a65.615,65.615,0,0,0-17.111-11.3l.123-1.586L141.8,111.619l-1.16,5.927a82.66,82.66,0,0,0-13.1-.088c-1.909.106-3.818.206-5.727.288l-.147-6.35c-.109-4.711-.232-10.068-.367-14.92,17.287-8.044,29.666-25.951,32.357-48.742a14.19,14.19,0,0,0,1.366.8,4.764,4.764,0,0,1,2.085-3.9,10.361,10.361,0,0,1-3.492-2.922,2.2,2.2,0,0,0-3.953,1.2c-1.865,31.214-22.6,53.808-49.365,53.808q-.2,0-.4,0c-26.747,0-47.488-22.6-49.347-53.808a2.205,2.205,0,0,0-3.956-1.2,10.314,10.314,0,0,1-4.182,3.225A4.737,4.737,0,0,1,44.14,48.58c0,.159-.032.305-.047.458a14.3,14.3,0,0,0,2.461-1.3c2.728,23.117,15.413,41.232,33.085,49.1-.138,4.961-.264,10.429-.373,15.24l-.132,5.668c-1.906-.082-3.812-.179-5.692-.285a83.765,83.765,0,0,0-13.137.1l-1.163-5.939L33.734,122.862l.123,1.592A65.4,65.4,0,0,0,16.75,135.747C5.818,145.885.029,158.923,0,173.458a2.2,2.2,0,0,0,2.2,2.206h0a2.2,2.2,0,0,0,2.2-2.2c0-.082.012-.159.012-.238M61.154,121.9a79.458,79.458,0,0,1,12-.041q4.022.225,8.039.379a2.015,2.015,0,0,0,1.592-.593,2.193,2.193,0,0,0,.7-1.548l.185-7.918c.1-4.3.206-9.134.329-13.654a49.829,49.829,0,0,0,15.877,2.6h.438a49.709,49.709,0,0,0,16.62-2.872c.12,4.385.226,9.069.323,13.246l.2,8.6a2.214,2.214,0,0,0,.7,1.548,2.012,2.012,0,0,0,1.589.593c2.676-.1,5.354-.229,8.074-.382a79.455,79.455,0,0,1,11.974.035l-2.024,10.359c-22.894,9.625-51.7,9.625-74.6,0Z" transform="translate(0 79.111)" fill="#1a1311"/>
        <path id="パス_962" data-name="パス 962" d="M142.967,81.6a7.452,7.452,0,0,0,3.345-1.706,7.69,7.69,0,0,0,2.452-5.789,9.669,9.669,0,0,0-8.9-9.563A7.99,7.99,0,0,0,132.9,67.6a2.2,2.2,0,0,1-3.471-2.714,12.386,12.386,0,0,1,1.4-1.483,2.181,2.181,0,0,1,.217-1.477c-.1-.687-.167-1.392-.285-2.071a7.968,7.968,0,0,1-.987-.725,2.088,2.088,0,0,1-1.709-.076C125.1,57.568,105.5,37.523,95.267,22.21,88.277,35.362,75.722,44.975,63.122,51.8a16.609,16.609,0,0,1,2.411,1.019,2.2,2.2,0,0,1-1.034,4.15,2.225,2.225,0,0,1-1.031-.258,12.15,12.15,0,0,0-7.642-1.245,162.235,162.235,0,0,1-25.966,9.381l.032.035A2.2,2.2,0,0,1,26.422,67.6a8.013,8.013,0,0,0-1.6-1.524l-.094.021a2.152,2.152,0,0,1-2.382-1.2,8.387,8.387,0,0,0-2.893-.358,9.663,9.663,0,0,0-8.9,9.566A7.691,7.691,0,0,0,13.008,79.9a7.416,7.416,0,0,0,2.482,1.471,4.711,4.711,0,0,1,6.476-.341A10.314,10.314,0,0,0,26.148,77.8,2.2,2.2,0,0,1,30.1,79c1.862,31.211,22.6,53.808,49.35,53.808.129,0,.258,0,.394,0,26.765,0,47.5-22.594,49.365-53.808a2.2,2.2,0,0,1,3.956-1.2,10.324,10.324,0,0,0,3.489,2.922,4.735,4.735,0,0,1,6.309.878M53.909,76.074a3.707,3.707,0,0,1-3.6-3.941c0-2.141,1.46-4.132,3.6-4.132s3.557,1.991,3.557,4.132a3.671,3.671,0,0,1-3.557,3.941M74.4,79.763a2.2,2.2,0,1,1,4.405,0v8.268a2.2,2.2,0,0,1-4.405,0ZM68.03,104.3a2.208,2.208,0,0,1,3.113-.147,13.15,13.15,0,0,0,17.766,0,2.2,2.2,0,1,1,2.966,3.257,17.53,17.53,0,0,1-23.7,0,2.2,2.2,0,0,1-.147-3.11m37.588-28.65c-2.135,0-3.539-1.994-3.539-4.132a3.6,3.6,0,0,1,3.539-3.871,3.965,3.965,0,0,1,3.991,3.871,4.2,4.2,0,0,1-3.991,4.132M110.986,55.8a2.206,2.206,0,0,1-1.95,1.172,2.257,2.257,0,0,1-1.031-.256,12.161,12.161,0,0,0-11.425,0,2.205,2.205,0,1,1-2.065-3.9,16.6,16.6,0,0,1,15.554,0,2.208,2.208,0,0,1,.916,2.981" transform="translate(20.447 43.02)" fill="#fff"/>
        <path id="パス_963" data-name="パス 963" d="M39.466,20.464a2.2,2.2,0,0,1,1.427,1.022c-.352-.605-.687-1.213-1.031-1.821-.126.27-.267.532-.4.8" transform="translate(76.445 38.091)" fill="#fff"/>
        <path id="パス_964" data-name="パス 964" d="M45.257,37.683a3.6,3.6,0,0,0-3.539,3.868c0,2.141,1.4,4.135,3.539,4.135a4.2,4.2,0,0,0,3.991-4.135,3.965,3.965,0,0,0-3.991-3.868" transform="translate(80.807 72.991)" fill="#1a1311"/>
        <path id="パス_965" data-name="パス 965" d="M27.692,37.8c-2.141,0-3.6,1.991-3.6,4.129a3.6,3.6,0,1,0,7.157,0c0-2.138-1.413-4.129-3.557-4.129" transform="translate(46.664 73.222)" fill="#1a1311"/>
        <path id="パス_966" data-name="パス 966" d="M28.418,9.252A58.518,58.518,0,0,0,16.77,22.222,78.868,78.868,0,0,1,28.418,9.252" transform="translate(32.483 17.921)" fill="#4054a0"/>
        <path id="パス_967" data-name="パス 967" d="M34.5,53.727a2.2,2.2,0,0,0,2.2-2.2V43.26a2.2,2.2,0,0,0-4.405,0v8.265a2.2,2.2,0,0,0,2.2,2.2" transform="translate(62.551 79.527)" fill="#1a1311"/>
        <path id="パス_968" data-name="パス 968" d="M55.471,33.91a16.593,16.593,0,0,0-15.557,0A2.2,2.2,0,0,0,41.979,37.8a12.184,12.184,0,0,1,11.428,0,2.2,2.2,0,1,0,2.065-3.894" transform="translate(75.045 61.933)" fill="#1a1311"/>
        <path id="パス_969" data-name="パス 969" d="M126.811,92.4c8.752-15.913,8.649-38.662-.432-57.259-7.8-15.98-20.905-26.2-35.943-28.039-30.154-5.61-52.643,5.345-68.893,33.493a2.2,2.2,0,0,1-.957.887c-7.3,17.51-7.087,27.361-6.861,37.778.082,3.777.17,7.68-.123,11.959a2.137,2.137,0,0,1-.435,1.107c.32-.044.626-.135.952-.156a12.672,12.672,0,0,1,6.35,1.248,162.137,162.137,0,0,0,23.74-7.939,2.151,2.151,0,0,1,.717-.629,16.419,16.419,0,0,1,4.094-1.51c15.211-7.1,31.884-18.2,38.9-34.5A2.189,2.189,0,0,1,89.8,47.515a2.339,2.339,0,0,1,.608.041c.126-.264.267-.526.394-.8.347.608.681,1.216,1.034,1.821,8.931,14.917,30.5,37.047,33.164,38.574a2.245,2.245,0,0,1,.89,2.975,2.21,2.21,0,0,1-1.178,1.025,7.968,7.968,0,0,0,.987.725,4.568,4.568,0,0,0,1.113.52" transform="translate(25.504 10.996)" fill="#6a6a6a"/>
        <path id="パス_970" data-name="パス 970" d="M42.5,58.358a17.583,17.583,0,0,0,11.851-4.608,2.2,2.2,0,0,0-2.966-3.26,13.144,13.144,0,0,1-17.766,0,2.2,2.2,0,1,0-2.966,3.26A17.581,17.581,0,0,0,42.5,58.358" transform="translate(57.973 96.689)" fill="#1a1311"/>
        <path id="パス_971" data-name="パス 971" d="M18.4,124.39a7.5,7.5,0,0,1-2.485-1.471,7.7,7.7,0,0,1-2.452-5.789,9.67,9.67,0,0,1,8.9-9.569,8.477,8.477,0,0,1,2.893.358,2.152,2.152,0,0,0,2.382,1.2.681.681,0,0,1,.094-.018,7.994,7.994,0,0,1,1.6,1.521A2.2,2.2,0,1,0,32.8,107.9l-.029-.032a162.59,162.59,0,0,0,25.963-9.384,12.182,12.182,0,0,1,7.645,1.245,2.17,2.17,0,0,0,1.028.258,2.2,2.2,0,0,0,1.037-4.147,16.764,16.764,0,0,0-2.411-1.022C78.629,88,91.185,78.382,98.175,65.233,108.4,80.547,128,100.589,130.966,102.075a2.076,2.076,0,0,0,1.709.073,2.2,2.2,0,0,0,1.178-1.025,2.245,2.245,0,0,0-.89-2.975C130.3,96.621,108.73,74.491,99.8,59.574a2.217,2.217,0,0,0-1.43-1.022,2.321,2.321,0,0,0-.608-.041,2.189,2.189,0,0,0-1.874,1.325c-7.019,16.3-23.693,27.4-38.9,34.5a16.535,16.535,0,0,0-4.094,1.51,2.184,2.184,0,0,0-.717.629,161.767,161.767,0,0,1-23.74,7.939,12.672,12.672,0,0,0-6.35-1.248c-.326.021-.631.112-.952.156a2.137,2.137,0,0,0,.435-1.107c.294-4.279.206-8.182.123-11.959-.226-10.415-.441-20.268,6.861-37.778a2.2,2.2,0,0,0,.957-.887C45.758,23.44,68.247,12.485,98.4,18.095c15.037,1.841,28.139,12.062,35.943,28.039,9.081,18.6,9.184,41.347.432,57.259-.267.482-.514.981-.8,1.451-.018.032-.015.07-.032.1a2.167,2.167,0,0,0-.217,1.477,12.6,12.6,0,0,0-1.4,1.483,2.2,2.2,0,0,0,3.472,2.714,8,8,0,0,1,6.969-3.054,9.672,9.672,0,0,1,8.9,9.566,7.7,7.7,0,0,1-2.452,5.789,7.507,7.507,0,0,1-3.348,1.706,4.722,4.722,0,0,1,1.145,3.069,4.654,4.654,0,0,1-.173,1.2,11.812,11.812,0,0,0,5.342-2.72,12.067,12.067,0,0,0,3.891-9.046,14.136,14.136,0,0,0-13.026-13.962,12.627,12.627,0,0,0-3.272.2C148.2,86.245,147.742,63.527,138.3,44.2a59.007,59.007,0,0,0-16.891-21.164c0-.1.018-.185.018-.276C121.43,10.212,107.705,0,90.838,0,77.1,0,65.463,6.767,61.6,16.051A59.072,59.072,0,0,0,43.362,27.173a78.868,78.868,0,0,0-11.648,12.97c-1.862,2.567-3.674,5.263-5.4,8.188a2.2,2.2,0,0,0-1.3,1.216c-8.191,19.14-7.95,30.154-7.718,40.8.079,3.677.164,7.48-.115,11.563a2.192,2.192,0,0,0,1.181,2.1,14.157,14.157,0,0,0-9.3,13.12,12.049,12.049,0,0,0,3.894,9.046,11.736,11.736,0,0,0,4.2,2.455,4.944,4.944,0,0,1-.094-.937,4.748,4.748,0,0,1,1.339-3.3M90.838,4.405c13,0,23.793,6.682,25.816,15.4a44.952,44.952,0,0,0-17.581-6.065C87.6,11.61,77.184,11.76,67.718,14.159c4.408-5.795,13.114-9.754,23.12-9.754" transform="translate(17.539 0)" fill="#1a1311"/>
        <path id="パス_972" data-name="パス 972" d="M19.6,42.98a4.76,4.76,0,0,0-7.815,3.645,4.9,4.9,0,0,0,.094.937,4.756,4.756,0,0,0,9.4-.479c.015-.153.047-.3.047-.458A4.746,4.746,0,0,0,19.6,42.98" transform="translate(22.818 81.067)" fill="#f0d7da"/>
        <path id="パス_973" data-name="パス 973" d="M61.178,43.556a4.752,4.752,0,0,0-8.391,3.025l-.006.044a4.771,4.771,0,1,0,8.4-3.069" transform="translate(102.236 81.069)" fill="#f0d7da"/>
        <path id="パス_974" data-name="パス 974" d="M30.575,67.074l-17.51,7.745,3.709,47.423-2.2.173H41.392Z" transform="translate(25.306 129.922)" fill="#f0d7da"/>
        <path id="パス_975" data-name="パス 975" d="M74.038,74.819l-17.51-7.745L45.711,122.415H72.525l-2.2-.17Z" transform="translate(88.541 129.921)" fill="#f0d7da"/>
      </g>
    </g>
  </g>
</svg>
