<svg xmlns="http://www.w3.org/2000/svg" xmlns:xlink="http://www.w3.org/1999/xlink" width="244.66" height="333.836" viewBox="0 0 244.66 333.836">
  <defs>
    <clipPath id="clip-path">
      <rect id="長方形_117" data-name="長方形 117" width="133.647" height="173.254" fill="none"/>
    </clipPath>
  </defs>
  <g id="グループ_1480" data-name="グループ 1480" transform="translate(-1125.17 -4332.164)">
    <g id="グループ_265" data-name="グループ 265" transform="translate(9 601)">
      <rect id="長方形_86" data-name="長方形 86" width="191" height="48" rx="10" transform="translate(1143 4017)" fill="#bfc9e4"/>
      <text id="_20代_男性" data-name="20代 男性" transform="translate(1180 4051)" fill="#333" font-size="26" font-family="SourceHanSansJP-Bold, Source Han Sans JP" font-weight="700"><tspan x="0" y="0">20代 男性</tspan></text>
    </g>
    <g id="グループ_346" data-name="グループ 346" transform="translate(-11063.217 6911.456)">
      <g id="グループ_340" data-name="グループ 340" transform="translate(12188.387 -2579.292)">
        <g id="グループ_334" data-name="グループ 334" transform="translate(0 143.88)">
          <g id="グループ_337" data-name="グループ 337" transform="translate(0 0)">
            <path id="パス_976" data-name="パス 976" d="M54.262,105.309H66.145L83.035,67.7c.118-.29-.211-14.375,0-14.576-.08-3.875-38.842,4.778-45.409,0-.121,5.267,1.9,15.2,1.8,20.135Z" transform="translate(61.551 -46.651)" fill="#fff"/>
            <path id="パス_977" data-name="パス 977" d="M63.955,139.352l19.091-16.99,3.617-51.715L71.315,63.069l-13.4,76.545a2.109,2.109,0,0,1-.929,1.426h6.268a2.238,2.238,0,0,1,.7-1.688" transform="translate(89.718 -31.333)" fill="#bfc9e4"/>
            <path id="パス_978" data-name="パス 978" d="M54.972,139.616l-13.4-76.548L26.227,70.649l3.617,51.715,19.091,16.99a2.222,2.222,0,0,1,.7,1.688h6.276a2.1,2.1,0,0,1-.94-1.426" transform="translate(41.289 -31.335)" fill="#bfc9e4"/>
            <path id="パス_979" data-name="パス 979" d="M125.148,88.334c-10.9-11.292-25.573-18.968-41.585-22.205L79.938,117.9a2.232,2.232,0,0,1-.721,1.521l-17.85,15.886h82.8c-.232-18.068-6.788-34.3-19.022-46.972" transform="translate(96.611 -25.597)" fill="#bfc9e4"/>
            <path id="パス_980" data-name="パス 980" d="M64.975,117.79l-3.609-51.6C45.637,69.51,31.254,77.114,20.527,88.222,8.291,100.9,1.737,117.126,1.508,135.2H83.549L65.7,119.308a2.258,2.258,0,0,1-.721-1.518" transform="translate(2.374 -25.488)" fill="#bfc9e4"/>
            <path id="パス_981" data-name="パス 981" d="M39.428,90.377a2.23,2.23,0,0,1-.922,2.251h2.013l-1.351-3.737Z" transform="translate(60.62 17.078)" fill="#4054a0"/>
            <path id="パス_982" data-name="パス 982" d="M65.47,115.363l4.49-25.649a1.927,1.927,0,0,1-1.313,1.069,1.654,1.654,0,0,1-.335.035,1.839,1.839,0,0,1-1.367-.632l-13.1-14.621L49.872,98.269a1.811,1.811,0,0,1-.085.253,2.257,2.257,0,0,1,.283.9l1.547,18.143a2.142,2.142,0,0,1-.036.385H68.126l.1-.287a1.763,1.763,0,0,1-1.233.23,2.161,2.161,0,0,1-1.524-2.53" transform="translate(78.38 -7.908)" fill="#fff"/>
            <path id="パス_983" data-name="パス 983" d="M48.85,88.681l.2,4.68h.2Z" transform="translate(76.904 16.684)" fill="#fff"/>
            <path id="パス_984" data-name="パス 984" d="M55.924,117.5l1.534-18.014a2.2,2.2,0,0,1-.641-1.216L52.845,75.564l-13.1,14.621a1.833,1.833,0,0,1-1.364.632,1.7,1.7,0,0,1-.337-.035,1.817,1.817,0,0,1-.878-.466l4.121,23.559,1.352,3.737.121.336H55.967a2.03,2.03,0,0,1-.044-.451" transform="translate(58.504 -7.908)" fill="#fff"/>
            <path id="パス_985" data-name="パス 985" d="M53.989,97.328,52.856,84.069H48.032l-1.524,17.9a2.156,2.156,0,0,1-.886,1.573l-.036.816,8.7.055-.1-2.4Z" transform="translate(71.766 8.038)" fill="#bfc9e4"/>
            <path id="パス_986" data-name="パス 986" d="M58.83,74.948l-.909-1.015H45.441l-.909,1.015L48.7,98.757h5.965Z" transform="translate(70.107 -10.965)" fill="#bfc9e4"/>
            <path id="パス_987" data-name="パス 987" d="M224.382,271.514c-11.834-12.258-27.867-20.466-45.277-23.628l-18.718-9.251a1.772,1.772,0,0,0-1.673.06,2.136,2.136,0,0,0-1,1.5l-.257,1.463-10.009-8.075c-.111-5.33-.232-10.942-.366-16.148,9.1-8.716-60.01-6.454-49.566,2.481-.1,3.982-.183,8.116-.265,12.143-.036-.012-.062-.04-.1-.049a1.748,1.748,0,0,0-1.609.431l-9.26,8.314-.1-.561a2.144,2.144,0,0,0-1-1.5,1.756,1.756,0,0,0-1.673-.06l-18.808,9.294a2.127,2.127,0,0,0-.242.172c-16.993,3.306-32.6,11.413-44.188,23.413C7.046,285.218.033,302.841,0,322.482a2.057,2.057,0,0,0,1.926,2.162h.005a2.056,2.056,0,0,0,1.931-2.153c0-.288.015-.563.021-.845.229-18.068,6.786-34.3,19.022-46.975,10.727-11.105,25.11-18.709,40.836-22.033l3.609,51.6a2.274,2.274,0,0,0,.723,1.524l17.85,15.883,1.9,1.688a1.8,1.8,0,0,0,1.2.471,1.857,1.857,0,0,0,1.511-.811,2.289,2.289,0,0,0,.394-1.348,2.222,2.222,0,0,0-.7-1.687l-19.091-16.99-3.617-51.715,15.348-7.578,13.4,76.545a2.093,2.093,0,0,0,.94,1.426,1.607,1.607,0,0,0,1.926,0,2.224,2.224,0,0,0,.924-2.248l-.26-1.486-4.124-23.562a1.77,1.77,0,0,0,.878.466,1.7,1.7,0,0,0,.337.037,1.833,1.833,0,0,0,1.364-.635l13.1-14.621,3.972,22.705a2.213,2.213,0,0,0,.641,1.216l-1.532,18.017a2.06,2.06,0,0,0,.041.451,2.028,2.028,0,0,0,1.7,1.9c.062.006.124.006.185.006a1.747,1.747,0,0,0,1.035-.379,2.152,2.152,0,0,0,.886-1.573l1.521-17.893h4.824l1.135,13.259.4,4.68V322a2.028,2.028,0,0,0,1.92,1.952c.062,0,.124,0,.188-.006a2.042,2.042,0,0,0,1.7-1.966A2.171,2.171,0,0,0,130,321.6l-1.547-18.14a2.283,2.283,0,0,0-.283-.906,1.86,1.86,0,0,0,.088-.25l3.975-22.705,13.1,14.621a1.842,1.842,0,0,0,1.367.635,1.662,1.662,0,0,0,.337-.037,1.936,1.936,0,0,0,1.31-1.069L143.85,319.4a2.159,2.159,0,0,0,1.524,2.527,1.762,1.762,0,0,0,1.233-.23c.033-.02.07-.029.1-.049a2.1,2.1,0,0,0,.929-1.426l13.4-76.545,15.348,7.578-3.617,51.715-19.091,16.99a2.24,2.24,0,0,0-.7,1.688,2.3,2.3,0,0,0,.391,1.348,1.868,1.868,0,0,0,1.511.811,1.8,1.8,0,0,0,1.2-.471l1.895-1.688,17.853-15.883a2.238,2.238,0,0,0,.721-1.524l3.625-51.77c16.012,3.237,30.683,10.913,41.585,22.208,12.233,12.672,18.79,28.9,19.022,46.969,0,.282.018.558.018.845a1.943,1.943,0,1,0,3.861-.009c-.033-19.635-7.043-37.261-20.278-50.968M151.4,276.283l-5.293,12.71L131.218,272.37,145.582,237.4l11.057,8.915Zm-26.629,23.45h-5.962l-4.165-23.809.906-1.015h12.483l.906,1.015ZM87.122,245.54l9-8.087,16.187,34.969-14.841,16.57-4.732-11.367Zm57.044-27.407c.093,3.858-.687,10.474-.608,14.35a2.155,2.155,0,0,0-.5.739L127.7,270.6H115.816L100.98,238.548c.1-4.936-1.083-13.365-.962-18.632" transform="translate(0 -211.939)" fill="#1a1311"/>
            <path id="パス_988" data-name="パス 988" d="M59.033,95.877,42.845,60.9l-9,8.087,5.615,32.092,4.732,11.361Z" transform="translate(53.279 -35.392)" fill="#fff"/>
            <path id="パス_989" data-name="パス 989" d="M76.393,69.8,65.336,60.887,50.972,95.857l14.887,16.619,5.293-12.71Z" transform="translate(80.245 -35.424)" fill="#fff"/>
          </g>
        </g>
        <g id="グループ_339" data-name="グループ 339" transform="translate(53.035)">
          <g id="グループ_338" data-name="グループ 338" transform="translate(0 0)" clip-path="url(#clip-path)">
            <path id="パス_998" data-name="パス 998" d="M25.867,55.583c3.491-.361,6.977-.582,10.457-.725,3.821-1.093,7.676-2.082,11.6-2.807,3.374-.751,6.778-1.39,10.22-1.886-.071-3.1-.147-6.237-.229-9.3-8.214,5.967-17.051,9.363-24.9,9.42h-.023c-6.192-.023-13.425-2.713-20.53-7.342q-.1,3.917-.188,7.789c4.633,1.424,9.146,3.074,13.594,4.851" transform="translate(33.842 112.68)" fill="#fff"/>
            <path id="パス_999" data-name="パス 999" d="M2.01,95.922a9.236,9.236,0,0,0-1.7,8.045C2.1,110.639,7.53,115.3,13.5,115.3a11.947,11.947,0,0,0,2.341-.233c4.637,15.548,15.041,29,26.351,37.657-.083,3.111.346,13.981.665,15.007a2.153,2.153,0,0,0,1.875-1.214c.683-1.863,1.835.185,2.834.491a12.755,12.755,0,0,0,0-3.46,68.278,68.278,0,0,1,0-7.377c7.105,4.629,13.07,6.773,19.263,6.8h.023c7.849-.056,16.687-3.453,24.9-9.42.083,3.062-1.693,11.081-1.621,14.184,1.026-.15,2.323.124,3.356,0,.357-.124.944-1.1,1.3-1.214-.094-3.964,1.165-12.4,1.056-16.2a71.539,71.539,0,0,0,22.278-35.455,11.986,11.986,0,0,0,2.273.218c5.862,0,11.186-4.576,12.944-11.114a9.094,9.094,0,0,0-1.672-7.921,14.424,14.424,0,0,0-11.208-5.339c15.093-18.655,10.8-39.186,6.429-50.458-6.869-17.735-21.5-32.719-31.96-32.719a8.547,8.547,0,0,0-5.072,1.552C82.986,3.133,73.912,0,63.477,0,42.9,0,22.093,11.955,10.483,30.453-.586,48.09-2.277,69.872,5.32,92.882a12.331,12.331,0,0,0-3.31,3.04M14.022,32.677c10.866-17.31,30.277-28.5,49.455-28.5,10.085,0,18.708,3.2,24.942,9.247a2.048,2.048,0,0,0,1.578.59,2.108,2.108,0,0,0,1.5-.77,4.146,4.146,0,0,1,3.438-1.533c7.755,0,21.406,12.85,28.064,30.048,3.757,9.694,7.455,26.828-3.352,43-2.525-17.686-10.479-32.873-21.541-42.891,1.713-2.927,3.047-5.268,3.806-6.624A2.09,2.09,0,0,0,98.271,33.2c-8.195,14.564-22.21,36.969-29.916,44.179l2.228-17.814a2.092,2.092,0,0,0-3.408-1.867C61.43,62.451,47.708,73.377,38.784,79.062l8.3-14.049a2.089,2.089,0,0,0-3.062-2.728L17.273,82.624l-3.228,2.153c-.019.109-.023.218-.038.331l-.023.015c-.038.03-.056.075-.094.105a1.886,1.886,0,0,0-.278.319,1.807,1.807,0,0,0-.218.323,1.673,1.673,0,0,0-.124.357,2.069,2.069,0,0,0-.083.425c0,.045-.03.086-.03.135v3.7a16.63,16.63,0,0,0-4,.669c-.282-.857-.571-1.721-.827-2.574L6.271,89.959l1.1-4.941C2.487,65.66,4.685,47.553,14.022,32.677M5.365,98.413a10.314,10.314,0,0,1,7.793-3.731v2.206a2.042,2.042,0,0,0,.271.973L13.421,99.9A2.087,2.087,0,0,0,15.5,102h.011A2.089,2.089,0,0,0,17.6,99.919l.045-9.341c.083-1.071.154-2.145.274-3.194L38.062,72.07l-6.651,11.25a2.09,2.09,0,0,0,2.461,3.047c3.265-1.086,9.052-4.87,15.041-9.194.909.094,1.815.21,2.72.383a2,2,0,0,0,.395.038,2.088,2.088,0,0,0,2.048-1.7,2.053,2.053,0,0,0-.744-1.98c4.787-3.592,9.345-7.2,12.456-9.7L63.646,81.339A2.093,2.093,0,0,0,66.318,83.6c7.218-2.168,21.271-24.085,29.623-38.07,11.565,10.814,19.4,27.895,20.3,47.527a2.01,2.01,0,0,0-.308,1.176l.432,6.027a2.091,2.091,0,0,0,2.082,1.939l.154,0a2.1,2.1,0,0,0,1.935-2.236l-.364-5.061c.053,0,.116-.019.165-.023a10.191,10.191,0,0,1,7.981,3.667,5.005,5.005,0,0,1,.992,4.336c-1.041,3.863-4.272,8.022-8.935,8.022a7.539,7.539,0,0,1-2.931-.594,2.09,2.09,0,0,0-2.844,1.447c-6.572,27.974-30,46.9-47.76,47.031-14.4-.053-40.073-18.332-47.535-46.862a2.1,2.1,0,0,0-1.093-1.345,2.1,2.1,0,0,0-1.728-.06,7.717,7.717,0,0,1-2.98.6c-4.768,0-8.09-4.272-9.161-8.251a5.157,5.157,0,0,1,1.022-4.456" transform="translate(0 -0.004)" fill="#1a1311"/>
            <path id="パス_1000" data-name="パス 1000" d="M63.764,125.373c17.765-.132,41.189-19.058,47.764-47.031a2.088,2.088,0,0,1,2.841-1.447,7.561,7.561,0,0,0,2.935.6c4.663,0,7.894-4.163,8.931-8.026a5.005,5.005,0,0,0-.988-4.336,10.226,10.226,0,0,0-7.981-3.667c-.053,0-.113.019-.169.023l.364,5.061a2.088,2.088,0,0,1-1.935,2.236c-.053,0-.1,0-.15,0a2.088,2.088,0,0,1-2.082-1.939l-.436-6.027a2.049,2.049,0,0,1,.312-1.176c-.9-19.629-8.74-36.714-20.3-47.527-8.353,13.985-22.405,35.9-29.623,38.07a2.11,2.11,0,0,1-1.95-.41,2.083,2.083,0,0,1-.721-1.852L62.712,30.8C59.6,33.3,55.047,36.908,50.26,40.5a2.064,2.064,0,0,1-1.308,3.678,1.775,1.775,0,0,1-.395-.038c-.9-.169-1.811-.289-2.717-.383-5.993,4.325-11.776,8.108-15.045,9.2a2.09,2.09,0,0,1-2.457-3.051l6.647-11.25L14.847,53.971c-.124,1.048-.2,2.123-.274,3.194l-.045,9.341a2.092,2.092,0,0,1-2.089,2.078h-.011a2.09,2.09,0,0,1-2.082-2.1l.011-2.037a2.039,2.039,0,0,1-.271-.969V61.268A10.32,10.32,0,0,0,2.293,65a5.152,5.152,0,0,0-1.022,4.46c1.071,3.975,4.389,8.251,9.157,8.251a7.791,7.791,0,0,0,2.983-.6,2.022,2.022,0,0,1,.8-.158A2.085,2.085,0,0,1,16.23,78.51c7.462,28.534,33.136,46.81,47.535,46.862M83.228,60.02a3.166,3.166,0,0,1,3.111-3.4,3.491,3.491,0,0,1,3.513,3.4,3.694,3.694,0,0,1-3.513,3.63,3.373,3.373,0,0,1-3.111-3.63M65.857,71.612V83.455a2.089,2.089,0,1,1-4.178,0V71.612a2.089,2.089,0,0,1,4.178,0m.541,43.526c-4.648,0-10.37-3.844-12.5-14.628a2.077,2.077,0,0,1,.214-1.326c-.38-.214-.785-.387-1.157-.624a2.089,2.089,0,1,1,2.239-3.528,20.434,20.434,0,0,0,21.793,0,2.089,2.089,0,1,1,2.239,3.528c-.21.135-.443.229-.661.357a2.078,2.078,0,0,1,.334,1.593c-2.13,10.784-7.853,14.628-12.5,14.628m11.8-75.1a36.439,36.439,0,0,1,13.684,0,2.088,2.088,0,0,1-.387,4.141,1.776,1.776,0,0,1-.395-.038,32.568,32.568,0,0,0-12.125,0,2.071,2.071,0,0,1-2.442-1.657A2.093,2.093,0,0,1,78.2,40.038M40.9,56.928a3.375,3.375,0,0,1,3.122,3.626,3.158,3.158,0,1,1-6.286,0A3.407,3.407,0,0,1,40.9,56.928" transform="translate(3.072 33.41)" fill="#fff"/>
            <path id="パス_1001" data-name="パス 1001" d="M32.539,35.722A24.678,24.678,0,0,1,24.1,37.274a24.685,24.685,0,0,1-7.759-1.3c1.5,6.046,4.577,9.9,8.071,9.9,3.536,0,6.651-3.968,8.127-10.152" transform="translate(45.059 98.498)" fill="#fff"/>
            <path id="パス_1002" data-name="パス 1002" d="M26.079,30.994a3.694,3.694,0,0,0,3.513-3.63,3.491,3.491,0,0,0-3.513-3.4,3.164,3.164,0,0,0-3.111,3.4,3.37,3.37,0,0,0,3.111,3.63" transform="translate(63.332 66.066)" fill="#1a1311"/>
            <path id="パス_1003" data-name="パス 1003" d="M14.025,31.134a3.227,3.227,0,0,0,3.122-3.464,3.375,3.375,0,0,0-3.122-3.626,3.407,3.407,0,0,0-3.164,3.626,3.259,3.259,0,0,0,3.164,3.464" transform="translate(29.948 66.297)" fill="#1a1311"/>
            <path id="パス_1004" data-name="パス 1004" d="M17.233,29.484V41.327a2.091,2.091,0,0,0,4.182,0V29.484a2.091,2.091,0,0,0-4.182,0" transform="translate(47.518 75.537)" fill="#1a1311"/>
            <path id="パス_1005" data-name="パス 1005" d="M23.66,24.13a32.39,32.39,0,0,1,12.121,0,2,2,0,0,0,.395.038,2.089,2.089,0,0,0,.387-4.141,36.3,36.3,0,0,0-13.688,0,2.089,2.089,0,1,0,.785,4.1" transform="translate(58.39 53.425)" fill="#1a1311"/>
            <path id="パス_1006" data-name="パス 1006" d="M4.774,85.514c.252.853.545,1.717.823,2.574A16.692,16.692,0,0,1,9.6,87.419v-3.7c0-.049.023-.09.026-.135a1.853,1.853,0,0,1,.086-.425,1.9,1.9,0,0,1,.12-.357,1.806,1.806,0,0,1,.218-.323,1.907,1.907,0,0,1,.282-.319c.034-.03.053-.075.09-.105l.023-.015c.015-.113.023-.222.038-.331l3.231-2.153L40.462,59.216a2.091,2.091,0,0,1,3.066,2.728l-8.3,14.049c8.924-5.685,22.646-16.611,28.387-21.368a2.09,2.09,0,0,1,3.408,1.867L64.8,74.306C72.5,67.1,86.52,44.69,94.711,30.127a2.091,2.091,0,0,1,3.645,2.052c-.763,1.356-2.093,3.7-3.806,6.624,11.062,10.017,19.016,25.2,21.537,42.891,10.806-16.172,7.109-33.306,3.355-43C112.781,21.5,99.13,8.646,91.375,8.646a4.15,4.15,0,0,0-3.438,1.533,2.1,2.1,0,0,1-1.5.77,2.058,2.058,0,0,1-1.578-.59C78.63,4.31,70,1.112,59.921,1.112c-19.178,0-38.588,11.186-49.459,28.5C1.126,44.484-1.069,62.591,3.812,81.949l-1.1,4.941Z" transform="translate(3.556 3.065)" fill="#5f5e5e"/>
            <path id="パス_1007" data-name="パス 1007" d="M41.57,39.9a2.1,2.1,0,0,0-.338-1.593c.218-.128.451-.222.665-.357a2.09,2.09,0,0,0-2.243-3.528,20.434,20.434,0,0,1-21.793,0,2.089,2.089,0,0,0-2.239,3.528c.376.237.778.41,1.157.624a2.056,2.056,0,0,0-.21,1.326c2.13,10.784,7.857,14.631,12.5,14.631s10.37-3.848,12.5-14.631M29.069,50.35c-3.491,0-6.568-3.859-8.067-9.9a24.555,24.555,0,0,0,7.755,1.3A24.573,24.573,0,0,0,37.2,40.2C35.72,46.386,32.608,50.35,29.069,50.35" transform="translate(40.402 94.019)" fill="#1a1311"/>
          </g>
        </g>
      </g>
      <g id="グループ_344" data-name="グループ 344" transform="translate(12289.023 -2455.286)">
        <path id="パス_1009" data-name="パス 1009" d="M19.716.75c5.15,0,14.343-4.8,18.1-1.825,3.664,2.891,1.612,9.643,1.612,13.111,0,6.581-8.827,11.915-19.716,11.915S0,18.617,0,12.036C0,8.272.884,2.264,5.657-1.075,8.769-3.256,15.056.75,19.716.75Z" transform="translate(0 2.047)" fill="#fff"/>
        <path id="パス_1008" data-name="パス 1008" d="M41.507,57.692a16.2,16.2,0,0,0,10.916-4.245,2.03,2.03,0,0,0-2.732-3,12.107,12.107,0,0,1-16.364,0,2.03,2.03,0,0,0-2.732,3,16.194,16.194,0,0,0,10.913,4.245" transform="translate(-21.772 -40.862)" fill="#1a1311"/>
      </g>
    </g>
  </g>
</svg>
