<svg xmlns="http://www.w3.org/2000/svg" xmlns:xlink="http://www.w3.org/1999/xlink" width="72" height="109.556" viewBox="0 0 72 109.556">
  <defs>
    <clipPath id="clip-path">
      <rect id="長方形_115" data-name="長方形 115" width="60.383" height="76.557" fill="none"/>
    </clipPath>
  </defs>
  <g id="グループ_1488" data-name="グループ 1488" transform="translate(-272 -2470.443)">
    <g id="グループ_1418" data-name="グループ 1418" transform="translate(277.809 2470.443)">
      <g id="グループ_331" data-name="グループ 331" transform="translate(0 0)" clip-path="url(#clip-path)">
        <path id="パス_956" data-name="パス 956" d="M43.845,70.606l.608-3.113a23.645,23.645,0,0,0-3.6-.011c-.817.046-1.622.085-2.426.115a.611.611,0,0,1-.477-.178.667.667,0,0,1-.209-.466l-.061-2.583c-.029-1.255-.061-2.663-.1-3.98a14.936,14.936,0,0,1-4.994.862h-.131a14.973,14.973,0,0,1-4.771-.78c-.037,1.358-.07,2.81-.1,4.1l-.056,2.378a.661.661,0,0,1-.21.466.611.611,0,0,1-.478.178q-1.207-.046-2.415-.114a23.647,23.647,0,0,0-3.607.012l.607,3.11a30.049,30.049,0,0,0,22.415,0" transform="translate(-2.446 -7.094)" fill="#fff"/>
        <path id="パス_957" data-name="パス 957" d="M32.757,75.63a30.893,30.893,0,0,1-10.913-1.96l2.062,10.548h17.7L43.671,73.67a30.893,30.893,0,0,1-10.913,1.96" transform="translate(-2.566 -8.654)" fill="#fff"/>
        <path id="パス_958" data-name="パス 958" d="M10.461,70.906A18.153,18.153,0,0,0,6.11,73.863,13.881,13.881,0,0,0,1.5,84.154H11.5Z" transform="translate(-0.177 -8.329)" fill="#f0d7da"/>
        <path id="パス_959" data-name="パス 959" d="M60.979,73.863a18.283,18.283,0,0,0-4.351-2.96l-1.035,13.25h9.993a13.885,13.885,0,0,0-4.607-10.29" transform="translate(-6.531 -8.329)" fill="#f0d7da"/>
        <path id="パス_960" data-name="パス 960" d="M38.451,4.306a13.517,13.517,0,0,1,5.283,1.822c-.608-2.62-3.85-4.629-7.757-4.629a8.756,8.756,0,0,0-6.947,2.932,21.793,21.793,0,0,1,9.422-.125" transform="translate(-3.41 -0.176)" fill="#6a6a6a"/>
        <path id="パス_961" data-name="パス 961" d="M1.327,80.622A13.884,13.884,0,0,1,5.933,70.331a18.176,18.176,0,0,1,4.351-2.956l1.035,13.248,0,.051.66-.051.66-.052L11.529,66.32l5.262-2.327,3.25,16.629.025.126,1.3-.253-.026-.133L19.277,69.814a31.377,31.377,0,0,0,21.828,0L39.042,80.362l-.026.133,1.3.253.026-.126,3.249-16.629,5.262,2.327L47.739,80.57l.66.052.66.051,0-.051L50.1,67.372a18.254,18.254,0,0,1,4.351,2.959,13.885,13.885,0,0,1,4.607,10.291c0,.024,0,.047,0,.071a.662.662,0,0,0,.662.661h0a.662.662,0,0,0,.661-.663A15.178,15.178,0,0,0,55.35,69.361a19.717,19.717,0,0,0-5.142-3.4l.037-.477L42.61,62.11l-.349,1.781a24.837,24.837,0,0,0-3.938-.026c-.574.032-1.147.062-1.721.086l-.044-1.908c-.033-1.416-.07-3.025-.11-4.483,5.195-2.417,8.914-7.8,9.723-14.646a4.264,4.264,0,0,0,.41.241,1.431,1.431,0,0,1,.627-1.173,3.113,3.113,0,0,1-1.049-.878.662.662,0,0,0-1.188.36c-.56,9.38-6.792,16.169-14.834,16.169h-.119c-8.037,0-14.27-6.79-14.828-16.169A.663.663,0,0,0,14,41.1a3.1,3.1,0,0,1-1.257.969,1.423,1.423,0,0,1,.519,1.1c0,.048-.01.092-.014.138a4.3,4.3,0,0,0,.74-.392c.82,6.946,4.632,12.39,9.942,14.755-.041,1.491-.079,3.134-.112,4.579l-.04,1.7c-.573-.025-1.146-.054-1.71-.086a25.171,25.171,0,0,0-3.948.029l-.349-1.784-7.635,3.378.037.478A19.652,19.652,0,0,0,5.033,69.36,15.178,15.178,0,0,0,0,80.692a.662.662,0,0,0,.661.663h0a.663.663,0,0,0,.662-.661c0-.025,0-.048,0-.071M18.376,65.2a23.876,23.876,0,0,1,3.607-.012q1.209.067,2.415.114a.605.605,0,0,0,.478-.178.659.659,0,0,0,.21-.465l.056-2.379c.029-1.292.062-2.745.1-4.1a14.973,14.973,0,0,0,4.771.781h.131a14.937,14.937,0,0,0,4.994-.863c.036,1.318.068,2.725.1,3.98l.061,2.584a.665.665,0,0,0,.209.465.6.6,0,0,0,.477.178c.8-.03,1.609-.069,2.426-.115a23.875,23.875,0,0,1,3.6.011L41.4,68.309a30.04,30.04,0,0,1-22.415,0Z" transform="translate(0 -4.798)" fill="#1a1311"/>
        <path id="パス_962" data-name="パス 962" d="M50.344,40.056a2.239,2.239,0,0,0,1.005-.513,2.311,2.311,0,0,0,.737-1.739,2.905,2.905,0,0,0-2.674-2.874,2.4,2.4,0,0,0-2.094.918.662.662,0,0,1-1.043-.815,3.722,3.722,0,0,1,.42-.446.655.655,0,0,1,.065-.444c-.03-.207-.05-.418-.086-.622a2.394,2.394,0,0,1-.3-.218.627.627,0,0,1-.514-.023c-.89-.446-6.779-6.469-9.853-11.07-2.1,3.952-5.873,6.84-9.659,8.892a4.991,4.991,0,0,1,.725.306.662.662,0,0,1-.311,1.247.669.669,0,0,1-.31-.078,3.651,3.651,0,0,0-2.3-.374,48.75,48.75,0,0,1-7.8,2.819l.01.011a.662.662,0,0,1-1.043.815,2.408,2.408,0,0,0-.481-.458l-.028.006a.647.647,0,0,1-.716-.359,2.52,2.52,0,0,0-.869-.108A2.9,2.9,0,0,0,10.556,37.8a2.311,2.311,0,0,0,.737,1.739,2.228,2.228,0,0,0,.746.442,1.416,1.416,0,0,1,1.946-.1,3.1,3.1,0,0,0,1.257-.969.663.663,0,0,1,1.189.36c.56,9.379,6.791,16.169,14.829,16.169h.118c8.042,0,14.273-6.789,14.834-16.169a.663.663,0,0,1,1.189-.36,3.1,3.1,0,0,0,1.048.878,1.423,1.423,0,0,1,1.9.264M23.583,38.4A1.114,1.114,0,0,1,22.5,37.211a1.086,1.086,0,1,1,2.15,0A1.1,1.1,0,0,1,23.583,38.4M29.74,39.5a.662.662,0,1,1,1.324,0v2.484a.662.662,0,0,1-1.324,0Zm-1.913,7.374a.663.663,0,0,1,.935-.044,3.951,3.951,0,0,0,5.338,0,.662.662,0,1,1,.891.979,5.268,5.268,0,0,1-7.121,0,.661.661,0,0,1-.044-.935m11.295-8.609a1.153,1.153,0,0,1-1.063-1.242,1.081,1.081,0,0,1,1.063-1.163,1.192,1.192,0,0,1,1.2,1.163,1.263,1.263,0,0,1-1.2,1.242M40.734,32.3a.663.663,0,0,1-.586.352.678.678,0,0,1-.31-.077,3.654,3.654,0,0,0-3.433,0,.663.663,0,1,1-.62-1.171,4.989,4.989,0,0,1,4.674,0,.663.663,0,0,1,.275.9" transform="translate(-1.24 -2.609)" fill="#fff"/>
        <path id="パス_963" data-name="パス 963" d="M39.466,19.905a.661.661,0,0,1,.429.307c-.106-.182-.207-.364-.31-.547-.038.081-.08.16-.119.24" transform="translate(-4.636 -2.31)" fill="#fff"/>
        <path id="パス_964" data-name="パス 964" d="M42.781,37.683a1.081,1.081,0,0,0-1.063,1.162,1.153,1.153,0,0,0,1.063,1.243,1.263,1.263,0,0,0,1.2-1.243,1.191,1.191,0,0,0-1.2-1.162" transform="translate(-4.901 -4.427)" fill="#1a1311"/>
        <path id="パス_965" data-name="パス 965" d="M25.173,37.8a1.165,1.165,0,0,0-1.082,1.241,1.08,1.08,0,1,0,2.151,0A1.155,1.155,0,0,0,25.173,37.8" transform="translate(-2.83 -4.441)" fill="#1a1311"/>
        <path id="パス_966" data-name="パス 966" d="M20.27,9.252a17.584,17.584,0,0,0-3.5,3.9,23.7,23.7,0,0,1,3.5-3.9" transform="translate(-1.97 -1.087)" fill="#4054a0"/>
        <path id="パス_967" data-name="パス 967" d="M32.955,44.864a.662.662,0,0,0,.662-.662V41.719a.662.662,0,0,0-1.324,0V44.2a.662.662,0,0,0,.662.662" transform="translate(-3.793 -4.823)" fill="#1a1311"/>
        <path id="パス_968" data-name="パス 968" d="M43.77,32.556a4.986,4.986,0,0,0-4.675,0,.662.662,0,0,0,.62,1.17,3.661,3.661,0,0,1,3.434,0,.662.662,0,1,0,.62-1.17" transform="translate(-4.551 -3.756)" fill="#1a1311"/>
        <path id="パス_969" data-name="パス 969" d="M47.316,31.735c2.63-4.782,2.6-11.618-.13-17.206-2.345-4.8-6.282-7.872-10.8-8.425-9.061-1.686-15.818,1.606-20.7,10.064a.66.66,0,0,1-.288.267,23.783,23.783,0,0,0-2.062,11.352c.025,1.135.051,2.308-.037,3.594a.642.642,0,0,1-.131.333c.1-.013.188-.041.286-.047a3.808,3.808,0,0,1,1.908.375,48.72,48.72,0,0,0,7.133-2.385.646.646,0,0,1,.215-.189,4.934,4.934,0,0,1,1.23-.454c4.571-2.133,9.581-5.468,11.69-10.367a.658.658,0,0,1,.564-.4.7.7,0,0,1,.183.012c.038-.079.08-.158.118-.24.1.183.2.365.311.547a62.588,62.588,0,0,0,9.966,11.591.675.675,0,0,1,.267.894.664.664,0,0,1-.354.308,2.394,2.394,0,0,0,.3.218,1.373,1.373,0,0,0,.334.156" transform="translate(-1.547 -0.667)" fill="#6a6a6a"/>
        <path id="パス_970" data-name="パス 970" d="M33.706,52.453a5.283,5.283,0,0,0,3.561-1.385.662.662,0,0,0-.891-.98,3.949,3.949,0,0,1-5.338,0,.662.662,0,0,0-.891.98,5.283,5.283,0,0,0,3.56,1.385" transform="translate(-3.516 -5.864)" fill="#1a1311"/>
        <path id="パス_971" data-name="パス 971" d="M11.862,37.378a2.253,2.253,0,0,1-.747-.442,2.314,2.314,0,0,1-.737-1.739,2.906,2.906,0,0,1,2.674-2.875,2.547,2.547,0,0,1,.869.108.647.647,0,0,0,.716.359l.028-.005a2.4,2.4,0,0,1,.481.457.662.662,0,1,0,1.042-.815l-.009-.01a48.856,48.856,0,0,0,7.8-2.82,3.66,3.66,0,0,1,2.3.374.652.652,0,0,0,.309.078A.662.662,0,0,0,26.9,28.8a5.037,5.037,0,0,0-.725-.307c3.786-2.051,7.559-4.94,9.659-8.891,3.074,4.6,8.963,10.624,9.853,11.07a.624.624,0,0,0,.514.022.661.661,0,0,0,.354-.308.675.675,0,0,0-.267-.894A62.588,62.588,0,0,1,36.322,17.9a.666.666,0,0,0-.43-.307.7.7,0,0,0-.183-.012.658.658,0,0,0-.563.4c-2.109,4.9-7.119,8.234-11.69,10.367a4.969,4.969,0,0,0-1.23.454.656.656,0,0,0-.215.189,48.609,48.609,0,0,1-7.133,2.385A3.808,3.808,0,0,0,12.97,31c-.1.006-.19.034-.286.047a.642.642,0,0,0,.131-.333c.088-1.286.062-2.459.037-3.594a23.784,23.784,0,0,1,2.062-11.352A.66.66,0,0,0,15.2,15.5C20.084,7.043,26.841,3.752,35.9,5.437c4.519.553,8.456,3.625,10.8,8.426,2.729,5.588,2.76,12.424.13,17.206-.08.145-.154.295-.239.436-.005.01,0,.021-.01.03a.651.651,0,0,0-.065.444,3.785,3.785,0,0,0-.42.446.662.662,0,0,0,1.043.815,2.4,2.4,0,0,1,2.094-.918A2.906,2.906,0,0,1,51.91,35.2a2.314,2.314,0,0,1-.737,1.739,2.256,2.256,0,0,1-1.006.513,1.419,1.419,0,0,1,.344.922,1.4,1.4,0,0,1-.052.361,3.549,3.549,0,0,0,1.605-.817A3.626,3.626,0,0,0,53.233,35.2,4.248,4.248,0,0,0,49.319,31a3.794,3.794,0,0,0-.983.061c2.529-5.146,2.393-11.972-.444-17.779a17.731,17.731,0,0,0-5.075-6.36c0-.029.005-.056.005-.083C42.822,3.069,38.7,0,33.63,0,29.5,0,26,2.033,24.845,4.823a17.75,17.75,0,0,0-5.481,3.342,23.7,23.7,0,0,0-3.5,3.9c-.56.771-1.1,1.581-1.624,2.46a.66.66,0,0,0-.392.365,25.363,25.363,0,0,0-2.319,12.261c.024,1.1.049,2.248-.034,3.475a.659.659,0,0,0,.355.63A4.254,4.254,0,0,0,9.055,35.2a3.621,3.621,0,0,0,1.17,2.718,3.527,3.527,0,0,0,1.263.738,1.486,1.486,0,0,1-.028-.282,1.427,1.427,0,0,1,.4-.993M33.63,1.324c3.907,0,7.149,2.008,7.757,4.629A13.508,13.508,0,0,0,36.1,4.13a21.807,21.807,0,0,0-9.422.124A8.759,8.759,0,0,1,33.63,1.324" transform="translate(-1.064 0)" fill="#1a1311"/>
        <path id="パス_972" data-name="パス 972" d="M14.128,42.191a1.43,1.43,0,0,0-2.348,1.1,1.471,1.471,0,0,0,.028.282,1.429,1.429,0,0,0,2.825-.144c0-.046.014-.09.014-.138a1.426,1.426,0,0,0-.519-1.1" transform="translate(-1.384 -4.916)" fill="#f0d7da"/>
        <path id="パス_973" data-name="パス 973" d="M55.3,42.365a1.428,1.428,0,0,0-2.521.909l0,.013a1.434,1.434,0,1,0,2.523-.922" transform="translate(-6.2 -4.917)" fill="#f0d7da"/>
        <path id="パス_974" data-name="パス 974" d="M18.326,67.074,13.064,69.4l1.115,14.25-.66.052h8.057Z" transform="translate(-1.535 -7.879)" fill="#f0d7da"/>
        <path id="パス_975" data-name="パス 975" d="M54.222,69.4l-5.262-2.327L45.711,83.7h8.057l-.66-.051Z" transform="translate(-5.37 -7.879)" fill="#f0d7da"/>
      </g>
    </g>
    <g id="グループ_1417" data-name="グループ 1417" transform="translate(-912 -1406.709)">
      <g id="グループ_263" data-name="グループ 263" transform="translate(1183 3964.905)">
        <rect id="長方形_85" data-name="長方形 85" width="72" height="21" rx="10.5" transform="translate(1 0.804)" fill="#f0d7da"/>
        <path id="パス_1793" data-name="パス 1793" d="M1.968-3.648l1.38-2.208c.252-.48.492-.972.708-1.452H4.1c-.024.528-.06,1.332-.06,1.848v1.812ZM4.044,0H5.688V-2.3H6.732V-3.648H5.688V-8.892H3.564L.252-3.5v1.2H4.044Zm6.564.168c1.812,0,3-1.584,3-4.644s-1.188-4.572-3-4.572S7.6-7.548,7.6-4.476,8.8.168,10.608.168Zm0-1.38c-.768,0-1.344-.768-1.344-3.264s.576-3.2,1.344-3.2,1.332.72,1.332,3.2S11.376-1.212,10.608-1.212Zm14.9-6.936a10.839,10.839,0,0,0-1.728-1.932l-1.068.66A10.21,10.21,0,0,1,24.36-7.4Zm-7.956-1.92a12.543,12.543,0,0,1-3.276,4.68,9.165,9.165,0,0,1,.792,1.452A11.307,11.307,0,0,0,16.32-5.28v6.3h1.488V-7.416a19.065,19.065,0,0,0,1.116-2.208ZM25.692-5.76l-.2-1.344-3.42.444c-.084-1.02-.132-2.148-.156-3.324H20.46c.036,1.26.108,2.436.192,3.516l-2.424.324.2,1.38L20.8-5.088c.432,3.66,1.38,5.916,3.408,6.108.672.036,1.32-.516,1.62-2.832a4.91,4.91,0,0,1-1.164-.816C24.564-1.3,24.42-.7,24.144-.72c-.96-.12-1.6-1.9-1.932-4.56Zm11.22-.252a7.679,7.679,0,0,1-1.476,3.276c-.9-.4-1.8-.744-2.616-1.032.3-.708.624-1.464.936-2.244Zm3.408,0V-7.464H34.344c.336-.828.648-1.656.936-2.424l-1.572-.264c-.288.828-.636,1.752-1,2.688H29.436v1.452h2.688C31.6-4.728,31.056-3.516,30.6-2.58l1.44.528.2-.444c.636.252,1.284.528,1.932.828A11.215,11.215,0,0,1,29.532-.36a4.811,4.811,0,0,1,.756,1.428,11.4,11.4,0,0,0,5.5-1.956A20.843,20.843,0,0,1,39.036,1.1L40.128-.24a21.821,21.821,0,0,0-3.192-1.824,9.99,9.99,0,0,0,1.608-3.948ZM49.572-.7V-3.1h2.2V-4.428h-2.2V-6.4H52.02V-7.74H49.572v-2.352H48.144V-7.74h-.96c.12-.54.216-1.1.3-1.668L46.092-9.6a14.524,14.524,0,0,1-.636,2.928,13.759,13.759,0,0,0-.66-1.512l-.7.288v-2.268H42.672v2.448L41.664-7.86a14.262,14.262,0,0,1-.588,3.12l1.056.384a15.292,15.292,0,0,0,.54-3.18v8.58H44.1v-8.2a8.344,8.344,0,0,1,.456,1.38l.684-.312c-.12.252-.24.48-.36.7a12.619,12.619,0,0,1,1.272.648A8.2,8.2,0,0,0,46.824-6.4h1.32v1.968H45.828V-3.1h2.316V-.7h-3.2V.66H52.4V-.7Z" transform="translate(11 15.804)" fill="#333"/>
      </g>
    </g>
  </g>
</svg>
