<svg xmlns="http://www.w3.org/2000/svg" xmlns:xlink="http://www.w3.org/1999/xlink" width="71.99" height="104.999" viewBox="0 0 71.99 104.999">
  <defs>
    <clipPath id="clip-path">
      <rect id="長方形_117" data-name="長方形 117" width="38.145" height="49.45" fill="none"/>
    </clipPath>
  </defs>
  <g id="グループ_1489" data-name="グループ 1489" transform="translate(-255.59 -2873)">
    <g id="グループ_1422" data-name="グループ 1422" transform="translate(-11931.637 5452.293)">
      <g id="グループ_340" data-name="グループ 340" transform="translate(12188.387 -2579.292)">
        <g id="グループ_334" data-name="グループ 334" transform="translate(0 41.066)">
          <g id="グループ_337" data-name="グループ 337" transform="translate(0 0)">
            <path id="パス_976" data-name="パス 976" d="M42.37,67.283h3.392l4.821-10.734c.034-.083-.06-4.1,0-4.16-.023-1.106-11.086,1.364-12.961,0-.035,1.5.542,4.339.514,5.747Z" transform="translate(-9.315 -50.541)" fill="#fff"/>
            <path id="パス_977" data-name="パス 977" d="M58.977,84.842l5.449-4.849,1.032-14.76-4.381-2.163L57.254,84.916a.6.6,0,0,1-.265.407h1.789a.639.639,0,0,1,.2-.482" transform="translate(-15.116 -54.011)" fill="#bfc9e4"/>
            <path id="パス_978" data-name="パス 978" d="M34.431,84.916,30.608,63.068l-4.381,2.164,1.032,14.76,5.449,4.849a.634.634,0,0,1,.2.482H34.7a.6.6,0,0,1-.268-.407" transform="translate(-6.957 -54.011)" fill="#bfc9e4"/>
            <path id="パス_979" data-name="パス 979" d="M79.571,72.467A22.731,22.731,0,0,0,67.7,66.129L66.668,80.905a.637.637,0,0,1-.206.434l-5.095,4.534H85a19.286,19.286,0,0,0-5.429-13.407" transform="translate(-16.277 -54.56)" fill="#bfc9e4"/>
            <path id="パス_980" data-name="パス 980" d="M19.623,80.915l-1.03-14.728A22.7,22.7,0,0,0,6.936,72.476,19.279,19.279,0,0,0,1.508,85.884H24.924l-5.1-4.535a.645.645,0,0,1-.206-.433" transform="translate(-0.4 -54.571)" fill="#bfc9e4"/>
            <path id="パス_981" data-name="パス 981" d="M38.769,89.315a.636.636,0,0,1-.263.642h.575l-.386-1.067Z" transform="translate(-10.214 -58.645)" fill="#4054a0"/>
            <path id="パス_982" data-name="パス 982" d="M54.263,86.923,55.545,79.6a.55.55,0,0,1-.375.305.472.472,0,0,1-.1.01.525.525,0,0,1-.39-.181l-3.738-4.173-1.134,6.481a.517.517,0,0,1-.024.072.644.644,0,0,1,.081.257l.442,5.178a.611.611,0,0,1-.01.11h4.722l.029-.082a.5.5,0,0,1-.352.066.617.617,0,0,1-.435-.722" transform="translate(-13.206 -56.254)" fill="#fff"/>
            <path id="パス_983" data-name="パス 983" d="M48.85,88.681l.057,1.336h.057Z" transform="translate(-12.957 -58.608)" fill="#fff"/>
            <path id="パス_984" data-name="パス 984" d="M42.517,87.533l.438-5.141a.629.629,0,0,1-.183-.347l-1.134-6.481L37.9,79.737a.523.523,0,0,1-.389.181.484.484,0,0,1-.1-.01.519.519,0,0,1-.251-.133L38.338,86.5l.386,1.067.035.1h3.771a.579.579,0,0,1-.012-.129" transform="translate(-9.857 -56.254)" fill="#fff"/>
            <path id="パス_985" data-name="パス 985" d="M47.984,87.853l-.323-3.784H46.284l-.435,5.108a.616.616,0,0,1-.253.449l-.01.233,2.484.016-.029-.685Z" transform="translate(-12.091 -57.78)" fill="#bfc9e4"/>
            <path id="パス_986" data-name="パス 986" d="M48.613,74.223l-.259-.29H44.791l-.259.29,1.189,6.8h1.7Z" transform="translate(-11.812 -55.961)" fill="#bfc9e4"/>
            <path id="パス_987" data-name="パス 987" d="M64.043,228.942A23.881,23.881,0,0,0,51.12,222.2l-5.342-2.64a.506.506,0,0,0-.478.017.61.61,0,0,0-.286.428l-.073.418-2.857-2.3c-.032-1.521-.066-3.123-.1-4.609,2.6-2.488-17.128-1.842-14.147.708-.027,1.136-.052,2.316-.076,3.466-.01,0-.018-.012-.027-.014a.5.5,0,0,0-.459.123l-2.643,2.373L24.6,220a.612.612,0,0,0-.286-.428.5.5,0,0,0-.478-.017l-5.368,2.653a.608.608,0,0,0-.069.049,23.84,23.84,0,0,0-12.612,6.682A20.574,20.574,0,0,0,0,243.49a.587.587,0,0,0,.55.617h0a.587.587,0,0,0,.551-.615c0-.082,0-.161.006-.241a19.281,19.281,0,0,1,5.429-13.407,22.7,22.7,0,0,1,11.655-6.289l1.03,14.728a.649.649,0,0,0,.206.435l5.095,4.533.542.482a.512.512,0,0,0,.342.135.53.53,0,0,0,.431-.231.653.653,0,0,0,.112-.385.634.634,0,0,0-.2-.482L20.3,237.92l-1.032-14.76L23.651,221l3.824,21.847a.6.6,0,0,0,.268.407.459.459,0,0,0,.55,0,.635.635,0,0,0,.264-.642l-.074-.424L27.3,235.46a.505.505,0,0,0,.251.133.487.487,0,0,0,.1.011.523.523,0,0,0,.389-.181l3.74-4.173,1.134,6.481a.632.632,0,0,0,.183.347l-.437,5.142a.588.588,0,0,0,.012.129.579.579,0,0,0,.484.542c.018,0,.035,0,.053,0a.5.5,0,0,0,.3-.108.614.614,0,0,0,.253-.449l.434-5.107h1.377l.324,3.784.114,1.336v.006a.579.579,0,0,0,.548.557l.054,0a.583.583,0,0,0,.486-.561.62.62,0,0,0,.01-.111l-.442-5.177a.652.652,0,0,0-.081-.258.531.531,0,0,0,.025-.071l1.134-6.481,3.738,4.173a.526.526,0,0,0,.39.181.475.475,0,0,0,.1-.011.553.553,0,0,0,.374-.305l-1.281,7.322a.616.616,0,0,0,.435.721.5.5,0,0,0,.352-.066c.01-.006.02-.008.029-.014a.6.6,0,0,0,.265-.407L45.963,221l4.381,2.163-1.032,14.76-5.449,4.849a.639.639,0,0,0-.2.482.658.658,0,0,0,.112.385.533.533,0,0,0,.431.231.514.514,0,0,0,.343-.135l.541-.482,5.1-4.533a.639.639,0,0,0,.206-.435l1.035-14.776a22.729,22.729,0,0,1,11.869,6.339,19.282,19.282,0,0,1,5.429,13.406c0,.08.005.159.005.241a.554.554,0,1,0,1.1,0,20.573,20.573,0,0,0-5.788-14.547M43.212,230.3,41.7,233.931l-4.249-4.744,4.1-9.98,3.156,2.544ZM35.611,237h-1.7l-1.189-6.8.259-.29h3.563l.259.29ZM24.866,221.529l2.569-2.308,4.62,9.981-4.236,4.73-1.35-3.244Zm16.281-7.823c.026,1.1-.2,2.99-.173,4.1a.615.615,0,0,0-.144.211l-4.383,10.668H33.056l-4.234-9.147c.028-1.409-.309-3.815-.275-5.318" transform="translate(0 -211.939)" fill="#1a1311"/>
            <path id="パス_988" data-name="パス 988" d="M41.033,70.886,36.412,60.9l-2.569,2.308,1.6,9.16,1.35,3.243Z" transform="translate(-8.977 -53.623)" fill="#fff"/>
            <path id="パス_989" data-name="パス 989" d="M58.227,63.432l-3.156-2.544-4.1,9.981,4.249,4.743,1.511-3.628Z" transform="translate(-13.52 -53.62)" fill="#fff"/>
          </g>
        </g>
        <g id="グループ_339" data-name="グループ 339" transform="translate(15.137 0)">
          <g id="グループ_338" data-name="グループ 338" clip-path="url(#clip-path)">
            <path id="パス_998" data-name="パス 998" d="M16.153,45.066c1-.1,1.992-.166,2.985-.207,1.091-.312,2.191-.594,3.311-.8.963-.214,1.935-.4,2.917-.538-.02-.885-.042-1.78-.065-2.654a12.722,12.722,0,0,1-7.107,2.689h-.006a11.364,11.364,0,0,1-5.86-2.1q-.029,1.118-.054,2.223c1.322.406,2.61.877,3.88,1.385" transform="translate(0.889 2.959)" fill="#fff"/>
            <path id="パス_999" data-name="パス 999" d="M.574,27.377a2.636,2.636,0,0,0-.486,2.3,4.108,4.108,0,0,0,3.766,3.236,3.41,3.41,0,0,0,.668-.066A21.829,21.829,0,0,0,12.043,43.59c-.024.888.1,3.99.19,4.283a.615.615,0,0,0,.535-.346c.195-.532.524.053.809.14a3.641,3.641,0,0,0,0-.988,19.488,19.488,0,0,1,0-2.106,9.968,9.968,0,0,0,5.5,1.94h.006a12.722,12.722,0,0,0,7.107-2.689c.024.874-.483,3.163-.463,4.048.293-.043.663.035.958,0,.1-.035.269-.313.372-.346-.027-1.131.332-3.538.3-4.623a20.419,20.419,0,0,0,6.358-10.119,3.421,3.421,0,0,0,.649.062,4.029,4.029,0,0,0,3.695-3.172,2.6,2.6,0,0,0-.477-2.261,4.117,4.117,0,0,0-3.2-1.524c4.308-5.325,3.081-11.184,1.835-14.4-1.96-5.062-6.138-9.339-9.122-9.339a2.44,2.44,0,0,0-1.448.443A11.265,11.265,0,0,0,18.118,0,18.425,18.425,0,0,0,2.992,8.691C-.167,13.725-.65,19.942,1.519,26.509a3.519,3.519,0,0,0-.945.868M4,9.326A17.206,17.206,0,0,1,18.118,1.193a9.961,9.961,0,0,1,7.119,2.639.585.585,0,0,0,.45.168.6.6,0,0,0,.428-.22,1.183,1.183,0,0,1,.981-.438c2.214,0,6.11,3.668,8.01,8.576,1.072,2.767,2.128,7.657-.957,12.273A20.348,20.348,0,0,0,28,11.95c.489-.835.87-1.5,1.086-1.891a.6.6,0,0,0-1.039-.586c-2.339,4.157-6.339,10.552-8.539,12.61L20.146,17a.6.6,0,0,0-.973-.533c-1.64,1.358-5.556,4.476-8.1,6.1l2.369-4.01a.6.6,0,0,0-.874-.779L4.93,23.582l-.921.614C4,24.227,4,24.258,4,24.291l-.006,0c-.011.009-.016.021-.027.03a.538.538,0,0,0-.079.091.516.516,0,0,0-.062.092.477.477,0,0,0-.035.1.591.591,0,0,0-.024.121c0,.013-.009.025-.009.039v1.056a4.747,4.747,0,0,0-1.142.191c-.08-.245-.163-.491-.236-.735l-.588.393.313-1.41C.71,18.74,1.337,13.572,4,9.326M1.531,28.088a2.944,2.944,0,0,1,2.224-1.065v.63a.583.583,0,0,0,.077.278l0,.581a.6.6,0,0,0,.593.6h0a.6.6,0,0,0,.6-.593l.013-2.666c.024-.306.044-.612.078-.912l5.749-4.371-1.9,3.211a.6.6,0,0,0,.7.87,21.455,21.455,0,0,0,4.293-2.624c.26.027.518.06.776.109a.572.572,0,0,0,.113.011.6.6,0,0,0,.584-.485.586.586,0,0,0-.212-.565c1.366-1.025,2.667-2.054,3.555-2.769l-.611,4.888a.6.6,0,0,0,.763.646c2.06-.619,6.071-6.874,8.455-10.866A19.8,19.8,0,0,1,33.178,26.56a.574.574,0,0,0-.088.336l.123,1.72a.6.6,0,0,0,.594.553h.044a.6.6,0,0,0,.552-.638l-.1-1.445.047-.006a2.909,2.909,0,0,1,2.278,1.047,1.429,1.429,0,0,1,.283,1.238,2.874,2.874,0,0,1-2.55,2.29,2.152,2.152,0,0,1-.836-.169.6.6,0,0,0-.812.413c-1.876,7.984-8.562,13.386-13.632,13.424C14.967,45.3,7.64,40.088,5.51,31.945a.6.6,0,0,0-.312-.384.6.6,0,0,0-.493-.017,2.2,2.2,0,0,1-.85.172A2.953,2.953,0,0,1,1.24,29.36a1.472,1.472,0,0,1,.292-1.272" transform="translate(0 0)" fill="#1a1311"/>
            <path id="パス_1000" data-name="パス 1000" d="M19,44.442C24.066,44.4,30.752,39,32.628,31.019a.6.6,0,0,1,.811-.413,2.158,2.158,0,0,0,.838.171,2.873,2.873,0,0,0,2.549-2.291,1.429,1.429,0,0,0-.282-1.238A2.919,2.919,0,0,0,34.266,26.2c-.015,0-.032.005-.048.006l.1,1.445a.6.6,0,0,1-.552.638h-.043a.6.6,0,0,1-.594-.553l-.124-1.72a.585.585,0,0,1,.089-.336A19.809,19.809,0,0,0,27.3,12.117c-2.384,3.992-6.395,10.247-8.455,10.866a.6.6,0,0,1-.557-.117.594.594,0,0,1-.206-.529l.61-4.888c-.888.715-2.188,1.744-3.554,2.769a.589.589,0,0,1-.373,1.05.507.507,0,0,1-.113-.011c-.257-.048-.517-.083-.775-.109a21.523,21.523,0,0,1-4.294,2.625.6.6,0,0,1-.7-.871l1.9-3.211L5.034,24.063c-.035.3-.056.606-.078.912L4.943,27.64a.6.6,0,0,1-.6.593h0a.6.6,0,0,1-.594-.6l0-.581a.582.582,0,0,1-.077-.277v-.631A2.946,2.946,0,0,0,1.451,27.21a1.471,1.471,0,0,0-.292,1.273,2.953,2.953,0,0,0,2.614,2.355,2.224,2.224,0,0,0,.852-.172.577.577,0,0,1,.227-.045.6.6,0,0,1,.577.445C7.558,39.211,14.886,44.427,19,44.442m5.555-18.653a.9.9,0,0,1,.888-.972,1,1,0,0,1,1,.972,1.054,1.054,0,0,1-1,1.036.963.963,0,0,1-.888-1.036M19.593,29.1v3.38a.6.6,0,1,1-1.193,0V29.1a.6.6,0,0,1,1.193,0m.154,12.423c-1.327,0-2.96-1.1-3.569-4.175a.593.593,0,0,1,.061-.379c-.108-.061-.224-.11-.33-.178a.6.6,0,1,1,.639-1.007,5.832,5.832,0,0,0,6.22,0,.6.6,0,1,1,.639,1.007c-.06.039-.127.065-.189.1a.593.593,0,0,1,.1.455c-.608,3.078-2.241,4.175-3.567,4.175m3.367-21.435a10.4,10.4,0,0,1,3.906,0,.6.6,0,0,1-.11,1.182.507.507,0,0,1-.113-.011,9.3,9.3,0,0,0-3.461,0,.591.591,0,0,1-.7-.473.6.6,0,0,1,.475-.7M12.47,24.907a.963.963,0,0,1,.891,1.035.9.9,0,1,1-1.794,0,.973.973,0,0,1,.9-1.035" transform="translate(0.081 0.877)" fill="#fff"/>
            <path id="パス_1001" data-name="パス 1001" d="M20.964,35.722a6.773,6.773,0,0,1-4.623.071c.428,1.726,1.306,2.827,2.3,2.827s1.9-1.132,2.32-2.9" transform="translate(1.184 2.587)" fill="#fff"/>
            <path id="パス_1002" data-name="パス 1002" d="M23.856,25.968a1.054,1.054,0,0,0,1-1.036,1,1,0,0,0-1-.972.9.9,0,0,0-.888.972.962.962,0,0,0,.888,1.036" transform="translate(1.664 1.735)" fill="#1a1311"/>
            <path id="パス_1003" data-name="パス 1003" d="M11.764,26.068a.921.921,0,0,0,.891-.989.963.963,0,0,0-.891-1.035.973.973,0,0,0-.9,1.035.93.93,0,0,0,.9.989" transform="translate(0.787 1.741)" fill="#1a1311"/>
            <path id="パス_1004" data-name="パス 1004" d="M17.233,27.991v3.38a.6.6,0,0,0,1.194,0v-3.38a.6.6,0,0,0-1.194,0" transform="translate(1.248 1.984)" fill="#1a1311"/>
            <path id="パス_1005" data-name="パス 1005" d="M21.885,20.733a9.245,9.245,0,0,1,3.46,0,.572.572,0,0,0,.113.011.6.6,0,0,0,.11-1.182,10.362,10.362,0,0,0-3.907,0,.6.6,0,1,0,.224,1.171" transform="translate(1.534 1.403)" fill="#1a1311"/>
            <path id="パス_1006" data-name="パス 1006" d="M2.284,25.2c.072.243.156.49.235.735a4.764,4.764,0,0,1,1.143-.191V24.689c0-.014.006-.026.008-.039a.529.529,0,0,1,.025-.121.542.542,0,0,1,.034-.1.516.516,0,0,1,.062-.092.544.544,0,0,1,.08-.091c.01-.009.015-.021.026-.03l.006,0c0-.032.006-.063.011-.094l.922-.615L12.47,17.7a.6.6,0,0,1,.875.779l-2.369,4.01c2.547-1.623,6.464-4.741,8.1-6.1a.6.6,0,0,1,.973.533L19.416,22c2.2-2.058,6.2-8.453,8.538-12.61a.6.6,0,0,1,1.04.586c-.218.387-.6,1.055-1.086,1.891a20.341,20.341,0,0,1,6.147,12.242c3.084-4.616,2.029-9.506.958-12.273-1.9-4.909-5.8-8.576-8.011-8.576a1.185,1.185,0,0,0-.981.438.6.6,0,0,1-.428.22.588.588,0,0,1-.45-.168,9.959,9.959,0,0,0-7.118-2.639A17.21,17.21,0,0,0,3.908,9.245C1.243,13.491.617,18.659,2.01,24.184L1.7,25.595Z" transform="translate(0.093 0.08)" fill="#5f5e5e"/>
            <path id="パス_1007" data-name="パス 1007" d="M22.335,35.754a.6.6,0,0,0-.1-.455c.062-.036.129-.063.19-.1a.6.6,0,0,0-.64-1.007,5.832,5.832,0,0,1-6.22,0,.6.6,0,0,0-.639,1.007c.107.068.222.117.33.178a.587.587,0,0,0-.06.379c.608,3.078,2.242,4.176,3.568,4.176s2.96-1.1,3.568-4.176m-3.568,2.982c-1,0-1.875-1.1-2.3-2.827a6.77,6.77,0,0,0,4.622-.071c-.421,1.766-1.309,2.9-2.32,2.9" transform="translate(1.061 2.469)" fill="#1a1311"/>
          </g>
        </g>
      </g>
      <g id="グループ_344" data-name="グループ 344" transform="translate(12217.11 -2543.899)">
        <path id="パス_1009" data-name="パス 1009" d="M5.627-1.249c1.47,0,4.094-1.37,5.167-.521,1.046.825.46,2.752.46,3.742,0,1.878-2.519,3.4-5.627,3.4S0,3.851,0,1.972A4.483,4.483,0,0,1,1.615-1.77C2.5-2.392,4.3-1.249,5.627-1.249Z" transform="translate(0 2.047)" fill="#fff"/>
        <path id="パス_1008" data-name="パス 1008" d="M33.234,52.136a4.623,4.623,0,0,0,3.116-1.211.579.579,0,1,0-.78-.857,3.455,3.455,0,0,1-4.671,0,.579.579,0,0,0-.78.857,4.622,4.622,0,0,0,3.115,1.211" transform="translate(-27.601 -47.333)" fill="#1a1311"/>
      </g>
    </g>
    <g id="グループ_1423" data-name="グループ 1423" transform="translate(-923.41 -1008.709)">
      <g id="グループ_263" data-name="グループ 263" transform="translate(1179 3965.708)">
        <rect id="長方形_85" data-name="長方形 85" width="71.99" height="21" rx="10.5" transform="translate(0)" fill="#bfc9e4"/>
        <path id="パス_1794" data-name="パス 1794" d="M.516,0H6.468V-1.488H4.548c-.42,0-1.008.048-1.452.1C4.716-2.976,6.048-4.7,6.048-6.312a2.6,2.6,0,0,0-2.8-2.736A3.565,3.565,0,0,0,.432-7.7l.96.96a2.323,2.323,0,0,1,1.632-.912,1.268,1.268,0,0,1,1.332,1.44c0,1.368-1.428,3.036-3.84,5.2ZM10.608.168c1.812,0,3-1.584,3-4.644s-1.188-4.572-3-4.572S7.6-7.548,7.6-4.476,8.8.168,10.608.168Zm0-1.38c-.768,0-1.344-.768-1.344-3.264s.576-3.2,1.344-3.2,1.332.72,1.332,3.2S11.376-1.212,10.608-1.212Zm14.9-6.936a10.839,10.839,0,0,0-1.728-1.932l-1.068.66A10.21,10.21,0,0,1,24.36-7.4Zm-7.956-1.92a12.543,12.543,0,0,1-3.276,4.68,9.165,9.165,0,0,1,.792,1.452A11.307,11.307,0,0,0,16.32-5.28v6.3h1.488V-7.416a19.065,19.065,0,0,0,1.116-2.208ZM25.692-5.76l-.2-1.344-3.42.444c-.084-1.02-.132-2.148-.156-3.324H20.46c.036,1.26.108,2.436.192,3.516l-2.424.324.2,1.38L20.8-5.088c.432,3.66,1.38,5.916,3.408,6.108.672.036,1.32-.516,1.62-2.832a4.91,4.91,0,0,1-1.164-.816C24.564-1.3,24.42-.7,24.144-.72c-.96-.12-1.6-1.9-1.932-4.56Zm6.288-.708h2.112v.84H31.98Zm0-1.932h2.112v.828H31.98Zm5.7.828H35.532V-8.4H37.68Zm0,1.944H35.532v-.84H37.68Zm-2.46,2c.048-.276.1-.54.132-.828H39.18V-9.576H30.552v5.124h3.3c-.036.288-.084.564-.132.828H29.748V-2.34h3.5c-.564.96-1.68,1.668-4.02,2.124a3.83,3.83,0,0,1,.744,1.248c3.024-.66,4.3-1.824,4.9-3.372h3.156C37.9-1.152,37.716-.552,37.5-.372a.754.754,0,0,1-.528.12c-.324,0-1.08-.012-1.824-.072A2.829,2.829,0,0,1,35.616.984c.756.012,1.488.024,1.908-.012A1.687,1.687,0,0,0,38.724.5c.384-.384.624-1.368.816-3.552.024-.192.048-.576.048-.576ZM49.572-.7V-3.1h2.2V-4.428h-2.2V-6.4H52.02V-7.74H49.572v-2.352H48.144V-7.74h-.96c.12-.54.216-1.1.3-1.668L46.092-9.6a14.524,14.524,0,0,1-.636,2.928,13.759,13.759,0,0,0-.66-1.512l-.7.288v-2.268H42.672v2.448L41.664-7.86a14.262,14.262,0,0,1-.588,3.12l1.056.384a15.292,15.292,0,0,0,.54-3.18v8.58H44.1v-8.2a8.344,8.344,0,0,1,.456,1.38l.684-.312c-.12.252-.24.48-.36.7a12.619,12.619,0,0,1,1.272.648A8.2,8.2,0,0,0,46.824-6.4h1.32v1.968H45.828V-3.1h2.316V-.7h-3.2V.66H52.4V-.7Z" transform="translate(9.495 15)" fill="#333"/>
      </g>
    </g>
  </g>
</svg>
